G04 #@! TF.GenerationSoftware,KiCad,Pcbnew,(5.1.5-0-10_14)*
G04 #@! TF.CreationDate,2021-06-01T12:28:28-04:00*
G04 #@! TF.ProjectId,ESLO_RB2,45534c4f-5f52-4423-922e-6b696361645f,rev?*
G04 #@! TF.SameCoordinates,Original*
G04 #@! TF.FileFunction,Copper,L3,Inr*
G04 #@! TF.FilePolarity,Positive*
%FSLAX46Y46*%
G04 Gerber Fmt 4.6, Leading zero omitted, Abs format (unit mm)*
G04 Created by KiCad (PCBNEW (5.1.5-0-10_14)) date 2021-06-01 12:28:28*
%MOMM*%
%LPD*%
G04 APERTURE LIST*
%ADD10C,0.254000*%
%ADD11C,0.101600*%
%ADD12C,0.300000*%
%ADD13C,0.150000*%
G04 APERTURE END LIST*
D10*
X212900000Y-80200004D03*
X207550000Y-88650000D03*
X212300000Y-78300000D03*
X212900000Y-78300000D03*
X213500000Y-78300000D03*
X214100000Y-78300000D03*
X214700000Y-78300000D03*
X215300000Y-78300000D03*
X215900000Y-78300000D03*
X216500000Y-78300000D03*
X217100000Y-78300000D03*
X218500000Y-78300000D03*
X219100000Y-78300000D03*
X214900000Y-83800000D03*
X213300000Y-83000000D03*
X224799998Y-90900000D03*
X211250000Y-90100002D03*
X214900000Y-84599998D03*
X215700000Y-82998336D03*
X212300000Y-78900000D03*
X212300000Y-79500000D03*
X219100000Y-78900000D03*
X219100000Y-79500000D03*
X219500000Y-79900000D03*
X220125000Y-80200000D03*
X220700000Y-80500000D03*
X221325000Y-80925000D03*
X212900000Y-78900000D03*
X212900000Y-79500000D03*
X218500000Y-78900000D03*
X218500000Y-79500000D03*
X219550000Y-80600000D03*
X220250000Y-80900000D03*
X222600000Y-82075000D03*
X224150000Y-84225000D03*
X224525000Y-84975000D03*
X224875000Y-85875000D03*
X225100000Y-86750000D03*
X225200000Y-87600000D03*
X224750000Y-91725000D03*
X224450000Y-92575000D03*
X224075000Y-93275000D03*
X223675000Y-93925000D03*
X223225000Y-94625000D03*
X210425000Y-96650000D03*
X209725000Y-96100000D03*
X209025000Y-95525000D03*
X208400000Y-94925000D03*
X207875000Y-94200000D03*
X208025000Y-83575000D03*
X212225000Y-80725000D03*
X216800000Y-80675000D03*
X208050000Y-87300000D03*
X219550000Y-81200000D03*
X224922631Y-88496758D03*
X219240000Y-83670000D03*
X217300000Y-82200000D03*
X208700000Y-87150002D03*
X211500000Y-88400000D03*
X213900000Y-91300000D03*
X217600000Y-90450000D03*
X221100000Y-84500000D03*
X213900004Y-92150000D03*
X219800000Y-88700000D03*
X222050000Y-88600000D03*
X217295788Y-85394986D03*
X209275000Y-89650000D03*
X209450000Y-95650000D03*
X221950000Y-95600000D03*
X212450000Y-84650000D03*
X218500000Y-81250000D03*
X222100000Y-90700000D03*
X222400000Y-88250000D03*
X223350000Y-83150000D03*
X222200000Y-81650000D03*
X220050000Y-90700000D03*
X218400000Y-90706820D03*
X209700000Y-83850000D03*
X216500000Y-83800000D03*
X222200000Y-84900000D03*
X222900000Y-90400000D03*
X212150000Y-86700000D03*
X214008011Y-85691989D03*
X209150000Y-91075000D03*
X210163679Y-91441988D03*
X223800004Y-90947010D03*
X213325000Y-82200000D03*
X214550000Y-85150000D03*
X216398036Y-82658416D03*
X215700000Y-81399994D03*
X215867087Y-83283155D03*
X214899996Y-82200000D03*
X211545391Y-91245383D03*
X211950000Y-91645990D03*
X214478537Y-87999991D03*
X214900000Y-87000000D03*
X210200000Y-91950000D03*
X212450000Y-91250000D03*
X212950000Y-91900000D03*
X210599996Y-91900000D03*
X214224527Y-88537084D03*
X214900000Y-86200000D03*
X213434055Y-91857559D03*
X224925004Y-88075002D03*
X222150000Y-86150000D03*
X221600000Y-84245990D03*
X219200000Y-81500000D03*
X223300000Y-91200000D03*
X218100000Y-82200000D03*
X213300000Y-85400000D03*
X212450000Y-85400000D03*
X215700000Y-85400000D03*
X211800000Y-85000000D03*
X221450000Y-93100000D03*
X218950000Y-94350000D03*
X219450000Y-94650000D03*
X216900000Y-95500000D03*
X220450000Y-93100000D03*
X217900000Y-94400000D03*
X220950000Y-93100000D03*
X218400000Y-94400000D03*
X216100000Y-94050000D03*
X210450000Y-93100000D03*
X213000000Y-94400000D03*
X210950000Y-93100000D03*
X213500000Y-94350000D03*
X215300000Y-94050000D03*
X209950000Y-93100000D03*
X212450000Y-94350000D03*
X211950000Y-94250000D03*
X214500000Y-95500000D03*
X214100000Y-87000000D03*
X218450000Y-92000000D03*
X220800000Y-91950000D03*
X213700000Y-88075000D03*
X221200000Y-91950000D03*
X215650000Y-91600000D03*
X218950000Y-91591180D03*
X212725113Y-88110292D03*
X219450000Y-91870590D03*
X216297276Y-91870590D03*
X213156933Y-88455149D03*
X213095387Y-86795387D03*
X217300000Y-86200000D03*
X222000000Y-92600000D03*
X209450000Y-92600000D03*
X208050000Y-85450000D03*
X208617908Y-85469674D03*
X208650000Y-86750000D03*
X208450000Y-85754010D03*
X214100000Y-84600000D03*
X216599988Y-84900000D03*
X215700000Y-83800000D03*
X216950000Y-83400000D03*
X216620000Y-83060000D03*
X214100000Y-82200010D03*
X208650000Y-93100000D03*
X221050000Y-96175001D03*
X209150000Y-84975000D03*
D11*
X214100000Y-83000000D02*
X214900000Y-83800000D01*
X213300000Y-83000000D02*
X214100000Y-83000000D01*
X214900000Y-83800000D02*
X214900000Y-84599998D01*
X214900000Y-83800000D02*
X215700000Y-83000000D01*
X215700000Y-83000000D02*
X215700000Y-82998336D01*
D12*
X208350000Y-87600000D02*
X208050000Y-87300000D01*
X208350000Y-90025000D02*
X208350000Y-87600000D01*
X210925002Y-90425000D02*
X208750000Y-90425000D01*
X208750000Y-90425000D02*
X208350000Y-90025000D01*
X211250000Y-90100002D02*
X210925002Y-90425000D01*
D11*
X219240000Y-83670000D02*
X218770000Y-83670000D01*
X218770000Y-83670000D02*
X217300000Y-82200000D01*
X210250002Y-87150002D02*
X211500000Y-88400000D01*
X208700000Y-87150002D02*
X210250002Y-87150002D01*
X215450000Y-87600000D02*
X215450000Y-88225000D01*
X217700000Y-85350000D02*
X215450000Y-87600000D01*
X220050000Y-85350000D02*
X217700000Y-85350000D01*
X221100000Y-84500000D02*
X220900000Y-84500000D01*
X220900000Y-84500000D02*
X220050000Y-85350000D01*
X213900000Y-89775000D02*
X213900000Y-91300000D01*
X215450000Y-88225000D02*
X213900000Y-89775000D01*
X215000000Y-91300000D02*
X213900000Y-91300000D01*
X215850000Y-90450000D02*
X215000000Y-91300000D01*
X217600000Y-90450000D02*
X215850000Y-90450000D01*
X213900000Y-92149996D02*
X213900004Y-92150000D01*
X213900000Y-91300000D02*
X213900000Y-92149996D01*
X221950000Y-88700000D02*
X222050000Y-88600000D01*
X219800000Y-88700000D02*
X221950000Y-88700000D01*
X216744775Y-85945999D02*
X217295788Y-85394986D01*
X213304001Y-85945999D02*
X216744775Y-85945999D01*
X212250000Y-87000000D02*
X213304001Y-85945999D01*
X212250000Y-88650000D02*
X212250000Y-87000000D01*
X211725000Y-89175000D02*
X212250000Y-88650000D01*
X209750000Y-89175000D02*
X211725000Y-89175000D01*
X209275000Y-89650000D02*
X209750000Y-89175000D01*
X222900000Y-85600000D02*
X222200000Y-84900000D01*
X222900000Y-90400000D02*
X222900000Y-85600000D01*
X212150000Y-86700000D02*
X213158011Y-85691989D01*
X221800000Y-83900000D02*
X221100000Y-83900000D01*
X213158011Y-85691989D02*
X214008011Y-85691989D01*
X221100000Y-83900000D02*
X219900000Y-85100000D01*
X216618011Y-85691989D02*
X214008011Y-85691989D01*
X219900000Y-85100000D02*
X217210000Y-85100000D01*
X222200000Y-84900000D02*
X222200000Y-84300000D01*
X217210000Y-85100000D02*
X216618011Y-85691989D01*
X222200000Y-84300000D02*
X221800000Y-83900000D01*
X213970395Y-84970395D02*
X214550000Y-84970395D01*
X212650000Y-83650000D02*
X213970395Y-84970395D01*
X212650000Y-82600000D02*
X212650000Y-83650000D01*
X214550000Y-84970395D02*
X214550000Y-85150000D01*
X213050000Y-82200000D02*
X212650000Y-82600000D01*
X213325000Y-82200000D02*
X213050000Y-82200000D01*
X215700000Y-81960380D02*
X215700000Y-81399994D01*
X216398036Y-82658416D02*
X215700000Y-81960380D01*
X215994086Y-82916498D02*
X215277588Y-82200000D01*
X215277588Y-82200000D02*
X214899996Y-82200000D01*
X215994086Y-83156156D02*
X215994086Y-82916498D01*
X215867087Y-83283155D02*
X215994086Y-83156156D01*
X214150933Y-87999991D02*
X214478537Y-87999991D01*
X211545391Y-90605533D02*
X214150933Y-87999991D01*
X211545391Y-91245383D02*
X211545391Y-90605533D01*
X212200000Y-91000000D02*
X212200000Y-90950000D01*
X212450000Y-91250000D02*
X212200000Y-91000000D01*
X210504002Y-91595998D02*
X211554002Y-91595998D01*
X211554002Y-91595998D02*
X212200000Y-90950000D01*
X210200000Y-91900000D02*
X210504002Y-91595998D01*
X210200000Y-91950000D02*
X210200000Y-91900000D01*
X214900000Y-87975922D02*
X214900000Y-87000000D01*
X214621921Y-88254001D02*
X214900000Y-87975922D01*
X212200000Y-90950000D02*
X212200000Y-90202386D01*
X214148385Y-88254001D02*
X214621921Y-88254001D01*
X212200000Y-90202386D02*
X214148385Y-88254001D01*
X212950000Y-91900000D02*
X210599996Y-91900000D01*
X212950000Y-91900000D02*
X212950000Y-89811611D01*
X212950000Y-89811611D02*
X214224527Y-88537084D01*
X214900000Y-86200000D02*
X215200000Y-86500000D01*
X213434055Y-89765945D02*
X213434055Y-91857559D01*
X215200000Y-86500000D02*
X215200000Y-88000000D01*
X215200000Y-88000000D02*
X213434055Y-89765945D01*
X221600000Y-85600000D02*
X221600000Y-84245990D01*
X222150000Y-86150000D02*
X221600000Y-85600000D01*
X223300000Y-91200000D02*
X223300000Y-84150000D01*
X220650000Y-81500000D02*
X219200000Y-81500000D01*
X223300000Y-84150000D02*
X220650000Y-81500000D01*
X219200000Y-81500000D02*
X218800000Y-81500000D01*
X218800000Y-81500000D02*
X218100000Y-82200000D01*
X212450000Y-85400000D02*
X213300000Y-85400000D01*
X215520395Y-85400000D02*
X215516394Y-85404001D01*
X215516394Y-85404001D02*
X214152539Y-85404001D01*
X215700000Y-85400000D02*
X215520395Y-85400000D01*
X214152539Y-85404001D02*
X213748538Y-85000000D01*
X213748538Y-85000000D02*
X211800000Y-85000000D01*
X220900000Y-93650000D02*
X219650000Y-93650000D01*
X219650000Y-93650000D02*
X218950000Y-94350000D01*
X221450000Y-93100000D02*
X220900000Y-93650000D01*
X218600000Y-95500000D02*
X219450000Y-94650000D01*
X216900000Y-95500000D02*
X218600000Y-95500000D01*
X219200000Y-93100000D02*
X217900000Y-94400000D01*
X220450000Y-93100000D02*
X219200000Y-93100000D01*
X216100000Y-94050000D02*
X216800000Y-94050000D01*
X216800000Y-94050000D02*
X217550000Y-94800000D01*
X218000000Y-94800000D02*
X218400000Y-94400000D01*
X217550000Y-94800000D02*
X218000000Y-94800000D01*
X220650000Y-93400000D02*
X220950000Y-93100000D01*
X218400000Y-94400000D02*
X219400000Y-93400000D01*
X219400000Y-93400000D02*
X220650000Y-93400000D01*
X210750000Y-93400000D02*
X210450000Y-93100000D01*
X212000000Y-93400000D02*
X210750000Y-93400000D01*
X213000000Y-94400000D02*
X212000000Y-93400000D01*
X213800000Y-94050000D02*
X213500000Y-94350000D01*
X215300000Y-94050000D02*
X213800000Y-94050000D01*
X212250000Y-93100000D02*
X210950000Y-93100000D01*
X213500000Y-94350000D02*
X212250000Y-93100000D01*
X211750000Y-93650000D02*
X212450000Y-94350000D01*
X210500000Y-93650000D02*
X211750000Y-93650000D01*
X209950000Y-93100000D02*
X210500000Y-93650000D01*
X213200000Y-95500000D02*
X214500000Y-95500000D01*
X211950000Y-94250000D02*
X213200000Y-95500000D01*
X220600000Y-92150000D02*
X220800000Y-91950000D01*
X218600000Y-92150000D02*
X220600000Y-92150000D01*
X218450000Y-92000000D02*
X218600000Y-92150000D01*
X214100000Y-87675000D02*
X213700000Y-88075000D01*
X214100000Y-87000000D02*
X214100000Y-87675000D01*
X220841180Y-91591180D02*
X218950000Y-91591180D01*
X221200000Y-91950000D02*
X220841180Y-91591180D01*
X215785819Y-91464181D02*
X215650000Y-91600000D01*
X218950000Y-91591180D02*
X218823001Y-91464181D01*
X218823001Y-91464181D02*
X215785819Y-91464181D01*
X216297276Y-91851460D02*
X216297276Y-91870590D01*
X218571921Y-91745999D02*
X216402737Y-91745999D01*
X218696512Y-91870590D02*
X218571921Y-91745999D01*
X216402737Y-91745999D02*
X216297276Y-91851460D01*
X219450000Y-91870590D02*
X218696512Y-91870590D01*
X213156933Y-88455149D02*
X213156933Y-86856933D01*
X213156933Y-86856933D02*
X213095387Y-86795387D01*
X217300000Y-86200000D02*
X217300000Y-87250000D01*
X222000000Y-91950000D02*
X222000000Y-92600000D01*
X217300000Y-87250000D02*
X222000000Y-91950000D01*
X222000000Y-92600000D02*
X221770998Y-92829002D01*
X221770998Y-92829002D02*
X209679002Y-92829002D01*
X209679002Y-92829002D02*
X209450000Y-92600000D01*
X208069674Y-85469674D02*
X208050000Y-85450000D01*
X208617908Y-85469674D02*
X208069674Y-85469674D01*
X208650000Y-86750000D02*
X208450000Y-86550000D01*
X208450000Y-86550000D02*
X208450000Y-85754010D01*
X214813536Y-84900000D02*
X216599988Y-84900000D01*
X214513536Y-84600000D02*
X214813536Y-84900000D01*
X214100000Y-84600000D02*
X214513536Y-84600000D01*
X216125000Y-83400000D02*
X216950000Y-83400000D01*
X215725000Y-83800000D02*
X216125000Y-83400000D01*
X215700000Y-83800000D02*
X215725000Y-83800000D01*
X214354011Y-81945999D02*
X214100000Y-82200010D01*
X216424524Y-83060000D02*
X215310523Y-81945999D01*
X215310523Y-81945999D02*
X214354011Y-81945999D01*
X216620000Y-83060000D02*
X216424524Y-83060000D01*
X211725001Y-96175001D02*
X221050000Y-96175001D01*
X208650000Y-93100000D02*
X211725001Y-96175001D01*
D13*
G36*
X218161527Y-79602675D02*
G01*
X218188062Y-79666734D01*
X218226584Y-79724387D01*
X218275613Y-79773416D01*
X218333266Y-79811938D01*
X218397325Y-79838473D01*
X218465331Y-79852000D01*
X218534669Y-79852000D01*
X218602675Y-79838473D01*
X218666734Y-79811938D01*
X218724387Y-79773416D01*
X218773416Y-79724387D01*
X218800000Y-79684601D01*
X218826584Y-79724387D01*
X218875613Y-79773416D01*
X218933266Y-79811938D01*
X218997325Y-79838473D01*
X219065331Y-79852000D01*
X219134669Y-79852000D01*
X219151310Y-79848690D01*
X219148000Y-79865331D01*
X219148000Y-79934669D01*
X219161527Y-80002675D01*
X219188062Y-80066734D01*
X219226584Y-80124387D01*
X219275613Y-80173416D01*
X219333266Y-80211938D01*
X219397325Y-80238473D01*
X219465331Y-80252000D01*
X219495221Y-80252000D01*
X219447325Y-80261527D01*
X219383266Y-80288062D01*
X219325613Y-80326584D01*
X219276584Y-80375613D01*
X219238062Y-80433266D01*
X219211527Y-80497325D01*
X219198000Y-80565331D01*
X219198000Y-80634669D01*
X219211527Y-80702675D01*
X219238062Y-80766734D01*
X219276584Y-80824387D01*
X219325613Y-80873416D01*
X219365399Y-80900000D01*
X219325613Y-80926584D01*
X219276584Y-80975613D01*
X219238062Y-81033266D01*
X219211527Y-81097325D01*
X219201447Y-81148000D01*
X219165331Y-81148000D01*
X219097325Y-81161527D01*
X219033266Y-81188062D01*
X218979181Y-81224200D01*
X218813531Y-81224200D01*
X218799999Y-81222867D01*
X218786467Y-81224200D01*
X218786456Y-81224200D01*
X218745934Y-81228191D01*
X218697848Y-81242778D01*
X218693945Y-81243962D01*
X218646032Y-81269572D01*
X218614556Y-81295404D01*
X218604037Y-81304037D01*
X218595406Y-81314554D01*
X218061124Y-81848837D01*
X217997325Y-81861527D01*
X217933266Y-81888062D01*
X217875613Y-81926584D01*
X217826584Y-81975613D01*
X217788062Y-82033266D01*
X217761527Y-82097325D01*
X217748000Y-82165331D01*
X217748000Y-82234669D01*
X217753783Y-82263744D01*
X217651163Y-82161124D01*
X217638473Y-82097325D01*
X217611938Y-82033266D01*
X217573416Y-81975613D01*
X217524387Y-81926584D01*
X217466734Y-81888062D01*
X217402675Y-81861527D01*
X217334669Y-81848000D01*
X217265331Y-81848000D01*
X217197325Y-81861527D01*
X217133266Y-81888062D01*
X217075613Y-81926584D01*
X217026584Y-81975613D01*
X216988062Y-82033266D01*
X216961527Y-82097325D01*
X216948000Y-82165331D01*
X216948000Y-82234669D01*
X216961527Y-82302675D01*
X216988062Y-82366734D01*
X217026584Y-82424387D01*
X217075613Y-82473416D01*
X217133266Y-82511938D01*
X217197325Y-82538473D01*
X217261124Y-82551163D01*
X218565406Y-83855446D01*
X218574037Y-83865963D01*
X218584554Y-83874594D01*
X218584557Y-83874597D01*
X218616032Y-83900428D01*
X218626528Y-83906038D01*
X218663945Y-83926038D01*
X218715934Y-83941809D01*
X218756456Y-83945800D01*
X218756465Y-83945800D01*
X218770000Y-83947133D01*
X218783534Y-83945800D01*
X219019181Y-83945800D01*
X219073266Y-83981938D01*
X219137325Y-84008473D01*
X219205331Y-84022000D01*
X219274669Y-84022000D01*
X219342675Y-84008473D01*
X219406734Y-83981938D01*
X219464387Y-83943416D01*
X219513416Y-83894387D01*
X219551938Y-83836734D01*
X219578473Y-83772675D01*
X219592000Y-83704669D01*
X219592000Y-83635331D01*
X219578473Y-83567325D01*
X219551938Y-83503266D01*
X219513416Y-83445613D01*
X219464387Y-83396584D01*
X219406734Y-83358062D01*
X219342675Y-83331527D01*
X219274669Y-83318000D01*
X219205331Y-83318000D01*
X219137325Y-83331527D01*
X219073266Y-83358062D01*
X219019181Y-83394200D01*
X218884240Y-83394200D01*
X218036256Y-82546217D01*
X218065331Y-82552000D01*
X218134669Y-82552000D01*
X218202675Y-82538473D01*
X218266734Y-82511938D01*
X218324387Y-82473416D01*
X218373416Y-82424387D01*
X218411938Y-82366734D01*
X218438473Y-82302675D01*
X218451163Y-82238876D01*
X218914240Y-81775800D01*
X218979181Y-81775800D01*
X219033266Y-81811938D01*
X219097325Y-81838473D01*
X219165331Y-81852000D01*
X219234669Y-81852000D01*
X219302675Y-81838473D01*
X219366734Y-81811938D01*
X219420819Y-81775800D01*
X220535761Y-81775800D01*
X223024201Y-84264241D01*
X223024201Y-85334161D01*
X222551163Y-84861124D01*
X222538473Y-84797325D01*
X222511938Y-84733266D01*
X222475800Y-84679181D01*
X222475800Y-84313533D01*
X222477133Y-84299999D01*
X222475800Y-84286465D01*
X222475800Y-84286456D01*
X222471809Y-84245934D01*
X222456038Y-84193945D01*
X222435776Y-84156038D01*
X222430428Y-84146032D01*
X222404596Y-84114556D01*
X222404594Y-84114554D01*
X222395963Y-84104037D01*
X222385446Y-84095406D01*
X222004598Y-83714559D01*
X221995963Y-83704037D01*
X221953967Y-83669572D01*
X221906055Y-83643962D01*
X221854066Y-83628191D01*
X221813544Y-83624200D01*
X221813534Y-83624200D01*
X221800000Y-83622867D01*
X221786466Y-83624200D01*
X221113533Y-83624200D01*
X221099999Y-83622867D01*
X221086465Y-83624200D01*
X221086456Y-83624200D01*
X221045934Y-83628191D01*
X221011664Y-83638587D01*
X220993945Y-83643962D01*
X220946032Y-83669572D01*
X220914556Y-83695404D01*
X220904037Y-83704037D01*
X220895406Y-83714554D01*
X219785761Y-84824200D01*
X217223534Y-84824200D01*
X217210000Y-84822867D01*
X217196465Y-84824200D01*
X217196456Y-84824200D01*
X217155934Y-84828191D01*
X217103945Y-84843962D01*
X217081357Y-84856036D01*
X217056032Y-84869572D01*
X217024557Y-84895403D01*
X217024554Y-84895406D01*
X217014037Y-84904037D01*
X217005406Y-84914554D01*
X216943719Y-84976241D01*
X216951988Y-84934669D01*
X216951988Y-84865331D01*
X216938461Y-84797325D01*
X216911926Y-84733266D01*
X216873404Y-84675613D01*
X216824375Y-84626584D01*
X216766722Y-84588062D01*
X216702663Y-84561527D01*
X216634657Y-84548000D01*
X216565319Y-84548000D01*
X216497313Y-84561527D01*
X216433254Y-84588062D01*
X216379169Y-84624200D01*
X215252000Y-84624200D01*
X215252000Y-84565329D01*
X215238473Y-84497323D01*
X215211938Y-84433264D01*
X215175800Y-84379179D01*
X215175800Y-84020819D01*
X215211938Y-83966734D01*
X215238473Y-83902675D01*
X215251163Y-83838876D01*
X215353783Y-83736256D01*
X215348000Y-83765331D01*
X215348000Y-83834669D01*
X215361527Y-83902675D01*
X215388062Y-83966734D01*
X215426584Y-84024387D01*
X215475613Y-84073416D01*
X215533266Y-84111938D01*
X215597325Y-84138473D01*
X215665331Y-84152000D01*
X215734669Y-84152000D01*
X215802675Y-84138473D01*
X215866734Y-84111938D01*
X215924387Y-84073416D01*
X215973416Y-84024387D01*
X216011938Y-83966734D01*
X216038473Y-83902675D01*
X216044956Y-83870084D01*
X216239240Y-83675800D01*
X216729181Y-83675800D01*
X216783266Y-83711938D01*
X216847325Y-83738473D01*
X216915331Y-83752000D01*
X216984669Y-83752000D01*
X217052675Y-83738473D01*
X217116734Y-83711938D01*
X217174387Y-83673416D01*
X217223416Y-83624387D01*
X217261938Y-83566734D01*
X217288473Y-83502675D01*
X217302000Y-83434669D01*
X217302000Y-83365331D01*
X217288473Y-83297325D01*
X217261938Y-83233266D01*
X217223416Y-83175613D01*
X217174387Y-83126584D01*
X217116734Y-83088062D01*
X217052675Y-83061527D01*
X216984669Y-83048000D01*
X216972000Y-83048000D01*
X216972000Y-83025331D01*
X216958473Y-82957325D01*
X216931938Y-82893266D01*
X216893416Y-82835613D01*
X216844387Y-82786584D01*
X216786734Y-82748062D01*
X216742727Y-82729833D01*
X216750036Y-82693085D01*
X216750036Y-82623747D01*
X216736509Y-82555741D01*
X216709974Y-82491682D01*
X216671452Y-82434029D01*
X216622423Y-82385000D01*
X216564770Y-82346478D01*
X216500711Y-82319943D01*
X216436913Y-82307253D01*
X215975800Y-81846141D01*
X215975800Y-81620813D01*
X216011938Y-81566728D01*
X216038473Y-81502669D01*
X216052000Y-81434663D01*
X216052000Y-81365325D01*
X216038473Y-81297319D01*
X216011938Y-81233260D01*
X215973416Y-81175607D01*
X215924387Y-81126578D01*
X215866734Y-81088056D01*
X215802675Y-81061521D01*
X215734669Y-81047994D01*
X215665331Y-81047994D01*
X215597325Y-81061521D01*
X215533266Y-81088056D01*
X215475613Y-81126578D01*
X215426584Y-81175607D01*
X215388062Y-81233260D01*
X215361527Y-81297319D01*
X215348000Y-81365325D01*
X215348000Y-81434663D01*
X215361527Y-81502669D01*
X215388062Y-81566728D01*
X215424201Y-81620814D01*
X215424200Y-81694035D01*
X215416578Y-81689961D01*
X215364589Y-81674190D01*
X215324067Y-81670199D01*
X215324057Y-81670199D01*
X215310523Y-81668866D01*
X215296989Y-81670199D01*
X214367545Y-81670199D01*
X214354011Y-81668866D01*
X214340477Y-81670199D01*
X214340467Y-81670199D01*
X214299945Y-81674190D01*
X214247956Y-81689961D01*
X214227959Y-81700650D01*
X214200043Y-81715571D01*
X214168568Y-81741402D01*
X214168565Y-81741405D01*
X214158048Y-81750036D01*
X214149417Y-81760554D01*
X214061123Y-81848847D01*
X213997325Y-81861537D01*
X213933266Y-81888072D01*
X213875613Y-81926594D01*
X213826584Y-81975623D01*
X213788062Y-82033276D01*
X213761527Y-82097335D01*
X213748000Y-82165341D01*
X213748000Y-82234679D01*
X213761527Y-82302685D01*
X213788062Y-82366744D01*
X213826584Y-82424397D01*
X213875613Y-82473426D01*
X213933266Y-82511948D01*
X213997325Y-82538483D01*
X214065331Y-82552010D01*
X214134669Y-82552010D01*
X214202675Y-82538483D01*
X214266734Y-82511948D01*
X214324387Y-82473426D01*
X214373416Y-82424397D01*
X214411938Y-82366744D01*
X214438473Y-82302685D01*
X214451163Y-82238887D01*
X214468251Y-82221799D01*
X214547996Y-82221799D01*
X214547996Y-82234669D01*
X214561523Y-82302675D01*
X214588058Y-82366734D01*
X214626580Y-82424387D01*
X214675609Y-82473416D01*
X214733262Y-82511938D01*
X214797321Y-82538473D01*
X214865327Y-82552000D01*
X214934665Y-82552000D01*
X215002671Y-82538473D01*
X215066730Y-82511938D01*
X215120815Y-82475800D01*
X215163349Y-82475800D01*
X215444041Y-82756492D01*
X215426584Y-82773949D01*
X215388062Y-82831602D01*
X215361527Y-82895661D01*
X215348424Y-82961536D01*
X214900000Y-83409960D01*
X214304599Y-82814560D01*
X214295963Y-82804037D01*
X214253967Y-82769572D01*
X214206055Y-82743962D01*
X214154066Y-82728191D01*
X214113544Y-82724200D01*
X214113534Y-82724200D01*
X214100000Y-82722867D01*
X214086466Y-82724200D01*
X213520819Y-82724200D01*
X213466734Y-82688062D01*
X213402675Y-82661527D01*
X213334669Y-82648000D01*
X213265331Y-82648000D01*
X213197325Y-82661527D01*
X213133266Y-82688062D01*
X213075613Y-82726584D01*
X213026584Y-82775613D01*
X212988062Y-82833266D01*
X212961527Y-82897325D01*
X212948000Y-82965331D01*
X212948000Y-83034669D01*
X212961527Y-83102675D01*
X212988062Y-83166734D01*
X213026584Y-83224387D01*
X213075613Y-83273416D01*
X213133266Y-83311938D01*
X213197325Y-83338473D01*
X213265331Y-83352000D01*
X213334669Y-83352000D01*
X213402675Y-83338473D01*
X213466734Y-83311938D01*
X213520819Y-83275800D01*
X213985761Y-83275800D01*
X214548837Y-83838877D01*
X214561527Y-83902675D01*
X214588062Y-83966734D01*
X214624200Y-84020819D01*
X214624201Y-84346426D01*
X214619591Y-84343962D01*
X214567602Y-84328191D01*
X214527080Y-84324200D01*
X214527070Y-84324200D01*
X214513536Y-84322867D01*
X214500002Y-84324200D01*
X214320819Y-84324200D01*
X214266734Y-84288062D01*
X214202675Y-84261527D01*
X214134669Y-84248000D01*
X214065331Y-84248000D01*
X213997325Y-84261527D01*
X213933266Y-84288062D01*
X213875613Y-84326584D01*
X213826584Y-84375613D01*
X213802179Y-84412139D01*
X212925800Y-83535761D01*
X212925800Y-82714239D01*
X213140184Y-82499856D01*
X213158266Y-82511938D01*
X213222325Y-82538473D01*
X213290331Y-82552000D01*
X213359669Y-82552000D01*
X213427675Y-82538473D01*
X213491734Y-82511938D01*
X213549387Y-82473416D01*
X213598416Y-82424387D01*
X213636938Y-82366734D01*
X213663473Y-82302675D01*
X213677000Y-82234669D01*
X213677000Y-82165331D01*
X213663473Y-82097325D01*
X213636938Y-82033266D01*
X213598416Y-81975613D01*
X213549387Y-81926584D01*
X213491734Y-81888062D01*
X213427675Y-81861527D01*
X213359669Y-81848000D01*
X213290331Y-81848000D01*
X213222325Y-81861527D01*
X213158266Y-81888062D01*
X213104181Y-81924200D01*
X213063533Y-81924200D01*
X213049999Y-81922867D01*
X213036465Y-81924200D01*
X213036456Y-81924200D01*
X212995934Y-81928191D01*
X212943945Y-81943962D01*
X212896032Y-81969572D01*
X212864556Y-81995404D01*
X212854037Y-82004037D01*
X212845406Y-82014554D01*
X212464559Y-82395402D01*
X212454037Y-82404037D01*
X212419572Y-82446033D01*
X212393962Y-82493946D01*
X212378191Y-82545935D01*
X212374200Y-82586457D01*
X212374200Y-82586466D01*
X212372867Y-82600000D01*
X212374200Y-82613535D01*
X212374201Y-83636456D01*
X212372867Y-83650000D01*
X212378192Y-83704066D01*
X212393962Y-83756053D01*
X212419572Y-83803967D01*
X212445403Y-83835442D01*
X212445407Y-83835446D01*
X212454038Y-83845963D01*
X212464555Y-83854594D01*
X213334160Y-84724200D01*
X212020819Y-84724200D01*
X211966734Y-84688062D01*
X211902675Y-84661527D01*
X211834669Y-84648000D01*
X211765331Y-84648000D01*
X211697325Y-84661527D01*
X211633266Y-84688062D01*
X211575613Y-84726584D01*
X211526584Y-84775613D01*
X211488062Y-84833266D01*
X211461527Y-84897325D01*
X211448000Y-84965331D01*
X211448000Y-85034669D01*
X211461527Y-85102675D01*
X211488062Y-85166734D01*
X211526584Y-85224387D01*
X211575613Y-85273416D01*
X211633266Y-85311938D01*
X211697325Y-85338473D01*
X211765331Y-85352000D01*
X211834669Y-85352000D01*
X211902675Y-85338473D01*
X211966734Y-85311938D01*
X212020819Y-85275800D01*
X212120443Y-85275800D01*
X212111527Y-85297325D01*
X212098000Y-85365331D01*
X212098000Y-85434669D01*
X212111527Y-85502675D01*
X212138062Y-85566734D01*
X212176584Y-85624387D01*
X212225613Y-85673416D01*
X212283266Y-85711938D01*
X212347325Y-85738473D01*
X212415331Y-85752000D01*
X212484669Y-85752000D01*
X212552675Y-85738473D01*
X212616734Y-85711938D01*
X212670819Y-85675800D01*
X212784160Y-85675800D01*
X212111124Y-86348837D01*
X212047325Y-86361527D01*
X211983266Y-86388062D01*
X211925613Y-86426584D01*
X211876584Y-86475613D01*
X211838062Y-86533266D01*
X211811527Y-86597325D01*
X211798000Y-86665331D01*
X211798000Y-86734669D01*
X211811527Y-86802675D01*
X211838062Y-86866734D01*
X211876584Y-86924387D01*
X211925613Y-86973416D01*
X211973393Y-87005341D01*
X211974201Y-87013544D01*
X211974200Y-88535759D01*
X211610761Y-88899200D01*
X209763531Y-88899200D01*
X209749999Y-88897867D01*
X209736467Y-88899200D01*
X209736456Y-88899200D01*
X209695934Y-88903191D01*
X209643945Y-88918962D01*
X209596032Y-88944572D01*
X209564556Y-88970404D01*
X209554037Y-88979037D01*
X209545406Y-88989554D01*
X209236124Y-89298837D01*
X209172325Y-89311527D01*
X209108266Y-89338062D01*
X209050613Y-89376584D01*
X209001584Y-89425613D01*
X208963062Y-89483266D01*
X208936527Y-89547325D01*
X208923000Y-89615331D01*
X208923000Y-89684669D01*
X208936527Y-89752675D01*
X208963062Y-89816734D01*
X209001584Y-89874387D01*
X209050613Y-89923416D01*
X209108266Y-89961938D01*
X209172325Y-89988473D01*
X209240331Y-90002000D01*
X209309669Y-90002000D01*
X209377675Y-89988473D01*
X209441734Y-89961938D01*
X209499387Y-89923416D01*
X209548416Y-89874387D01*
X209586938Y-89816734D01*
X209613473Y-89752675D01*
X209626163Y-89688876D01*
X209864240Y-89450800D01*
X211711466Y-89450800D01*
X211725000Y-89452133D01*
X211738534Y-89450800D01*
X211738544Y-89450800D01*
X211779066Y-89446809D01*
X211831055Y-89431038D01*
X211878967Y-89405428D01*
X211920963Y-89370963D01*
X211929598Y-89360441D01*
X212435451Y-88854590D01*
X212445963Y-88845963D01*
X212454590Y-88835451D01*
X212454597Y-88835444D01*
X212480428Y-88803968D01*
X212506038Y-88756055D01*
X212507268Y-88752000D01*
X212521809Y-88704066D01*
X212525800Y-88663544D01*
X212525800Y-88663535D01*
X212527133Y-88650001D01*
X212525800Y-88636466D01*
X212525800Y-88400462D01*
X212558379Y-88422230D01*
X212622438Y-88448765D01*
X212690444Y-88462292D01*
X212759782Y-88462292D01*
X212804933Y-88453311D01*
X212804933Y-88489818D01*
X212818460Y-88557824D01*
X212844995Y-88621883D01*
X212883517Y-88679536D01*
X212932546Y-88728565D01*
X212990199Y-88767087D01*
X212992743Y-88768141D01*
X211623092Y-90137793D01*
X211626814Y-90100002D01*
X211619573Y-90026490D01*
X211598130Y-89955801D01*
X211563310Y-89890655D01*
X211516448Y-89833554D01*
X211459347Y-89786692D01*
X211394201Y-89751872D01*
X211323512Y-89730429D01*
X211250000Y-89723188D01*
X211176488Y-89730429D01*
X211105799Y-89751872D01*
X211040653Y-89786692D01*
X210997859Y-89821813D01*
X210769673Y-90050000D01*
X208905330Y-90050000D01*
X208725000Y-89869671D01*
X208725000Y-87618415D01*
X208726814Y-87599999D01*
X208724196Y-87573416D01*
X208719574Y-87526487D01*
X208712146Y-87502002D01*
X208734669Y-87502002D01*
X208802675Y-87488475D01*
X208866734Y-87461940D01*
X208920819Y-87425802D01*
X210135763Y-87425802D01*
X211148837Y-88438878D01*
X211161527Y-88502675D01*
X211188062Y-88566734D01*
X211226584Y-88624387D01*
X211275613Y-88673416D01*
X211333266Y-88711938D01*
X211397325Y-88738473D01*
X211465331Y-88752000D01*
X211534669Y-88752000D01*
X211602675Y-88738473D01*
X211666734Y-88711938D01*
X211724387Y-88673416D01*
X211773416Y-88624387D01*
X211811938Y-88566734D01*
X211838473Y-88502675D01*
X211852000Y-88434669D01*
X211852000Y-88365331D01*
X211838473Y-88297325D01*
X211811938Y-88233266D01*
X211773416Y-88175613D01*
X211724387Y-88126584D01*
X211666734Y-88088062D01*
X211602675Y-88061527D01*
X211538878Y-88048837D01*
X210454601Y-86964562D01*
X210445965Y-86954039D01*
X210403969Y-86919574D01*
X210356057Y-86893964D01*
X210304068Y-86878193D01*
X210263546Y-86874202D01*
X210263536Y-86874202D01*
X210250002Y-86872869D01*
X210236468Y-86874202D01*
X208979556Y-86874202D01*
X208988473Y-86852675D01*
X209002000Y-86784669D01*
X209002000Y-86715331D01*
X208988473Y-86647325D01*
X208961938Y-86583266D01*
X208923416Y-86525613D01*
X208874387Y-86476584D01*
X208816734Y-86438062D01*
X208752675Y-86411527D01*
X208725800Y-86406181D01*
X208725800Y-85974829D01*
X208761938Y-85920744D01*
X208788473Y-85856685D01*
X208802000Y-85788679D01*
X208802000Y-85770014D01*
X208842295Y-85743090D01*
X208891324Y-85694061D01*
X208929846Y-85636408D01*
X208956381Y-85572349D01*
X208969908Y-85504343D01*
X208969908Y-85435005D01*
X208956381Y-85366999D01*
X208929846Y-85302940D01*
X208891324Y-85245287D01*
X208842295Y-85196258D01*
X208784642Y-85157736D01*
X208720583Y-85131201D01*
X208652577Y-85117674D01*
X208583239Y-85117674D01*
X208515233Y-85131201D01*
X208451174Y-85157736D01*
X208397089Y-85193874D01*
X208291677Y-85193874D01*
X208274387Y-85176584D01*
X208216734Y-85138062D01*
X208152675Y-85111527D01*
X208084669Y-85098000D01*
X208015331Y-85098000D01*
X207947325Y-85111527D01*
X207883266Y-85138062D01*
X207825613Y-85176584D01*
X207776584Y-85225613D01*
X207738062Y-85283266D01*
X207711527Y-85347325D01*
X207698000Y-85415331D01*
X207698000Y-85484669D01*
X207711527Y-85552675D01*
X207738062Y-85616734D01*
X207776584Y-85674387D01*
X207825613Y-85723416D01*
X207883266Y-85761938D01*
X207947325Y-85788473D01*
X208015331Y-85802000D01*
X208084669Y-85802000D01*
X208100041Y-85798942D01*
X208111527Y-85856685D01*
X208138062Y-85920744D01*
X208174201Y-85974830D01*
X208174200Y-86536465D01*
X208172867Y-86550000D01*
X208174200Y-86563534D01*
X208174200Y-86563543D01*
X208178191Y-86604065D01*
X208193962Y-86656054D01*
X208219572Y-86703967D01*
X208254037Y-86745963D01*
X208264559Y-86754598D01*
X208298837Y-86788876D01*
X208311527Y-86852675D01*
X208338062Y-86916734D01*
X208376584Y-86974387D01*
X208387301Y-86985104D01*
X208361527Y-87047327D01*
X208355908Y-87075578D01*
X208302140Y-87021811D01*
X208259346Y-86986691D01*
X208194200Y-86951870D01*
X208123512Y-86930427D01*
X208050000Y-86923186D01*
X207976488Y-86930427D01*
X207905800Y-86951870D01*
X207840654Y-86986691D01*
X207783553Y-87033553D01*
X207736691Y-87090654D01*
X207701870Y-87155800D01*
X207680427Y-87226488D01*
X207673186Y-87300000D01*
X207680427Y-87373512D01*
X207701870Y-87444200D01*
X207736691Y-87509346D01*
X207771811Y-87552140D01*
X207975001Y-87755331D01*
X207975000Y-90006584D01*
X207973186Y-90025000D01*
X207975000Y-90043416D01*
X207975000Y-90043418D01*
X207980426Y-90098512D01*
X208001869Y-90169199D01*
X208036691Y-90234346D01*
X208083552Y-90291448D01*
X208097866Y-90303195D01*
X208471809Y-90677139D01*
X208483552Y-90691448D01*
X208513766Y-90716243D01*
X208540652Y-90738309D01*
X208605798Y-90773130D01*
X208605800Y-90773131D01*
X208676487Y-90794574D01*
X208731581Y-90800000D01*
X208731583Y-90800000D01*
X208749999Y-90801814D01*
X208768415Y-90800000D01*
X208927984Y-90800000D01*
X208925613Y-90801584D01*
X208876584Y-90850613D01*
X208838062Y-90908266D01*
X208811527Y-90972325D01*
X208798000Y-91040331D01*
X208798000Y-91109669D01*
X208811527Y-91177675D01*
X208838062Y-91241734D01*
X208876584Y-91299387D01*
X208925613Y-91348416D01*
X208983266Y-91386938D01*
X209047325Y-91413473D01*
X209115331Y-91427000D01*
X209184669Y-91427000D01*
X209252675Y-91413473D01*
X209316734Y-91386938D01*
X209374387Y-91348416D01*
X209423416Y-91299387D01*
X209461938Y-91241734D01*
X209488473Y-91177675D01*
X209502000Y-91109669D01*
X209502000Y-91040331D01*
X209488473Y-90972325D01*
X209461938Y-90908266D01*
X209423416Y-90850613D01*
X209374387Y-90801584D01*
X209372016Y-90800000D01*
X210906586Y-90800000D01*
X210925002Y-90801814D01*
X210943418Y-90800000D01*
X210943421Y-90800000D01*
X210998515Y-90794574D01*
X211069202Y-90773131D01*
X211134349Y-90738309D01*
X211191450Y-90691448D01*
X211203197Y-90677134D01*
X211268844Y-90611487D01*
X211269592Y-90619077D01*
X211269591Y-91024563D01*
X211233453Y-91078649D01*
X211206918Y-91142708D01*
X211193391Y-91210714D01*
X211193391Y-91280052D01*
X211201376Y-91320198D01*
X210517536Y-91320198D01*
X210504002Y-91318865D01*
X210494086Y-91319842D01*
X210475617Y-91275254D01*
X210437095Y-91217601D01*
X210388066Y-91168572D01*
X210330413Y-91130050D01*
X210266354Y-91103515D01*
X210198348Y-91089988D01*
X210129010Y-91089988D01*
X210061004Y-91103515D01*
X209996945Y-91130050D01*
X209939292Y-91168572D01*
X209890263Y-91217601D01*
X209851741Y-91275254D01*
X209825206Y-91339313D01*
X209811679Y-91407319D01*
X209811679Y-91476657D01*
X209825206Y-91544663D01*
X209851741Y-91608722D01*
X209890263Y-91666375D01*
X209938043Y-91714155D01*
X209926584Y-91725613D01*
X209888062Y-91783266D01*
X209861527Y-91847325D01*
X209848000Y-91915331D01*
X209848000Y-91984669D01*
X209861527Y-92052675D01*
X209888062Y-92116734D01*
X209926584Y-92174387D01*
X209975613Y-92223416D01*
X210033266Y-92261938D01*
X210097325Y-92288473D01*
X210165331Y-92302000D01*
X210234669Y-92302000D01*
X210302675Y-92288473D01*
X210366734Y-92261938D01*
X210424387Y-92223416D01*
X210435103Y-92212700D01*
X210497321Y-92238473D01*
X210565327Y-92252000D01*
X210634665Y-92252000D01*
X210702671Y-92238473D01*
X210766730Y-92211938D01*
X210820815Y-92175800D01*
X212729181Y-92175800D01*
X212783266Y-92211938D01*
X212847325Y-92238473D01*
X212915331Y-92252000D01*
X212984669Y-92252000D01*
X213052675Y-92238473D01*
X213116734Y-92211938D01*
X213174387Y-92173416D01*
X213213960Y-92133843D01*
X213267321Y-92169497D01*
X213331380Y-92196032D01*
X213399386Y-92209559D01*
X213468724Y-92209559D01*
X213536730Y-92196032D01*
X213549234Y-92190853D01*
X213561531Y-92252675D01*
X213588066Y-92316734D01*
X213626588Y-92374387D01*
X213675617Y-92423416D01*
X213733270Y-92461938D01*
X213797329Y-92488473D01*
X213865335Y-92502000D01*
X213934673Y-92502000D01*
X214002679Y-92488473D01*
X214066738Y-92461938D01*
X214124391Y-92423416D01*
X214173420Y-92374387D01*
X214211942Y-92316734D01*
X214238477Y-92252675D01*
X214252004Y-92184669D01*
X214252004Y-92115331D01*
X214238477Y-92047325D01*
X214211942Y-91983266D01*
X214175800Y-91929175D01*
X214175800Y-91575800D01*
X214986466Y-91575800D01*
X215000000Y-91577133D01*
X215013534Y-91575800D01*
X215013544Y-91575800D01*
X215054066Y-91571809D01*
X215106055Y-91556038D01*
X215153967Y-91530428D01*
X215195963Y-91495963D01*
X215204599Y-91485440D01*
X215964240Y-90725800D01*
X217379181Y-90725800D01*
X217433266Y-90761938D01*
X217497325Y-90788473D01*
X217565331Y-90802000D01*
X217634669Y-90802000D01*
X217702675Y-90788473D01*
X217766734Y-90761938D01*
X217824387Y-90723416D01*
X217873416Y-90674387D01*
X217911938Y-90616734D01*
X217938473Y-90552675D01*
X217952000Y-90484669D01*
X217952000Y-90415331D01*
X217938473Y-90347325D01*
X217911938Y-90283266D01*
X217873416Y-90225613D01*
X217824387Y-90176584D01*
X217766734Y-90138062D01*
X217702675Y-90111527D01*
X217634669Y-90098000D01*
X217565331Y-90098000D01*
X217497325Y-90111527D01*
X217433266Y-90138062D01*
X217379181Y-90174200D01*
X215863534Y-90174200D01*
X215850000Y-90172867D01*
X215836466Y-90174200D01*
X215836456Y-90174200D01*
X215795934Y-90178191D01*
X215743945Y-90193962D01*
X215728185Y-90202386D01*
X215696032Y-90219572D01*
X215664557Y-90245403D01*
X215664554Y-90245406D01*
X215654037Y-90254037D01*
X215645406Y-90264554D01*
X214885761Y-91024200D01*
X214175800Y-91024200D01*
X214175800Y-89889239D01*
X215635451Y-88429590D01*
X215645963Y-88420963D01*
X215654590Y-88410451D01*
X215654597Y-88410444D01*
X215680428Y-88378968D01*
X215706038Y-88331055D01*
X215708522Y-88322867D01*
X215721809Y-88279066D01*
X215725800Y-88238544D01*
X215725800Y-88238535D01*
X215727133Y-88225001D01*
X215725800Y-88211466D01*
X215725800Y-87714239D01*
X217022206Y-86417834D01*
X217024200Y-86420819D01*
X217024201Y-87236456D01*
X217022867Y-87250000D01*
X217028192Y-87304066D01*
X217043962Y-87356053D01*
X217069572Y-87403967D01*
X217095403Y-87435442D01*
X217095407Y-87435446D01*
X217104038Y-87445963D01*
X217114555Y-87454594D01*
X221263743Y-91603783D01*
X221238877Y-91598837D01*
X221045777Y-91405738D01*
X221037143Y-91395217D01*
X220995147Y-91360752D01*
X220947235Y-91335142D01*
X220895246Y-91319371D01*
X220854724Y-91315380D01*
X220854714Y-91315380D01*
X220841180Y-91314047D01*
X220827646Y-91315380D01*
X219170819Y-91315380D01*
X219116734Y-91279242D01*
X219052675Y-91252707D01*
X218984669Y-91239180D01*
X218983581Y-91239180D01*
X218976968Y-91233753D01*
X218929056Y-91208143D01*
X218877067Y-91192372D01*
X218836545Y-91188381D01*
X218836535Y-91188381D01*
X218823001Y-91187048D01*
X218809467Y-91188381D01*
X215799353Y-91188381D01*
X215785818Y-91187048D01*
X215772284Y-91188381D01*
X215772275Y-91188381D01*
X215731753Y-91192372D01*
X215686703Y-91206038D01*
X215679764Y-91208143D01*
X215631852Y-91233753D01*
X215614223Y-91248220D01*
X215547325Y-91261527D01*
X215483266Y-91288062D01*
X215425613Y-91326584D01*
X215376584Y-91375613D01*
X215338062Y-91433266D01*
X215311527Y-91497325D01*
X215298000Y-91565331D01*
X215298000Y-91634669D01*
X215311527Y-91702675D01*
X215338062Y-91766734D01*
X215376584Y-91824387D01*
X215425613Y-91873416D01*
X215483266Y-91911938D01*
X215547325Y-91938473D01*
X215615331Y-91952000D01*
X215684669Y-91952000D01*
X215752675Y-91938473D01*
X215816734Y-91911938D01*
X215874387Y-91873416D01*
X215923416Y-91824387D01*
X215957809Y-91772914D01*
X215945276Y-91835921D01*
X215945276Y-91905259D01*
X215958803Y-91973265D01*
X215985338Y-92037324D01*
X216023860Y-92094977D01*
X216072889Y-92144006D01*
X216130542Y-92182528D01*
X216194601Y-92209063D01*
X216262607Y-92222590D01*
X216331945Y-92222590D01*
X216399951Y-92209063D01*
X216464010Y-92182528D01*
X216521663Y-92144006D01*
X216570692Y-92094977D01*
X216609214Y-92037324D01*
X216615645Y-92021799D01*
X218098000Y-92021799D01*
X218098000Y-92034669D01*
X218111527Y-92102675D01*
X218138062Y-92166734D01*
X218176584Y-92224387D01*
X218225613Y-92273416D01*
X218283266Y-92311938D01*
X218347325Y-92338473D01*
X218410133Y-92350966D01*
X218414554Y-92354594D01*
X218414557Y-92354597D01*
X218432805Y-92369572D01*
X218446033Y-92380428D01*
X218493945Y-92406038D01*
X218545934Y-92421809D01*
X218586456Y-92425800D01*
X218586465Y-92425800D01*
X218599999Y-92427133D01*
X218613534Y-92425800D01*
X220586466Y-92425800D01*
X220600000Y-92427133D01*
X220613534Y-92425800D01*
X220613544Y-92425800D01*
X220654066Y-92421809D01*
X220706055Y-92406038D01*
X220753967Y-92380428D01*
X220795963Y-92345963D01*
X220804601Y-92335438D01*
X220838876Y-92301163D01*
X220902675Y-92288473D01*
X220966734Y-92261938D01*
X221000000Y-92239711D01*
X221033266Y-92261938D01*
X221097325Y-92288473D01*
X221165331Y-92302000D01*
X221234669Y-92302000D01*
X221302675Y-92288473D01*
X221366734Y-92261938D01*
X221424387Y-92223416D01*
X221473416Y-92174387D01*
X221511938Y-92116734D01*
X221538473Y-92052675D01*
X221552000Y-91984669D01*
X221552000Y-91915331D01*
X221546217Y-91886257D01*
X221724200Y-92064240D01*
X221724201Y-92379180D01*
X221688062Y-92433266D01*
X221661527Y-92497325D01*
X221650413Y-92553202D01*
X209799587Y-92553202D01*
X209788473Y-92497325D01*
X209761938Y-92433266D01*
X209723416Y-92375613D01*
X209674387Y-92326584D01*
X209616734Y-92288062D01*
X209552675Y-92261527D01*
X209484669Y-92248000D01*
X209415331Y-92248000D01*
X209347325Y-92261527D01*
X209283266Y-92288062D01*
X209225613Y-92326584D01*
X209176584Y-92375613D01*
X209138062Y-92433266D01*
X209111527Y-92497325D01*
X209098000Y-92565331D01*
X209098000Y-92634669D01*
X209111527Y-92702675D01*
X209138062Y-92766734D01*
X209176584Y-92824387D01*
X209225613Y-92873416D01*
X209283266Y-92911938D01*
X209347325Y-92938473D01*
X209411123Y-92951163D01*
X209474408Y-93014447D01*
X209483039Y-93024965D01*
X209493556Y-93033596D01*
X209493559Y-93033599D01*
X209525034Y-93059430D01*
X209548991Y-93072235D01*
X209572947Y-93085040D01*
X209598000Y-93092640D01*
X209598000Y-93134669D01*
X209611527Y-93202675D01*
X209638062Y-93266734D01*
X209676584Y-93324387D01*
X209725613Y-93373416D01*
X209783266Y-93411938D01*
X209847325Y-93438473D01*
X209911124Y-93451163D01*
X210295404Y-93835444D01*
X210304037Y-93845963D01*
X210314554Y-93854594D01*
X210314556Y-93854596D01*
X210346032Y-93880428D01*
X210375227Y-93896033D01*
X210393945Y-93906038D01*
X210445934Y-93921809D01*
X210486456Y-93925800D01*
X210486467Y-93925800D01*
X210499999Y-93927133D01*
X210513531Y-93925800D01*
X211635761Y-93925800D01*
X211706079Y-93996118D01*
X211676584Y-94025613D01*
X211638062Y-94083266D01*
X211611527Y-94147325D01*
X211598000Y-94215331D01*
X211598000Y-94284669D01*
X211611527Y-94352675D01*
X211638062Y-94416734D01*
X211676584Y-94474387D01*
X211725613Y-94523416D01*
X211783266Y-94561938D01*
X211847325Y-94588473D01*
X211911124Y-94601163D01*
X212995406Y-95685446D01*
X213004037Y-95695963D01*
X213014554Y-95704594D01*
X213014557Y-95704597D01*
X213046032Y-95730428D01*
X213069989Y-95743233D01*
X213093945Y-95756038D01*
X213145934Y-95771809D01*
X213186456Y-95775800D01*
X213186465Y-95775800D01*
X213200000Y-95777133D01*
X213213534Y-95775800D01*
X214279181Y-95775800D01*
X214333266Y-95811938D01*
X214397325Y-95838473D01*
X214465331Y-95852000D01*
X214534669Y-95852000D01*
X214602675Y-95838473D01*
X214666734Y-95811938D01*
X214724387Y-95773416D01*
X214773416Y-95724387D01*
X214811938Y-95666734D01*
X214838473Y-95602675D01*
X214852000Y-95534669D01*
X214852000Y-95465331D01*
X214838473Y-95397325D01*
X214811938Y-95333266D01*
X214773416Y-95275613D01*
X214724387Y-95226584D01*
X214666734Y-95188062D01*
X214602675Y-95161527D01*
X214534669Y-95148000D01*
X214465331Y-95148000D01*
X214397325Y-95161527D01*
X214333266Y-95188062D01*
X214279181Y-95224200D01*
X213314240Y-95224200D01*
X212693921Y-94603882D01*
X212705288Y-94592515D01*
X212726584Y-94624387D01*
X212775613Y-94673416D01*
X212833266Y-94711938D01*
X212897325Y-94738473D01*
X212965331Y-94752000D01*
X213034669Y-94752000D01*
X213102675Y-94738473D01*
X213166734Y-94711938D01*
X213224387Y-94673416D01*
X213273416Y-94624387D01*
X213274685Y-94622488D01*
X213275613Y-94623416D01*
X213333266Y-94661938D01*
X213397325Y-94688473D01*
X213465331Y-94702000D01*
X213534669Y-94702000D01*
X213602675Y-94688473D01*
X213666734Y-94661938D01*
X213724387Y-94623416D01*
X213773416Y-94574387D01*
X213811938Y-94516734D01*
X213838473Y-94452675D01*
X213851163Y-94388877D01*
X213914240Y-94325800D01*
X215079181Y-94325800D01*
X215133266Y-94361938D01*
X215197325Y-94388473D01*
X215265331Y-94402000D01*
X215334669Y-94402000D01*
X215402675Y-94388473D01*
X215466734Y-94361938D01*
X215524387Y-94323416D01*
X215573416Y-94274387D01*
X215611938Y-94216734D01*
X215638473Y-94152675D01*
X215652000Y-94084669D01*
X215652000Y-94015331D01*
X215638473Y-93947325D01*
X215611938Y-93883266D01*
X215573416Y-93825613D01*
X215524387Y-93776584D01*
X215466734Y-93738062D01*
X215402675Y-93711527D01*
X215334669Y-93698000D01*
X215265331Y-93698000D01*
X215197325Y-93711527D01*
X215133266Y-93738062D01*
X215079181Y-93774200D01*
X213813534Y-93774200D01*
X213799999Y-93772867D01*
X213786465Y-93774200D01*
X213786456Y-93774200D01*
X213745934Y-93778191D01*
X213693945Y-93793962D01*
X213646032Y-93819572D01*
X213614556Y-93845403D01*
X213614549Y-93845410D01*
X213604037Y-93854037D01*
X213595410Y-93864549D01*
X213500000Y-93959960D01*
X212644841Y-93104802D01*
X218805158Y-93104802D01*
X217861124Y-94048837D01*
X217797325Y-94061527D01*
X217733266Y-94088062D01*
X217675613Y-94126584D01*
X217626584Y-94175613D01*
X217588062Y-94233266D01*
X217561527Y-94297325D01*
X217548000Y-94365331D01*
X217548000Y-94407960D01*
X217004599Y-93864560D01*
X216995963Y-93854037D01*
X216953967Y-93819572D01*
X216906055Y-93793962D01*
X216854066Y-93778191D01*
X216813544Y-93774200D01*
X216813534Y-93774200D01*
X216800000Y-93772867D01*
X216786466Y-93774200D01*
X216320819Y-93774200D01*
X216266734Y-93738062D01*
X216202675Y-93711527D01*
X216134669Y-93698000D01*
X216065331Y-93698000D01*
X215997325Y-93711527D01*
X215933266Y-93738062D01*
X215875613Y-93776584D01*
X215826584Y-93825613D01*
X215788062Y-93883266D01*
X215761527Y-93947325D01*
X215748000Y-94015331D01*
X215748000Y-94084669D01*
X215761527Y-94152675D01*
X215788062Y-94216734D01*
X215826584Y-94274387D01*
X215875613Y-94323416D01*
X215933266Y-94361938D01*
X215997325Y-94388473D01*
X216065331Y-94402000D01*
X216134669Y-94402000D01*
X216202675Y-94388473D01*
X216266734Y-94361938D01*
X216320819Y-94325800D01*
X216685761Y-94325800D01*
X217345406Y-94985446D01*
X217354037Y-94995963D01*
X217364554Y-95004594D01*
X217364556Y-95004596D01*
X217396032Y-95030428D01*
X217443945Y-95056038D01*
X217495934Y-95071809D01*
X217536456Y-95075800D01*
X217536465Y-95075800D01*
X217549999Y-95077133D01*
X217563533Y-95075800D01*
X217986466Y-95075800D01*
X218000000Y-95077133D01*
X218013534Y-95075800D01*
X218013544Y-95075800D01*
X218054066Y-95071809D01*
X218106055Y-95056038D01*
X218153967Y-95030428D01*
X218195963Y-94995963D01*
X218204598Y-94985441D01*
X218438877Y-94751163D01*
X218502675Y-94738473D01*
X218566734Y-94711938D01*
X218624387Y-94673416D01*
X218673416Y-94624387D01*
X218694712Y-94592515D01*
X218725613Y-94623416D01*
X218783266Y-94661938D01*
X218847325Y-94688473D01*
X218915331Y-94702000D01*
X218984669Y-94702000D01*
X219013743Y-94696217D01*
X218485761Y-95224200D01*
X217120819Y-95224200D01*
X217066734Y-95188062D01*
X217002675Y-95161527D01*
X216934669Y-95148000D01*
X216865331Y-95148000D01*
X216797325Y-95161527D01*
X216733266Y-95188062D01*
X216675613Y-95226584D01*
X216626584Y-95275613D01*
X216588062Y-95333266D01*
X216561527Y-95397325D01*
X216548000Y-95465331D01*
X216548000Y-95534669D01*
X216561527Y-95602675D01*
X216588062Y-95666734D01*
X216626584Y-95724387D01*
X216675613Y-95773416D01*
X216733266Y-95811938D01*
X216797325Y-95838473D01*
X216865331Y-95852000D01*
X216934669Y-95852000D01*
X217002675Y-95838473D01*
X217066734Y-95811938D01*
X217120819Y-95775800D01*
X218586466Y-95775800D01*
X218600000Y-95777133D01*
X218613534Y-95775800D01*
X218613544Y-95775800D01*
X218654066Y-95771809D01*
X218706055Y-95756038D01*
X218753967Y-95730428D01*
X218795963Y-95695963D01*
X218804599Y-95685440D01*
X219488877Y-95001163D01*
X219552675Y-94988473D01*
X219616734Y-94961938D01*
X219674387Y-94923416D01*
X219723416Y-94874387D01*
X219761938Y-94816734D01*
X219788473Y-94752675D01*
X219802000Y-94684669D01*
X219802000Y-94615331D01*
X219788473Y-94547325D01*
X219761938Y-94483266D01*
X219723416Y-94425613D01*
X219674387Y-94376584D01*
X219616734Y-94338062D01*
X219552675Y-94311527D01*
X219484669Y-94298000D01*
X219415331Y-94298000D01*
X219386256Y-94303783D01*
X219764240Y-93925800D01*
X220886466Y-93925800D01*
X220900000Y-93927133D01*
X220913534Y-93925800D01*
X220913544Y-93925800D01*
X220954066Y-93921809D01*
X221006055Y-93906038D01*
X221053967Y-93880428D01*
X221095963Y-93845963D01*
X221104599Y-93835440D01*
X221488877Y-93451163D01*
X221552675Y-93438473D01*
X221616734Y-93411938D01*
X221674387Y-93373416D01*
X221723416Y-93324387D01*
X221761938Y-93266734D01*
X221788473Y-93202675D01*
X221802000Y-93134669D01*
X221802000Y-93103083D01*
X221825064Y-93100811D01*
X221877053Y-93085040D01*
X221924965Y-93059430D01*
X221966961Y-93024965D01*
X221975596Y-93014443D01*
X222038876Y-92951163D01*
X222102675Y-92938473D01*
X222166734Y-92911938D01*
X222224387Y-92873416D01*
X222273416Y-92824387D01*
X222311938Y-92766734D01*
X222338473Y-92702675D01*
X222352000Y-92634669D01*
X222352000Y-92565331D01*
X222338473Y-92497325D01*
X222311938Y-92433266D01*
X222275800Y-92379181D01*
X222275800Y-91963534D01*
X222277133Y-91950000D01*
X222275800Y-91936466D01*
X222275800Y-91936456D01*
X222271809Y-91895934D01*
X222256038Y-91843945D01*
X222238710Y-91811527D01*
X222230428Y-91796032D01*
X222204597Y-91764557D01*
X222204594Y-91764554D01*
X222195963Y-91754037D01*
X222185445Y-91745405D01*
X219105371Y-88665331D01*
X219448000Y-88665331D01*
X219448000Y-88734669D01*
X219461527Y-88802675D01*
X219488062Y-88866734D01*
X219526584Y-88924387D01*
X219575613Y-88973416D01*
X219633266Y-89011938D01*
X219697325Y-89038473D01*
X219765331Y-89052000D01*
X219834669Y-89052000D01*
X219902675Y-89038473D01*
X219966734Y-89011938D01*
X220020819Y-88975800D01*
X221936466Y-88975800D01*
X221950000Y-88977133D01*
X221963534Y-88975800D01*
X221963544Y-88975800D01*
X222004066Y-88971809D01*
X222056055Y-88956038D01*
X222063609Y-88952000D01*
X222084669Y-88952000D01*
X222152675Y-88938473D01*
X222216734Y-88911938D01*
X222274387Y-88873416D01*
X222323416Y-88824387D01*
X222361938Y-88766734D01*
X222388473Y-88702675D01*
X222402000Y-88634669D01*
X222402000Y-88565331D01*
X222388473Y-88497325D01*
X222361938Y-88433266D01*
X222323416Y-88375613D01*
X222274387Y-88326584D01*
X222216734Y-88288062D01*
X222152675Y-88261527D01*
X222084669Y-88248000D01*
X222015331Y-88248000D01*
X221947325Y-88261527D01*
X221883266Y-88288062D01*
X221825613Y-88326584D01*
X221776584Y-88375613D01*
X221744120Y-88424200D01*
X220020819Y-88424200D01*
X219966734Y-88388062D01*
X219902675Y-88361527D01*
X219834669Y-88348000D01*
X219765331Y-88348000D01*
X219697325Y-88361527D01*
X219633266Y-88388062D01*
X219575613Y-88426584D01*
X219526584Y-88475613D01*
X219488062Y-88533266D01*
X219461527Y-88597325D01*
X219448000Y-88665331D01*
X219105371Y-88665331D01*
X217575800Y-87135761D01*
X217575800Y-86420819D01*
X217611938Y-86366734D01*
X217638473Y-86302675D01*
X217652000Y-86234669D01*
X217652000Y-86165331D01*
X217638473Y-86097325D01*
X217611938Y-86033266D01*
X217573416Y-85975613D01*
X217524387Y-85926584D01*
X217517834Y-85922206D01*
X217814240Y-85625800D01*
X220036466Y-85625800D01*
X220050000Y-85627133D01*
X220063534Y-85625800D01*
X220063544Y-85625800D01*
X220104066Y-85621809D01*
X220156055Y-85606038D01*
X220203967Y-85580428D01*
X220245963Y-85545963D01*
X220254599Y-85535440D01*
X220964969Y-84825070D01*
X220997325Y-84838473D01*
X221065331Y-84852000D01*
X221134669Y-84852000D01*
X221202675Y-84838473D01*
X221266734Y-84811938D01*
X221324201Y-84773541D01*
X221324200Y-85586466D01*
X221322867Y-85600000D01*
X221324200Y-85613534D01*
X221324200Y-85613543D01*
X221328191Y-85654065D01*
X221343962Y-85706054D01*
X221369572Y-85753967D01*
X221404037Y-85795963D01*
X221414560Y-85804599D01*
X221798837Y-86188877D01*
X221811527Y-86252675D01*
X221838062Y-86316734D01*
X221876584Y-86374387D01*
X221925613Y-86423416D01*
X221983266Y-86461938D01*
X222047325Y-86488473D01*
X222115331Y-86502000D01*
X222184669Y-86502000D01*
X222252675Y-86488473D01*
X222316734Y-86461938D01*
X222374387Y-86423416D01*
X222423416Y-86374387D01*
X222461938Y-86316734D01*
X222488473Y-86252675D01*
X222502000Y-86184669D01*
X222502000Y-86115331D01*
X222488473Y-86047325D01*
X222461938Y-85983266D01*
X222423416Y-85925613D01*
X222374387Y-85876584D01*
X222316734Y-85838062D01*
X222252675Y-85811527D01*
X222188877Y-85798837D01*
X221875800Y-85485761D01*
X221875800Y-85037132D01*
X221888062Y-85066734D01*
X221926584Y-85124387D01*
X221975613Y-85173416D01*
X222033266Y-85211938D01*
X222097325Y-85238473D01*
X222161124Y-85251163D01*
X222624201Y-85714241D01*
X222624200Y-90179181D01*
X222588062Y-90233266D01*
X222561527Y-90297325D01*
X222548000Y-90365331D01*
X222548000Y-90434669D01*
X222561527Y-90502675D01*
X222588062Y-90566734D01*
X222626584Y-90624387D01*
X222675613Y-90673416D01*
X222733266Y-90711938D01*
X222797325Y-90738473D01*
X222865331Y-90752000D01*
X222934669Y-90752000D01*
X223002675Y-90738473D01*
X223024200Y-90729557D01*
X223024200Y-90979181D01*
X222988062Y-91033266D01*
X222961527Y-91097325D01*
X222948000Y-91165331D01*
X222948000Y-91234669D01*
X222961527Y-91302675D01*
X222988062Y-91366734D01*
X223026584Y-91424387D01*
X223075613Y-91473416D01*
X223133266Y-91511938D01*
X223197325Y-91538473D01*
X223265331Y-91552000D01*
X223334669Y-91552000D01*
X223402675Y-91538473D01*
X223466734Y-91511938D01*
X223524387Y-91473416D01*
X223573416Y-91424387D01*
X223611938Y-91366734D01*
X223638473Y-91302675D01*
X223646113Y-91264268D01*
X223697329Y-91285483D01*
X223765335Y-91299010D01*
X223834673Y-91299010D01*
X223902679Y-91285483D01*
X223966738Y-91258948D01*
X224024391Y-91220426D01*
X224073420Y-91171397D01*
X224111942Y-91113744D01*
X224138477Y-91049685D01*
X224152004Y-90981679D01*
X224152004Y-90912341D01*
X224142654Y-90865331D01*
X224447998Y-90865331D01*
X224447998Y-90934669D01*
X224461525Y-91002675D01*
X224488060Y-91066734D01*
X224526582Y-91124387D01*
X224575611Y-91173416D01*
X224633264Y-91211938D01*
X224697323Y-91238473D01*
X224765329Y-91252000D01*
X224834667Y-91252000D01*
X224902673Y-91238473D01*
X224966732Y-91211938D01*
X225024385Y-91173416D01*
X225073414Y-91124387D01*
X225111936Y-91066734D01*
X225138471Y-91002675D01*
X225151998Y-90934669D01*
X225151998Y-90865331D01*
X225138471Y-90797325D01*
X225111936Y-90733266D01*
X225073414Y-90675613D01*
X225024385Y-90626584D01*
X224966732Y-90588062D01*
X224902673Y-90561527D01*
X224834667Y-90548000D01*
X224765329Y-90548000D01*
X224697323Y-90561527D01*
X224633264Y-90588062D01*
X224575611Y-90626584D01*
X224526582Y-90675613D01*
X224488060Y-90733266D01*
X224461525Y-90797325D01*
X224447998Y-90865331D01*
X224142654Y-90865331D01*
X224138477Y-90844335D01*
X224111942Y-90780276D01*
X224073420Y-90722623D01*
X224024391Y-90673594D01*
X223966738Y-90635072D01*
X223902679Y-90608537D01*
X223834673Y-90595010D01*
X223765335Y-90595010D01*
X223697329Y-90608537D01*
X223633270Y-90635072D01*
X223575800Y-90673472D01*
X223575800Y-84163534D01*
X223577133Y-84150000D01*
X223575800Y-84136465D01*
X223575800Y-84136456D01*
X223571809Y-84095934D01*
X223556038Y-84043945D01*
X223540867Y-84015562D01*
X223530428Y-83996032D01*
X223504597Y-83964557D01*
X223504594Y-83964554D01*
X223495963Y-83954037D01*
X223485446Y-83945406D01*
X220854599Y-81314560D01*
X220845963Y-81304037D01*
X220803967Y-81269572D01*
X220756055Y-81243962D01*
X220704066Y-81228191D01*
X220663544Y-81224200D01*
X220663534Y-81224200D01*
X220650000Y-81222867D01*
X220636466Y-81224200D01*
X220387132Y-81224200D01*
X220416734Y-81211938D01*
X220474387Y-81173416D01*
X220523416Y-81124387D01*
X220561938Y-81066734D01*
X220588473Y-81002675D01*
X220602000Y-80934669D01*
X220602000Y-80865331D01*
X220596598Y-80838172D01*
X220597325Y-80838473D01*
X220665331Y-80852000D01*
X220734669Y-80852000D01*
X220802675Y-80838473D01*
X220866734Y-80811938D01*
X220924387Y-80773416D01*
X220973416Y-80724387D01*
X221011938Y-80666734D01*
X221038473Y-80602675D01*
X221050972Y-80539837D01*
X221161369Y-80611777D01*
X221158266Y-80613062D01*
X221100613Y-80651584D01*
X221051584Y-80700613D01*
X221013062Y-80758266D01*
X220986527Y-80822325D01*
X220973000Y-80890331D01*
X220973000Y-80959669D01*
X220986527Y-81027675D01*
X221013062Y-81091734D01*
X221051584Y-81149387D01*
X221100613Y-81198416D01*
X221158266Y-81236938D01*
X221222325Y-81263473D01*
X221290331Y-81277000D01*
X221359669Y-81277000D01*
X221427675Y-81263473D01*
X221491734Y-81236938D01*
X221549387Y-81198416D01*
X221598416Y-81149387D01*
X221636938Y-81091734D01*
X221663473Y-81027675D01*
X221674511Y-80972182D01*
X222478415Y-81653699D01*
X222545547Y-81726935D01*
X222497325Y-81736527D01*
X222433266Y-81763062D01*
X222375613Y-81801584D01*
X222326584Y-81850613D01*
X222288062Y-81908266D01*
X222261527Y-81972325D01*
X222248000Y-82040331D01*
X222248000Y-82109669D01*
X222261527Y-82177675D01*
X222288062Y-82241734D01*
X222326584Y-82299387D01*
X222375613Y-82348416D01*
X222433266Y-82386938D01*
X222497325Y-82413473D01*
X222565331Y-82427000D01*
X222634669Y-82427000D01*
X222702675Y-82413473D01*
X222766734Y-82386938D01*
X222824387Y-82348416D01*
X222873416Y-82299387D01*
X222911938Y-82241734D01*
X222938473Y-82177675D01*
X222942083Y-82159525D01*
X223308103Y-82558824D01*
X224017805Y-83560797D01*
X224184576Y-83873000D01*
X224115331Y-83873000D01*
X224047325Y-83886527D01*
X223983266Y-83913062D01*
X223925613Y-83951584D01*
X223876584Y-84000613D01*
X223838062Y-84058266D01*
X223811527Y-84122325D01*
X223798000Y-84190331D01*
X223798000Y-84259669D01*
X223811527Y-84327675D01*
X223838062Y-84391734D01*
X223876584Y-84449387D01*
X223925613Y-84498416D01*
X223983266Y-84536938D01*
X224047325Y-84563473D01*
X224115331Y-84577000D01*
X224184669Y-84577000D01*
X224252675Y-84563473D01*
X224316734Y-84536938D01*
X224374387Y-84498416D01*
X224423416Y-84449387D01*
X224461790Y-84391955D01*
X224588245Y-84628684D01*
X224559669Y-84623000D01*
X224490331Y-84623000D01*
X224422325Y-84636527D01*
X224358266Y-84663062D01*
X224300613Y-84701584D01*
X224251584Y-84750613D01*
X224213062Y-84808266D01*
X224186527Y-84872325D01*
X224173000Y-84940331D01*
X224173000Y-85009669D01*
X224186527Y-85077675D01*
X224213062Y-85141734D01*
X224251584Y-85199387D01*
X224300613Y-85248416D01*
X224358266Y-85286938D01*
X224422325Y-85313473D01*
X224490331Y-85327000D01*
X224559669Y-85327000D01*
X224627675Y-85313473D01*
X224691734Y-85286938D01*
X224749387Y-85248416D01*
X224798416Y-85199387D01*
X224804890Y-85189697D01*
X224934090Y-85527857D01*
X224909669Y-85523000D01*
X224840331Y-85523000D01*
X224772325Y-85536527D01*
X224708266Y-85563062D01*
X224650613Y-85601584D01*
X224601584Y-85650613D01*
X224563062Y-85708266D01*
X224536527Y-85772325D01*
X224523000Y-85840331D01*
X224523000Y-85909669D01*
X224536527Y-85977675D01*
X224563062Y-86041734D01*
X224601584Y-86099387D01*
X224650613Y-86148416D01*
X224708266Y-86186938D01*
X224772325Y-86213473D01*
X224840331Y-86227000D01*
X224909669Y-86227000D01*
X224977675Y-86213473D01*
X225041734Y-86186938D01*
X225099387Y-86148416D01*
X225117401Y-86130402D01*
X225185133Y-86408038D01*
X225134669Y-86398000D01*
X225065331Y-86398000D01*
X224997325Y-86411527D01*
X224933266Y-86438062D01*
X224875613Y-86476584D01*
X224826584Y-86525613D01*
X224788062Y-86583266D01*
X224761527Y-86647325D01*
X224748000Y-86715331D01*
X224748000Y-86784669D01*
X224761527Y-86852675D01*
X224788062Y-86916734D01*
X224826584Y-86974387D01*
X224875613Y-87023416D01*
X224933266Y-87061938D01*
X224997325Y-87088473D01*
X225065331Y-87102000D01*
X225134669Y-87102000D01*
X225202675Y-87088473D01*
X225266734Y-87061938D01*
X225324387Y-87023416D01*
X225329516Y-87018287D01*
X225359981Y-87285265D01*
X225302675Y-87261527D01*
X225234669Y-87248000D01*
X225165331Y-87248000D01*
X225097325Y-87261527D01*
X225033266Y-87288062D01*
X224975613Y-87326584D01*
X224926584Y-87375613D01*
X224888062Y-87433266D01*
X224861527Y-87497325D01*
X224848000Y-87565331D01*
X224848000Y-87634669D01*
X224861527Y-87702675D01*
X224871499Y-87726749D01*
X224822329Y-87736529D01*
X224758270Y-87763064D01*
X224700617Y-87801586D01*
X224651588Y-87850615D01*
X224613066Y-87908268D01*
X224586531Y-87972327D01*
X224573004Y-88040333D01*
X224573004Y-88109671D01*
X224586531Y-88177677D01*
X224613066Y-88241736D01*
X224641375Y-88284104D01*
X224610693Y-88330024D01*
X224584158Y-88394083D01*
X224570631Y-88462089D01*
X224570631Y-88531427D01*
X224584158Y-88599433D01*
X224610693Y-88663492D01*
X224649215Y-88721145D01*
X224698244Y-88770174D01*
X224755897Y-88808696D01*
X224819956Y-88835231D01*
X224887962Y-88848758D01*
X224957300Y-88848758D01*
X225025306Y-88835231D01*
X225089365Y-88808696D01*
X225147018Y-88770174D01*
X225196047Y-88721145D01*
X225234569Y-88663492D01*
X225261104Y-88599433D01*
X225274631Y-88531427D01*
X225274631Y-88462089D01*
X225261104Y-88394083D01*
X225234569Y-88330024D01*
X225206260Y-88287656D01*
X225236942Y-88241736D01*
X225263477Y-88177677D01*
X225277004Y-88109671D01*
X225277004Y-88040333D01*
X225263477Y-87972327D01*
X225253505Y-87948253D01*
X225302675Y-87938473D01*
X225366734Y-87911938D01*
X225424387Y-87873416D01*
X225426820Y-87870983D01*
X225464778Y-88203616D01*
X225449992Y-89431387D01*
X225281446Y-90647606D01*
X225043388Y-91530504D01*
X225023416Y-91500613D01*
X224974387Y-91451584D01*
X224916734Y-91413062D01*
X224852675Y-91386527D01*
X224784669Y-91373000D01*
X224715331Y-91373000D01*
X224647325Y-91386527D01*
X224583266Y-91413062D01*
X224525613Y-91451584D01*
X224476584Y-91500613D01*
X224438062Y-91558266D01*
X224411527Y-91622325D01*
X224398000Y-91690331D01*
X224398000Y-91759669D01*
X224411527Y-91827675D01*
X224438062Y-91891734D01*
X224476584Y-91949387D01*
X224525613Y-91998416D01*
X224583266Y-92036938D01*
X224647325Y-92063473D01*
X224715331Y-92077000D01*
X224784669Y-92077000D01*
X224852675Y-92063473D01*
X224870373Y-92056142D01*
X224739683Y-92374958D01*
X224723416Y-92350613D01*
X224674387Y-92301584D01*
X224616734Y-92263062D01*
X224552675Y-92236527D01*
X224484669Y-92223000D01*
X224415331Y-92223000D01*
X224347325Y-92236527D01*
X224283266Y-92263062D01*
X224225613Y-92301584D01*
X224176584Y-92350613D01*
X224138062Y-92408266D01*
X224111527Y-92472325D01*
X224098000Y-92540331D01*
X224098000Y-92609669D01*
X224111527Y-92677675D01*
X224138062Y-92741734D01*
X224176584Y-92799387D01*
X224225613Y-92848416D01*
X224283266Y-92886938D01*
X224347325Y-92913473D01*
X224415331Y-92927000D01*
X224484669Y-92927000D01*
X224515937Y-92920781D01*
X224496077Y-92969228D01*
X224399836Y-93139403D01*
X224386938Y-93108266D01*
X224348416Y-93050613D01*
X224299387Y-93001584D01*
X224241734Y-92963062D01*
X224177675Y-92936527D01*
X224109669Y-92923000D01*
X224040331Y-92923000D01*
X223972325Y-92936527D01*
X223908266Y-92963062D01*
X223850613Y-93001584D01*
X223801584Y-93050613D01*
X223763062Y-93108266D01*
X223736527Y-93172325D01*
X223723000Y-93240331D01*
X223723000Y-93309669D01*
X223736527Y-93377675D01*
X223763062Y-93441734D01*
X223801584Y-93499387D01*
X223850613Y-93548416D01*
X223908266Y-93586938D01*
X223972325Y-93613473D01*
X224040331Y-93627000D01*
X224109669Y-93627000D01*
X224125907Y-93623770D01*
X224013510Y-93822512D01*
X224013473Y-93822325D01*
X223986938Y-93758266D01*
X223948416Y-93700613D01*
X223899387Y-93651584D01*
X223841734Y-93613062D01*
X223777675Y-93586527D01*
X223709669Y-93573000D01*
X223640331Y-93573000D01*
X223572325Y-93586527D01*
X223508266Y-93613062D01*
X223450613Y-93651584D01*
X223401584Y-93700613D01*
X223363062Y-93758266D01*
X223336527Y-93822325D01*
X223323000Y-93890331D01*
X223323000Y-93959669D01*
X223336527Y-94027675D01*
X223363062Y-94091734D01*
X223401584Y-94149387D01*
X223450613Y-94198416D01*
X223508266Y-94236938D01*
X223572325Y-94263473D01*
X223640331Y-94277000D01*
X223709669Y-94277000D01*
X223714242Y-94276090D01*
X223551789Y-94494118D01*
X223536938Y-94458266D01*
X223498416Y-94400613D01*
X223449387Y-94351584D01*
X223391734Y-94313062D01*
X223327675Y-94286527D01*
X223259669Y-94273000D01*
X223190331Y-94273000D01*
X223122325Y-94286527D01*
X223058266Y-94313062D01*
X223000613Y-94351584D01*
X222951584Y-94400613D01*
X222913062Y-94458266D01*
X222886527Y-94522325D01*
X222873000Y-94590331D01*
X222873000Y-94659669D01*
X222886527Y-94727675D01*
X222913062Y-94791734D01*
X222951584Y-94849387D01*
X223000613Y-94898416D01*
X223058266Y-94936938D01*
X223122325Y-94963473D01*
X223190331Y-94977000D01*
X223191993Y-94977000D01*
X223158015Y-95022602D01*
X222306773Y-95907485D01*
X221351342Y-96678698D01*
X220306779Y-97324086D01*
X219189572Y-97833464D01*
X218017327Y-98198804D01*
X216808543Y-98414340D01*
X215582269Y-98476676D01*
X214357852Y-98384828D01*
X213154609Y-98140247D01*
X211991500Y-97746784D01*
X210886882Y-97210650D01*
X210538837Y-96983849D01*
X210591734Y-96961938D01*
X210649387Y-96923416D01*
X210698416Y-96874387D01*
X210736938Y-96816734D01*
X210763473Y-96752675D01*
X210777000Y-96684669D01*
X210777000Y-96615331D01*
X210763473Y-96547325D01*
X210736938Y-96483266D01*
X210698416Y-96425613D01*
X210649387Y-96376584D01*
X210591734Y-96338062D01*
X210527675Y-96311527D01*
X210459669Y-96298000D01*
X210390331Y-96298000D01*
X210322325Y-96311527D01*
X210258266Y-96338062D01*
X210200613Y-96376584D01*
X210151584Y-96425613D01*
X210113062Y-96483266D01*
X210086527Y-96547325D01*
X210073000Y-96615331D01*
X210073000Y-96680291D01*
X209858166Y-96540296D01*
X209754014Y-96452000D01*
X209759669Y-96452000D01*
X209827675Y-96438473D01*
X209891734Y-96411938D01*
X209949387Y-96373416D01*
X209998416Y-96324387D01*
X210036938Y-96266734D01*
X210063473Y-96202675D01*
X210077000Y-96134669D01*
X210077000Y-96065331D01*
X210063473Y-95997325D01*
X210036938Y-95933266D01*
X209998416Y-95875613D01*
X209949387Y-95826584D01*
X209891734Y-95788062D01*
X209827675Y-95761527D01*
X209759669Y-95748000D01*
X209690331Y-95748000D01*
X209622325Y-95761527D01*
X209558266Y-95788062D01*
X209500613Y-95826584D01*
X209451584Y-95875613D01*
X209413062Y-95933266D01*
X209386527Y-95997325D01*
X209373000Y-96065331D01*
X209373000Y-96128992D01*
X209072698Y-95874408D01*
X209127675Y-95863473D01*
X209191734Y-95836938D01*
X209249387Y-95798416D01*
X209298416Y-95749387D01*
X209336938Y-95691734D01*
X209363473Y-95627675D01*
X209377000Y-95559669D01*
X209377000Y-95490331D01*
X209363473Y-95422325D01*
X209336938Y-95358266D01*
X209298416Y-95300613D01*
X209249387Y-95251584D01*
X209191734Y-95213062D01*
X209127675Y-95186527D01*
X209059669Y-95173000D01*
X208990331Y-95173000D01*
X208922325Y-95186527D01*
X208858266Y-95213062D01*
X208800613Y-95251584D01*
X208751584Y-95300613D01*
X208713062Y-95358266D01*
X208686527Y-95422325D01*
X208675487Y-95477827D01*
X208482650Y-95267456D01*
X208502675Y-95263473D01*
X208566734Y-95236938D01*
X208624387Y-95198416D01*
X208673416Y-95149387D01*
X208711938Y-95091734D01*
X208738473Y-95027675D01*
X208752000Y-94959669D01*
X208752000Y-94890331D01*
X208738473Y-94822325D01*
X208711938Y-94758266D01*
X208673416Y-94700613D01*
X208624387Y-94651584D01*
X208566734Y-94613062D01*
X208502675Y-94586527D01*
X208434669Y-94573000D01*
X208365331Y-94573000D01*
X208297325Y-94586527D01*
X208233266Y-94613062D01*
X208175613Y-94651584D01*
X208126584Y-94700613D01*
X208088062Y-94758266D01*
X208067807Y-94807165D01*
X207887072Y-94552000D01*
X207909669Y-94552000D01*
X207977675Y-94538473D01*
X208041734Y-94511938D01*
X208099387Y-94473416D01*
X208148416Y-94424387D01*
X208186938Y-94366734D01*
X208213473Y-94302675D01*
X208227000Y-94234669D01*
X208227000Y-94165331D01*
X208213473Y-94097325D01*
X208186938Y-94033266D01*
X208148416Y-93975613D01*
X208099387Y-93926584D01*
X208041734Y-93888062D01*
X207977675Y-93861527D01*
X207909669Y-93848000D01*
X207840331Y-93848000D01*
X207772325Y-93861527D01*
X207708266Y-93888062D01*
X207650613Y-93926584D01*
X207601584Y-93975613D01*
X207563062Y-94033266D01*
X207547043Y-94071938D01*
X207382195Y-93839203D01*
X206968812Y-93065331D01*
X208298000Y-93065331D01*
X208298000Y-93134669D01*
X208311527Y-93202675D01*
X208338062Y-93266734D01*
X208376584Y-93324387D01*
X208425613Y-93373416D01*
X208483266Y-93411938D01*
X208547325Y-93438473D01*
X208611124Y-93451163D01*
X211520411Y-96360452D01*
X211529038Y-96370964D01*
X211539550Y-96379591D01*
X211539557Y-96379598D01*
X211571033Y-96405429D01*
X211608795Y-96425613D01*
X211618946Y-96431039D01*
X211670935Y-96446810D01*
X211711457Y-96450801D01*
X211711466Y-96450801D01*
X211725000Y-96452134D01*
X211738535Y-96450801D01*
X220829181Y-96450801D01*
X220883266Y-96486939D01*
X220947325Y-96513474D01*
X221015331Y-96527001D01*
X221084669Y-96527001D01*
X221152675Y-96513474D01*
X221216734Y-96486939D01*
X221274387Y-96448417D01*
X221323416Y-96399388D01*
X221361938Y-96341735D01*
X221388473Y-96277676D01*
X221402000Y-96209670D01*
X221402000Y-96140332D01*
X221388473Y-96072326D01*
X221361938Y-96008267D01*
X221323416Y-95950614D01*
X221274387Y-95901585D01*
X221216734Y-95863063D01*
X221152675Y-95836528D01*
X221084669Y-95823001D01*
X221015331Y-95823001D01*
X220947325Y-95836528D01*
X220883266Y-95863063D01*
X220829181Y-95899201D01*
X211839242Y-95899201D01*
X209001163Y-93061124D01*
X208988473Y-92997325D01*
X208961938Y-92933266D01*
X208923416Y-92875613D01*
X208874387Y-92826584D01*
X208816734Y-92788062D01*
X208752675Y-92761527D01*
X208684669Y-92748000D01*
X208615331Y-92748000D01*
X208547325Y-92761527D01*
X208483266Y-92788062D01*
X208425613Y-92826584D01*
X208376584Y-92875613D01*
X208338062Y-92933266D01*
X208311527Y-92997325D01*
X208298000Y-93065331D01*
X206968812Y-93065331D01*
X206803669Y-92756177D01*
X206365447Y-91609193D01*
X206074434Y-90416320D01*
X205935222Y-89196384D01*
X205942219Y-88615331D01*
X207198000Y-88615331D01*
X207198000Y-88684669D01*
X207211527Y-88752675D01*
X207238062Y-88816734D01*
X207276584Y-88874387D01*
X207325613Y-88923416D01*
X207383266Y-88961938D01*
X207447325Y-88988473D01*
X207515331Y-89002000D01*
X207584669Y-89002000D01*
X207652675Y-88988473D01*
X207716734Y-88961938D01*
X207774387Y-88923416D01*
X207823416Y-88874387D01*
X207861938Y-88816734D01*
X207888473Y-88752675D01*
X207902000Y-88684669D01*
X207902000Y-88615331D01*
X207888473Y-88547325D01*
X207861938Y-88483266D01*
X207823416Y-88425613D01*
X207774387Y-88376584D01*
X207716734Y-88338062D01*
X207652675Y-88311527D01*
X207584669Y-88298000D01*
X207515331Y-88298000D01*
X207447325Y-88311527D01*
X207383266Y-88338062D01*
X207325613Y-88376584D01*
X207276584Y-88425613D01*
X207238062Y-88483266D01*
X207211527Y-88547325D01*
X207198000Y-88615331D01*
X205942219Y-88615331D01*
X205950008Y-87968614D01*
X206118554Y-86752394D01*
X206438211Y-85566866D01*
X206695042Y-84940331D01*
X208798000Y-84940331D01*
X208798000Y-85009669D01*
X208811527Y-85077675D01*
X208838062Y-85141734D01*
X208876584Y-85199387D01*
X208925613Y-85248416D01*
X208983266Y-85286938D01*
X209047325Y-85313473D01*
X209115331Y-85327000D01*
X209184669Y-85327000D01*
X209252675Y-85313473D01*
X209316734Y-85286938D01*
X209374387Y-85248416D01*
X209423416Y-85199387D01*
X209461938Y-85141734D01*
X209488473Y-85077675D01*
X209502000Y-85009669D01*
X209502000Y-84940331D01*
X209488473Y-84872325D01*
X209461938Y-84808266D01*
X209423416Y-84750613D01*
X209374387Y-84701584D01*
X209316734Y-84663062D01*
X209252675Y-84636527D01*
X209184669Y-84623000D01*
X209115331Y-84623000D01*
X209047325Y-84636527D01*
X208983266Y-84663062D01*
X208925613Y-84701584D01*
X208876584Y-84750613D01*
X208838062Y-84808266D01*
X208811527Y-84872325D01*
X208798000Y-84940331D01*
X206695042Y-84940331D01*
X206903925Y-84430766D01*
X207407503Y-83540331D01*
X207673000Y-83540331D01*
X207673000Y-83609669D01*
X207686527Y-83677675D01*
X207713062Y-83741734D01*
X207751584Y-83799387D01*
X207800613Y-83848416D01*
X207858266Y-83886938D01*
X207922325Y-83913473D01*
X207990331Y-83927000D01*
X208059669Y-83927000D01*
X208127675Y-83913473D01*
X208191734Y-83886938D01*
X208249387Y-83848416D01*
X208298416Y-83799387D01*
X208336938Y-83741734D01*
X208363473Y-83677675D01*
X208377000Y-83609669D01*
X208377000Y-83540331D01*
X208363473Y-83472325D01*
X208336938Y-83408266D01*
X208298416Y-83350613D01*
X208249387Y-83301584D01*
X208191734Y-83263062D01*
X208127675Y-83236527D01*
X208059669Y-83223000D01*
X207990331Y-83223000D01*
X207922325Y-83236527D01*
X207858266Y-83263062D01*
X207800613Y-83301584D01*
X207751584Y-83350613D01*
X207713062Y-83408266D01*
X207686527Y-83472325D01*
X207673000Y-83540331D01*
X207407503Y-83540331D01*
X207508362Y-83361991D01*
X208241985Y-82377398D01*
X209093227Y-81492515D01*
X210048658Y-80721302D01*
X210098784Y-80690331D01*
X211873000Y-80690331D01*
X211873000Y-80759669D01*
X211886527Y-80827675D01*
X211913062Y-80891734D01*
X211951584Y-80949387D01*
X212000613Y-80998416D01*
X212058266Y-81036938D01*
X212122325Y-81063473D01*
X212190331Y-81077000D01*
X212259669Y-81077000D01*
X212327675Y-81063473D01*
X212391734Y-81036938D01*
X212449387Y-80998416D01*
X212498416Y-80949387D01*
X212536938Y-80891734D01*
X212563473Y-80827675D01*
X212577000Y-80759669D01*
X212577000Y-80690331D01*
X212567055Y-80640331D01*
X216448000Y-80640331D01*
X216448000Y-80709669D01*
X216461527Y-80777675D01*
X216488062Y-80841734D01*
X216526584Y-80899387D01*
X216575613Y-80948416D01*
X216633266Y-80986938D01*
X216697325Y-81013473D01*
X216765331Y-81027000D01*
X216834669Y-81027000D01*
X216902675Y-81013473D01*
X216966734Y-80986938D01*
X217024387Y-80948416D01*
X217073416Y-80899387D01*
X217111938Y-80841734D01*
X217138473Y-80777675D01*
X217152000Y-80709669D01*
X217152000Y-80640331D01*
X217138473Y-80572325D01*
X217111938Y-80508266D01*
X217073416Y-80450613D01*
X217024387Y-80401584D01*
X216966734Y-80363062D01*
X216902675Y-80336527D01*
X216834669Y-80323000D01*
X216765331Y-80323000D01*
X216697325Y-80336527D01*
X216633266Y-80363062D01*
X216575613Y-80401584D01*
X216526584Y-80450613D01*
X216488062Y-80508266D01*
X216461527Y-80572325D01*
X216448000Y-80640331D01*
X212567055Y-80640331D01*
X212563473Y-80622325D01*
X212536938Y-80558266D01*
X212498416Y-80500613D01*
X212449387Y-80451584D01*
X212391734Y-80413062D01*
X212327675Y-80386527D01*
X212259669Y-80373000D01*
X212190331Y-80373000D01*
X212122325Y-80386527D01*
X212058266Y-80413062D01*
X212000613Y-80451584D01*
X211951584Y-80500613D01*
X211913062Y-80558266D01*
X211886527Y-80622325D01*
X211873000Y-80690331D01*
X210098784Y-80690331D01*
X211094488Y-80075132D01*
X211983944Y-79656791D01*
X211988062Y-79666734D01*
X212026584Y-79724387D01*
X212075613Y-79773416D01*
X212133266Y-79811938D01*
X212197325Y-79838473D01*
X212265331Y-79852000D01*
X212334669Y-79852000D01*
X212402675Y-79838473D01*
X212466734Y-79811938D01*
X212524387Y-79773416D01*
X212573416Y-79724387D01*
X212600000Y-79684601D01*
X212626584Y-79724387D01*
X212675613Y-79773416D01*
X212733266Y-79811938D01*
X212797325Y-79838473D01*
X212855286Y-79850002D01*
X212797325Y-79861531D01*
X212733266Y-79888066D01*
X212675613Y-79926588D01*
X212626584Y-79975617D01*
X212588062Y-80033270D01*
X212561527Y-80097329D01*
X212548000Y-80165335D01*
X212548000Y-80234673D01*
X212561527Y-80302679D01*
X212588062Y-80366738D01*
X212626584Y-80424391D01*
X212675613Y-80473420D01*
X212733266Y-80511942D01*
X212797325Y-80538477D01*
X212865331Y-80552004D01*
X212934669Y-80552004D01*
X213002675Y-80538477D01*
X213066734Y-80511942D01*
X213124387Y-80473420D01*
X213173416Y-80424391D01*
X213211938Y-80366738D01*
X213238473Y-80302679D01*
X213252000Y-80234673D01*
X213252000Y-80165335D01*
X213238473Y-80097329D01*
X213211938Y-80033270D01*
X213173416Y-79975617D01*
X213124387Y-79926588D01*
X213066734Y-79888066D01*
X213002675Y-79861531D01*
X212944714Y-79850002D01*
X213002675Y-79838473D01*
X213066734Y-79811938D01*
X213124387Y-79773416D01*
X213173416Y-79724387D01*
X213211938Y-79666734D01*
X213238473Y-79602675D01*
X213243978Y-79575000D01*
X218156022Y-79575000D01*
X218161527Y-79602675D01*
G37*
X218161527Y-79602675D02*
X218188062Y-79666734D01*
X218226584Y-79724387D01*
X218275613Y-79773416D01*
X218333266Y-79811938D01*
X218397325Y-79838473D01*
X218465331Y-79852000D01*
X218534669Y-79852000D01*
X218602675Y-79838473D01*
X218666734Y-79811938D01*
X218724387Y-79773416D01*
X218773416Y-79724387D01*
X218800000Y-79684601D01*
X218826584Y-79724387D01*
X218875613Y-79773416D01*
X218933266Y-79811938D01*
X218997325Y-79838473D01*
X219065331Y-79852000D01*
X219134669Y-79852000D01*
X219151310Y-79848690D01*
X219148000Y-79865331D01*
X219148000Y-79934669D01*
X219161527Y-80002675D01*
X219188062Y-80066734D01*
X219226584Y-80124387D01*
X219275613Y-80173416D01*
X219333266Y-80211938D01*
X219397325Y-80238473D01*
X219465331Y-80252000D01*
X219495221Y-80252000D01*
X219447325Y-80261527D01*
X219383266Y-80288062D01*
X219325613Y-80326584D01*
X219276584Y-80375613D01*
X219238062Y-80433266D01*
X219211527Y-80497325D01*
X219198000Y-80565331D01*
X219198000Y-80634669D01*
X219211527Y-80702675D01*
X219238062Y-80766734D01*
X219276584Y-80824387D01*
X219325613Y-80873416D01*
X219365399Y-80900000D01*
X219325613Y-80926584D01*
X219276584Y-80975613D01*
X219238062Y-81033266D01*
X219211527Y-81097325D01*
X219201447Y-81148000D01*
X219165331Y-81148000D01*
X219097325Y-81161527D01*
X219033266Y-81188062D01*
X218979181Y-81224200D01*
X218813531Y-81224200D01*
X218799999Y-81222867D01*
X218786467Y-81224200D01*
X218786456Y-81224200D01*
X218745934Y-81228191D01*
X218697848Y-81242778D01*
X218693945Y-81243962D01*
X218646032Y-81269572D01*
X218614556Y-81295404D01*
X218604037Y-81304037D01*
X218595406Y-81314554D01*
X218061124Y-81848837D01*
X217997325Y-81861527D01*
X217933266Y-81888062D01*
X217875613Y-81926584D01*
X217826584Y-81975613D01*
X217788062Y-82033266D01*
X217761527Y-82097325D01*
X217748000Y-82165331D01*
X217748000Y-82234669D01*
X217753783Y-82263744D01*
X217651163Y-82161124D01*
X217638473Y-82097325D01*
X217611938Y-82033266D01*
X217573416Y-81975613D01*
X217524387Y-81926584D01*
X217466734Y-81888062D01*
X217402675Y-81861527D01*
X217334669Y-81848000D01*
X217265331Y-81848000D01*
X217197325Y-81861527D01*
X217133266Y-81888062D01*
X217075613Y-81926584D01*
X217026584Y-81975613D01*
X216988062Y-82033266D01*
X216961527Y-82097325D01*
X216948000Y-82165331D01*
X216948000Y-82234669D01*
X216961527Y-82302675D01*
X216988062Y-82366734D01*
X217026584Y-82424387D01*
X217075613Y-82473416D01*
X217133266Y-82511938D01*
X217197325Y-82538473D01*
X217261124Y-82551163D01*
X218565406Y-83855446D01*
X218574037Y-83865963D01*
X218584554Y-83874594D01*
X218584557Y-83874597D01*
X218616032Y-83900428D01*
X218626528Y-83906038D01*
X218663945Y-83926038D01*
X218715934Y-83941809D01*
X218756456Y-83945800D01*
X218756465Y-83945800D01*
X218770000Y-83947133D01*
X218783534Y-83945800D01*
X219019181Y-83945800D01*
X219073266Y-83981938D01*
X219137325Y-84008473D01*
X219205331Y-84022000D01*
X219274669Y-84022000D01*
X219342675Y-84008473D01*
X219406734Y-83981938D01*
X219464387Y-83943416D01*
X219513416Y-83894387D01*
X219551938Y-83836734D01*
X219578473Y-83772675D01*
X219592000Y-83704669D01*
X219592000Y-83635331D01*
X219578473Y-83567325D01*
X219551938Y-83503266D01*
X219513416Y-83445613D01*
X219464387Y-83396584D01*
X219406734Y-83358062D01*
X219342675Y-83331527D01*
X219274669Y-83318000D01*
X219205331Y-83318000D01*
X219137325Y-83331527D01*
X219073266Y-83358062D01*
X219019181Y-83394200D01*
X218884240Y-83394200D01*
X218036256Y-82546217D01*
X218065331Y-82552000D01*
X218134669Y-82552000D01*
X218202675Y-82538473D01*
X218266734Y-82511938D01*
X218324387Y-82473416D01*
X218373416Y-82424387D01*
X218411938Y-82366734D01*
X218438473Y-82302675D01*
X218451163Y-82238876D01*
X218914240Y-81775800D01*
X218979181Y-81775800D01*
X219033266Y-81811938D01*
X219097325Y-81838473D01*
X219165331Y-81852000D01*
X219234669Y-81852000D01*
X219302675Y-81838473D01*
X219366734Y-81811938D01*
X219420819Y-81775800D01*
X220535761Y-81775800D01*
X223024201Y-84264241D01*
X223024201Y-85334161D01*
X222551163Y-84861124D01*
X222538473Y-84797325D01*
X222511938Y-84733266D01*
X222475800Y-84679181D01*
X222475800Y-84313533D01*
X222477133Y-84299999D01*
X222475800Y-84286465D01*
X222475800Y-84286456D01*
X222471809Y-84245934D01*
X222456038Y-84193945D01*
X222435776Y-84156038D01*
X222430428Y-84146032D01*
X222404596Y-84114556D01*
X222404594Y-84114554D01*
X222395963Y-84104037D01*
X222385446Y-84095406D01*
X222004598Y-83714559D01*
X221995963Y-83704037D01*
X221953967Y-83669572D01*
X221906055Y-83643962D01*
X221854066Y-83628191D01*
X221813544Y-83624200D01*
X221813534Y-83624200D01*
X221800000Y-83622867D01*
X221786466Y-83624200D01*
X221113533Y-83624200D01*
X221099999Y-83622867D01*
X221086465Y-83624200D01*
X221086456Y-83624200D01*
X221045934Y-83628191D01*
X221011664Y-83638587D01*
X220993945Y-83643962D01*
X220946032Y-83669572D01*
X220914556Y-83695404D01*
X220904037Y-83704037D01*
X220895406Y-83714554D01*
X219785761Y-84824200D01*
X217223534Y-84824200D01*
X217210000Y-84822867D01*
X217196465Y-84824200D01*
X217196456Y-84824200D01*
X217155934Y-84828191D01*
X217103945Y-84843962D01*
X217081357Y-84856036D01*
X217056032Y-84869572D01*
X217024557Y-84895403D01*
X217024554Y-84895406D01*
X217014037Y-84904037D01*
X217005406Y-84914554D01*
X216943719Y-84976241D01*
X216951988Y-84934669D01*
X216951988Y-84865331D01*
X216938461Y-84797325D01*
X216911926Y-84733266D01*
X216873404Y-84675613D01*
X216824375Y-84626584D01*
X216766722Y-84588062D01*
X216702663Y-84561527D01*
X216634657Y-84548000D01*
X216565319Y-84548000D01*
X216497313Y-84561527D01*
X216433254Y-84588062D01*
X216379169Y-84624200D01*
X215252000Y-84624200D01*
X215252000Y-84565329D01*
X215238473Y-84497323D01*
X215211938Y-84433264D01*
X215175800Y-84379179D01*
X215175800Y-84020819D01*
X215211938Y-83966734D01*
X215238473Y-83902675D01*
X215251163Y-83838876D01*
X215353783Y-83736256D01*
X215348000Y-83765331D01*
X215348000Y-83834669D01*
X215361527Y-83902675D01*
X215388062Y-83966734D01*
X215426584Y-84024387D01*
X215475613Y-84073416D01*
X215533266Y-84111938D01*
X215597325Y-84138473D01*
X215665331Y-84152000D01*
X215734669Y-84152000D01*
X215802675Y-84138473D01*
X215866734Y-84111938D01*
X215924387Y-84073416D01*
X215973416Y-84024387D01*
X216011938Y-83966734D01*
X216038473Y-83902675D01*
X216044956Y-83870084D01*
X216239240Y-83675800D01*
X216729181Y-83675800D01*
X216783266Y-83711938D01*
X216847325Y-83738473D01*
X216915331Y-83752000D01*
X216984669Y-83752000D01*
X217052675Y-83738473D01*
X217116734Y-83711938D01*
X217174387Y-83673416D01*
X217223416Y-83624387D01*
X217261938Y-83566734D01*
X217288473Y-83502675D01*
X217302000Y-83434669D01*
X217302000Y-83365331D01*
X217288473Y-83297325D01*
X217261938Y-83233266D01*
X217223416Y-83175613D01*
X217174387Y-83126584D01*
X217116734Y-83088062D01*
X217052675Y-83061527D01*
X216984669Y-83048000D01*
X216972000Y-83048000D01*
X216972000Y-83025331D01*
X216958473Y-82957325D01*
X216931938Y-82893266D01*
X216893416Y-82835613D01*
X216844387Y-82786584D01*
X216786734Y-82748062D01*
X216742727Y-82729833D01*
X216750036Y-82693085D01*
X216750036Y-82623747D01*
X216736509Y-82555741D01*
X216709974Y-82491682D01*
X216671452Y-82434029D01*
X216622423Y-82385000D01*
X216564770Y-82346478D01*
X216500711Y-82319943D01*
X216436913Y-82307253D01*
X215975800Y-81846141D01*
X215975800Y-81620813D01*
X216011938Y-81566728D01*
X216038473Y-81502669D01*
X216052000Y-81434663D01*
X216052000Y-81365325D01*
X216038473Y-81297319D01*
X216011938Y-81233260D01*
X215973416Y-81175607D01*
X215924387Y-81126578D01*
X215866734Y-81088056D01*
X215802675Y-81061521D01*
X215734669Y-81047994D01*
X215665331Y-81047994D01*
X215597325Y-81061521D01*
X215533266Y-81088056D01*
X215475613Y-81126578D01*
X215426584Y-81175607D01*
X215388062Y-81233260D01*
X215361527Y-81297319D01*
X215348000Y-81365325D01*
X215348000Y-81434663D01*
X215361527Y-81502669D01*
X215388062Y-81566728D01*
X215424201Y-81620814D01*
X215424200Y-81694035D01*
X215416578Y-81689961D01*
X215364589Y-81674190D01*
X215324067Y-81670199D01*
X215324057Y-81670199D01*
X215310523Y-81668866D01*
X215296989Y-81670199D01*
X214367545Y-81670199D01*
X214354011Y-81668866D01*
X214340477Y-81670199D01*
X214340467Y-81670199D01*
X214299945Y-81674190D01*
X214247956Y-81689961D01*
X214227959Y-81700650D01*
X214200043Y-81715571D01*
X214168568Y-81741402D01*
X214168565Y-81741405D01*
X214158048Y-81750036D01*
X214149417Y-81760554D01*
X214061123Y-81848847D01*
X213997325Y-81861537D01*
X213933266Y-81888072D01*
X213875613Y-81926594D01*
X213826584Y-81975623D01*
X213788062Y-82033276D01*
X213761527Y-82097335D01*
X213748000Y-82165341D01*
X213748000Y-82234679D01*
X213761527Y-82302685D01*
X213788062Y-82366744D01*
X213826584Y-82424397D01*
X213875613Y-82473426D01*
X213933266Y-82511948D01*
X213997325Y-82538483D01*
X214065331Y-82552010D01*
X214134669Y-82552010D01*
X214202675Y-82538483D01*
X214266734Y-82511948D01*
X214324387Y-82473426D01*
X214373416Y-82424397D01*
X214411938Y-82366744D01*
X214438473Y-82302685D01*
X214451163Y-82238887D01*
X214468251Y-82221799D01*
X214547996Y-82221799D01*
X214547996Y-82234669D01*
X214561523Y-82302675D01*
X214588058Y-82366734D01*
X214626580Y-82424387D01*
X214675609Y-82473416D01*
X214733262Y-82511938D01*
X214797321Y-82538473D01*
X214865327Y-82552000D01*
X214934665Y-82552000D01*
X215002671Y-82538473D01*
X215066730Y-82511938D01*
X215120815Y-82475800D01*
X215163349Y-82475800D01*
X215444041Y-82756492D01*
X215426584Y-82773949D01*
X215388062Y-82831602D01*
X215361527Y-82895661D01*
X215348424Y-82961536D01*
X214900000Y-83409960D01*
X214304599Y-82814560D01*
X214295963Y-82804037D01*
X214253967Y-82769572D01*
X214206055Y-82743962D01*
X214154066Y-82728191D01*
X214113544Y-82724200D01*
X214113534Y-82724200D01*
X214100000Y-82722867D01*
X214086466Y-82724200D01*
X213520819Y-82724200D01*
X213466734Y-82688062D01*
X213402675Y-82661527D01*
X213334669Y-82648000D01*
X213265331Y-82648000D01*
X213197325Y-82661527D01*
X213133266Y-82688062D01*
X213075613Y-82726584D01*
X213026584Y-82775613D01*
X212988062Y-82833266D01*
X212961527Y-82897325D01*
X212948000Y-82965331D01*
X212948000Y-83034669D01*
X212961527Y-83102675D01*
X212988062Y-83166734D01*
X213026584Y-83224387D01*
X213075613Y-83273416D01*
X213133266Y-83311938D01*
X213197325Y-83338473D01*
X213265331Y-83352000D01*
X213334669Y-83352000D01*
X213402675Y-83338473D01*
X213466734Y-83311938D01*
X213520819Y-83275800D01*
X213985761Y-83275800D01*
X214548837Y-83838877D01*
X214561527Y-83902675D01*
X214588062Y-83966734D01*
X214624200Y-84020819D01*
X214624201Y-84346426D01*
X214619591Y-84343962D01*
X214567602Y-84328191D01*
X214527080Y-84324200D01*
X214527070Y-84324200D01*
X214513536Y-84322867D01*
X214500002Y-84324200D01*
X214320819Y-84324200D01*
X214266734Y-84288062D01*
X214202675Y-84261527D01*
X214134669Y-84248000D01*
X214065331Y-84248000D01*
X213997325Y-84261527D01*
X213933266Y-84288062D01*
X213875613Y-84326584D01*
X213826584Y-84375613D01*
X213802179Y-84412139D01*
X212925800Y-83535761D01*
X212925800Y-82714239D01*
X213140184Y-82499856D01*
X213158266Y-82511938D01*
X213222325Y-82538473D01*
X213290331Y-82552000D01*
X213359669Y-82552000D01*
X213427675Y-82538473D01*
X213491734Y-82511938D01*
X213549387Y-82473416D01*
X213598416Y-82424387D01*
X213636938Y-82366734D01*
X213663473Y-82302675D01*
X213677000Y-82234669D01*
X213677000Y-82165331D01*
X213663473Y-82097325D01*
X213636938Y-82033266D01*
X213598416Y-81975613D01*
X213549387Y-81926584D01*
X213491734Y-81888062D01*
X213427675Y-81861527D01*
X213359669Y-81848000D01*
X213290331Y-81848000D01*
X213222325Y-81861527D01*
X213158266Y-81888062D01*
X213104181Y-81924200D01*
X213063533Y-81924200D01*
X213049999Y-81922867D01*
X213036465Y-81924200D01*
X213036456Y-81924200D01*
X212995934Y-81928191D01*
X212943945Y-81943962D01*
X212896032Y-81969572D01*
X212864556Y-81995404D01*
X212854037Y-82004037D01*
X212845406Y-82014554D01*
X212464559Y-82395402D01*
X212454037Y-82404037D01*
X212419572Y-82446033D01*
X212393962Y-82493946D01*
X212378191Y-82545935D01*
X212374200Y-82586457D01*
X212374200Y-82586466D01*
X212372867Y-82600000D01*
X212374200Y-82613535D01*
X212374201Y-83636456D01*
X212372867Y-83650000D01*
X212378192Y-83704066D01*
X212393962Y-83756053D01*
X212419572Y-83803967D01*
X212445403Y-83835442D01*
X212445407Y-83835446D01*
X212454038Y-83845963D01*
X212464555Y-83854594D01*
X213334160Y-84724200D01*
X212020819Y-84724200D01*
X211966734Y-84688062D01*
X211902675Y-84661527D01*
X211834669Y-84648000D01*
X211765331Y-84648000D01*
X211697325Y-84661527D01*
X211633266Y-84688062D01*
X211575613Y-84726584D01*
X211526584Y-84775613D01*
X211488062Y-84833266D01*
X211461527Y-84897325D01*
X211448000Y-84965331D01*
X211448000Y-85034669D01*
X211461527Y-85102675D01*
X211488062Y-85166734D01*
X211526584Y-85224387D01*
X211575613Y-85273416D01*
X211633266Y-85311938D01*
X211697325Y-85338473D01*
X211765331Y-85352000D01*
X211834669Y-85352000D01*
X211902675Y-85338473D01*
X211966734Y-85311938D01*
X212020819Y-85275800D01*
X212120443Y-85275800D01*
X212111527Y-85297325D01*
X212098000Y-85365331D01*
X212098000Y-85434669D01*
X212111527Y-85502675D01*
X212138062Y-85566734D01*
X212176584Y-85624387D01*
X212225613Y-85673416D01*
X212283266Y-85711938D01*
X212347325Y-85738473D01*
X212415331Y-85752000D01*
X212484669Y-85752000D01*
X212552675Y-85738473D01*
X212616734Y-85711938D01*
X212670819Y-85675800D01*
X212784160Y-85675800D01*
X212111124Y-86348837D01*
X212047325Y-86361527D01*
X211983266Y-86388062D01*
X211925613Y-86426584D01*
X211876584Y-86475613D01*
X211838062Y-86533266D01*
X211811527Y-86597325D01*
X211798000Y-86665331D01*
X211798000Y-86734669D01*
X211811527Y-86802675D01*
X211838062Y-86866734D01*
X211876584Y-86924387D01*
X211925613Y-86973416D01*
X211973393Y-87005341D01*
X211974201Y-87013544D01*
X211974200Y-88535759D01*
X211610761Y-88899200D01*
X209763531Y-88899200D01*
X209749999Y-88897867D01*
X209736467Y-88899200D01*
X209736456Y-88899200D01*
X209695934Y-88903191D01*
X209643945Y-88918962D01*
X209596032Y-88944572D01*
X209564556Y-88970404D01*
X209554037Y-88979037D01*
X209545406Y-88989554D01*
X209236124Y-89298837D01*
X209172325Y-89311527D01*
X209108266Y-89338062D01*
X209050613Y-89376584D01*
X209001584Y-89425613D01*
X208963062Y-89483266D01*
X208936527Y-89547325D01*
X208923000Y-89615331D01*
X208923000Y-89684669D01*
X208936527Y-89752675D01*
X208963062Y-89816734D01*
X209001584Y-89874387D01*
X209050613Y-89923416D01*
X209108266Y-89961938D01*
X209172325Y-89988473D01*
X209240331Y-90002000D01*
X209309669Y-90002000D01*
X209377675Y-89988473D01*
X209441734Y-89961938D01*
X209499387Y-89923416D01*
X209548416Y-89874387D01*
X209586938Y-89816734D01*
X209613473Y-89752675D01*
X209626163Y-89688876D01*
X209864240Y-89450800D01*
X211711466Y-89450800D01*
X211725000Y-89452133D01*
X211738534Y-89450800D01*
X211738544Y-89450800D01*
X211779066Y-89446809D01*
X211831055Y-89431038D01*
X211878967Y-89405428D01*
X211920963Y-89370963D01*
X211929598Y-89360441D01*
X212435451Y-88854590D01*
X212445963Y-88845963D01*
X212454590Y-88835451D01*
X212454597Y-88835444D01*
X212480428Y-88803968D01*
X212506038Y-88756055D01*
X212507268Y-88752000D01*
X212521809Y-88704066D01*
X212525800Y-88663544D01*
X212525800Y-88663535D01*
X212527133Y-88650001D01*
X212525800Y-88636466D01*
X212525800Y-88400462D01*
X212558379Y-88422230D01*
X212622438Y-88448765D01*
X212690444Y-88462292D01*
X212759782Y-88462292D01*
X212804933Y-88453311D01*
X212804933Y-88489818D01*
X212818460Y-88557824D01*
X212844995Y-88621883D01*
X212883517Y-88679536D01*
X212932546Y-88728565D01*
X212990199Y-88767087D01*
X212992743Y-88768141D01*
X211623092Y-90137793D01*
X211626814Y-90100002D01*
X211619573Y-90026490D01*
X211598130Y-89955801D01*
X211563310Y-89890655D01*
X211516448Y-89833554D01*
X211459347Y-89786692D01*
X211394201Y-89751872D01*
X211323512Y-89730429D01*
X211250000Y-89723188D01*
X211176488Y-89730429D01*
X211105799Y-89751872D01*
X211040653Y-89786692D01*
X210997859Y-89821813D01*
X210769673Y-90050000D01*
X208905330Y-90050000D01*
X208725000Y-89869671D01*
X208725000Y-87618415D01*
X208726814Y-87599999D01*
X208724196Y-87573416D01*
X208719574Y-87526487D01*
X208712146Y-87502002D01*
X208734669Y-87502002D01*
X208802675Y-87488475D01*
X208866734Y-87461940D01*
X208920819Y-87425802D01*
X210135763Y-87425802D01*
X211148837Y-88438878D01*
X211161527Y-88502675D01*
X211188062Y-88566734D01*
X211226584Y-88624387D01*
X211275613Y-88673416D01*
X211333266Y-88711938D01*
X211397325Y-88738473D01*
X211465331Y-88752000D01*
X211534669Y-88752000D01*
X211602675Y-88738473D01*
X211666734Y-88711938D01*
X211724387Y-88673416D01*
X211773416Y-88624387D01*
X211811938Y-88566734D01*
X211838473Y-88502675D01*
X211852000Y-88434669D01*
X211852000Y-88365331D01*
X211838473Y-88297325D01*
X211811938Y-88233266D01*
X211773416Y-88175613D01*
X211724387Y-88126584D01*
X211666734Y-88088062D01*
X211602675Y-88061527D01*
X211538878Y-88048837D01*
X210454601Y-86964562D01*
X210445965Y-86954039D01*
X210403969Y-86919574D01*
X210356057Y-86893964D01*
X210304068Y-86878193D01*
X210263546Y-86874202D01*
X210263536Y-86874202D01*
X210250002Y-86872869D01*
X210236468Y-86874202D01*
X208979556Y-86874202D01*
X208988473Y-86852675D01*
X209002000Y-86784669D01*
X209002000Y-86715331D01*
X208988473Y-86647325D01*
X208961938Y-86583266D01*
X208923416Y-86525613D01*
X208874387Y-86476584D01*
X208816734Y-86438062D01*
X208752675Y-86411527D01*
X208725800Y-86406181D01*
X208725800Y-85974829D01*
X208761938Y-85920744D01*
X208788473Y-85856685D01*
X208802000Y-85788679D01*
X208802000Y-85770014D01*
X208842295Y-85743090D01*
X208891324Y-85694061D01*
X208929846Y-85636408D01*
X208956381Y-85572349D01*
X208969908Y-85504343D01*
X208969908Y-85435005D01*
X208956381Y-85366999D01*
X208929846Y-85302940D01*
X208891324Y-85245287D01*
X208842295Y-85196258D01*
X208784642Y-85157736D01*
X208720583Y-85131201D01*
X208652577Y-85117674D01*
X208583239Y-85117674D01*
X208515233Y-85131201D01*
X208451174Y-85157736D01*
X208397089Y-85193874D01*
X208291677Y-85193874D01*
X208274387Y-85176584D01*
X208216734Y-85138062D01*
X208152675Y-85111527D01*
X208084669Y-85098000D01*
X208015331Y-85098000D01*
X207947325Y-85111527D01*
X207883266Y-85138062D01*
X207825613Y-85176584D01*
X207776584Y-85225613D01*
X207738062Y-85283266D01*
X207711527Y-85347325D01*
X207698000Y-85415331D01*
X207698000Y-85484669D01*
X207711527Y-85552675D01*
X207738062Y-85616734D01*
X207776584Y-85674387D01*
X207825613Y-85723416D01*
X207883266Y-85761938D01*
X207947325Y-85788473D01*
X208015331Y-85802000D01*
X208084669Y-85802000D01*
X208100041Y-85798942D01*
X208111527Y-85856685D01*
X208138062Y-85920744D01*
X208174201Y-85974830D01*
X208174200Y-86536465D01*
X208172867Y-86550000D01*
X208174200Y-86563534D01*
X208174200Y-86563543D01*
X208178191Y-86604065D01*
X208193962Y-86656054D01*
X208219572Y-86703967D01*
X208254037Y-86745963D01*
X208264559Y-86754598D01*
X208298837Y-86788876D01*
X208311527Y-86852675D01*
X208338062Y-86916734D01*
X208376584Y-86974387D01*
X208387301Y-86985104D01*
X208361527Y-87047327D01*
X208355908Y-87075578D01*
X208302140Y-87021811D01*
X208259346Y-86986691D01*
X208194200Y-86951870D01*
X208123512Y-86930427D01*
X208050000Y-86923186D01*
X207976488Y-86930427D01*
X207905800Y-86951870D01*
X207840654Y-86986691D01*
X207783553Y-87033553D01*
X207736691Y-87090654D01*
X207701870Y-87155800D01*
X207680427Y-87226488D01*
X207673186Y-87300000D01*
X207680427Y-87373512D01*
X207701870Y-87444200D01*
X207736691Y-87509346D01*
X207771811Y-87552140D01*
X207975001Y-87755331D01*
X207975000Y-90006584D01*
X207973186Y-90025000D01*
X207975000Y-90043416D01*
X207975000Y-90043418D01*
X207980426Y-90098512D01*
X208001869Y-90169199D01*
X208036691Y-90234346D01*
X208083552Y-90291448D01*
X208097866Y-90303195D01*
X208471809Y-90677139D01*
X208483552Y-90691448D01*
X208513766Y-90716243D01*
X208540652Y-90738309D01*
X208605798Y-90773130D01*
X208605800Y-90773131D01*
X208676487Y-90794574D01*
X208731581Y-90800000D01*
X208731583Y-90800000D01*
X208749999Y-90801814D01*
X208768415Y-90800000D01*
X208927984Y-90800000D01*
X208925613Y-90801584D01*
X208876584Y-90850613D01*
X208838062Y-90908266D01*
X208811527Y-90972325D01*
X208798000Y-91040331D01*
X208798000Y-91109669D01*
X208811527Y-91177675D01*
X208838062Y-91241734D01*
X208876584Y-91299387D01*
X208925613Y-91348416D01*
X208983266Y-91386938D01*
X209047325Y-91413473D01*
X209115331Y-91427000D01*
X209184669Y-91427000D01*
X209252675Y-91413473D01*
X209316734Y-91386938D01*
X209374387Y-91348416D01*
X209423416Y-91299387D01*
X209461938Y-91241734D01*
X209488473Y-91177675D01*
X209502000Y-91109669D01*
X209502000Y-91040331D01*
X209488473Y-90972325D01*
X209461938Y-90908266D01*
X209423416Y-90850613D01*
X209374387Y-90801584D01*
X209372016Y-90800000D01*
X210906586Y-90800000D01*
X210925002Y-90801814D01*
X210943418Y-90800000D01*
X210943421Y-90800000D01*
X210998515Y-90794574D01*
X211069202Y-90773131D01*
X211134349Y-90738309D01*
X211191450Y-90691448D01*
X211203197Y-90677134D01*
X211268844Y-90611487D01*
X211269592Y-90619077D01*
X211269591Y-91024563D01*
X211233453Y-91078649D01*
X211206918Y-91142708D01*
X211193391Y-91210714D01*
X211193391Y-91280052D01*
X211201376Y-91320198D01*
X210517536Y-91320198D01*
X210504002Y-91318865D01*
X210494086Y-91319842D01*
X210475617Y-91275254D01*
X210437095Y-91217601D01*
X210388066Y-91168572D01*
X210330413Y-91130050D01*
X210266354Y-91103515D01*
X210198348Y-91089988D01*
X210129010Y-91089988D01*
X210061004Y-91103515D01*
X209996945Y-91130050D01*
X209939292Y-91168572D01*
X209890263Y-91217601D01*
X209851741Y-91275254D01*
X209825206Y-91339313D01*
X209811679Y-91407319D01*
X209811679Y-91476657D01*
X209825206Y-91544663D01*
X209851741Y-91608722D01*
X209890263Y-91666375D01*
X209938043Y-91714155D01*
X209926584Y-91725613D01*
X209888062Y-91783266D01*
X209861527Y-91847325D01*
X209848000Y-91915331D01*
X209848000Y-91984669D01*
X209861527Y-92052675D01*
X209888062Y-92116734D01*
X209926584Y-92174387D01*
X209975613Y-92223416D01*
X210033266Y-92261938D01*
X210097325Y-92288473D01*
X210165331Y-92302000D01*
X210234669Y-92302000D01*
X210302675Y-92288473D01*
X210366734Y-92261938D01*
X210424387Y-92223416D01*
X210435103Y-92212700D01*
X210497321Y-92238473D01*
X210565327Y-92252000D01*
X210634665Y-92252000D01*
X210702671Y-92238473D01*
X210766730Y-92211938D01*
X210820815Y-92175800D01*
X212729181Y-92175800D01*
X212783266Y-92211938D01*
X212847325Y-92238473D01*
X212915331Y-92252000D01*
X212984669Y-92252000D01*
X213052675Y-92238473D01*
X213116734Y-92211938D01*
X213174387Y-92173416D01*
X213213960Y-92133843D01*
X213267321Y-92169497D01*
X213331380Y-92196032D01*
X213399386Y-92209559D01*
X213468724Y-92209559D01*
X213536730Y-92196032D01*
X213549234Y-92190853D01*
X213561531Y-92252675D01*
X213588066Y-92316734D01*
X213626588Y-92374387D01*
X213675617Y-92423416D01*
X213733270Y-92461938D01*
X213797329Y-92488473D01*
X213865335Y-92502000D01*
X213934673Y-92502000D01*
X214002679Y-92488473D01*
X214066738Y-92461938D01*
X214124391Y-92423416D01*
X214173420Y-92374387D01*
X214211942Y-92316734D01*
X214238477Y-92252675D01*
X214252004Y-92184669D01*
X214252004Y-92115331D01*
X214238477Y-92047325D01*
X214211942Y-91983266D01*
X214175800Y-91929175D01*
X214175800Y-91575800D01*
X214986466Y-91575800D01*
X215000000Y-91577133D01*
X215013534Y-91575800D01*
X215013544Y-91575800D01*
X215054066Y-91571809D01*
X215106055Y-91556038D01*
X215153967Y-91530428D01*
X215195963Y-91495963D01*
X215204599Y-91485440D01*
X215964240Y-90725800D01*
X217379181Y-90725800D01*
X217433266Y-90761938D01*
X217497325Y-90788473D01*
X217565331Y-90802000D01*
X217634669Y-90802000D01*
X217702675Y-90788473D01*
X217766734Y-90761938D01*
X217824387Y-90723416D01*
X217873416Y-90674387D01*
X217911938Y-90616734D01*
X217938473Y-90552675D01*
X217952000Y-90484669D01*
X217952000Y-90415331D01*
X217938473Y-90347325D01*
X217911938Y-90283266D01*
X217873416Y-90225613D01*
X217824387Y-90176584D01*
X217766734Y-90138062D01*
X217702675Y-90111527D01*
X217634669Y-90098000D01*
X217565331Y-90098000D01*
X217497325Y-90111527D01*
X217433266Y-90138062D01*
X217379181Y-90174200D01*
X215863534Y-90174200D01*
X215850000Y-90172867D01*
X215836466Y-90174200D01*
X215836456Y-90174200D01*
X215795934Y-90178191D01*
X215743945Y-90193962D01*
X215728185Y-90202386D01*
X215696032Y-90219572D01*
X215664557Y-90245403D01*
X215664554Y-90245406D01*
X215654037Y-90254037D01*
X215645406Y-90264554D01*
X214885761Y-91024200D01*
X214175800Y-91024200D01*
X214175800Y-89889239D01*
X215635451Y-88429590D01*
X215645963Y-88420963D01*
X215654590Y-88410451D01*
X215654597Y-88410444D01*
X215680428Y-88378968D01*
X215706038Y-88331055D01*
X215708522Y-88322867D01*
X215721809Y-88279066D01*
X215725800Y-88238544D01*
X215725800Y-88238535D01*
X215727133Y-88225001D01*
X215725800Y-88211466D01*
X215725800Y-87714239D01*
X217022206Y-86417834D01*
X217024200Y-86420819D01*
X217024201Y-87236456D01*
X217022867Y-87250000D01*
X217028192Y-87304066D01*
X217043962Y-87356053D01*
X217069572Y-87403967D01*
X217095403Y-87435442D01*
X217095407Y-87435446D01*
X217104038Y-87445963D01*
X217114555Y-87454594D01*
X221263743Y-91603783D01*
X221238877Y-91598837D01*
X221045777Y-91405738D01*
X221037143Y-91395217D01*
X220995147Y-91360752D01*
X220947235Y-91335142D01*
X220895246Y-91319371D01*
X220854724Y-91315380D01*
X220854714Y-91315380D01*
X220841180Y-91314047D01*
X220827646Y-91315380D01*
X219170819Y-91315380D01*
X219116734Y-91279242D01*
X219052675Y-91252707D01*
X218984669Y-91239180D01*
X218983581Y-91239180D01*
X218976968Y-91233753D01*
X218929056Y-91208143D01*
X218877067Y-91192372D01*
X218836545Y-91188381D01*
X218836535Y-91188381D01*
X218823001Y-91187048D01*
X218809467Y-91188381D01*
X215799353Y-91188381D01*
X215785818Y-91187048D01*
X215772284Y-91188381D01*
X215772275Y-91188381D01*
X215731753Y-91192372D01*
X215686703Y-91206038D01*
X215679764Y-91208143D01*
X215631852Y-91233753D01*
X215614223Y-91248220D01*
X215547325Y-91261527D01*
X215483266Y-91288062D01*
X215425613Y-91326584D01*
X215376584Y-91375613D01*
X215338062Y-91433266D01*
X215311527Y-91497325D01*
X215298000Y-91565331D01*
X215298000Y-91634669D01*
X215311527Y-91702675D01*
X215338062Y-91766734D01*
X215376584Y-91824387D01*
X215425613Y-91873416D01*
X215483266Y-91911938D01*
X215547325Y-91938473D01*
X215615331Y-91952000D01*
X215684669Y-91952000D01*
X215752675Y-91938473D01*
X215816734Y-91911938D01*
X215874387Y-91873416D01*
X215923416Y-91824387D01*
X215957809Y-91772914D01*
X215945276Y-91835921D01*
X215945276Y-91905259D01*
X215958803Y-91973265D01*
X215985338Y-92037324D01*
X216023860Y-92094977D01*
X216072889Y-92144006D01*
X216130542Y-92182528D01*
X216194601Y-92209063D01*
X216262607Y-92222590D01*
X216331945Y-92222590D01*
X216399951Y-92209063D01*
X216464010Y-92182528D01*
X216521663Y-92144006D01*
X216570692Y-92094977D01*
X216609214Y-92037324D01*
X216615645Y-92021799D01*
X218098000Y-92021799D01*
X218098000Y-92034669D01*
X218111527Y-92102675D01*
X218138062Y-92166734D01*
X218176584Y-92224387D01*
X218225613Y-92273416D01*
X218283266Y-92311938D01*
X218347325Y-92338473D01*
X218410133Y-92350966D01*
X218414554Y-92354594D01*
X218414557Y-92354597D01*
X218432805Y-92369572D01*
X218446033Y-92380428D01*
X218493945Y-92406038D01*
X218545934Y-92421809D01*
X218586456Y-92425800D01*
X218586465Y-92425800D01*
X218599999Y-92427133D01*
X218613534Y-92425800D01*
X220586466Y-92425800D01*
X220600000Y-92427133D01*
X220613534Y-92425800D01*
X220613544Y-92425800D01*
X220654066Y-92421809D01*
X220706055Y-92406038D01*
X220753967Y-92380428D01*
X220795963Y-92345963D01*
X220804601Y-92335438D01*
X220838876Y-92301163D01*
X220902675Y-92288473D01*
X220966734Y-92261938D01*
X221000000Y-92239711D01*
X221033266Y-92261938D01*
X221097325Y-92288473D01*
X221165331Y-92302000D01*
X221234669Y-92302000D01*
X221302675Y-92288473D01*
X221366734Y-92261938D01*
X221424387Y-92223416D01*
X221473416Y-92174387D01*
X221511938Y-92116734D01*
X221538473Y-92052675D01*
X221552000Y-91984669D01*
X221552000Y-91915331D01*
X221546217Y-91886257D01*
X221724200Y-92064240D01*
X221724201Y-92379180D01*
X221688062Y-92433266D01*
X221661527Y-92497325D01*
X221650413Y-92553202D01*
X209799587Y-92553202D01*
X209788473Y-92497325D01*
X209761938Y-92433266D01*
X209723416Y-92375613D01*
X209674387Y-92326584D01*
X209616734Y-92288062D01*
X209552675Y-92261527D01*
X209484669Y-92248000D01*
X209415331Y-92248000D01*
X209347325Y-92261527D01*
X209283266Y-92288062D01*
X209225613Y-92326584D01*
X209176584Y-92375613D01*
X209138062Y-92433266D01*
X209111527Y-92497325D01*
X209098000Y-92565331D01*
X209098000Y-92634669D01*
X209111527Y-92702675D01*
X209138062Y-92766734D01*
X209176584Y-92824387D01*
X209225613Y-92873416D01*
X209283266Y-92911938D01*
X209347325Y-92938473D01*
X209411123Y-92951163D01*
X209474408Y-93014447D01*
X209483039Y-93024965D01*
X209493556Y-93033596D01*
X209493559Y-93033599D01*
X209525034Y-93059430D01*
X209548991Y-93072235D01*
X209572947Y-93085040D01*
X209598000Y-93092640D01*
X209598000Y-93134669D01*
X209611527Y-93202675D01*
X209638062Y-93266734D01*
X209676584Y-93324387D01*
X209725613Y-93373416D01*
X209783266Y-93411938D01*
X209847325Y-93438473D01*
X209911124Y-93451163D01*
X210295404Y-93835444D01*
X210304037Y-93845963D01*
X210314554Y-93854594D01*
X210314556Y-93854596D01*
X210346032Y-93880428D01*
X210375227Y-93896033D01*
X210393945Y-93906038D01*
X210445934Y-93921809D01*
X210486456Y-93925800D01*
X210486467Y-93925800D01*
X210499999Y-93927133D01*
X210513531Y-93925800D01*
X211635761Y-93925800D01*
X211706079Y-93996118D01*
X211676584Y-94025613D01*
X211638062Y-94083266D01*
X211611527Y-94147325D01*
X211598000Y-94215331D01*
X211598000Y-94284669D01*
X211611527Y-94352675D01*
X211638062Y-94416734D01*
X211676584Y-94474387D01*
X211725613Y-94523416D01*
X211783266Y-94561938D01*
X211847325Y-94588473D01*
X211911124Y-94601163D01*
X212995406Y-95685446D01*
X213004037Y-95695963D01*
X213014554Y-95704594D01*
X213014557Y-95704597D01*
X213046032Y-95730428D01*
X213069989Y-95743233D01*
X213093945Y-95756038D01*
X213145934Y-95771809D01*
X213186456Y-95775800D01*
X213186465Y-95775800D01*
X213200000Y-95777133D01*
X213213534Y-95775800D01*
X214279181Y-95775800D01*
X214333266Y-95811938D01*
X214397325Y-95838473D01*
X214465331Y-95852000D01*
X214534669Y-95852000D01*
X214602675Y-95838473D01*
X214666734Y-95811938D01*
X214724387Y-95773416D01*
X214773416Y-95724387D01*
X214811938Y-95666734D01*
X214838473Y-95602675D01*
X214852000Y-95534669D01*
X214852000Y-95465331D01*
X214838473Y-95397325D01*
X214811938Y-95333266D01*
X214773416Y-95275613D01*
X214724387Y-95226584D01*
X214666734Y-95188062D01*
X214602675Y-95161527D01*
X214534669Y-95148000D01*
X214465331Y-95148000D01*
X214397325Y-95161527D01*
X214333266Y-95188062D01*
X214279181Y-95224200D01*
X213314240Y-95224200D01*
X212693921Y-94603882D01*
X212705288Y-94592515D01*
X212726584Y-94624387D01*
X212775613Y-94673416D01*
X212833266Y-94711938D01*
X212897325Y-94738473D01*
X212965331Y-94752000D01*
X213034669Y-94752000D01*
X213102675Y-94738473D01*
X213166734Y-94711938D01*
X213224387Y-94673416D01*
X213273416Y-94624387D01*
X213274685Y-94622488D01*
X213275613Y-94623416D01*
X213333266Y-94661938D01*
X213397325Y-94688473D01*
X213465331Y-94702000D01*
X213534669Y-94702000D01*
X213602675Y-94688473D01*
X213666734Y-94661938D01*
X213724387Y-94623416D01*
X213773416Y-94574387D01*
X213811938Y-94516734D01*
X213838473Y-94452675D01*
X213851163Y-94388877D01*
X213914240Y-94325800D01*
X215079181Y-94325800D01*
X215133266Y-94361938D01*
X215197325Y-94388473D01*
X215265331Y-94402000D01*
X215334669Y-94402000D01*
X215402675Y-94388473D01*
X215466734Y-94361938D01*
X215524387Y-94323416D01*
X215573416Y-94274387D01*
X215611938Y-94216734D01*
X215638473Y-94152675D01*
X215652000Y-94084669D01*
X215652000Y-94015331D01*
X215638473Y-93947325D01*
X215611938Y-93883266D01*
X215573416Y-93825613D01*
X215524387Y-93776584D01*
X215466734Y-93738062D01*
X215402675Y-93711527D01*
X215334669Y-93698000D01*
X215265331Y-93698000D01*
X215197325Y-93711527D01*
X215133266Y-93738062D01*
X215079181Y-93774200D01*
X213813534Y-93774200D01*
X213799999Y-93772867D01*
X213786465Y-93774200D01*
X213786456Y-93774200D01*
X213745934Y-93778191D01*
X213693945Y-93793962D01*
X213646032Y-93819572D01*
X213614556Y-93845403D01*
X213614549Y-93845410D01*
X213604037Y-93854037D01*
X213595410Y-93864549D01*
X213500000Y-93959960D01*
X212644841Y-93104802D01*
X218805158Y-93104802D01*
X217861124Y-94048837D01*
X217797325Y-94061527D01*
X217733266Y-94088062D01*
X217675613Y-94126584D01*
X217626584Y-94175613D01*
X217588062Y-94233266D01*
X217561527Y-94297325D01*
X217548000Y-94365331D01*
X217548000Y-94407960D01*
X217004599Y-93864560D01*
X216995963Y-93854037D01*
X216953967Y-93819572D01*
X216906055Y-93793962D01*
X216854066Y-93778191D01*
X216813544Y-93774200D01*
X216813534Y-93774200D01*
X216800000Y-93772867D01*
X216786466Y-93774200D01*
X216320819Y-93774200D01*
X216266734Y-93738062D01*
X216202675Y-93711527D01*
X216134669Y-93698000D01*
X216065331Y-93698000D01*
X215997325Y-93711527D01*
X215933266Y-93738062D01*
X215875613Y-93776584D01*
X215826584Y-93825613D01*
X215788062Y-93883266D01*
X215761527Y-93947325D01*
X215748000Y-94015331D01*
X215748000Y-94084669D01*
X215761527Y-94152675D01*
X215788062Y-94216734D01*
X215826584Y-94274387D01*
X215875613Y-94323416D01*
X215933266Y-94361938D01*
X215997325Y-94388473D01*
X216065331Y-94402000D01*
X216134669Y-94402000D01*
X216202675Y-94388473D01*
X216266734Y-94361938D01*
X216320819Y-94325800D01*
X216685761Y-94325800D01*
X217345406Y-94985446D01*
X217354037Y-94995963D01*
X217364554Y-95004594D01*
X217364556Y-95004596D01*
X217396032Y-95030428D01*
X217443945Y-95056038D01*
X217495934Y-95071809D01*
X217536456Y-95075800D01*
X217536465Y-95075800D01*
X217549999Y-95077133D01*
X217563533Y-95075800D01*
X217986466Y-95075800D01*
X218000000Y-95077133D01*
X218013534Y-95075800D01*
X218013544Y-95075800D01*
X218054066Y-95071809D01*
X218106055Y-95056038D01*
X218153967Y-95030428D01*
X218195963Y-94995963D01*
X218204598Y-94985441D01*
X218438877Y-94751163D01*
X218502675Y-94738473D01*
X218566734Y-94711938D01*
X218624387Y-94673416D01*
X218673416Y-94624387D01*
X218694712Y-94592515D01*
X218725613Y-94623416D01*
X218783266Y-94661938D01*
X218847325Y-94688473D01*
X218915331Y-94702000D01*
X218984669Y-94702000D01*
X219013743Y-94696217D01*
X218485761Y-95224200D01*
X217120819Y-95224200D01*
X217066734Y-95188062D01*
X217002675Y-95161527D01*
X216934669Y-95148000D01*
X216865331Y-95148000D01*
X216797325Y-95161527D01*
X216733266Y-95188062D01*
X216675613Y-95226584D01*
X216626584Y-95275613D01*
X216588062Y-95333266D01*
X216561527Y-95397325D01*
X216548000Y-95465331D01*
X216548000Y-95534669D01*
X216561527Y-95602675D01*
X216588062Y-95666734D01*
X216626584Y-95724387D01*
X216675613Y-95773416D01*
X216733266Y-95811938D01*
X216797325Y-95838473D01*
X216865331Y-95852000D01*
X216934669Y-95852000D01*
X217002675Y-95838473D01*
X217066734Y-95811938D01*
X217120819Y-95775800D01*
X218586466Y-95775800D01*
X218600000Y-95777133D01*
X218613534Y-95775800D01*
X218613544Y-95775800D01*
X218654066Y-95771809D01*
X218706055Y-95756038D01*
X218753967Y-95730428D01*
X218795963Y-95695963D01*
X218804599Y-95685440D01*
X219488877Y-95001163D01*
X219552675Y-94988473D01*
X219616734Y-94961938D01*
X219674387Y-94923416D01*
X219723416Y-94874387D01*
X219761938Y-94816734D01*
X219788473Y-94752675D01*
X219802000Y-94684669D01*
X219802000Y-94615331D01*
X219788473Y-94547325D01*
X219761938Y-94483266D01*
X219723416Y-94425613D01*
X219674387Y-94376584D01*
X219616734Y-94338062D01*
X219552675Y-94311527D01*
X219484669Y-94298000D01*
X219415331Y-94298000D01*
X219386256Y-94303783D01*
X219764240Y-93925800D01*
X220886466Y-93925800D01*
X220900000Y-93927133D01*
X220913534Y-93925800D01*
X220913544Y-93925800D01*
X220954066Y-93921809D01*
X221006055Y-93906038D01*
X221053967Y-93880428D01*
X221095963Y-93845963D01*
X221104599Y-93835440D01*
X221488877Y-93451163D01*
X221552675Y-93438473D01*
X221616734Y-93411938D01*
X221674387Y-93373416D01*
X221723416Y-93324387D01*
X221761938Y-93266734D01*
X221788473Y-93202675D01*
X221802000Y-93134669D01*
X221802000Y-93103083D01*
X221825064Y-93100811D01*
X221877053Y-93085040D01*
X221924965Y-93059430D01*
X221966961Y-93024965D01*
X221975596Y-93014443D01*
X222038876Y-92951163D01*
X222102675Y-92938473D01*
X222166734Y-92911938D01*
X222224387Y-92873416D01*
X222273416Y-92824387D01*
X222311938Y-92766734D01*
X222338473Y-92702675D01*
X222352000Y-92634669D01*
X222352000Y-92565331D01*
X222338473Y-92497325D01*
X222311938Y-92433266D01*
X222275800Y-92379181D01*
X222275800Y-91963534D01*
X222277133Y-91950000D01*
X222275800Y-91936466D01*
X222275800Y-91936456D01*
X222271809Y-91895934D01*
X222256038Y-91843945D01*
X222238710Y-91811527D01*
X222230428Y-91796032D01*
X222204597Y-91764557D01*
X222204594Y-91764554D01*
X222195963Y-91754037D01*
X222185445Y-91745405D01*
X219105371Y-88665331D01*
X219448000Y-88665331D01*
X219448000Y-88734669D01*
X219461527Y-88802675D01*
X219488062Y-88866734D01*
X219526584Y-88924387D01*
X219575613Y-88973416D01*
X219633266Y-89011938D01*
X219697325Y-89038473D01*
X219765331Y-89052000D01*
X219834669Y-89052000D01*
X219902675Y-89038473D01*
X219966734Y-89011938D01*
X220020819Y-88975800D01*
X221936466Y-88975800D01*
X221950000Y-88977133D01*
X221963534Y-88975800D01*
X221963544Y-88975800D01*
X222004066Y-88971809D01*
X222056055Y-88956038D01*
X222063609Y-88952000D01*
X222084669Y-88952000D01*
X222152675Y-88938473D01*
X222216734Y-88911938D01*
X222274387Y-88873416D01*
X222323416Y-88824387D01*
X222361938Y-88766734D01*
X222388473Y-88702675D01*
X222402000Y-88634669D01*
X222402000Y-88565331D01*
X222388473Y-88497325D01*
X222361938Y-88433266D01*
X222323416Y-88375613D01*
X222274387Y-88326584D01*
X222216734Y-88288062D01*
X222152675Y-88261527D01*
X222084669Y-88248000D01*
X222015331Y-88248000D01*
X221947325Y-88261527D01*
X221883266Y-88288062D01*
X221825613Y-88326584D01*
X221776584Y-88375613D01*
X221744120Y-88424200D01*
X220020819Y-88424200D01*
X219966734Y-88388062D01*
X219902675Y-88361527D01*
X219834669Y-88348000D01*
X219765331Y-88348000D01*
X219697325Y-88361527D01*
X219633266Y-88388062D01*
X219575613Y-88426584D01*
X219526584Y-88475613D01*
X219488062Y-88533266D01*
X219461527Y-88597325D01*
X219448000Y-88665331D01*
X219105371Y-88665331D01*
X217575800Y-87135761D01*
X217575800Y-86420819D01*
X217611938Y-86366734D01*
X217638473Y-86302675D01*
X217652000Y-86234669D01*
X217652000Y-86165331D01*
X217638473Y-86097325D01*
X217611938Y-86033266D01*
X217573416Y-85975613D01*
X217524387Y-85926584D01*
X217517834Y-85922206D01*
X217814240Y-85625800D01*
X220036466Y-85625800D01*
X220050000Y-85627133D01*
X220063534Y-85625800D01*
X220063544Y-85625800D01*
X220104066Y-85621809D01*
X220156055Y-85606038D01*
X220203967Y-85580428D01*
X220245963Y-85545963D01*
X220254599Y-85535440D01*
X220964969Y-84825070D01*
X220997325Y-84838473D01*
X221065331Y-84852000D01*
X221134669Y-84852000D01*
X221202675Y-84838473D01*
X221266734Y-84811938D01*
X221324201Y-84773541D01*
X221324200Y-85586466D01*
X221322867Y-85600000D01*
X221324200Y-85613534D01*
X221324200Y-85613543D01*
X221328191Y-85654065D01*
X221343962Y-85706054D01*
X221369572Y-85753967D01*
X221404037Y-85795963D01*
X221414560Y-85804599D01*
X221798837Y-86188877D01*
X221811527Y-86252675D01*
X221838062Y-86316734D01*
X221876584Y-86374387D01*
X221925613Y-86423416D01*
X221983266Y-86461938D01*
X222047325Y-86488473D01*
X222115331Y-86502000D01*
X222184669Y-86502000D01*
X222252675Y-86488473D01*
X222316734Y-86461938D01*
X222374387Y-86423416D01*
X222423416Y-86374387D01*
X222461938Y-86316734D01*
X222488473Y-86252675D01*
X222502000Y-86184669D01*
X222502000Y-86115331D01*
X222488473Y-86047325D01*
X222461938Y-85983266D01*
X222423416Y-85925613D01*
X222374387Y-85876584D01*
X222316734Y-85838062D01*
X222252675Y-85811527D01*
X222188877Y-85798837D01*
X221875800Y-85485761D01*
X221875800Y-85037132D01*
X221888062Y-85066734D01*
X221926584Y-85124387D01*
X221975613Y-85173416D01*
X222033266Y-85211938D01*
X222097325Y-85238473D01*
X222161124Y-85251163D01*
X222624201Y-85714241D01*
X222624200Y-90179181D01*
X222588062Y-90233266D01*
X222561527Y-90297325D01*
X222548000Y-90365331D01*
X222548000Y-90434669D01*
X222561527Y-90502675D01*
X222588062Y-90566734D01*
X222626584Y-90624387D01*
X222675613Y-90673416D01*
X222733266Y-90711938D01*
X222797325Y-90738473D01*
X222865331Y-90752000D01*
X222934669Y-90752000D01*
X223002675Y-90738473D01*
X223024200Y-90729557D01*
X223024200Y-90979181D01*
X222988062Y-91033266D01*
X222961527Y-91097325D01*
X222948000Y-91165331D01*
X222948000Y-91234669D01*
X222961527Y-91302675D01*
X222988062Y-91366734D01*
X223026584Y-91424387D01*
X223075613Y-91473416D01*
X223133266Y-91511938D01*
X223197325Y-91538473D01*
X223265331Y-91552000D01*
X223334669Y-91552000D01*
X223402675Y-91538473D01*
X223466734Y-91511938D01*
X223524387Y-91473416D01*
X223573416Y-91424387D01*
X223611938Y-91366734D01*
X223638473Y-91302675D01*
X223646113Y-91264268D01*
X223697329Y-91285483D01*
X223765335Y-91299010D01*
X223834673Y-91299010D01*
X223902679Y-91285483D01*
X223966738Y-91258948D01*
X224024391Y-91220426D01*
X224073420Y-91171397D01*
X224111942Y-91113744D01*
X224138477Y-91049685D01*
X224152004Y-90981679D01*
X224152004Y-90912341D01*
X224142654Y-90865331D01*
X224447998Y-90865331D01*
X224447998Y-90934669D01*
X224461525Y-91002675D01*
X224488060Y-91066734D01*
X224526582Y-91124387D01*
X224575611Y-91173416D01*
X224633264Y-91211938D01*
X224697323Y-91238473D01*
X224765329Y-91252000D01*
X224834667Y-91252000D01*
X224902673Y-91238473D01*
X224966732Y-91211938D01*
X225024385Y-91173416D01*
X225073414Y-91124387D01*
X225111936Y-91066734D01*
X225138471Y-91002675D01*
X225151998Y-90934669D01*
X225151998Y-90865331D01*
X225138471Y-90797325D01*
X225111936Y-90733266D01*
X225073414Y-90675613D01*
X225024385Y-90626584D01*
X224966732Y-90588062D01*
X224902673Y-90561527D01*
X224834667Y-90548000D01*
X224765329Y-90548000D01*
X224697323Y-90561527D01*
X224633264Y-90588062D01*
X224575611Y-90626584D01*
X224526582Y-90675613D01*
X224488060Y-90733266D01*
X224461525Y-90797325D01*
X224447998Y-90865331D01*
X224142654Y-90865331D01*
X224138477Y-90844335D01*
X224111942Y-90780276D01*
X224073420Y-90722623D01*
X224024391Y-90673594D01*
X223966738Y-90635072D01*
X223902679Y-90608537D01*
X223834673Y-90595010D01*
X223765335Y-90595010D01*
X223697329Y-90608537D01*
X223633270Y-90635072D01*
X223575800Y-90673472D01*
X223575800Y-84163534D01*
X223577133Y-84150000D01*
X223575800Y-84136465D01*
X223575800Y-84136456D01*
X223571809Y-84095934D01*
X223556038Y-84043945D01*
X223540867Y-84015562D01*
X223530428Y-83996032D01*
X223504597Y-83964557D01*
X223504594Y-83964554D01*
X223495963Y-83954037D01*
X223485446Y-83945406D01*
X220854599Y-81314560D01*
X220845963Y-81304037D01*
X220803967Y-81269572D01*
X220756055Y-81243962D01*
X220704066Y-81228191D01*
X220663544Y-81224200D01*
X220663534Y-81224200D01*
X220650000Y-81222867D01*
X220636466Y-81224200D01*
X220387132Y-81224200D01*
X220416734Y-81211938D01*
X220474387Y-81173416D01*
X220523416Y-81124387D01*
X220561938Y-81066734D01*
X220588473Y-81002675D01*
X220602000Y-80934669D01*
X220602000Y-80865331D01*
X220596598Y-80838172D01*
X220597325Y-80838473D01*
X220665331Y-80852000D01*
X220734669Y-80852000D01*
X220802675Y-80838473D01*
X220866734Y-80811938D01*
X220924387Y-80773416D01*
X220973416Y-80724387D01*
X221011938Y-80666734D01*
X221038473Y-80602675D01*
X221050972Y-80539837D01*
X221161369Y-80611777D01*
X221158266Y-80613062D01*
X221100613Y-80651584D01*
X221051584Y-80700613D01*
X221013062Y-80758266D01*
X220986527Y-80822325D01*
X220973000Y-80890331D01*
X220973000Y-80959669D01*
X220986527Y-81027675D01*
X221013062Y-81091734D01*
X221051584Y-81149387D01*
X221100613Y-81198416D01*
X221158266Y-81236938D01*
X221222325Y-81263473D01*
X221290331Y-81277000D01*
X221359669Y-81277000D01*
X221427675Y-81263473D01*
X221491734Y-81236938D01*
X221549387Y-81198416D01*
X221598416Y-81149387D01*
X221636938Y-81091734D01*
X221663473Y-81027675D01*
X221674511Y-80972182D01*
X222478415Y-81653699D01*
X222545547Y-81726935D01*
X222497325Y-81736527D01*
X222433266Y-81763062D01*
X222375613Y-81801584D01*
X222326584Y-81850613D01*
X222288062Y-81908266D01*
X222261527Y-81972325D01*
X222248000Y-82040331D01*
X222248000Y-82109669D01*
X222261527Y-82177675D01*
X222288062Y-82241734D01*
X222326584Y-82299387D01*
X222375613Y-82348416D01*
X222433266Y-82386938D01*
X222497325Y-82413473D01*
X222565331Y-82427000D01*
X222634669Y-82427000D01*
X222702675Y-82413473D01*
X222766734Y-82386938D01*
X222824387Y-82348416D01*
X222873416Y-82299387D01*
X222911938Y-82241734D01*
X222938473Y-82177675D01*
X222942083Y-82159525D01*
X223308103Y-82558824D01*
X224017805Y-83560797D01*
X224184576Y-83873000D01*
X224115331Y-83873000D01*
X224047325Y-83886527D01*
X223983266Y-83913062D01*
X223925613Y-83951584D01*
X223876584Y-84000613D01*
X223838062Y-84058266D01*
X223811527Y-84122325D01*
X223798000Y-84190331D01*
X223798000Y-84259669D01*
X223811527Y-84327675D01*
X223838062Y-84391734D01*
X223876584Y-84449387D01*
X223925613Y-84498416D01*
X223983266Y-84536938D01*
X224047325Y-84563473D01*
X224115331Y-84577000D01*
X224184669Y-84577000D01*
X224252675Y-84563473D01*
X224316734Y-84536938D01*
X224374387Y-84498416D01*
X224423416Y-84449387D01*
X224461790Y-84391955D01*
X224588245Y-84628684D01*
X224559669Y-84623000D01*
X224490331Y-84623000D01*
X224422325Y-84636527D01*
X224358266Y-84663062D01*
X224300613Y-84701584D01*
X224251584Y-84750613D01*
X224213062Y-84808266D01*
X224186527Y-84872325D01*
X224173000Y-84940331D01*
X224173000Y-85009669D01*
X224186527Y-85077675D01*
X224213062Y-85141734D01*
X224251584Y-85199387D01*
X224300613Y-85248416D01*
X224358266Y-85286938D01*
X224422325Y-85313473D01*
X224490331Y-85327000D01*
X224559669Y-85327000D01*
X224627675Y-85313473D01*
X224691734Y-85286938D01*
X224749387Y-85248416D01*
X224798416Y-85199387D01*
X224804890Y-85189697D01*
X224934090Y-85527857D01*
X224909669Y-85523000D01*
X224840331Y-85523000D01*
X224772325Y-85536527D01*
X224708266Y-85563062D01*
X224650613Y-85601584D01*
X224601584Y-85650613D01*
X224563062Y-85708266D01*
X224536527Y-85772325D01*
X224523000Y-85840331D01*
X224523000Y-85909669D01*
X224536527Y-85977675D01*
X224563062Y-86041734D01*
X224601584Y-86099387D01*
X224650613Y-86148416D01*
X224708266Y-86186938D01*
X224772325Y-86213473D01*
X224840331Y-86227000D01*
X224909669Y-86227000D01*
X224977675Y-86213473D01*
X225041734Y-86186938D01*
X225099387Y-86148416D01*
X225117401Y-86130402D01*
X225185133Y-86408038D01*
X225134669Y-86398000D01*
X225065331Y-86398000D01*
X224997325Y-86411527D01*
X224933266Y-86438062D01*
X224875613Y-86476584D01*
X224826584Y-86525613D01*
X224788062Y-86583266D01*
X224761527Y-86647325D01*
X224748000Y-86715331D01*
X224748000Y-86784669D01*
X224761527Y-86852675D01*
X224788062Y-86916734D01*
X224826584Y-86974387D01*
X224875613Y-87023416D01*
X224933266Y-87061938D01*
X224997325Y-87088473D01*
X225065331Y-87102000D01*
X225134669Y-87102000D01*
X225202675Y-87088473D01*
X225266734Y-87061938D01*
X225324387Y-87023416D01*
X225329516Y-87018287D01*
X225359981Y-87285265D01*
X225302675Y-87261527D01*
X225234669Y-87248000D01*
X225165331Y-87248000D01*
X225097325Y-87261527D01*
X225033266Y-87288062D01*
X224975613Y-87326584D01*
X224926584Y-87375613D01*
X224888062Y-87433266D01*
X224861527Y-87497325D01*
X224848000Y-87565331D01*
X224848000Y-87634669D01*
X224861527Y-87702675D01*
X224871499Y-87726749D01*
X224822329Y-87736529D01*
X224758270Y-87763064D01*
X224700617Y-87801586D01*
X224651588Y-87850615D01*
X224613066Y-87908268D01*
X224586531Y-87972327D01*
X224573004Y-88040333D01*
X224573004Y-88109671D01*
X224586531Y-88177677D01*
X224613066Y-88241736D01*
X224641375Y-88284104D01*
X224610693Y-88330024D01*
X224584158Y-88394083D01*
X224570631Y-88462089D01*
X224570631Y-88531427D01*
X224584158Y-88599433D01*
X224610693Y-88663492D01*
X224649215Y-88721145D01*
X224698244Y-88770174D01*
X224755897Y-88808696D01*
X224819956Y-88835231D01*
X224887962Y-88848758D01*
X224957300Y-88848758D01*
X225025306Y-88835231D01*
X225089365Y-88808696D01*
X225147018Y-88770174D01*
X225196047Y-88721145D01*
X225234569Y-88663492D01*
X225261104Y-88599433D01*
X225274631Y-88531427D01*
X225274631Y-88462089D01*
X225261104Y-88394083D01*
X225234569Y-88330024D01*
X225206260Y-88287656D01*
X225236942Y-88241736D01*
X225263477Y-88177677D01*
X225277004Y-88109671D01*
X225277004Y-88040333D01*
X225263477Y-87972327D01*
X225253505Y-87948253D01*
X225302675Y-87938473D01*
X225366734Y-87911938D01*
X225424387Y-87873416D01*
X225426820Y-87870983D01*
X225464778Y-88203616D01*
X225449992Y-89431387D01*
X225281446Y-90647606D01*
X225043388Y-91530504D01*
X225023416Y-91500613D01*
X224974387Y-91451584D01*
X224916734Y-91413062D01*
X224852675Y-91386527D01*
X224784669Y-91373000D01*
X224715331Y-91373000D01*
X224647325Y-91386527D01*
X224583266Y-91413062D01*
X224525613Y-91451584D01*
X224476584Y-91500613D01*
X224438062Y-91558266D01*
X224411527Y-91622325D01*
X224398000Y-91690331D01*
X224398000Y-91759669D01*
X224411527Y-91827675D01*
X224438062Y-91891734D01*
X224476584Y-91949387D01*
X224525613Y-91998416D01*
X224583266Y-92036938D01*
X224647325Y-92063473D01*
X224715331Y-92077000D01*
X224784669Y-92077000D01*
X224852675Y-92063473D01*
X224870373Y-92056142D01*
X224739683Y-92374958D01*
X224723416Y-92350613D01*
X224674387Y-92301584D01*
X224616734Y-92263062D01*
X224552675Y-92236527D01*
X224484669Y-92223000D01*
X224415331Y-92223000D01*
X224347325Y-92236527D01*
X224283266Y-92263062D01*
X224225613Y-92301584D01*
X224176584Y-92350613D01*
X224138062Y-92408266D01*
X224111527Y-92472325D01*
X224098000Y-92540331D01*
X224098000Y-92609669D01*
X224111527Y-92677675D01*
X224138062Y-92741734D01*
X224176584Y-92799387D01*
X224225613Y-92848416D01*
X224283266Y-92886938D01*
X224347325Y-92913473D01*
X224415331Y-92927000D01*
X224484669Y-92927000D01*
X224515937Y-92920781D01*
X224496077Y-92969228D01*
X224399836Y-93139403D01*
X224386938Y-93108266D01*
X224348416Y-93050613D01*
X224299387Y-93001584D01*
X224241734Y-92963062D01*
X224177675Y-92936527D01*
X224109669Y-92923000D01*
X224040331Y-92923000D01*
X223972325Y-92936527D01*
X223908266Y-92963062D01*
X223850613Y-93001584D01*
X223801584Y-93050613D01*
X223763062Y-93108266D01*
X223736527Y-93172325D01*
X223723000Y-93240331D01*
X223723000Y-93309669D01*
X223736527Y-93377675D01*
X223763062Y-93441734D01*
X223801584Y-93499387D01*
X223850613Y-93548416D01*
X223908266Y-93586938D01*
X223972325Y-93613473D01*
X224040331Y-93627000D01*
X224109669Y-93627000D01*
X224125907Y-93623770D01*
X224013510Y-93822512D01*
X224013473Y-93822325D01*
X223986938Y-93758266D01*
X223948416Y-93700613D01*
X223899387Y-93651584D01*
X223841734Y-93613062D01*
X223777675Y-93586527D01*
X223709669Y-93573000D01*
X223640331Y-93573000D01*
X223572325Y-93586527D01*
X223508266Y-93613062D01*
X223450613Y-93651584D01*
X223401584Y-93700613D01*
X223363062Y-93758266D01*
X223336527Y-93822325D01*
X223323000Y-93890331D01*
X223323000Y-93959669D01*
X223336527Y-94027675D01*
X223363062Y-94091734D01*
X223401584Y-94149387D01*
X223450613Y-94198416D01*
X223508266Y-94236938D01*
X223572325Y-94263473D01*
X223640331Y-94277000D01*
X223709669Y-94277000D01*
X223714242Y-94276090D01*
X223551789Y-94494118D01*
X223536938Y-94458266D01*
X223498416Y-94400613D01*
X223449387Y-94351584D01*
X223391734Y-94313062D01*
X223327675Y-94286527D01*
X223259669Y-94273000D01*
X223190331Y-94273000D01*
X223122325Y-94286527D01*
X223058266Y-94313062D01*
X223000613Y-94351584D01*
X222951584Y-94400613D01*
X222913062Y-94458266D01*
X222886527Y-94522325D01*
X222873000Y-94590331D01*
X222873000Y-94659669D01*
X222886527Y-94727675D01*
X222913062Y-94791734D01*
X222951584Y-94849387D01*
X223000613Y-94898416D01*
X223058266Y-94936938D01*
X223122325Y-94963473D01*
X223190331Y-94977000D01*
X223191993Y-94977000D01*
X223158015Y-95022602D01*
X222306773Y-95907485D01*
X221351342Y-96678698D01*
X220306779Y-97324086D01*
X219189572Y-97833464D01*
X218017327Y-98198804D01*
X216808543Y-98414340D01*
X215582269Y-98476676D01*
X214357852Y-98384828D01*
X213154609Y-98140247D01*
X211991500Y-97746784D01*
X210886882Y-97210650D01*
X210538837Y-96983849D01*
X210591734Y-96961938D01*
X210649387Y-96923416D01*
X210698416Y-96874387D01*
X210736938Y-96816734D01*
X210763473Y-96752675D01*
X210777000Y-96684669D01*
X210777000Y-96615331D01*
X210763473Y-96547325D01*
X210736938Y-96483266D01*
X210698416Y-96425613D01*
X210649387Y-96376584D01*
X210591734Y-96338062D01*
X210527675Y-96311527D01*
X210459669Y-96298000D01*
X210390331Y-96298000D01*
X210322325Y-96311527D01*
X210258266Y-96338062D01*
X210200613Y-96376584D01*
X210151584Y-96425613D01*
X210113062Y-96483266D01*
X210086527Y-96547325D01*
X210073000Y-96615331D01*
X210073000Y-96680291D01*
X209858166Y-96540296D01*
X209754014Y-96452000D01*
X209759669Y-96452000D01*
X209827675Y-96438473D01*
X209891734Y-96411938D01*
X209949387Y-96373416D01*
X209998416Y-96324387D01*
X210036938Y-96266734D01*
X210063473Y-96202675D01*
X210077000Y-96134669D01*
X210077000Y-96065331D01*
X210063473Y-95997325D01*
X210036938Y-95933266D01*
X209998416Y-95875613D01*
X209949387Y-95826584D01*
X209891734Y-95788062D01*
X209827675Y-95761527D01*
X209759669Y-95748000D01*
X209690331Y-95748000D01*
X209622325Y-95761527D01*
X209558266Y-95788062D01*
X209500613Y-95826584D01*
X209451584Y-95875613D01*
X209413062Y-95933266D01*
X209386527Y-95997325D01*
X209373000Y-96065331D01*
X209373000Y-96128992D01*
X209072698Y-95874408D01*
X209127675Y-95863473D01*
X209191734Y-95836938D01*
X209249387Y-95798416D01*
X209298416Y-95749387D01*
X209336938Y-95691734D01*
X209363473Y-95627675D01*
X209377000Y-95559669D01*
X209377000Y-95490331D01*
X209363473Y-95422325D01*
X209336938Y-95358266D01*
X209298416Y-95300613D01*
X209249387Y-95251584D01*
X209191734Y-95213062D01*
X209127675Y-95186527D01*
X209059669Y-95173000D01*
X208990331Y-95173000D01*
X208922325Y-95186527D01*
X208858266Y-95213062D01*
X208800613Y-95251584D01*
X208751584Y-95300613D01*
X208713062Y-95358266D01*
X208686527Y-95422325D01*
X208675487Y-95477827D01*
X208482650Y-95267456D01*
X208502675Y-95263473D01*
X208566734Y-95236938D01*
X208624387Y-95198416D01*
X208673416Y-95149387D01*
X208711938Y-95091734D01*
X208738473Y-95027675D01*
X208752000Y-94959669D01*
X208752000Y-94890331D01*
X208738473Y-94822325D01*
X208711938Y-94758266D01*
X208673416Y-94700613D01*
X208624387Y-94651584D01*
X208566734Y-94613062D01*
X208502675Y-94586527D01*
X208434669Y-94573000D01*
X208365331Y-94573000D01*
X208297325Y-94586527D01*
X208233266Y-94613062D01*
X208175613Y-94651584D01*
X208126584Y-94700613D01*
X208088062Y-94758266D01*
X208067807Y-94807165D01*
X207887072Y-94552000D01*
X207909669Y-94552000D01*
X207977675Y-94538473D01*
X208041734Y-94511938D01*
X208099387Y-94473416D01*
X208148416Y-94424387D01*
X208186938Y-94366734D01*
X208213473Y-94302675D01*
X208227000Y-94234669D01*
X208227000Y-94165331D01*
X208213473Y-94097325D01*
X208186938Y-94033266D01*
X208148416Y-93975613D01*
X208099387Y-93926584D01*
X208041734Y-93888062D01*
X207977675Y-93861527D01*
X207909669Y-93848000D01*
X207840331Y-93848000D01*
X207772325Y-93861527D01*
X207708266Y-93888062D01*
X207650613Y-93926584D01*
X207601584Y-93975613D01*
X207563062Y-94033266D01*
X207547043Y-94071938D01*
X207382195Y-93839203D01*
X206968812Y-93065331D01*
X208298000Y-93065331D01*
X208298000Y-93134669D01*
X208311527Y-93202675D01*
X208338062Y-93266734D01*
X208376584Y-93324387D01*
X208425613Y-93373416D01*
X208483266Y-93411938D01*
X208547325Y-93438473D01*
X208611124Y-93451163D01*
X211520411Y-96360452D01*
X211529038Y-96370964D01*
X211539550Y-96379591D01*
X211539557Y-96379598D01*
X211571033Y-96405429D01*
X211608795Y-96425613D01*
X211618946Y-96431039D01*
X211670935Y-96446810D01*
X211711457Y-96450801D01*
X211711466Y-96450801D01*
X211725000Y-96452134D01*
X211738535Y-96450801D01*
X220829181Y-96450801D01*
X220883266Y-96486939D01*
X220947325Y-96513474D01*
X221015331Y-96527001D01*
X221084669Y-96527001D01*
X221152675Y-96513474D01*
X221216734Y-96486939D01*
X221274387Y-96448417D01*
X221323416Y-96399388D01*
X221361938Y-96341735D01*
X221388473Y-96277676D01*
X221402000Y-96209670D01*
X221402000Y-96140332D01*
X221388473Y-96072326D01*
X221361938Y-96008267D01*
X221323416Y-95950614D01*
X221274387Y-95901585D01*
X221216734Y-95863063D01*
X221152675Y-95836528D01*
X221084669Y-95823001D01*
X221015331Y-95823001D01*
X220947325Y-95836528D01*
X220883266Y-95863063D01*
X220829181Y-95899201D01*
X211839242Y-95899201D01*
X209001163Y-93061124D01*
X208988473Y-92997325D01*
X208961938Y-92933266D01*
X208923416Y-92875613D01*
X208874387Y-92826584D01*
X208816734Y-92788062D01*
X208752675Y-92761527D01*
X208684669Y-92748000D01*
X208615331Y-92748000D01*
X208547325Y-92761527D01*
X208483266Y-92788062D01*
X208425613Y-92826584D01*
X208376584Y-92875613D01*
X208338062Y-92933266D01*
X208311527Y-92997325D01*
X208298000Y-93065331D01*
X206968812Y-93065331D01*
X206803669Y-92756177D01*
X206365447Y-91609193D01*
X206074434Y-90416320D01*
X205935222Y-89196384D01*
X205942219Y-88615331D01*
X207198000Y-88615331D01*
X207198000Y-88684669D01*
X207211527Y-88752675D01*
X207238062Y-88816734D01*
X207276584Y-88874387D01*
X207325613Y-88923416D01*
X207383266Y-88961938D01*
X207447325Y-88988473D01*
X207515331Y-89002000D01*
X207584669Y-89002000D01*
X207652675Y-88988473D01*
X207716734Y-88961938D01*
X207774387Y-88923416D01*
X207823416Y-88874387D01*
X207861938Y-88816734D01*
X207888473Y-88752675D01*
X207902000Y-88684669D01*
X207902000Y-88615331D01*
X207888473Y-88547325D01*
X207861938Y-88483266D01*
X207823416Y-88425613D01*
X207774387Y-88376584D01*
X207716734Y-88338062D01*
X207652675Y-88311527D01*
X207584669Y-88298000D01*
X207515331Y-88298000D01*
X207447325Y-88311527D01*
X207383266Y-88338062D01*
X207325613Y-88376584D01*
X207276584Y-88425613D01*
X207238062Y-88483266D01*
X207211527Y-88547325D01*
X207198000Y-88615331D01*
X205942219Y-88615331D01*
X205950008Y-87968614D01*
X206118554Y-86752394D01*
X206438211Y-85566866D01*
X206695042Y-84940331D01*
X208798000Y-84940331D01*
X208798000Y-85009669D01*
X208811527Y-85077675D01*
X208838062Y-85141734D01*
X208876584Y-85199387D01*
X208925613Y-85248416D01*
X208983266Y-85286938D01*
X209047325Y-85313473D01*
X209115331Y-85327000D01*
X209184669Y-85327000D01*
X209252675Y-85313473D01*
X209316734Y-85286938D01*
X209374387Y-85248416D01*
X209423416Y-85199387D01*
X209461938Y-85141734D01*
X209488473Y-85077675D01*
X209502000Y-85009669D01*
X209502000Y-84940331D01*
X209488473Y-84872325D01*
X209461938Y-84808266D01*
X209423416Y-84750613D01*
X209374387Y-84701584D01*
X209316734Y-84663062D01*
X209252675Y-84636527D01*
X209184669Y-84623000D01*
X209115331Y-84623000D01*
X209047325Y-84636527D01*
X208983266Y-84663062D01*
X208925613Y-84701584D01*
X208876584Y-84750613D01*
X208838062Y-84808266D01*
X208811527Y-84872325D01*
X208798000Y-84940331D01*
X206695042Y-84940331D01*
X206903925Y-84430766D01*
X207407503Y-83540331D01*
X207673000Y-83540331D01*
X207673000Y-83609669D01*
X207686527Y-83677675D01*
X207713062Y-83741734D01*
X207751584Y-83799387D01*
X207800613Y-83848416D01*
X207858266Y-83886938D01*
X207922325Y-83913473D01*
X207990331Y-83927000D01*
X208059669Y-83927000D01*
X208127675Y-83913473D01*
X208191734Y-83886938D01*
X208249387Y-83848416D01*
X208298416Y-83799387D01*
X208336938Y-83741734D01*
X208363473Y-83677675D01*
X208377000Y-83609669D01*
X208377000Y-83540331D01*
X208363473Y-83472325D01*
X208336938Y-83408266D01*
X208298416Y-83350613D01*
X208249387Y-83301584D01*
X208191734Y-83263062D01*
X208127675Y-83236527D01*
X208059669Y-83223000D01*
X207990331Y-83223000D01*
X207922325Y-83236527D01*
X207858266Y-83263062D01*
X207800613Y-83301584D01*
X207751584Y-83350613D01*
X207713062Y-83408266D01*
X207686527Y-83472325D01*
X207673000Y-83540331D01*
X207407503Y-83540331D01*
X207508362Y-83361991D01*
X208241985Y-82377398D01*
X209093227Y-81492515D01*
X210048658Y-80721302D01*
X210098784Y-80690331D01*
X211873000Y-80690331D01*
X211873000Y-80759669D01*
X211886527Y-80827675D01*
X211913062Y-80891734D01*
X211951584Y-80949387D01*
X212000613Y-80998416D01*
X212058266Y-81036938D01*
X212122325Y-81063473D01*
X212190331Y-81077000D01*
X212259669Y-81077000D01*
X212327675Y-81063473D01*
X212391734Y-81036938D01*
X212449387Y-80998416D01*
X212498416Y-80949387D01*
X212536938Y-80891734D01*
X212563473Y-80827675D01*
X212577000Y-80759669D01*
X212577000Y-80690331D01*
X212567055Y-80640331D01*
X216448000Y-80640331D01*
X216448000Y-80709669D01*
X216461527Y-80777675D01*
X216488062Y-80841734D01*
X216526584Y-80899387D01*
X216575613Y-80948416D01*
X216633266Y-80986938D01*
X216697325Y-81013473D01*
X216765331Y-81027000D01*
X216834669Y-81027000D01*
X216902675Y-81013473D01*
X216966734Y-80986938D01*
X217024387Y-80948416D01*
X217073416Y-80899387D01*
X217111938Y-80841734D01*
X217138473Y-80777675D01*
X217152000Y-80709669D01*
X217152000Y-80640331D01*
X217138473Y-80572325D01*
X217111938Y-80508266D01*
X217073416Y-80450613D01*
X217024387Y-80401584D01*
X216966734Y-80363062D01*
X216902675Y-80336527D01*
X216834669Y-80323000D01*
X216765331Y-80323000D01*
X216697325Y-80336527D01*
X216633266Y-80363062D01*
X216575613Y-80401584D01*
X216526584Y-80450613D01*
X216488062Y-80508266D01*
X216461527Y-80572325D01*
X216448000Y-80640331D01*
X212567055Y-80640331D01*
X212563473Y-80622325D01*
X212536938Y-80558266D01*
X212498416Y-80500613D01*
X212449387Y-80451584D01*
X212391734Y-80413062D01*
X212327675Y-80386527D01*
X212259669Y-80373000D01*
X212190331Y-80373000D01*
X212122325Y-80386527D01*
X212058266Y-80413062D01*
X212000613Y-80451584D01*
X211951584Y-80500613D01*
X211913062Y-80558266D01*
X211886527Y-80622325D01*
X211873000Y-80690331D01*
X210098784Y-80690331D01*
X211094488Y-80075132D01*
X211983944Y-79656791D01*
X211988062Y-79666734D01*
X212026584Y-79724387D01*
X212075613Y-79773416D01*
X212133266Y-79811938D01*
X212197325Y-79838473D01*
X212265331Y-79852000D01*
X212334669Y-79852000D01*
X212402675Y-79838473D01*
X212466734Y-79811938D01*
X212524387Y-79773416D01*
X212573416Y-79724387D01*
X212600000Y-79684601D01*
X212626584Y-79724387D01*
X212675613Y-79773416D01*
X212733266Y-79811938D01*
X212797325Y-79838473D01*
X212855286Y-79850002D01*
X212797325Y-79861531D01*
X212733266Y-79888066D01*
X212675613Y-79926588D01*
X212626584Y-79975617D01*
X212588062Y-80033270D01*
X212561527Y-80097329D01*
X212548000Y-80165335D01*
X212548000Y-80234673D01*
X212561527Y-80302679D01*
X212588062Y-80366738D01*
X212626584Y-80424391D01*
X212675613Y-80473420D01*
X212733266Y-80511942D01*
X212797325Y-80538477D01*
X212865331Y-80552004D01*
X212934669Y-80552004D01*
X213002675Y-80538477D01*
X213066734Y-80511942D01*
X213124387Y-80473420D01*
X213173416Y-80424391D01*
X213211938Y-80366738D01*
X213238473Y-80302679D01*
X213252000Y-80234673D01*
X213252000Y-80165335D01*
X213238473Y-80097329D01*
X213211938Y-80033270D01*
X213173416Y-79975617D01*
X213124387Y-79926588D01*
X213066734Y-79888066D01*
X213002675Y-79861531D01*
X212944714Y-79850002D01*
X213002675Y-79838473D01*
X213066734Y-79811938D01*
X213124387Y-79773416D01*
X213173416Y-79724387D01*
X213211938Y-79666734D01*
X213238473Y-79602675D01*
X213243978Y-79575000D01*
X218156022Y-79575000D01*
X218161527Y-79602675D01*
M02*
