M48
; DRILL file {KiCad (5.1.5-0-10_14)} date Tuesday, June 01, 2021 at 12:28:25 PM
; FORMAT={-:-/ absolute / inch / decimal}
; #@! TF.CreationDate,2021-06-01T12:28:25-04:00
; #@! TF.GenerationSoftware,Kicad,Pcbnew,(5.1.5-0-10_14)
; #@! TF.FileFunction,Plated,3,4,Blind
FMAT,2
INCH
T1C0.0039
%
G90
G05
T1
X8.2133Y-3.3649
X8.2146Y-3.4154
X8.2146Y-3.6654
X8.2392Y-3.5295
X8.2461Y-3.6457
X8.2461Y-3.7657
X8.2559Y-3.3012
X8.2657Y-3.6654
X8.2756Y-3.6201
X8.2854Y-3.6654
X8.2913Y-3.6181
X8.3051Y-3.6654
X8.3169Y-3.5472
X8.3286Y-3.5923
X8.3386Y-3.3465
X8.3445Y-3.6081
X8.3445Y-3.7106
X8.3524Y-3.4134
X8.3642Y-3.3327
X8.3642Y-3.3622
X8.3642Y-3.5925
X8.3642Y-3.7146
X8.375Y-3.4689
X8.3839Y-3.6181
X8.3858Y-3.7165
X8.3896Y-3.4171
X8.392Y-3.4825
X8.3976Y-3.2677
X8.3976Y-3.3622
X8.3986Y-3.2362
X8.4029Y-3.6164
X8.4055Y-3.7146
X8.4134Y-3.4675
X8.4213Y-3.5945
X8.4291Y-3.2362
X8.4291Y-3.3307
X8.4291Y-3.4252
X8.434Y-3.4857
X8.444Y-3.4646
X8.4449Y-3.7598
X8.4606Y-3.2362
X8.4606Y-3.2992
X8.4606Y-3.3937
X8.4606Y-3.4252
X8.4764Y-3.7028
X8.4902Y-3.6063
X8.4921Y-3.2047
X8.4921Y-3.2677
X8.4921Y-3.2992
X8.4921Y-3.3622
X8.5079Y-3.7028
X8.5156Y-3.617
X8.5236Y-3.2992
X8.5394Y-3.7598
X8.555Y-3.362
X8.5551Y-3.2362
X8.5551Y-3.3937
X8.5669Y-3.561
X8.5787Y-3.7165
X8.5866Y-3.2362
X8.5984Y-3.5711
X8.5984Y-3.7165
X8.6004Y-3.622
X8.6024Y-3.1988
X8.6201Y-3.606
X8.6201Y-3.7146
X8.6299Y-3.2087
X8.6398Y-3.617
X8.6398Y-3.7264
X8.6535Y-3.4921
X8.6634Y-3.5709
X8.6791Y-3.6654
X8.6929Y-3.6201
X8.6988Y-3.6654
X8.7047Y-3.3268
X8.7087Y-3.6201
X8.7185Y-3.6654
X8.7244Y-3.3168
X8.7382Y-3.7638
X8.7402Y-3.6457
X8.7441Y-3.5709
X8.7461Y-3.3917
X8.748Y-3.2146
X8.748Y-3.3425
X8.7559Y-3.4744
X8.7756Y-3.5591
X8.7913Y-3.5906
X8.7933Y-3.2736
T0
M30
