M48
; DRILL file {KiCad (5.1.5-0-10_14)} date Tuesday, June 01, 2021 at 12:28:25 PM
; FORMAT={-:-/ absolute / inch / decimal}
; #@! TF.CreationDate,2021-06-01T12:28:25-04:00
; #@! TF.GenerationSoftware,Kicad,Pcbnew,(5.1.5-0-10_14)
; #@! TF.FileFunction,Plated,1,4,PTH
FMAT,2
INCH
T1C0.0039
%
G90
G05
T1
X8.1713Y-3.4902
X8.1841Y-3.7087
X8.19Y-3.2904
X8.1909Y-3.437
X8.2047Y-3.7372
X8.2165Y-3.4311
X8.2293Y-3.7608
X8.2343Y-3.3455
X8.2343Y-3.5856
X8.2569Y-3.7835
X8.2742Y-3.6001
X8.2844Y-3.8051
X8.3268Y-3.4803
X8.3553Y-3.1781
X8.3583Y-3.0827
X8.3583Y-3.1063
X8.3583Y-3.1299
X8.3819Y-3.0827
X8.3819Y-3.1063
X8.3819Y-3.1299
X8.3819Y-3.1575
X8.4055Y-3.0827
X8.4291Y-3.0827
X8.4528Y-3.0827
X8.4606Y-3.3307
X8.4764Y-3.0827
X8.5Y-3.0827
X8.5236Y-3.0827
X8.5354Y-3.1762
X8.5472Y-3.0827
X8.6024Y-3.0827
X8.6024Y-3.1063
X8.6024Y-3.1299
X8.626Y-3.0827
X8.626Y-3.1063
X8.626Y-3.1299
X8.6315Y-3.2941
X8.6417Y-3.1457
X8.6437Y-3.1732
X8.6437Y-3.1969
X8.6663Y-3.1575
X8.6713Y-3.185
X8.689Y-3.1693
X8.7136Y-3.186
X8.7638Y-3.2313
X8.7884Y-3.7254
X8.8061Y-3.6978
X8.811Y-3.5806
X8.8219Y-3.6722
X8.8248Y-3.3159
X8.8366Y-3.6447
X8.8396Y-3.3455
X8.8484Y-3.6112
X8.8504Y-3.5787
X8.8533Y-3.3809
X8.8552Y-3.4841
X8.8553Y-3.4675
X8.8622Y-3.4154
X8.8661Y-3.4488
T0
M30
