M48
; DRILL file {KiCad (5.1.5-0-10_14)} date Tuesday, June 01, 2021 at 12:28:25 PM
; FORMAT={-:-/ absolute / inch / decimal}
; #@! TF.CreationDate,2021-06-01T12:28:25-04:00
; #@! TF.GenerationSoftware,Kicad,Pcbnew,(5.1.5-0-10_14)
; #@! TF.FileFunction,Plated,1,2,Blind
FMAT,2
INCH
T1C0.0039
%
G90
G05
T1
X8.1191Y-3.5374
X8.125Y-3.5728
X8.1329Y-3.6043
X8.1457Y-3.6388
X8.1555Y-3.5984
X8.1717Y-3.6476
X8.2228Y-3.7177
X8.2254Y-3.3612
X8.247Y-3.1959
X8.247Y-3.2343
X8.2535Y-3.7224
X8.2707Y-3.5207
X8.2828Y-3.7088
X8.2894Y-3.4675
X8.2972Y-3.6024
X8.3161Y-3.691
X8.3179Y-3.8268
X8.3268Y-3.3878
X8.3268Y-3.4075
X8.3303Y-3.3483
X8.3307Y-3.3307
X8.3311Y-3.5504
X8.3311Y-3.3623
X8.3346Y-3.222
X8.3346Y-3.4272
X8.3346Y-3.4469
X8.3543Y-3.8425
X8.3878Y-3.2569
X8.3937Y-3.8563
X8.3947Y-3.6024
X8.4075Y-3.2569
X8.424Y-3.5816
X8.4252Y-3.3474
X8.4341Y-3.8661
X8.4368Y-3.5838
X8.4419Y-3.6575
X8.4469Y-3.5984
X8.4626Y-3.502
X8.4665Y-3.252
X8.4705Y-3.5846
X8.4764Y-3.8346
X8.4861Y-3.2521
X8.4862Y-3.8071
X8.5059Y-3.5817
X8.5256Y-3.5817
X8.5472Y-3.8661
X8.5551Y-3.5906
X8.5866Y-3.3268
X8.5866Y-3.5079
X8.5896Y-3.8573
X8.6043Y-3.5786
X8.628Y-3.8455
X8.6449Y-3.6256
X8.6618Y-3.3878
X8.6673Y-3.6841
X8.6769Y-3.6711
X8.685Y-3.6437
X8.7116Y-3.7982
X8.7232Y-3.5413
X8.7244Y-3.6417
X8.7392Y-3.7736
X8.7442Y-3.4697
X8.7638Y-3.6496
X8.7638Y-3.751
T0
M30
