G04 #@! TF.GenerationSoftware,KiCad,Pcbnew,(5.1.5-0-10_14)*
G04 #@! TF.CreationDate,2021-06-01T12:28:28-04:00*
G04 #@! TF.ProjectId,ESLO_RB2,45534c4f-5f52-4423-922e-6b696361645f,rev?*
G04 #@! TF.SameCoordinates,Original*
G04 #@! TF.FileFunction,Soldermask,Bot*
G04 #@! TF.FilePolarity,Negative*
%FSLAX46Y46*%
G04 Gerber Fmt 4.6, Leading zero omitted, Abs format (unit mm)*
G04 Created by KiCad (PCBNEW (5.1.5-0-10_14)) date 2021-06-01 12:28:28*
%MOMM*%
%LPD*%
G04 APERTURE LIST*
%ADD10C,0.100000*%
G04 APERTURE END LIST*
D10*
G36*
X216681000Y-98481000D02*
G01*
X215979000Y-98481000D01*
X215979000Y-95879000D01*
X216681000Y-95879000D01*
X216681000Y-98481000D01*
G37*
G36*
X215411000Y-98481000D02*
G01*
X214709000Y-98481000D01*
X214709000Y-95879000D01*
X215411000Y-95879000D01*
X215411000Y-98481000D01*
G37*
G36*
X217951000Y-98281000D02*
G01*
X217249000Y-98281000D01*
X217249000Y-95879000D01*
X217951000Y-95879000D01*
X217951000Y-98281000D01*
G37*
G36*
X214141000Y-98281000D02*
G01*
X213439000Y-98281000D01*
X213439000Y-95879000D01*
X214141000Y-95879000D01*
X214141000Y-98281000D01*
G37*
G36*
X219221000Y-97881000D02*
G01*
X218519000Y-97881000D01*
X218519000Y-95879000D01*
X219221000Y-95879000D01*
X219221000Y-97881000D01*
G37*
G36*
X212871000Y-97881000D02*
G01*
X212169000Y-97881000D01*
X212169000Y-95879000D01*
X212871000Y-95879000D01*
X212871000Y-97881000D01*
G37*
G36*
X220491000Y-97281000D02*
G01*
X219789000Y-97281000D01*
X219789000Y-95879000D01*
X220491000Y-95879000D01*
X220491000Y-97281000D01*
G37*
G36*
X211601000Y-97281000D02*
G01*
X210899000Y-97281000D01*
X210899000Y-95879000D01*
X211601000Y-95879000D01*
X211601000Y-97281000D01*
G37*
G36*
X217201000Y-95326000D02*
G01*
X214199000Y-95326000D01*
X214199000Y-94274000D01*
X217201000Y-94274000D01*
X217201000Y-95326000D01*
G37*
G36*
X213661000Y-95326000D02*
G01*
X212139000Y-95326000D01*
X212139000Y-94674000D01*
X213661000Y-94674000D01*
X213661000Y-95326000D01*
G37*
G36*
X219261000Y-95326000D02*
G01*
X217739000Y-95326000D01*
X217739000Y-94674000D01*
X219261000Y-94674000D01*
X219261000Y-95326000D01*
G37*
G36*
X222151000Y-95291000D02*
G01*
X220249000Y-95291000D01*
X220249000Y-94629000D01*
X222151000Y-94629000D01*
X222151000Y-95291000D01*
G37*
G36*
X211151000Y-95291000D02*
G01*
X209249000Y-95291000D01*
X209249000Y-94629000D01*
X211151000Y-94629000D01*
X211151000Y-95291000D01*
G37*
G36*
X213651000Y-94091000D02*
G01*
X211749000Y-94091000D01*
X211749000Y-93429000D01*
X213651000Y-93429000D01*
X213651000Y-94091000D01*
G37*
G36*
X219651000Y-94091000D02*
G01*
X217749000Y-94091000D01*
X217749000Y-93429000D01*
X219651000Y-93429000D01*
X219651000Y-94091000D01*
G37*
G36*
X211151000Y-93971000D02*
G01*
X209249000Y-93971000D01*
X209249000Y-93309000D01*
X211151000Y-93309000D01*
X211151000Y-93971000D01*
G37*
G36*
X222151000Y-93971000D02*
G01*
X220249000Y-93971000D01*
X220249000Y-93309000D01*
X222151000Y-93309000D01*
X222151000Y-93971000D01*
G37*
G36*
X217201000Y-93526000D02*
G01*
X214199000Y-93526000D01*
X214199000Y-92474000D01*
X217201000Y-92474000D01*
X217201000Y-93526000D01*
G37*
G36*
X208481000Y-93461000D02*
G01*
X207079000Y-93461000D01*
X207079000Y-92759000D01*
X208481000Y-92759000D01*
X208481000Y-93461000D01*
G37*
G36*
X219651000Y-92771000D02*
G01*
X217749000Y-92771000D01*
X217749000Y-92109000D01*
X219651000Y-92109000D01*
X219651000Y-92771000D01*
G37*
G36*
X213651000Y-92771000D02*
G01*
X211749000Y-92771000D01*
X211749000Y-92109000D01*
X213651000Y-92109000D01*
X213651000Y-92771000D01*
G37*
G36*
X211161000Y-92726000D02*
G01*
X209639000Y-92726000D01*
X209639000Y-92074000D01*
X211161000Y-92074000D01*
X211161000Y-92726000D01*
G37*
G36*
X221761000Y-92726000D02*
G01*
X220239000Y-92726000D01*
X220239000Y-92074000D01*
X221761000Y-92074000D01*
X221761000Y-92726000D01*
G37*
G36*
X208481000Y-92191000D02*
G01*
X206479000Y-92191000D01*
X206479000Y-91489000D01*
X208481000Y-91489000D01*
X208481000Y-92191000D01*
G37*
G36*
X222856938Y-90831716D02*
G01*
X222877557Y-90837971D01*
X222896553Y-90848124D01*
X222913208Y-90861792D01*
X222926876Y-90878447D01*
X222937029Y-90897443D01*
X222943284Y-90918062D01*
X222946000Y-90945640D01*
X222946000Y-91454360D01*
X222943284Y-91481938D01*
X222937029Y-91502557D01*
X222926876Y-91521553D01*
X222913208Y-91538208D01*
X222896553Y-91551876D01*
X222877557Y-91562029D01*
X222856938Y-91568284D01*
X222829360Y-91571000D01*
X222370640Y-91571000D01*
X222343062Y-91568284D01*
X222322443Y-91562029D01*
X222303447Y-91551876D01*
X222286792Y-91538208D01*
X222273124Y-91521553D01*
X222262971Y-91502557D01*
X222256716Y-91481938D01*
X222254000Y-91454360D01*
X222254000Y-90945640D01*
X222256716Y-90918062D01*
X222262971Y-90897443D01*
X222273124Y-90878447D01*
X222286792Y-90861792D01*
X222303447Y-90848124D01*
X222322443Y-90837971D01*
X222343062Y-90831716D01*
X222370640Y-90829000D01*
X222829360Y-90829000D01*
X222856938Y-90831716D01*
G37*
G36*
X217686938Y-90831716D02*
G01*
X217707557Y-90837971D01*
X217726553Y-90848124D01*
X217743208Y-90861792D01*
X217756876Y-90878447D01*
X217767029Y-90897443D01*
X217773284Y-90918062D01*
X217776000Y-90945640D01*
X217776000Y-91454360D01*
X217773284Y-91481938D01*
X217767029Y-91502557D01*
X217756876Y-91521553D01*
X217743208Y-91538208D01*
X217726553Y-91551876D01*
X217707557Y-91562029D01*
X217686938Y-91568284D01*
X217659360Y-91571000D01*
X217200640Y-91571000D01*
X217173062Y-91568284D01*
X217152443Y-91562029D01*
X217133447Y-91551876D01*
X217116792Y-91538208D01*
X217103124Y-91521553D01*
X217092971Y-91502557D01*
X217086716Y-91481938D01*
X217084000Y-91454360D01*
X217084000Y-90945640D01*
X217086716Y-90918062D01*
X217092971Y-90897443D01*
X217103124Y-90878447D01*
X217116792Y-90861792D01*
X217133447Y-90848124D01*
X217152443Y-90837971D01*
X217173062Y-90831716D01*
X217200640Y-90829000D01*
X217659360Y-90829000D01*
X217686938Y-90831716D01*
G37*
G36*
X219771938Y-90831716D02*
G01*
X219792557Y-90837971D01*
X219811553Y-90848124D01*
X219828208Y-90861792D01*
X219841876Y-90878447D01*
X219852029Y-90897443D01*
X219858284Y-90918062D01*
X219861000Y-90945640D01*
X219861000Y-91454360D01*
X219858284Y-91481938D01*
X219852029Y-91502557D01*
X219841876Y-91521553D01*
X219828208Y-91538208D01*
X219811553Y-91551876D01*
X219792557Y-91562029D01*
X219771938Y-91568284D01*
X219744360Y-91571000D01*
X219285640Y-91571000D01*
X219258062Y-91568284D01*
X219237443Y-91562029D01*
X219218447Y-91551876D01*
X219201792Y-91538208D01*
X219188124Y-91521553D01*
X219177971Y-91502557D01*
X219171716Y-91481938D01*
X219169000Y-91454360D01*
X219169000Y-90945640D01*
X219171716Y-90918062D01*
X219177971Y-90897443D01*
X219188124Y-90878447D01*
X219201792Y-90861792D01*
X219218447Y-90848124D01*
X219237443Y-90837971D01*
X219258062Y-90831716D01*
X219285640Y-90829000D01*
X219744360Y-90829000D01*
X219771938Y-90831716D01*
G37*
G36*
X218656938Y-90831716D02*
G01*
X218677557Y-90837971D01*
X218696553Y-90848124D01*
X218713208Y-90861792D01*
X218726876Y-90878447D01*
X218737029Y-90897443D01*
X218743284Y-90918062D01*
X218746000Y-90945640D01*
X218746000Y-91454360D01*
X218743284Y-91481938D01*
X218737029Y-91502557D01*
X218726876Y-91521553D01*
X218713208Y-91538208D01*
X218696553Y-91551876D01*
X218677557Y-91562029D01*
X218656938Y-91568284D01*
X218629360Y-91571000D01*
X218170640Y-91571000D01*
X218143062Y-91568284D01*
X218122443Y-91562029D01*
X218103447Y-91551876D01*
X218086792Y-91538208D01*
X218073124Y-91521553D01*
X218062971Y-91502557D01*
X218056716Y-91481938D01*
X218054000Y-91454360D01*
X218054000Y-90945640D01*
X218056716Y-90918062D01*
X218062971Y-90897443D01*
X218073124Y-90878447D01*
X218086792Y-90861792D01*
X218103447Y-90848124D01*
X218122443Y-90837971D01*
X218143062Y-90831716D01*
X218170640Y-90829000D01*
X218629360Y-90829000D01*
X218656938Y-90831716D01*
G37*
G36*
X221886938Y-90831716D02*
G01*
X221907557Y-90837971D01*
X221926553Y-90848124D01*
X221943208Y-90861792D01*
X221956876Y-90878447D01*
X221967029Y-90897443D01*
X221973284Y-90918062D01*
X221976000Y-90945640D01*
X221976000Y-91454360D01*
X221973284Y-91481938D01*
X221967029Y-91502557D01*
X221956876Y-91521553D01*
X221943208Y-91538208D01*
X221926553Y-91551876D01*
X221907557Y-91562029D01*
X221886938Y-91568284D01*
X221859360Y-91571000D01*
X221400640Y-91571000D01*
X221373062Y-91568284D01*
X221352443Y-91562029D01*
X221333447Y-91551876D01*
X221316792Y-91538208D01*
X221303124Y-91521553D01*
X221292971Y-91502557D01*
X221286716Y-91481938D01*
X221284000Y-91454360D01*
X221284000Y-90945640D01*
X221286716Y-90918062D01*
X221292971Y-90897443D01*
X221303124Y-90878447D01*
X221316792Y-90861792D01*
X221333447Y-90848124D01*
X221352443Y-90837971D01*
X221373062Y-90831716D01*
X221400640Y-90829000D01*
X221859360Y-90829000D01*
X221886938Y-90831716D01*
G37*
G36*
X220741938Y-90831716D02*
G01*
X220762557Y-90837971D01*
X220781553Y-90848124D01*
X220798208Y-90861792D01*
X220811876Y-90878447D01*
X220822029Y-90897443D01*
X220828284Y-90918062D01*
X220831000Y-90945640D01*
X220831000Y-91454360D01*
X220828284Y-91481938D01*
X220822029Y-91502557D01*
X220811876Y-91521553D01*
X220798208Y-91538208D01*
X220781553Y-91551876D01*
X220762557Y-91562029D01*
X220741938Y-91568284D01*
X220714360Y-91571000D01*
X220255640Y-91571000D01*
X220228062Y-91568284D01*
X220207443Y-91562029D01*
X220188447Y-91551876D01*
X220171792Y-91538208D01*
X220158124Y-91521553D01*
X220147971Y-91502557D01*
X220141716Y-91481938D01*
X220139000Y-91454360D01*
X220139000Y-90945640D01*
X220141716Y-90918062D01*
X220147971Y-90897443D01*
X220158124Y-90878447D01*
X220171792Y-90861792D01*
X220188447Y-90848124D01*
X220207443Y-90837971D01*
X220228062Y-90831716D01*
X220255640Y-90829000D01*
X220714360Y-90829000D01*
X220741938Y-90831716D01*
G37*
G36*
X210931938Y-90331716D02*
G01*
X210952557Y-90337971D01*
X210971553Y-90348124D01*
X210988208Y-90361792D01*
X211001876Y-90378447D01*
X211012029Y-90397443D01*
X211018284Y-90418062D01*
X211021000Y-90445640D01*
X211021000Y-90954360D01*
X211018284Y-90981938D01*
X211012029Y-91002557D01*
X211001876Y-91021553D01*
X210988208Y-91038208D01*
X210971553Y-91051876D01*
X210952557Y-91062029D01*
X210931938Y-91068284D01*
X210904360Y-91071000D01*
X210445640Y-91071000D01*
X210418062Y-91068284D01*
X210397443Y-91062029D01*
X210378447Y-91051876D01*
X210361792Y-91038208D01*
X210348124Y-91021553D01*
X210337971Y-91002557D01*
X210331716Y-90981938D01*
X210329000Y-90954360D01*
X210329000Y-90445640D01*
X210331716Y-90418062D01*
X210337971Y-90397443D01*
X210348124Y-90378447D01*
X210361792Y-90361792D01*
X210378447Y-90348124D01*
X210397443Y-90337971D01*
X210418062Y-90331716D01*
X210445640Y-90329000D01*
X210904360Y-90329000D01*
X210931938Y-90331716D01*
G37*
G36*
X209961938Y-90331716D02*
G01*
X209982557Y-90337971D01*
X210001553Y-90348124D01*
X210018208Y-90361792D01*
X210031876Y-90378447D01*
X210042029Y-90397443D01*
X210048284Y-90418062D01*
X210051000Y-90445640D01*
X210051000Y-90954360D01*
X210048284Y-90981938D01*
X210042029Y-91002557D01*
X210031876Y-91021553D01*
X210018208Y-91038208D01*
X210001553Y-91051876D01*
X209982557Y-91062029D01*
X209961938Y-91068284D01*
X209934360Y-91071000D01*
X209475640Y-91071000D01*
X209448062Y-91068284D01*
X209427443Y-91062029D01*
X209408447Y-91051876D01*
X209391792Y-91038208D01*
X209378124Y-91021553D01*
X209367971Y-91002557D01*
X209361716Y-90981938D01*
X209359000Y-90954360D01*
X209359000Y-90445640D01*
X209361716Y-90418062D01*
X209367971Y-90397443D01*
X209378124Y-90378447D01*
X209391792Y-90361792D01*
X209408447Y-90348124D01*
X209427443Y-90337971D01*
X209448062Y-90331716D01*
X209475640Y-90329000D01*
X209934360Y-90329000D01*
X209961938Y-90331716D01*
G37*
G36*
X208481000Y-90921000D02*
G01*
X206079000Y-90921000D01*
X206079000Y-90219000D01*
X208481000Y-90219000D01*
X208481000Y-90921000D01*
G37*
G36*
X214486000Y-90761000D02*
G01*
X211514000Y-90761000D01*
X211514000Y-89439000D01*
X214486000Y-89439000D01*
X214486000Y-90761000D01*
G37*
G36*
X225151000Y-90751000D02*
G01*
X224449000Y-90751000D01*
X224449000Y-88649000D01*
X225151000Y-88649000D01*
X225151000Y-90751000D01*
G37*
G36*
X224151000Y-90751000D02*
G01*
X223449000Y-90751000D01*
X223449000Y-88649000D01*
X224151000Y-88649000D01*
X224151000Y-90751000D01*
G37*
G36*
X219629591Y-89278085D02*
G01*
X219663569Y-89288393D01*
X219694890Y-89305134D01*
X219722339Y-89327661D01*
X219744866Y-89355110D01*
X219761607Y-89386431D01*
X219771915Y-89420409D01*
X219776000Y-89461890D01*
X219776000Y-90138110D01*
X219771915Y-90179591D01*
X219761607Y-90213569D01*
X219744866Y-90244890D01*
X219722339Y-90272339D01*
X219694890Y-90294866D01*
X219663569Y-90311607D01*
X219629591Y-90321915D01*
X219588110Y-90326000D01*
X218986890Y-90326000D01*
X218945409Y-90321915D01*
X218911431Y-90311607D01*
X218880110Y-90294866D01*
X218852661Y-90272339D01*
X218830134Y-90244890D01*
X218813393Y-90213569D01*
X218803085Y-90179591D01*
X218799000Y-90138110D01*
X218799000Y-89461890D01*
X218803085Y-89420409D01*
X218813393Y-89386431D01*
X218830134Y-89355110D01*
X218852661Y-89327661D01*
X218880110Y-89305134D01*
X218911431Y-89288393D01*
X218945409Y-89278085D01*
X218986890Y-89274000D01*
X219588110Y-89274000D01*
X219629591Y-89278085D01*
G37*
G36*
X218054591Y-89278085D02*
G01*
X218088569Y-89288393D01*
X218119890Y-89305134D01*
X218147339Y-89327661D01*
X218169866Y-89355110D01*
X218186607Y-89386431D01*
X218196915Y-89420409D01*
X218201000Y-89461890D01*
X218201000Y-90138110D01*
X218196915Y-90179591D01*
X218186607Y-90213569D01*
X218169866Y-90244890D01*
X218147339Y-90272339D01*
X218119890Y-90294866D01*
X218088569Y-90311607D01*
X218054591Y-90321915D01*
X218013110Y-90326000D01*
X217411890Y-90326000D01*
X217370409Y-90321915D01*
X217336431Y-90311607D01*
X217305110Y-90294866D01*
X217277661Y-90272339D01*
X217255134Y-90244890D01*
X217238393Y-90213569D01*
X217228085Y-90179591D01*
X217224000Y-90138110D01*
X217224000Y-89461890D01*
X217228085Y-89420409D01*
X217238393Y-89386431D01*
X217255134Y-89355110D01*
X217277661Y-89327661D01*
X217305110Y-89305134D01*
X217336431Y-89288393D01*
X217370409Y-89278085D01*
X217411890Y-89274000D01*
X218013110Y-89274000D01*
X218054591Y-89278085D01*
G37*
G36*
X220817702Y-88400683D02*
G01*
X220828235Y-88403878D01*
X220837943Y-88409068D01*
X220846451Y-88416049D01*
X220853432Y-88424557D01*
X220862592Y-88441694D01*
X220865564Y-88448866D01*
X220879181Y-88469239D01*
X220896510Y-88486564D01*
X220916886Y-88500175D01*
X220939526Y-88509549D01*
X220963560Y-88514327D01*
X220988064Y-88514324D01*
X221012096Y-88509540D01*
X221034734Y-88500160D01*
X221055097Y-88486551D01*
X221056501Y-88485399D01*
X221093216Y-88465774D01*
X221133066Y-88453686D01*
X221180641Y-88449000D01*
X221844359Y-88449000D01*
X221891934Y-88453686D01*
X221931784Y-88465774D01*
X221968499Y-88485399D01*
X221969903Y-88486551D01*
X221990277Y-88500166D01*
X222012915Y-88509544D01*
X222036948Y-88514325D01*
X222061452Y-88514325D01*
X222085486Y-88509546D01*
X222108125Y-88500169D01*
X222128500Y-88486556D01*
X222145827Y-88469229D01*
X222159442Y-88448855D01*
X222162412Y-88441686D01*
X222171568Y-88424557D01*
X222178549Y-88416049D01*
X222187057Y-88409068D01*
X222196765Y-88403878D01*
X222207298Y-88400683D01*
X222224388Y-88399000D01*
X222575612Y-88399000D01*
X222592702Y-88400683D01*
X222603235Y-88403878D01*
X222612943Y-88409068D01*
X222621451Y-88416049D01*
X222628432Y-88424557D01*
X222633622Y-88434265D01*
X222636817Y-88444798D01*
X222638500Y-88461888D01*
X222638500Y-88838112D01*
X222636817Y-88855202D01*
X222633622Y-88865735D01*
X222628432Y-88875443D01*
X222615871Y-88890749D01*
X222610917Y-88895704D01*
X222597303Y-88916079D01*
X222587927Y-88938718D01*
X222583147Y-88962751D01*
X222583147Y-88987255D01*
X222587928Y-89011288D01*
X222597306Y-89033927D01*
X222610920Y-89054301D01*
X222615878Y-89059259D01*
X222628432Y-89074557D01*
X222633622Y-89084265D01*
X222636817Y-89094798D01*
X222638500Y-89111888D01*
X222638500Y-89488112D01*
X222636817Y-89505202D01*
X222633622Y-89515735D01*
X222628432Y-89525443D01*
X222615871Y-89540749D01*
X222610917Y-89545704D01*
X222597303Y-89566079D01*
X222587927Y-89588718D01*
X222583147Y-89612751D01*
X222583147Y-89637255D01*
X222587928Y-89661288D01*
X222597306Y-89683927D01*
X222610920Y-89704301D01*
X222615878Y-89709259D01*
X222628432Y-89724557D01*
X222633622Y-89734265D01*
X222636817Y-89744798D01*
X222638500Y-89761888D01*
X222638500Y-90138112D01*
X222636817Y-90155202D01*
X222633622Y-90165735D01*
X222628432Y-90175443D01*
X222621451Y-90183951D01*
X222612943Y-90190932D01*
X222603235Y-90196122D01*
X222592702Y-90199317D01*
X222575612Y-90201000D01*
X222224388Y-90201000D01*
X222207298Y-90199317D01*
X222196765Y-90196122D01*
X222187057Y-90190932D01*
X222178549Y-90183951D01*
X222171568Y-90175443D01*
X222162408Y-90158306D01*
X222159436Y-90151134D01*
X222145819Y-90130761D01*
X222128490Y-90113436D01*
X222108114Y-90099825D01*
X222085474Y-90090451D01*
X222061440Y-90085673D01*
X222036936Y-90085676D01*
X222012904Y-90090460D01*
X221990266Y-90099840D01*
X221969903Y-90113449D01*
X221968499Y-90114601D01*
X221931784Y-90134226D01*
X221891934Y-90146314D01*
X221844359Y-90151000D01*
X221180641Y-90151000D01*
X221133066Y-90146314D01*
X221093216Y-90134226D01*
X221056501Y-90114601D01*
X221055097Y-90113449D01*
X221034723Y-90099834D01*
X221012085Y-90090456D01*
X220988052Y-90085675D01*
X220963548Y-90085675D01*
X220939514Y-90090454D01*
X220916875Y-90099831D01*
X220896500Y-90113444D01*
X220879173Y-90130771D01*
X220865558Y-90151145D01*
X220862588Y-90158314D01*
X220853432Y-90175443D01*
X220846451Y-90183951D01*
X220837943Y-90190932D01*
X220828235Y-90196122D01*
X220817702Y-90199317D01*
X220800612Y-90201000D01*
X220449388Y-90201000D01*
X220432298Y-90199317D01*
X220421765Y-90196122D01*
X220412057Y-90190932D01*
X220403549Y-90183951D01*
X220396568Y-90175443D01*
X220391378Y-90165735D01*
X220388183Y-90155202D01*
X220386500Y-90138112D01*
X220386500Y-89761888D01*
X220388183Y-89744798D01*
X220391378Y-89734265D01*
X220396568Y-89724557D01*
X220409129Y-89709251D01*
X220414083Y-89704296D01*
X220427697Y-89683921D01*
X220437073Y-89661282D01*
X220441853Y-89637249D01*
X220441853Y-89612745D01*
X220437072Y-89588712D01*
X220427694Y-89566073D01*
X220414080Y-89545699D01*
X220409122Y-89540741D01*
X220396568Y-89525443D01*
X220391378Y-89515735D01*
X220388183Y-89505202D01*
X220386500Y-89488112D01*
X220386500Y-89111888D01*
X220388183Y-89094798D01*
X220391378Y-89084265D01*
X220396568Y-89074557D01*
X220409129Y-89059251D01*
X220414083Y-89054296D01*
X220427697Y-89033921D01*
X220437073Y-89011282D01*
X220441853Y-88987249D01*
X220441853Y-88962745D01*
X220437072Y-88938712D01*
X220427694Y-88916073D01*
X220414080Y-88895699D01*
X220409122Y-88890741D01*
X220396568Y-88875443D01*
X220391378Y-88865735D01*
X220388183Y-88855202D01*
X220386500Y-88838112D01*
X220386500Y-88461888D01*
X220388183Y-88444798D01*
X220391378Y-88434265D01*
X220396568Y-88424557D01*
X220403549Y-88416049D01*
X220412057Y-88409068D01*
X220421765Y-88403878D01*
X220432298Y-88400683D01*
X220449388Y-88399000D01*
X220800612Y-88399000D01*
X220817702Y-88400683D01*
G37*
G36*
X209924999Y-88894999D02*
G01*
X209925001Y-88895001D01*
X209925605Y-88901137D01*
X209925605Y-88918857D01*
X209925310Y-88921852D01*
X209925310Y-88946356D01*
X209930090Y-88970390D01*
X209939467Y-88993028D01*
X209953080Y-89013403D01*
X209970407Y-89030730D01*
X209990781Y-89044344D01*
X210013420Y-89053722D01*
X210037453Y-89058503D01*
X210061957Y-89058503D01*
X210085991Y-89053723D01*
X210108629Y-89044346D01*
X210129004Y-89030733D01*
X210138095Y-89022494D01*
X210175000Y-88985589D01*
X210211905Y-89022494D01*
X210230847Y-89038039D01*
X210252458Y-89049590D01*
X210275907Y-89056703D01*
X210300293Y-89059105D01*
X210324679Y-89056703D01*
X210348128Y-89049590D01*
X210369739Y-89038039D01*
X210388681Y-89022494D01*
X210404226Y-89003552D01*
X210415777Y-88981941D01*
X210422890Y-88958492D01*
X210425292Y-88934106D01*
X210424690Y-88921852D01*
X210424395Y-88918857D01*
X210424395Y-88901137D01*
X210424999Y-88895001D01*
X210425001Y-88894999D01*
X210431137Y-88894395D01*
X210778863Y-88894395D01*
X210784999Y-88894999D01*
X210785001Y-88895001D01*
X210785605Y-88901137D01*
X210785605Y-89098863D01*
X210785001Y-89104999D01*
X210784999Y-89105001D01*
X210778863Y-89105605D01*
X210611143Y-89105605D01*
X210608148Y-89105310D01*
X210583644Y-89105310D01*
X210559610Y-89110090D01*
X210536972Y-89119467D01*
X210516597Y-89133080D01*
X210499270Y-89150407D01*
X210485656Y-89170781D01*
X210476278Y-89193420D01*
X210471497Y-89217453D01*
X210471497Y-89241957D01*
X210476277Y-89265991D01*
X210485654Y-89288629D01*
X210499267Y-89309004D01*
X210507506Y-89318095D01*
X210514411Y-89325000D01*
X210507506Y-89331905D01*
X210491961Y-89350847D01*
X210480410Y-89372458D01*
X210473297Y-89395907D01*
X210470895Y-89420293D01*
X210473297Y-89444679D01*
X210480410Y-89468128D01*
X210491961Y-89489739D01*
X210507506Y-89508681D01*
X210526448Y-89524226D01*
X210548059Y-89535777D01*
X210571508Y-89542890D01*
X210595894Y-89545292D01*
X210608148Y-89544690D01*
X210611143Y-89544395D01*
X210778863Y-89544395D01*
X210784999Y-89544999D01*
X210785001Y-89545001D01*
X210785605Y-89551137D01*
X210785605Y-89748863D01*
X210785001Y-89754999D01*
X210784999Y-89755001D01*
X210778863Y-89755605D01*
X210431137Y-89755605D01*
X210425001Y-89755001D01*
X210424999Y-89754999D01*
X210424395Y-89748863D01*
X210424395Y-89731143D01*
X210424690Y-89728148D01*
X210424690Y-89703644D01*
X210419910Y-89679610D01*
X210410533Y-89656972D01*
X210396920Y-89636597D01*
X210379593Y-89619270D01*
X210359219Y-89605656D01*
X210336580Y-89596278D01*
X210312547Y-89591497D01*
X210288043Y-89591497D01*
X210264009Y-89596277D01*
X210241371Y-89605654D01*
X210220996Y-89619267D01*
X210211905Y-89627506D01*
X210175000Y-89664411D01*
X210138095Y-89627506D01*
X210119153Y-89611961D01*
X210097542Y-89600410D01*
X210074093Y-89593297D01*
X210049707Y-89590895D01*
X210025321Y-89593297D01*
X210001872Y-89600410D01*
X209980261Y-89611961D01*
X209961319Y-89627506D01*
X209945774Y-89646448D01*
X209934223Y-89668059D01*
X209927110Y-89691508D01*
X209924708Y-89715894D01*
X209925310Y-89728148D01*
X209925605Y-89731143D01*
X209925605Y-89748863D01*
X209925001Y-89754999D01*
X209924999Y-89755001D01*
X209918863Y-89755605D01*
X209571137Y-89755605D01*
X209565001Y-89755001D01*
X209564999Y-89754999D01*
X209564395Y-89748863D01*
X209564395Y-89551137D01*
X209564999Y-89545001D01*
X209565001Y-89544999D01*
X209571137Y-89544395D01*
X209738857Y-89544395D01*
X209741852Y-89544690D01*
X209766356Y-89544690D01*
X209790390Y-89539910D01*
X209813028Y-89530533D01*
X209833403Y-89516920D01*
X209850730Y-89499593D01*
X209864344Y-89479219D01*
X209873722Y-89456580D01*
X209878503Y-89432547D01*
X209878503Y-89408043D01*
X209873723Y-89384009D01*
X209864346Y-89361371D01*
X209850733Y-89340996D01*
X209842494Y-89331905D01*
X209835589Y-89325000D01*
X209842494Y-89318095D01*
X209858039Y-89299153D01*
X209869590Y-89277542D01*
X209876703Y-89254093D01*
X209879105Y-89229707D01*
X209876703Y-89205321D01*
X209869590Y-89181872D01*
X209858039Y-89160261D01*
X209842494Y-89141319D01*
X209823552Y-89125774D01*
X209801941Y-89114223D01*
X209778492Y-89107110D01*
X209754106Y-89104708D01*
X209741852Y-89105310D01*
X209738857Y-89105605D01*
X209571137Y-89105605D01*
X209565001Y-89105001D01*
X209564999Y-89104999D01*
X209564395Y-89098863D01*
X209564395Y-88901137D01*
X209564999Y-88895001D01*
X209565001Y-88894999D01*
X209571137Y-88894395D01*
X209918863Y-88894395D01*
X209924999Y-88894999D01*
G37*
G36*
X208481000Y-89651000D02*
G01*
X205879000Y-89651000D01*
X205879000Y-88949000D01*
X208481000Y-88949000D01*
X208481000Y-89651000D01*
G37*
G36*
X208481000Y-88381000D02*
G01*
X205879000Y-88381000D01*
X205879000Y-87679000D01*
X208481000Y-87679000D01*
X208481000Y-88381000D01*
G37*
G36*
X210956938Y-87531716D02*
G01*
X210977557Y-87537971D01*
X210996553Y-87548124D01*
X211013208Y-87561792D01*
X211026876Y-87578447D01*
X211037029Y-87597443D01*
X211043284Y-87618062D01*
X211046000Y-87645640D01*
X211046000Y-88154360D01*
X211043284Y-88181938D01*
X211037029Y-88202557D01*
X211026876Y-88221553D01*
X211013208Y-88238208D01*
X210996553Y-88251876D01*
X210977557Y-88262029D01*
X210956938Y-88268284D01*
X210929360Y-88271000D01*
X210470640Y-88271000D01*
X210443062Y-88268284D01*
X210422443Y-88262029D01*
X210403447Y-88251876D01*
X210386792Y-88238208D01*
X210373124Y-88221553D01*
X210362971Y-88202557D01*
X210356716Y-88181938D01*
X210354000Y-88154360D01*
X210354000Y-87645640D01*
X210356716Y-87618062D01*
X210362971Y-87597443D01*
X210373124Y-87578447D01*
X210386792Y-87561792D01*
X210403447Y-87548124D01*
X210422443Y-87537971D01*
X210443062Y-87531716D01*
X210470640Y-87529000D01*
X210929360Y-87529000D01*
X210956938Y-87531716D01*
G37*
G36*
X209986938Y-87531716D02*
G01*
X210007557Y-87537971D01*
X210026553Y-87548124D01*
X210043208Y-87561792D01*
X210056876Y-87578447D01*
X210067029Y-87597443D01*
X210073284Y-87618062D01*
X210076000Y-87645640D01*
X210076000Y-88154360D01*
X210073284Y-88181938D01*
X210067029Y-88202557D01*
X210056876Y-88221553D01*
X210043208Y-88238208D01*
X210026553Y-88251876D01*
X210007557Y-88262029D01*
X209986938Y-88268284D01*
X209959360Y-88271000D01*
X209500640Y-88271000D01*
X209473062Y-88268284D01*
X209452443Y-88262029D01*
X209433447Y-88251876D01*
X209416792Y-88238208D01*
X209403124Y-88221553D01*
X209392971Y-88202557D01*
X209386716Y-88181938D01*
X209384000Y-88154360D01*
X209384000Y-87645640D01*
X209386716Y-87618062D01*
X209392971Y-87597443D01*
X209403124Y-87578447D01*
X209416792Y-87561792D01*
X209433447Y-87548124D01*
X209452443Y-87537971D01*
X209473062Y-87531716D01*
X209500640Y-87529000D01*
X209959360Y-87529000D01*
X209986938Y-87531716D01*
G37*
G36*
X212987797Y-81510567D02*
G01*
X213042575Y-81533257D01*
X213042577Y-81533258D01*
X213091876Y-81566198D01*
X213133802Y-81608124D01*
X213166742Y-81657423D01*
X213166743Y-81657425D01*
X213184516Y-81700332D01*
X213196067Y-81721943D01*
X213211613Y-81740885D01*
X213230555Y-81756430D01*
X213252165Y-81767981D01*
X213275614Y-81775094D01*
X213300000Y-81777496D01*
X213324387Y-81775094D01*
X213347835Y-81767981D01*
X213369446Y-81756430D01*
X213388388Y-81740884D01*
X213403933Y-81721942D01*
X213415484Y-81700332D01*
X213433257Y-81657425D01*
X213433258Y-81657423D01*
X213466198Y-81608124D01*
X213508124Y-81566198D01*
X213557423Y-81533258D01*
X213557425Y-81533257D01*
X213612203Y-81510567D01*
X213670353Y-81499000D01*
X213729647Y-81499000D01*
X213787797Y-81510567D01*
X213842575Y-81533257D01*
X213842577Y-81533258D01*
X213891876Y-81566198D01*
X213933802Y-81608124D01*
X213966742Y-81657423D01*
X213966743Y-81657425D01*
X213984516Y-81700332D01*
X213996067Y-81721943D01*
X214011613Y-81740885D01*
X214030555Y-81756430D01*
X214052165Y-81767981D01*
X214075614Y-81775094D01*
X214100000Y-81777496D01*
X214124387Y-81775094D01*
X214147835Y-81767981D01*
X214169446Y-81756430D01*
X214188388Y-81740884D01*
X214203933Y-81721942D01*
X214215484Y-81700332D01*
X214233257Y-81657425D01*
X214233258Y-81657423D01*
X214266198Y-81608124D01*
X214308124Y-81566198D01*
X214357423Y-81533258D01*
X214357425Y-81533257D01*
X214412203Y-81510567D01*
X214470353Y-81499000D01*
X214529647Y-81499000D01*
X214587797Y-81510567D01*
X214642575Y-81533257D01*
X214642577Y-81533258D01*
X214691876Y-81566198D01*
X214733802Y-81608124D01*
X214766742Y-81657423D01*
X214766743Y-81657425D01*
X214784516Y-81700332D01*
X214796067Y-81721943D01*
X214811613Y-81740885D01*
X214830555Y-81756430D01*
X214852165Y-81767981D01*
X214875614Y-81775094D01*
X214900000Y-81777496D01*
X214924387Y-81775094D01*
X214947835Y-81767981D01*
X214969446Y-81756430D01*
X214988388Y-81740884D01*
X215003933Y-81721942D01*
X215015484Y-81700332D01*
X215033257Y-81657425D01*
X215033258Y-81657423D01*
X215066198Y-81608124D01*
X215108124Y-81566198D01*
X215157423Y-81533258D01*
X215157425Y-81533257D01*
X215212203Y-81510567D01*
X215270353Y-81499000D01*
X215329647Y-81499000D01*
X215387797Y-81510567D01*
X215442575Y-81533257D01*
X215442577Y-81533258D01*
X215491876Y-81566198D01*
X215533802Y-81608124D01*
X215566742Y-81657423D01*
X215566743Y-81657425D01*
X215584516Y-81700332D01*
X215596067Y-81721943D01*
X215611613Y-81740885D01*
X215630555Y-81756430D01*
X215652165Y-81767981D01*
X215675614Y-81775094D01*
X215700000Y-81777496D01*
X215724387Y-81775094D01*
X215747835Y-81767981D01*
X215769446Y-81756430D01*
X215788388Y-81740884D01*
X215803933Y-81721942D01*
X215815484Y-81700332D01*
X215833257Y-81657425D01*
X215833258Y-81657423D01*
X215866198Y-81608124D01*
X215908124Y-81566198D01*
X215957423Y-81533258D01*
X215957425Y-81533257D01*
X216012203Y-81510567D01*
X216070353Y-81499000D01*
X216129647Y-81499000D01*
X216187797Y-81510567D01*
X216242575Y-81533257D01*
X216242577Y-81533258D01*
X216291876Y-81566198D01*
X216333802Y-81608124D01*
X216366742Y-81657423D01*
X216366743Y-81657425D01*
X216384516Y-81700332D01*
X216396067Y-81721943D01*
X216411613Y-81740885D01*
X216430555Y-81756430D01*
X216452165Y-81767981D01*
X216475614Y-81775094D01*
X216500000Y-81777496D01*
X216524387Y-81775094D01*
X216547835Y-81767981D01*
X216569446Y-81756430D01*
X216588388Y-81740884D01*
X216603933Y-81721942D01*
X216615484Y-81700332D01*
X216633257Y-81657425D01*
X216633258Y-81657423D01*
X216666198Y-81608124D01*
X216708124Y-81566198D01*
X216757423Y-81533258D01*
X216757425Y-81533257D01*
X216812203Y-81510567D01*
X216870353Y-81499000D01*
X216929647Y-81499000D01*
X216987797Y-81510567D01*
X217042575Y-81533257D01*
X217042577Y-81533258D01*
X217091876Y-81566198D01*
X217133802Y-81608124D01*
X217166742Y-81657423D01*
X217166743Y-81657425D01*
X217184516Y-81700332D01*
X217196067Y-81721943D01*
X217211613Y-81740885D01*
X217230555Y-81756430D01*
X217252165Y-81767981D01*
X217275614Y-81775094D01*
X217300000Y-81777496D01*
X217324387Y-81775094D01*
X217347835Y-81767981D01*
X217369446Y-81756430D01*
X217388388Y-81740884D01*
X217403933Y-81721942D01*
X217415484Y-81700332D01*
X217433257Y-81657425D01*
X217433258Y-81657423D01*
X217466198Y-81608124D01*
X217508124Y-81566198D01*
X217557423Y-81533258D01*
X217557425Y-81533257D01*
X217612203Y-81510567D01*
X217670353Y-81499000D01*
X217729647Y-81499000D01*
X217787797Y-81510567D01*
X217842575Y-81533257D01*
X217842577Y-81533258D01*
X217891876Y-81566198D01*
X217933802Y-81608124D01*
X217966742Y-81657423D01*
X217966743Y-81657425D01*
X217984516Y-81700332D01*
X217996067Y-81721943D01*
X218011613Y-81740885D01*
X218030555Y-81756430D01*
X218052165Y-81767981D01*
X218075614Y-81775094D01*
X218100000Y-81777496D01*
X218124387Y-81775094D01*
X218147835Y-81767981D01*
X218169446Y-81756430D01*
X218188388Y-81740884D01*
X218203933Y-81721942D01*
X218215484Y-81700332D01*
X218233257Y-81657425D01*
X218233258Y-81657423D01*
X218266198Y-81608124D01*
X218308124Y-81566198D01*
X218357423Y-81533258D01*
X218357425Y-81533257D01*
X218412203Y-81510567D01*
X218470353Y-81499000D01*
X218529647Y-81499000D01*
X218587797Y-81510567D01*
X218642575Y-81533257D01*
X218642577Y-81533258D01*
X218691876Y-81566198D01*
X218733802Y-81608124D01*
X218766742Y-81657423D01*
X218766743Y-81657425D01*
X218789433Y-81712203D01*
X218801000Y-81770353D01*
X218801000Y-81829647D01*
X218789433Y-81887797D01*
X218766743Y-81942575D01*
X218766742Y-81942577D01*
X218733802Y-81991876D01*
X218691876Y-82033802D01*
X218642577Y-82066742D01*
X218642576Y-82066743D01*
X218642575Y-82066743D01*
X218599668Y-82084516D01*
X218578057Y-82096067D01*
X218559115Y-82111613D01*
X218543570Y-82130555D01*
X218532019Y-82152165D01*
X218524906Y-82175614D01*
X218522504Y-82200000D01*
X218524906Y-82224387D01*
X218532019Y-82247835D01*
X218543570Y-82269446D01*
X218559116Y-82288388D01*
X218578058Y-82303933D01*
X218599668Y-82315484D01*
X218629065Y-82327661D01*
X218642577Y-82333258D01*
X218691876Y-82366198D01*
X218733802Y-82408124D01*
X218766742Y-82457423D01*
X218766743Y-82457425D01*
X218789433Y-82512203D01*
X218801000Y-82570353D01*
X218801000Y-82629647D01*
X218789433Y-82687797D01*
X218766743Y-82742575D01*
X218766742Y-82742577D01*
X218733802Y-82791876D01*
X218691876Y-82833802D01*
X218642577Y-82866742D01*
X218642576Y-82866743D01*
X218642575Y-82866743D01*
X218599668Y-82884516D01*
X218578057Y-82896067D01*
X218559115Y-82911613D01*
X218543570Y-82930555D01*
X218532019Y-82952165D01*
X218524906Y-82975614D01*
X218522504Y-83000000D01*
X218524906Y-83024387D01*
X218532019Y-83047835D01*
X218543570Y-83069446D01*
X218559116Y-83088388D01*
X218578058Y-83103933D01*
X218599668Y-83115484D01*
X218642575Y-83133257D01*
X218642577Y-83133258D01*
X218691876Y-83166198D01*
X218733802Y-83208124D01*
X218764763Y-83254461D01*
X218766743Y-83257425D01*
X218789433Y-83312203D01*
X218801000Y-83370353D01*
X218801000Y-83429647D01*
X218789433Y-83487797D01*
X218766743Y-83542575D01*
X218766742Y-83542577D01*
X218733802Y-83591876D01*
X218691876Y-83633802D01*
X218642577Y-83666742D01*
X218642576Y-83666743D01*
X218642575Y-83666743D01*
X218599668Y-83684516D01*
X218578057Y-83696067D01*
X218559115Y-83711613D01*
X218543570Y-83730555D01*
X218532019Y-83752165D01*
X218524906Y-83775614D01*
X218522504Y-83800000D01*
X218524906Y-83824387D01*
X218532019Y-83847835D01*
X218543570Y-83869446D01*
X218559116Y-83888388D01*
X218578058Y-83903933D01*
X218599668Y-83915484D01*
X218638939Y-83931751D01*
X218642577Y-83933258D01*
X218691876Y-83966198D01*
X218733802Y-84008124D01*
X218766742Y-84057423D01*
X218766743Y-84057425D01*
X218789433Y-84112203D01*
X218801000Y-84170353D01*
X218801000Y-84229647D01*
X218789433Y-84287797D01*
X218769551Y-84335796D01*
X218766742Y-84342577D01*
X218733802Y-84391876D01*
X218691876Y-84433802D01*
X218642577Y-84466742D01*
X218642576Y-84466743D01*
X218642575Y-84466743D01*
X218599668Y-84484516D01*
X218578057Y-84496067D01*
X218559115Y-84511613D01*
X218543570Y-84530555D01*
X218532019Y-84552165D01*
X218524906Y-84575614D01*
X218522504Y-84600000D01*
X218524906Y-84624387D01*
X218532019Y-84647835D01*
X218543570Y-84669446D01*
X218559116Y-84688388D01*
X218578058Y-84703933D01*
X218599668Y-84715484D01*
X218642575Y-84733257D01*
X218642577Y-84733258D01*
X218691876Y-84766198D01*
X218733802Y-84808124D01*
X218764695Y-84854360D01*
X218766743Y-84857425D01*
X218789433Y-84912203D01*
X218801000Y-84970353D01*
X218801000Y-85029647D01*
X218789433Y-85087797D01*
X218768224Y-85139000D01*
X218766742Y-85142577D01*
X218733802Y-85191876D01*
X218691876Y-85233802D01*
X218642577Y-85266742D01*
X218642576Y-85266743D01*
X218642575Y-85266743D01*
X218599668Y-85284516D01*
X218578057Y-85296067D01*
X218559115Y-85311613D01*
X218543570Y-85330555D01*
X218532019Y-85352165D01*
X218524906Y-85375614D01*
X218522504Y-85400000D01*
X218524906Y-85424387D01*
X218532019Y-85447835D01*
X218543570Y-85469446D01*
X218559116Y-85488388D01*
X218578058Y-85503933D01*
X218599668Y-85515484D01*
X218642575Y-85533257D01*
X218642577Y-85533258D01*
X218691876Y-85566198D01*
X218733802Y-85608124D01*
X218766742Y-85657423D01*
X218766743Y-85657425D01*
X218789433Y-85712203D01*
X218801000Y-85770353D01*
X218801000Y-85829647D01*
X218789433Y-85887797D01*
X218771226Y-85931751D01*
X218766742Y-85942577D01*
X218733802Y-85991876D01*
X218691876Y-86033802D01*
X218642577Y-86066742D01*
X218642576Y-86066743D01*
X218642575Y-86066743D01*
X218599668Y-86084516D01*
X218578057Y-86096067D01*
X218559115Y-86111613D01*
X218543570Y-86130555D01*
X218532019Y-86152165D01*
X218524906Y-86175614D01*
X218522504Y-86200000D01*
X218524906Y-86224387D01*
X218532019Y-86247835D01*
X218543570Y-86269446D01*
X218559116Y-86288388D01*
X218578058Y-86303933D01*
X218599668Y-86315484D01*
X218642575Y-86333257D01*
X218642577Y-86333258D01*
X218691876Y-86366198D01*
X218733802Y-86408124D01*
X218766742Y-86457423D01*
X218766743Y-86457425D01*
X218789433Y-86512203D01*
X218801000Y-86570353D01*
X218801000Y-86629647D01*
X218789433Y-86687797D01*
X218766743Y-86742575D01*
X218766742Y-86742577D01*
X218733802Y-86791876D01*
X218691876Y-86833802D01*
X218642577Y-86866742D01*
X218642576Y-86866743D01*
X218642575Y-86866743D01*
X218599668Y-86884516D01*
X218578057Y-86896067D01*
X218559115Y-86911613D01*
X218543570Y-86930555D01*
X218532019Y-86952165D01*
X218524906Y-86975614D01*
X218522504Y-87000000D01*
X218524906Y-87024387D01*
X218532019Y-87047835D01*
X218543570Y-87069446D01*
X218559116Y-87088388D01*
X218578058Y-87103933D01*
X218599668Y-87115484D01*
X218642575Y-87133257D01*
X218642577Y-87133258D01*
X218691876Y-87166198D01*
X218733802Y-87208124D01*
X218766742Y-87257423D01*
X218766743Y-87257425D01*
X218789433Y-87312203D01*
X218801000Y-87370353D01*
X218801000Y-87429647D01*
X218789433Y-87487797D01*
X218772366Y-87529000D01*
X218766742Y-87542577D01*
X218733802Y-87591876D01*
X218691876Y-87633802D01*
X218642577Y-87666742D01*
X218642576Y-87666743D01*
X218642575Y-87666743D01*
X218587797Y-87689433D01*
X218529647Y-87701000D01*
X218470353Y-87701000D01*
X218412203Y-87689433D01*
X218357425Y-87666743D01*
X218357424Y-87666743D01*
X218357423Y-87666742D01*
X218308124Y-87633802D01*
X218266198Y-87591876D01*
X218233258Y-87542577D01*
X218227634Y-87529000D01*
X218215484Y-87499668D01*
X218203933Y-87478057D01*
X218188387Y-87459115D01*
X218169445Y-87443570D01*
X218147835Y-87432019D01*
X218124386Y-87424906D01*
X218100000Y-87422504D01*
X218075613Y-87424906D01*
X218052165Y-87432019D01*
X218030554Y-87443570D01*
X218011612Y-87459116D01*
X217996067Y-87478058D01*
X217984516Y-87499668D01*
X217972366Y-87529000D01*
X217966742Y-87542577D01*
X217933802Y-87591876D01*
X217891876Y-87633802D01*
X217842577Y-87666742D01*
X217842576Y-87666743D01*
X217842575Y-87666743D01*
X217787797Y-87689433D01*
X217729647Y-87701000D01*
X217670353Y-87701000D01*
X217612203Y-87689433D01*
X217557425Y-87666743D01*
X217557424Y-87666743D01*
X217557423Y-87666742D01*
X217508124Y-87633802D01*
X217466198Y-87591876D01*
X217433258Y-87542577D01*
X217427634Y-87529000D01*
X217415484Y-87499668D01*
X217403933Y-87478057D01*
X217388387Y-87459115D01*
X217369445Y-87443570D01*
X217347835Y-87432019D01*
X217324386Y-87424906D01*
X217300000Y-87422504D01*
X217275613Y-87424906D01*
X217252165Y-87432019D01*
X217230554Y-87443570D01*
X217211612Y-87459116D01*
X217196067Y-87478058D01*
X217184516Y-87499668D01*
X217172366Y-87529000D01*
X217166742Y-87542577D01*
X217133802Y-87591876D01*
X217091876Y-87633802D01*
X217042577Y-87666742D01*
X217042576Y-87666743D01*
X217042575Y-87666743D01*
X216987797Y-87689433D01*
X216929647Y-87701000D01*
X216870353Y-87701000D01*
X216812203Y-87689433D01*
X216757425Y-87666743D01*
X216757424Y-87666743D01*
X216757423Y-87666742D01*
X216708124Y-87633802D01*
X216666198Y-87591876D01*
X216633258Y-87542577D01*
X216627634Y-87529000D01*
X216615484Y-87499668D01*
X216603933Y-87478057D01*
X216588387Y-87459115D01*
X216569445Y-87443570D01*
X216547835Y-87432019D01*
X216524386Y-87424906D01*
X216500000Y-87422504D01*
X216475613Y-87424906D01*
X216452165Y-87432019D01*
X216430554Y-87443570D01*
X216411612Y-87459116D01*
X216396067Y-87478058D01*
X216384516Y-87499668D01*
X216372366Y-87529000D01*
X216366742Y-87542577D01*
X216333802Y-87591876D01*
X216291876Y-87633802D01*
X216242577Y-87666742D01*
X216242576Y-87666743D01*
X216242575Y-87666743D01*
X216187797Y-87689433D01*
X216129647Y-87701000D01*
X216070353Y-87701000D01*
X216012203Y-87689433D01*
X215957425Y-87666743D01*
X215957424Y-87666743D01*
X215957423Y-87666742D01*
X215908124Y-87633802D01*
X215866198Y-87591876D01*
X215833258Y-87542577D01*
X215827634Y-87529000D01*
X215815484Y-87499668D01*
X215803933Y-87478057D01*
X215788387Y-87459115D01*
X215769445Y-87443570D01*
X215747835Y-87432019D01*
X215724386Y-87424906D01*
X215700000Y-87422504D01*
X215675613Y-87424906D01*
X215652165Y-87432019D01*
X215630554Y-87443570D01*
X215611612Y-87459116D01*
X215596067Y-87478058D01*
X215584516Y-87499668D01*
X215572366Y-87529000D01*
X215566742Y-87542577D01*
X215533802Y-87591876D01*
X215491876Y-87633802D01*
X215442577Y-87666742D01*
X215442576Y-87666743D01*
X215442575Y-87666743D01*
X215387797Y-87689433D01*
X215329647Y-87701000D01*
X215270353Y-87701000D01*
X215212203Y-87689433D01*
X215157425Y-87666743D01*
X215157424Y-87666743D01*
X215157423Y-87666742D01*
X215108124Y-87633802D01*
X215066198Y-87591876D01*
X215033258Y-87542577D01*
X215027634Y-87529000D01*
X215015484Y-87499668D01*
X215003933Y-87478057D01*
X214988387Y-87459115D01*
X214969445Y-87443570D01*
X214947835Y-87432019D01*
X214924386Y-87424906D01*
X214900000Y-87422504D01*
X214875613Y-87424906D01*
X214852165Y-87432019D01*
X214830554Y-87443570D01*
X214811612Y-87459116D01*
X214796067Y-87478058D01*
X214784516Y-87499668D01*
X214772366Y-87529000D01*
X214766742Y-87542577D01*
X214733802Y-87591876D01*
X214691876Y-87633802D01*
X214642577Y-87666742D01*
X214642576Y-87666743D01*
X214642575Y-87666743D01*
X214587797Y-87689433D01*
X214529647Y-87701000D01*
X214470353Y-87701000D01*
X214412203Y-87689433D01*
X214357425Y-87666743D01*
X214357424Y-87666743D01*
X214357423Y-87666742D01*
X214308124Y-87633802D01*
X214266198Y-87591876D01*
X214233258Y-87542577D01*
X214227634Y-87529000D01*
X214215484Y-87499668D01*
X214203933Y-87478057D01*
X214188387Y-87459115D01*
X214169445Y-87443570D01*
X214147835Y-87432019D01*
X214124386Y-87424906D01*
X214100000Y-87422504D01*
X214075613Y-87424906D01*
X214052165Y-87432019D01*
X214030554Y-87443570D01*
X214011612Y-87459116D01*
X213996067Y-87478058D01*
X213984516Y-87499668D01*
X213972366Y-87529000D01*
X213966742Y-87542577D01*
X213933802Y-87591876D01*
X213891876Y-87633802D01*
X213842577Y-87666742D01*
X213842576Y-87666743D01*
X213842575Y-87666743D01*
X213787797Y-87689433D01*
X213729647Y-87701000D01*
X213670353Y-87701000D01*
X213612203Y-87689433D01*
X213557425Y-87666743D01*
X213557424Y-87666743D01*
X213557423Y-87666742D01*
X213508124Y-87633802D01*
X213466198Y-87591876D01*
X213433258Y-87542577D01*
X213427634Y-87529000D01*
X213415484Y-87499668D01*
X213403933Y-87478057D01*
X213388387Y-87459115D01*
X213369445Y-87443570D01*
X213347835Y-87432019D01*
X213324386Y-87424906D01*
X213300000Y-87422504D01*
X213275613Y-87424906D01*
X213252165Y-87432019D01*
X213230554Y-87443570D01*
X213211612Y-87459116D01*
X213196067Y-87478058D01*
X213184516Y-87499668D01*
X213172366Y-87529000D01*
X213166742Y-87542577D01*
X213133802Y-87591876D01*
X213091876Y-87633802D01*
X213042577Y-87666742D01*
X213042576Y-87666743D01*
X213042575Y-87666743D01*
X212987797Y-87689433D01*
X212929647Y-87701000D01*
X212870353Y-87701000D01*
X212812203Y-87689433D01*
X212757425Y-87666743D01*
X212757424Y-87666743D01*
X212757423Y-87666742D01*
X212708124Y-87633802D01*
X212666198Y-87591876D01*
X212633258Y-87542577D01*
X212627634Y-87529000D01*
X212610567Y-87487797D01*
X212599000Y-87429647D01*
X212599000Y-87370353D01*
X212610567Y-87312203D01*
X212633257Y-87257425D01*
X212633258Y-87257423D01*
X212666198Y-87208124D01*
X212708124Y-87166198D01*
X212757423Y-87133258D01*
X212757425Y-87133257D01*
X212800332Y-87115484D01*
X212821943Y-87103933D01*
X212840885Y-87088387D01*
X212856430Y-87069445D01*
X212867981Y-87047835D01*
X212875094Y-87024386D01*
X212877496Y-87000000D01*
X212922504Y-87000000D01*
X212924906Y-87024387D01*
X212932019Y-87047835D01*
X212943570Y-87069446D01*
X212959116Y-87088388D01*
X212978058Y-87103933D01*
X212999668Y-87115484D01*
X213042575Y-87133257D01*
X213042577Y-87133258D01*
X213091876Y-87166198D01*
X213133802Y-87208124D01*
X213166742Y-87257423D01*
X213166743Y-87257425D01*
X213184516Y-87300332D01*
X213196067Y-87321943D01*
X213211613Y-87340885D01*
X213230555Y-87356430D01*
X213252165Y-87367981D01*
X213275614Y-87375094D01*
X213300000Y-87377496D01*
X213324387Y-87375094D01*
X213347835Y-87367981D01*
X213369446Y-87356430D01*
X213388388Y-87340884D01*
X213403933Y-87321942D01*
X213415484Y-87300332D01*
X213433257Y-87257425D01*
X213433258Y-87257423D01*
X213466198Y-87208124D01*
X213508124Y-87166198D01*
X213557423Y-87133258D01*
X213557425Y-87133257D01*
X213600332Y-87115484D01*
X213621943Y-87103933D01*
X213640885Y-87088387D01*
X213656430Y-87069445D01*
X213667981Y-87047835D01*
X213675094Y-87024386D01*
X213677496Y-87000000D01*
X213722504Y-87000000D01*
X213724906Y-87024387D01*
X213732019Y-87047835D01*
X213743570Y-87069446D01*
X213759116Y-87088388D01*
X213778058Y-87103933D01*
X213799668Y-87115484D01*
X213842575Y-87133257D01*
X213842577Y-87133258D01*
X213891876Y-87166198D01*
X213933802Y-87208124D01*
X213966742Y-87257423D01*
X213966743Y-87257425D01*
X213984516Y-87300332D01*
X213996067Y-87321943D01*
X214011613Y-87340885D01*
X214030555Y-87356430D01*
X214052165Y-87367981D01*
X214075614Y-87375094D01*
X214100000Y-87377496D01*
X214124387Y-87375094D01*
X214147835Y-87367981D01*
X214169446Y-87356430D01*
X214188388Y-87340884D01*
X214203933Y-87321942D01*
X214215484Y-87300332D01*
X214233257Y-87257425D01*
X214233258Y-87257423D01*
X214266198Y-87208124D01*
X214308124Y-87166198D01*
X214357423Y-87133258D01*
X214357425Y-87133257D01*
X214400332Y-87115484D01*
X214421943Y-87103933D01*
X214440885Y-87088387D01*
X214456430Y-87069445D01*
X214467981Y-87047835D01*
X214475094Y-87024386D01*
X214477496Y-87000000D01*
X214522504Y-87000000D01*
X214524906Y-87024387D01*
X214532019Y-87047835D01*
X214543570Y-87069446D01*
X214559116Y-87088388D01*
X214578058Y-87103933D01*
X214599668Y-87115484D01*
X214642575Y-87133257D01*
X214642577Y-87133258D01*
X214691876Y-87166198D01*
X214733802Y-87208124D01*
X214766742Y-87257423D01*
X214766743Y-87257425D01*
X214784516Y-87300332D01*
X214796067Y-87321943D01*
X214811613Y-87340885D01*
X214830555Y-87356430D01*
X214852165Y-87367981D01*
X214875614Y-87375094D01*
X214900000Y-87377496D01*
X214924387Y-87375094D01*
X214947835Y-87367981D01*
X214969446Y-87356430D01*
X214988388Y-87340884D01*
X215003933Y-87321942D01*
X215015484Y-87300332D01*
X215033257Y-87257425D01*
X215033258Y-87257423D01*
X215066198Y-87208124D01*
X215108124Y-87166198D01*
X215157423Y-87133258D01*
X215157425Y-87133257D01*
X215200332Y-87115484D01*
X215221943Y-87103933D01*
X215240885Y-87088387D01*
X215256430Y-87069445D01*
X215267981Y-87047835D01*
X215275094Y-87024386D01*
X215277496Y-87000000D01*
X215322504Y-87000000D01*
X215324906Y-87024387D01*
X215332019Y-87047835D01*
X215343570Y-87069446D01*
X215359116Y-87088388D01*
X215378058Y-87103933D01*
X215399668Y-87115484D01*
X215442575Y-87133257D01*
X215442577Y-87133258D01*
X215491876Y-87166198D01*
X215533802Y-87208124D01*
X215566742Y-87257423D01*
X215566743Y-87257425D01*
X215584516Y-87300332D01*
X215596067Y-87321943D01*
X215611613Y-87340885D01*
X215630555Y-87356430D01*
X215652165Y-87367981D01*
X215675614Y-87375094D01*
X215700000Y-87377496D01*
X215724387Y-87375094D01*
X215747835Y-87367981D01*
X215769446Y-87356430D01*
X215788388Y-87340884D01*
X215803933Y-87321942D01*
X215815484Y-87300332D01*
X215833257Y-87257425D01*
X215833258Y-87257423D01*
X215866198Y-87208124D01*
X215908124Y-87166198D01*
X215957423Y-87133258D01*
X215957425Y-87133257D01*
X216000332Y-87115484D01*
X216021943Y-87103933D01*
X216040885Y-87088387D01*
X216056430Y-87069445D01*
X216067981Y-87047835D01*
X216075094Y-87024386D01*
X216077496Y-87000000D01*
X216122504Y-87000000D01*
X216124906Y-87024387D01*
X216132019Y-87047835D01*
X216143570Y-87069446D01*
X216159116Y-87088388D01*
X216178058Y-87103933D01*
X216199668Y-87115484D01*
X216242575Y-87133257D01*
X216242577Y-87133258D01*
X216291876Y-87166198D01*
X216333802Y-87208124D01*
X216366742Y-87257423D01*
X216366743Y-87257425D01*
X216384516Y-87300332D01*
X216396067Y-87321943D01*
X216411613Y-87340885D01*
X216430555Y-87356430D01*
X216452165Y-87367981D01*
X216475614Y-87375094D01*
X216500000Y-87377496D01*
X216524387Y-87375094D01*
X216547835Y-87367981D01*
X216569446Y-87356430D01*
X216588388Y-87340884D01*
X216603933Y-87321942D01*
X216615484Y-87300332D01*
X216633257Y-87257425D01*
X216633258Y-87257423D01*
X216666198Y-87208124D01*
X216708124Y-87166198D01*
X216757423Y-87133258D01*
X216757425Y-87133257D01*
X216800332Y-87115484D01*
X216821943Y-87103933D01*
X216840885Y-87088387D01*
X216856430Y-87069445D01*
X216867981Y-87047835D01*
X216875094Y-87024386D01*
X216877496Y-87000000D01*
X216922504Y-87000000D01*
X216924906Y-87024387D01*
X216932019Y-87047835D01*
X216943570Y-87069446D01*
X216959116Y-87088388D01*
X216978058Y-87103933D01*
X216999668Y-87115484D01*
X217042575Y-87133257D01*
X217042577Y-87133258D01*
X217091876Y-87166198D01*
X217133802Y-87208124D01*
X217166742Y-87257423D01*
X217166743Y-87257425D01*
X217184516Y-87300332D01*
X217196067Y-87321943D01*
X217211613Y-87340885D01*
X217230555Y-87356430D01*
X217252165Y-87367981D01*
X217275614Y-87375094D01*
X217300000Y-87377496D01*
X217324387Y-87375094D01*
X217347835Y-87367981D01*
X217369446Y-87356430D01*
X217388388Y-87340884D01*
X217403933Y-87321942D01*
X217415484Y-87300332D01*
X217433257Y-87257425D01*
X217433258Y-87257423D01*
X217466198Y-87208124D01*
X217508124Y-87166198D01*
X217557423Y-87133258D01*
X217557425Y-87133257D01*
X217600332Y-87115484D01*
X217621943Y-87103933D01*
X217640885Y-87088387D01*
X217656430Y-87069445D01*
X217667981Y-87047835D01*
X217675094Y-87024386D01*
X217677496Y-87000000D01*
X217722504Y-87000000D01*
X217724906Y-87024387D01*
X217732019Y-87047835D01*
X217743570Y-87069446D01*
X217759116Y-87088388D01*
X217778058Y-87103933D01*
X217799668Y-87115484D01*
X217842575Y-87133257D01*
X217842577Y-87133258D01*
X217891876Y-87166198D01*
X217933802Y-87208124D01*
X217966742Y-87257423D01*
X217966743Y-87257425D01*
X217984516Y-87300332D01*
X217996067Y-87321943D01*
X218011613Y-87340885D01*
X218030555Y-87356430D01*
X218052165Y-87367981D01*
X218075614Y-87375094D01*
X218100000Y-87377496D01*
X218124387Y-87375094D01*
X218147835Y-87367981D01*
X218169446Y-87356430D01*
X218188388Y-87340884D01*
X218203933Y-87321942D01*
X218215484Y-87300332D01*
X218233257Y-87257425D01*
X218233258Y-87257423D01*
X218266198Y-87208124D01*
X218308124Y-87166198D01*
X218357423Y-87133258D01*
X218357425Y-87133257D01*
X218400332Y-87115484D01*
X218421943Y-87103933D01*
X218440885Y-87088387D01*
X218456430Y-87069445D01*
X218467981Y-87047835D01*
X218475094Y-87024386D01*
X218477496Y-87000000D01*
X218475094Y-86975613D01*
X218467981Y-86952165D01*
X218456430Y-86930554D01*
X218440884Y-86911612D01*
X218421942Y-86896067D01*
X218400332Y-86884516D01*
X218357425Y-86866743D01*
X218357424Y-86866743D01*
X218357423Y-86866742D01*
X218308124Y-86833802D01*
X218266198Y-86791876D01*
X218233258Y-86742577D01*
X218233257Y-86742575D01*
X218215484Y-86699668D01*
X218203933Y-86678057D01*
X218188387Y-86659115D01*
X218169445Y-86643570D01*
X218147835Y-86632019D01*
X218124386Y-86624906D01*
X218100000Y-86622504D01*
X218075613Y-86624906D01*
X218052165Y-86632019D01*
X218030554Y-86643570D01*
X218011612Y-86659116D01*
X217996067Y-86678058D01*
X217984516Y-86699668D01*
X217966743Y-86742575D01*
X217966742Y-86742577D01*
X217933802Y-86791876D01*
X217891876Y-86833802D01*
X217842577Y-86866742D01*
X217842576Y-86866743D01*
X217842575Y-86866743D01*
X217799668Y-86884516D01*
X217778057Y-86896067D01*
X217759115Y-86911613D01*
X217743570Y-86930555D01*
X217732019Y-86952165D01*
X217724906Y-86975614D01*
X217722504Y-87000000D01*
X217677496Y-87000000D01*
X217675094Y-86975613D01*
X217667981Y-86952165D01*
X217656430Y-86930554D01*
X217640884Y-86911612D01*
X217621942Y-86896067D01*
X217600332Y-86884516D01*
X217557425Y-86866743D01*
X217557424Y-86866743D01*
X217557423Y-86866742D01*
X217508124Y-86833802D01*
X217466198Y-86791876D01*
X217433258Y-86742577D01*
X217433257Y-86742575D01*
X217415484Y-86699668D01*
X217403933Y-86678057D01*
X217388387Y-86659115D01*
X217369445Y-86643570D01*
X217347835Y-86632019D01*
X217324386Y-86624906D01*
X217300000Y-86622504D01*
X217275613Y-86624906D01*
X217252165Y-86632019D01*
X217230554Y-86643570D01*
X217211612Y-86659116D01*
X217196067Y-86678058D01*
X217184516Y-86699668D01*
X217166743Y-86742575D01*
X217166742Y-86742577D01*
X217133802Y-86791876D01*
X217091876Y-86833802D01*
X217042577Y-86866742D01*
X217042576Y-86866743D01*
X217042575Y-86866743D01*
X216999668Y-86884516D01*
X216978057Y-86896067D01*
X216959115Y-86911613D01*
X216943570Y-86930555D01*
X216932019Y-86952165D01*
X216924906Y-86975614D01*
X216922504Y-87000000D01*
X216877496Y-87000000D01*
X216875094Y-86975613D01*
X216867981Y-86952165D01*
X216856430Y-86930554D01*
X216840884Y-86911612D01*
X216821942Y-86896067D01*
X216800332Y-86884516D01*
X216757425Y-86866743D01*
X216757424Y-86866743D01*
X216757423Y-86866742D01*
X216708124Y-86833802D01*
X216666198Y-86791876D01*
X216633258Y-86742577D01*
X216633257Y-86742575D01*
X216615484Y-86699668D01*
X216603933Y-86678057D01*
X216588387Y-86659115D01*
X216569445Y-86643570D01*
X216547835Y-86632019D01*
X216524386Y-86624906D01*
X216500000Y-86622504D01*
X216475613Y-86624906D01*
X216452165Y-86632019D01*
X216430554Y-86643570D01*
X216411612Y-86659116D01*
X216396067Y-86678058D01*
X216384516Y-86699668D01*
X216366743Y-86742575D01*
X216366742Y-86742577D01*
X216333802Y-86791876D01*
X216291876Y-86833802D01*
X216242577Y-86866742D01*
X216242576Y-86866743D01*
X216242575Y-86866743D01*
X216199668Y-86884516D01*
X216178057Y-86896067D01*
X216159115Y-86911613D01*
X216143570Y-86930555D01*
X216132019Y-86952165D01*
X216124906Y-86975614D01*
X216122504Y-87000000D01*
X216077496Y-87000000D01*
X216075094Y-86975613D01*
X216067981Y-86952165D01*
X216056430Y-86930554D01*
X216040884Y-86911612D01*
X216021942Y-86896067D01*
X216000332Y-86884516D01*
X215957425Y-86866743D01*
X215957424Y-86866743D01*
X215957423Y-86866742D01*
X215908124Y-86833802D01*
X215866198Y-86791876D01*
X215833258Y-86742577D01*
X215833257Y-86742575D01*
X215815484Y-86699668D01*
X215803933Y-86678057D01*
X215788387Y-86659115D01*
X215769445Y-86643570D01*
X215747835Y-86632019D01*
X215724386Y-86624906D01*
X215700000Y-86622504D01*
X215675613Y-86624906D01*
X215652165Y-86632019D01*
X215630554Y-86643570D01*
X215611612Y-86659116D01*
X215596067Y-86678058D01*
X215584516Y-86699668D01*
X215566743Y-86742575D01*
X215566742Y-86742577D01*
X215533802Y-86791876D01*
X215491876Y-86833802D01*
X215442577Y-86866742D01*
X215442576Y-86866743D01*
X215442575Y-86866743D01*
X215399668Y-86884516D01*
X215378057Y-86896067D01*
X215359115Y-86911613D01*
X215343570Y-86930555D01*
X215332019Y-86952165D01*
X215324906Y-86975614D01*
X215322504Y-87000000D01*
X215277496Y-87000000D01*
X215275094Y-86975613D01*
X215267981Y-86952165D01*
X215256430Y-86930554D01*
X215240884Y-86911612D01*
X215221942Y-86896067D01*
X215200332Y-86884516D01*
X215157425Y-86866743D01*
X215157424Y-86866743D01*
X215157423Y-86866742D01*
X215108124Y-86833802D01*
X215066198Y-86791876D01*
X215033258Y-86742577D01*
X215033257Y-86742575D01*
X215015484Y-86699668D01*
X215003933Y-86678057D01*
X214988387Y-86659115D01*
X214969445Y-86643570D01*
X214947835Y-86632019D01*
X214924386Y-86624906D01*
X214900000Y-86622504D01*
X214875613Y-86624906D01*
X214852165Y-86632019D01*
X214830554Y-86643570D01*
X214811612Y-86659116D01*
X214796067Y-86678058D01*
X214784516Y-86699668D01*
X214766743Y-86742575D01*
X214766742Y-86742577D01*
X214733802Y-86791876D01*
X214691876Y-86833802D01*
X214642577Y-86866742D01*
X214642576Y-86866743D01*
X214642575Y-86866743D01*
X214599668Y-86884516D01*
X214578057Y-86896067D01*
X214559115Y-86911613D01*
X214543570Y-86930555D01*
X214532019Y-86952165D01*
X214524906Y-86975614D01*
X214522504Y-87000000D01*
X214477496Y-87000000D01*
X214475094Y-86975613D01*
X214467981Y-86952165D01*
X214456430Y-86930554D01*
X214440884Y-86911612D01*
X214421942Y-86896067D01*
X214400332Y-86884516D01*
X214357425Y-86866743D01*
X214357424Y-86866743D01*
X214357423Y-86866742D01*
X214308124Y-86833802D01*
X214266198Y-86791876D01*
X214233258Y-86742577D01*
X214233257Y-86742575D01*
X214215484Y-86699668D01*
X214203933Y-86678057D01*
X214188387Y-86659115D01*
X214169445Y-86643570D01*
X214147835Y-86632019D01*
X214124386Y-86624906D01*
X214100000Y-86622504D01*
X214075613Y-86624906D01*
X214052165Y-86632019D01*
X214030554Y-86643570D01*
X214011612Y-86659116D01*
X213996067Y-86678058D01*
X213984516Y-86699668D01*
X213966743Y-86742575D01*
X213966742Y-86742577D01*
X213933802Y-86791876D01*
X213891876Y-86833802D01*
X213842577Y-86866742D01*
X213842576Y-86866743D01*
X213842575Y-86866743D01*
X213799668Y-86884516D01*
X213778057Y-86896067D01*
X213759115Y-86911613D01*
X213743570Y-86930555D01*
X213732019Y-86952165D01*
X213724906Y-86975614D01*
X213722504Y-87000000D01*
X213677496Y-87000000D01*
X213675094Y-86975613D01*
X213667981Y-86952165D01*
X213656430Y-86930554D01*
X213640884Y-86911612D01*
X213621942Y-86896067D01*
X213600332Y-86884516D01*
X213557425Y-86866743D01*
X213557424Y-86866743D01*
X213557423Y-86866742D01*
X213508124Y-86833802D01*
X213466198Y-86791876D01*
X213433258Y-86742577D01*
X213433257Y-86742575D01*
X213415484Y-86699668D01*
X213403933Y-86678057D01*
X213388387Y-86659115D01*
X213369445Y-86643570D01*
X213347835Y-86632019D01*
X213324386Y-86624906D01*
X213300000Y-86622504D01*
X213275613Y-86624906D01*
X213252165Y-86632019D01*
X213230554Y-86643570D01*
X213211612Y-86659116D01*
X213196067Y-86678058D01*
X213184516Y-86699668D01*
X213166743Y-86742575D01*
X213166742Y-86742577D01*
X213133802Y-86791876D01*
X213091876Y-86833802D01*
X213042577Y-86866742D01*
X213042576Y-86866743D01*
X213042575Y-86866743D01*
X212999668Y-86884516D01*
X212978057Y-86896067D01*
X212959115Y-86911613D01*
X212943570Y-86930555D01*
X212932019Y-86952165D01*
X212924906Y-86975614D01*
X212922504Y-87000000D01*
X212877496Y-87000000D01*
X212875094Y-86975613D01*
X212867981Y-86952165D01*
X212856430Y-86930554D01*
X212840884Y-86911612D01*
X212821942Y-86896067D01*
X212800332Y-86884516D01*
X212757425Y-86866743D01*
X212757424Y-86866743D01*
X212757423Y-86866742D01*
X212708124Y-86833802D01*
X212666198Y-86791876D01*
X212633258Y-86742577D01*
X212633257Y-86742575D01*
X212610567Y-86687797D01*
X212599000Y-86629647D01*
X212599000Y-86570353D01*
X212610567Y-86512203D01*
X212633257Y-86457425D01*
X212633258Y-86457423D01*
X212666198Y-86408124D01*
X212708124Y-86366198D01*
X212757423Y-86333258D01*
X212757425Y-86333257D01*
X212800332Y-86315484D01*
X212821943Y-86303933D01*
X212840885Y-86288387D01*
X212856430Y-86269445D01*
X212867981Y-86247835D01*
X212875094Y-86224386D01*
X212877496Y-86200000D01*
X212922504Y-86200000D01*
X212924906Y-86224387D01*
X212932019Y-86247835D01*
X212943570Y-86269446D01*
X212959116Y-86288388D01*
X212978058Y-86303933D01*
X212999668Y-86315484D01*
X213042575Y-86333257D01*
X213042577Y-86333258D01*
X213091876Y-86366198D01*
X213133802Y-86408124D01*
X213166742Y-86457423D01*
X213166743Y-86457425D01*
X213184516Y-86500332D01*
X213196067Y-86521943D01*
X213211613Y-86540885D01*
X213230555Y-86556430D01*
X213252165Y-86567981D01*
X213275614Y-86575094D01*
X213300000Y-86577496D01*
X213324387Y-86575094D01*
X213347835Y-86567981D01*
X213369446Y-86556430D01*
X213388388Y-86540884D01*
X213403933Y-86521942D01*
X213415484Y-86500332D01*
X213433257Y-86457425D01*
X213433258Y-86457423D01*
X213466198Y-86408124D01*
X213508124Y-86366198D01*
X213557423Y-86333258D01*
X213557425Y-86333257D01*
X213600332Y-86315484D01*
X213621943Y-86303933D01*
X213640885Y-86288387D01*
X213656430Y-86269445D01*
X213667981Y-86247835D01*
X213675094Y-86224386D01*
X213677496Y-86200000D01*
X213722504Y-86200000D01*
X213724906Y-86224387D01*
X213732019Y-86247835D01*
X213743570Y-86269446D01*
X213759116Y-86288388D01*
X213778058Y-86303933D01*
X213799668Y-86315484D01*
X213842575Y-86333257D01*
X213842577Y-86333258D01*
X213891876Y-86366198D01*
X213933802Y-86408124D01*
X213966742Y-86457423D01*
X213966743Y-86457425D01*
X213984516Y-86500332D01*
X213996067Y-86521943D01*
X214011613Y-86540885D01*
X214030555Y-86556430D01*
X214052165Y-86567981D01*
X214075614Y-86575094D01*
X214100000Y-86577496D01*
X214124387Y-86575094D01*
X214147835Y-86567981D01*
X214169446Y-86556430D01*
X214188388Y-86540884D01*
X214203933Y-86521942D01*
X214215484Y-86500332D01*
X214233257Y-86457425D01*
X214233258Y-86457423D01*
X214266198Y-86408124D01*
X214308124Y-86366198D01*
X214357423Y-86333258D01*
X214357425Y-86333257D01*
X214400332Y-86315484D01*
X214421943Y-86303933D01*
X214440885Y-86288387D01*
X214456430Y-86269445D01*
X214467981Y-86247835D01*
X214475094Y-86224386D01*
X214477496Y-86200000D01*
X214522504Y-86200000D01*
X214524906Y-86224387D01*
X214532019Y-86247835D01*
X214543570Y-86269446D01*
X214559116Y-86288388D01*
X214578058Y-86303933D01*
X214599668Y-86315484D01*
X214642575Y-86333257D01*
X214642577Y-86333258D01*
X214691876Y-86366198D01*
X214733802Y-86408124D01*
X214766742Y-86457423D01*
X214766743Y-86457425D01*
X214784516Y-86500332D01*
X214796067Y-86521943D01*
X214811613Y-86540885D01*
X214830555Y-86556430D01*
X214852165Y-86567981D01*
X214875614Y-86575094D01*
X214900000Y-86577496D01*
X214924387Y-86575094D01*
X214947835Y-86567981D01*
X214969446Y-86556430D01*
X214988388Y-86540884D01*
X215003933Y-86521942D01*
X215015484Y-86500332D01*
X215033257Y-86457425D01*
X215033258Y-86457423D01*
X215066198Y-86408124D01*
X215108124Y-86366198D01*
X215157423Y-86333258D01*
X215157425Y-86333257D01*
X215200332Y-86315484D01*
X215221943Y-86303933D01*
X215240885Y-86288387D01*
X215256430Y-86269445D01*
X215267981Y-86247835D01*
X215275094Y-86224386D01*
X215277496Y-86200000D01*
X215322504Y-86200000D01*
X215324906Y-86224387D01*
X215332019Y-86247835D01*
X215343570Y-86269446D01*
X215359116Y-86288388D01*
X215378058Y-86303933D01*
X215399668Y-86315484D01*
X215442575Y-86333257D01*
X215442577Y-86333258D01*
X215491876Y-86366198D01*
X215533802Y-86408124D01*
X215566742Y-86457423D01*
X215566743Y-86457425D01*
X215584516Y-86500332D01*
X215596067Y-86521943D01*
X215611613Y-86540885D01*
X215630555Y-86556430D01*
X215652165Y-86567981D01*
X215675614Y-86575094D01*
X215700000Y-86577496D01*
X215724387Y-86575094D01*
X215747835Y-86567981D01*
X215769446Y-86556430D01*
X215788388Y-86540884D01*
X215803933Y-86521942D01*
X215815484Y-86500332D01*
X215833257Y-86457425D01*
X215833258Y-86457423D01*
X215866198Y-86408124D01*
X215908124Y-86366198D01*
X215957423Y-86333258D01*
X215957425Y-86333257D01*
X216000332Y-86315484D01*
X216021943Y-86303933D01*
X216040885Y-86288387D01*
X216056430Y-86269445D01*
X216067981Y-86247835D01*
X216075094Y-86224386D01*
X216077496Y-86200000D01*
X216122504Y-86200000D01*
X216124906Y-86224387D01*
X216132019Y-86247835D01*
X216143570Y-86269446D01*
X216159116Y-86288388D01*
X216178058Y-86303933D01*
X216199668Y-86315484D01*
X216242575Y-86333257D01*
X216242577Y-86333258D01*
X216291876Y-86366198D01*
X216333802Y-86408124D01*
X216366742Y-86457423D01*
X216366743Y-86457425D01*
X216384516Y-86500332D01*
X216396067Y-86521943D01*
X216411613Y-86540885D01*
X216430555Y-86556430D01*
X216452165Y-86567981D01*
X216475614Y-86575094D01*
X216500000Y-86577496D01*
X216524387Y-86575094D01*
X216547835Y-86567981D01*
X216569446Y-86556430D01*
X216588388Y-86540884D01*
X216603933Y-86521942D01*
X216615484Y-86500332D01*
X216633257Y-86457425D01*
X216633258Y-86457423D01*
X216666198Y-86408124D01*
X216708124Y-86366198D01*
X216757423Y-86333258D01*
X216757425Y-86333257D01*
X216800332Y-86315484D01*
X216821943Y-86303933D01*
X216840885Y-86288387D01*
X216856430Y-86269445D01*
X216867981Y-86247835D01*
X216875094Y-86224386D01*
X216877496Y-86200000D01*
X216922504Y-86200000D01*
X216924906Y-86224387D01*
X216932019Y-86247835D01*
X216943570Y-86269446D01*
X216959116Y-86288388D01*
X216978058Y-86303933D01*
X216999668Y-86315484D01*
X217042575Y-86333257D01*
X217042577Y-86333258D01*
X217091876Y-86366198D01*
X217133802Y-86408124D01*
X217166742Y-86457423D01*
X217166743Y-86457425D01*
X217184516Y-86500332D01*
X217196067Y-86521943D01*
X217211613Y-86540885D01*
X217230555Y-86556430D01*
X217252165Y-86567981D01*
X217275614Y-86575094D01*
X217300000Y-86577496D01*
X217324387Y-86575094D01*
X217347835Y-86567981D01*
X217369446Y-86556430D01*
X217388388Y-86540884D01*
X217403933Y-86521942D01*
X217415484Y-86500332D01*
X217433257Y-86457425D01*
X217433258Y-86457423D01*
X217466198Y-86408124D01*
X217508124Y-86366198D01*
X217557423Y-86333258D01*
X217557425Y-86333257D01*
X217600332Y-86315484D01*
X217621943Y-86303933D01*
X217640885Y-86288387D01*
X217656430Y-86269445D01*
X217667981Y-86247835D01*
X217675094Y-86224386D01*
X217677496Y-86200000D01*
X217722504Y-86200000D01*
X217724906Y-86224387D01*
X217732019Y-86247835D01*
X217743570Y-86269446D01*
X217759116Y-86288388D01*
X217778058Y-86303933D01*
X217799668Y-86315484D01*
X217842575Y-86333257D01*
X217842577Y-86333258D01*
X217891876Y-86366198D01*
X217933802Y-86408124D01*
X217966742Y-86457423D01*
X217966743Y-86457425D01*
X217984516Y-86500332D01*
X217996067Y-86521943D01*
X218011613Y-86540885D01*
X218030555Y-86556430D01*
X218052165Y-86567981D01*
X218075614Y-86575094D01*
X218100000Y-86577496D01*
X218124387Y-86575094D01*
X218147835Y-86567981D01*
X218169446Y-86556430D01*
X218188388Y-86540884D01*
X218203933Y-86521942D01*
X218215484Y-86500332D01*
X218233257Y-86457425D01*
X218233258Y-86457423D01*
X218266198Y-86408124D01*
X218308124Y-86366198D01*
X218357423Y-86333258D01*
X218357425Y-86333257D01*
X218400332Y-86315484D01*
X218421943Y-86303933D01*
X218440885Y-86288387D01*
X218456430Y-86269445D01*
X218467981Y-86247835D01*
X218475094Y-86224386D01*
X218477496Y-86200000D01*
X218475094Y-86175613D01*
X218467981Y-86152165D01*
X218456430Y-86130554D01*
X218440884Y-86111612D01*
X218421942Y-86096067D01*
X218400332Y-86084516D01*
X218357425Y-86066743D01*
X218357424Y-86066743D01*
X218357423Y-86066742D01*
X218308124Y-86033802D01*
X218266198Y-85991876D01*
X218233258Y-85942577D01*
X218233257Y-85942575D01*
X218215484Y-85899668D01*
X218203933Y-85878057D01*
X218188387Y-85859115D01*
X218169445Y-85843570D01*
X218147835Y-85832019D01*
X218124386Y-85824906D01*
X218100000Y-85822504D01*
X218075613Y-85824906D01*
X218052165Y-85832019D01*
X218030554Y-85843570D01*
X218011612Y-85859116D01*
X217996067Y-85878058D01*
X217984516Y-85899668D01*
X217966743Y-85942575D01*
X217966742Y-85942577D01*
X217933802Y-85991876D01*
X217891876Y-86033802D01*
X217842577Y-86066742D01*
X217842576Y-86066743D01*
X217842575Y-86066743D01*
X217799668Y-86084516D01*
X217778057Y-86096067D01*
X217759115Y-86111613D01*
X217743570Y-86130555D01*
X217732019Y-86152165D01*
X217724906Y-86175614D01*
X217722504Y-86200000D01*
X217677496Y-86200000D01*
X217675094Y-86175613D01*
X217667981Y-86152165D01*
X217656430Y-86130554D01*
X217640884Y-86111612D01*
X217621942Y-86096067D01*
X217600332Y-86084516D01*
X217557425Y-86066743D01*
X217557424Y-86066743D01*
X217557423Y-86066742D01*
X217508124Y-86033802D01*
X217466198Y-85991876D01*
X217433258Y-85942577D01*
X217433257Y-85942575D01*
X217415484Y-85899668D01*
X217403933Y-85878057D01*
X217388387Y-85859115D01*
X217369445Y-85843570D01*
X217347835Y-85832019D01*
X217324386Y-85824906D01*
X217300000Y-85822504D01*
X217275613Y-85824906D01*
X217252165Y-85832019D01*
X217230554Y-85843570D01*
X217211612Y-85859116D01*
X217196067Y-85878058D01*
X217184516Y-85899668D01*
X217166743Y-85942575D01*
X217166742Y-85942577D01*
X217133802Y-85991876D01*
X217091876Y-86033802D01*
X217042577Y-86066742D01*
X217042576Y-86066743D01*
X217042575Y-86066743D01*
X216999668Y-86084516D01*
X216978057Y-86096067D01*
X216959115Y-86111613D01*
X216943570Y-86130555D01*
X216932019Y-86152165D01*
X216924906Y-86175614D01*
X216922504Y-86200000D01*
X216877496Y-86200000D01*
X216875094Y-86175613D01*
X216867981Y-86152165D01*
X216856430Y-86130554D01*
X216840884Y-86111612D01*
X216821942Y-86096067D01*
X216800332Y-86084516D01*
X216757425Y-86066743D01*
X216757424Y-86066743D01*
X216757423Y-86066742D01*
X216708124Y-86033802D01*
X216666198Y-85991876D01*
X216633258Y-85942577D01*
X216633257Y-85942575D01*
X216615484Y-85899668D01*
X216603933Y-85878057D01*
X216588387Y-85859115D01*
X216569445Y-85843570D01*
X216547835Y-85832019D01*
X216524386Y-85824906D01*
X216500000Y-85822504D01*
X216475613Y-85824906D01*
X216452165Y-85832019D01*
X216430554Y-85843570D01*
X216411612Y-85859116D01*
X216396067Y-85878058D01*
X216384516Y-85899668D01*
X216366743Y-85942575D01*
X216366742Y-85942577D01*
X216333802Y-85991876D01*
X216291876Y-86033802D01*
X216242577Y-86066742D01*
X216242576Y-86066743D01*
X216242575Y-86066743D01*
X216199668Y-86084516D01*
X216178057Y-86096067D01*
X216159115Y-86111613D01*
X216143570Y-86130555D01*
X216132019Y-86152165D01*
X216124906Y-86175614D01*
X216122504Y-86200000D01*
X216077496Y-86200000D01*
X216075094Y-86175613D01*
X216067981Y-86152165D01*
X216056430Y-86130554D01*
X216040884Y-86111612D01*
X216021942Y-86096067D01*
X216000332Y-86084516D01*
X215957425Y-86066743D01*
X215957424Y-86066743D01*
X215957423Y-86066742D01*
X215908124Y-86033802D01*
X215866198Y-85991876D01*
X215833258Y-85942577D01*
X215833257Y-85942575D01*
X215815484Y-85899668D01*
X215803933Y-85878057D01*
X215788387Y-85859115D01*
X215769445Y-85843570D01*
X215747835Y-85832019D01*
X215724386Y-85824906D01*
X215700000Y-85822504D01*
X215675613Y-85824906D01*
X215652165Y-85832019D01*
X215630554Y-85843570D01*
X215611612Y-85859116D01*
X215596067Y-85878058D01*
X215584516Y-85899668D01*
X215566743Y-85942575D01*
X215566742Y-85942577D01*
X215533802Y-85991876D01*
X215491876Y-86033802D01*
X215442577Y-86066742D01*
X215442576Y-86066743D01*
X215442575Y-86066743D01*
X215399668Y-86084516D01*
X215378057Y-86096067D01*
X215359115Y-86111613D01*
X215343570Y-86130555D01*
X215332019Y-86152165D01*
X215324906Y-86175614D01*
X215322504Y-86200000D01*
X215277496Y-86200000D01*
X215275094Y-86175613D01*
X215267981Y-86152165D01*
X215256430Y-86130554D01*
X215240884Y-86111612D01*
X215221942Y-86096067D01*
X215200332Y-86084516D01*
X215157425Y-86066743D01*
X215157424Y-86066743D01*
X215157423Y-86066742D01*
X215108124Y-86033802D01*
X215066198Y-85991876D01*
X215033258Y-85942577D01*
X215033257Y-85942575D01*
X215015484Y-85899668D01*
X215003933Y-85878057D01*
X214988387Y-85859115D01*
X214969445Y-85843570D01*
X214947835Y-85832019D01*
X214924386Y-85824906D01*
X214900000Y-85822504D01*
X214875613Y-85824906D01*
X214852165Y-85832019D01*
X214830554Y-85843570D01*
X214811612Y-85859116D01*
X214796067Y-85878058D01*
X214784516Y-85899668D01*
X214766743Y-85942575D01*
X214766742Y-85942577D01*
X214733802Y-85991876D01*
X214691876Y-86033802D01*
X214642577Y-86066742D01*
X214642576Y-86066743D01*
X214642575Y-86066743D01*
X214599668Y-86084516D01*
X214578057Y-86096067D01*
X214559115Y-86111613D01*
X214543570Y-86130555D01*
X214532019Y-86152165D01*
X214524906Y-86175614D01*
X214522504Y-86200000D01*
X214477496Y-86200000D01*
X214475094Y-86175613D01*
X214467981Y-86152165D01*
X214456430Y-86130554D01*
X214440884Y-86111612D01*
X214421942Y-86096067D01*
X214400332Y-86084516D01*
X214357425Y-86066743D01*
X214357424Y-86066743D01*
X214357423Y-86066742D01*
X214308124Y-86033802D01*
X214266198Y-85991876D01*
X214233258Y-85942577D01*
X214233257Y-85942575D01*
X214215484Y-85899668D01*
X214203933Y-85878057D01*
X214188387Y-85859115D01*
X214169445Y-85843570D01*
X214147835Y-85832019D01*
X214124386Y-85824906D01*
X214100000Y-85822504D01*
X214075613Y-85824906D01*
X214052165Y-85832019D01*
X214030554Y-85843570D01*
X214011612Y-85859116D01*
X213996067Y-85878058D01*
X213984516Y-85899668D01*
X213966743Y-85942575D01*
X213966742Y-85942577D01*
X213933802Y-85991876D01*
X213891876Y-86033802D01*
X213842577Y-86066742D01*
X213842576Y-86066743D01*
X213842575Y-86066743D01*
X213799668Y-86084516D01*
X213778057Y-86096067D01*
X213759115Y-86111613D01*
X213743570Y-86130555D01*
X213732019Y-86152165D01*
X213724906Y-86175614D01*
X213722504Y-86200000D01*
X213677496Y-86200000D01*
X213675094Y-86175613D01*
X213667981Y-86152165D01*
X213656430Y-86130554D01*
X213640884Y-86111612D01*
X213621942Y-86096067D01*
X213600332Y-86084516D01*
X213557425Y-86066743D01*
X213557424Y-86066743D01*
X213557423Y-86066742D01*
X213508124Y-86033802D01*
X213466198Y-85991876D01*
X213433258Y-85942577D01*
X213433257Y-85942575D01*
X213415484Y-85899668D01*
X213403933Y-85878057D01*
X213388387Y-85859115D01*
X213369445Y-85843570D01*
X213347835Y-85832019D01*
X213324386Y-85824906D01*
X213300000Y-85822504D01*
X213275613Y-85824906D01*
X213252165Y-85832019D01*
X213230554Y-85843570D01*
X213211612Y-85859116D01*
X213196067Y-85878058D01*
X213184516Y-85899668D01*
X213166743Y-85942575D01*
X213166742Y-85942577D01*
X213133802Y-85991876D01*
X213091876Y-86033802D01*
X213042577Y-86066742D01*
X213042576Y-86066743D01*
X213042575Y-86066743D01*
X212999668Y-86084516D01*
X212978057Y-86096067D01*
X212959115Y-86111613D01*
X212943570Y-86130555D01*
X212932019Y-86152165D01*
X212924906Y-86175614D01*
X212922504Y-86200000D01*
X212877496Y-86200000D01*
X212875094Y-86175613D01*
X212867981Y-86152165D01*
X212856430Y-86130554D01*
X212840884Y-86111612D01*
X212821942Y-86096067D01*
X212800332Y-86084516D01*
X212757425Y-86066743D01*
X212757424Y-86066743D01*
X212757423Y-86066742D01*
X212708124Y-86033802D01*
X212666198Y-85991876D01*
X212633258Y-85942577D01*
X212628774Y-85931751D01*
X212610567Y-85887797D01*
X212599000Y-85829647D01*
X212599000Y-85770353D01*
X212610567Y-85712203D01*
X212633257Y-85657425D01*
X212633258Y-85657423D01*
X212666198Y-85608124D01*
X212708124Y-85566198D01*
X212757423Y-85533258D01*
X212757425Y-85533257D01*
X212800332Y-85515484D01*
X212821943Y-85503933D01*
X212840885Y-85488387D01*
X212856430Y-85469445D01*
X212867981Y-85447835D01*
X212875094Y-85424386D01*
X212877496Y-85400000D01*
X212922504Y-85400000D01*
X212924906Y-85424387D01*
X212932019Y-85447835D01*
X212943570Y-85469446D01*
X212959116Y-85488388D01*
X212978058Y-85503933D01*
X212999668Y-85515484D01*
X213042575Y-85533257D01*
X213042577Y-85533258D01*
X213091876Y-85566198D01*
X213133802Y-85608124D01*
X213166742Y-85657423D01*
X213166743Y-85657425D01*
X213184516Y-85700332D01*
X213196067Y-85721943D01*
X213211613Y-85740885D01*
X213230555Y-85756430D01*
X213252165Y-85767981D01*
X213275614Y-85775094D01*
X213300000Y-85777496D01*
X213324387Y-85775094D01*
X213347835Y-85767981D01*
X213369446Y-85756430D01*
X213388388Y-85740884D01*
X213403933Y-85721942D01*
X213415484Y-85700332D01*
X213433257Y-85657425D01*
X213433258Y-85657423D01*
X213466198Y-85608124D01*
X213508124Y-85566198D01*
X213557423Y-85533258D01*
X213557425Y-85533257D01*
X213600332Y-85515484D01*
X213621943Y-85503933D01*
X213640885Y-85488387D01*
X213656430Y-85469445D01*
X213667981Y-85447835D01*
X213675094Y-85424386D01*
X213677496Y-85400000D01*
X213722504Y-85400000D01*
X213724906Y-85424387D01*
X213732019Y-85447835D01*
X213743570Y-85469446D01*
X213759116Y-85488388D01*
X213778058Y-85503933D01*
X213799668Y-85515484D01*
X213842575Y-85533257D01*
X213842577Y-85533258D01*
X213891876Y-85566198D01*
X213933802Y-85608124D01*
X213966742Y-85657423D01*
X213966743Y-85657425D01*
X213984516Y-85700332D01*
X213996067Y-85721943D01*
X214011613Y-85740885D01*
X214030555Y-85756430D01*
X214052165Y-85767981D01*
X214075614Y-85775094D01*
X214100000Y-85777496D01*
X214124387Y-85775094D01*
X214147835Y-85767981D01*
X214169446Y-85756430D01*
X214188388Y-85740884D01*
X214203933Y-85721942D01*
X214215484Y-85700332D01*
X214233257Y-85657425D01*
X214233258Y-85657423D01*
X214266198Y-85608124D01*
X214308124Y-85566198D01*
X214357423Y-85533258D01*
X214357425Y-85533257D01*
X214400332Y-85515484D01*
X214421943Y-85503933D01*
X214440885Y-85488387D01*
X214456430Y-85469445D01*
X214467981Y-85447835D01*
X214475094Y-85424386D01*
X214477496Y-85400000D01*
X214522504Y-85400000D01*
X214524906Y-85424387D01*
X214532019Y-85447835D01*
X214543570Y-85469446D01*
X214559116Y-85488388D01*
X214578058Y-85503933D01*
X214599668Y-85515484D01*
X214642575Y-85533257D01*
X214642577Y-85533258D01*
X214691876Y-85566198D01*
X214733802Y-85608124D01*
X214766742Y-85657423D01*
X214766743Y-85657425D01*
X214784516Y-85700332D01*
X214796067Y-85721943D01*
X214811613Y-85740885D01*
X214830555Y-85756430D01*
X214852165Y-85767981D01*
X214875614Y-85775094D01*
X214900000Y-85777496D01*
X214924387Y-85775094D01*
X214947835Y-85767981D01*
X214969446Y-85756430D01*
X214988388Y-85740884D01*
X215003933Y-85721942D01*
X215015484Y-85700332D01*
X215033257Y-85657425D01*
X215033258Y-85657423D01*
X215066198Y-85608124D01*
X215108124Y-85566198D01*
X215157423Y-85533258D01*
X215157425Y-85533257D01*
X215200332Y-85515484D01*
X215221943Y-85503933D01*
X215240885Y-85488387D01*
X215256430Y-85469445D01*
X215267981Y-85447835D01*
X215275094Y-85424386D01*
X215277496Y-85400000D01*
X215322504Y-85400000D01*
X215324906Y-85424387D01*
X215332019Y-85447835D01*
X215343570Y-85469446D01*
X215359116Y-85488388D01*
X215378058Y-85503933D01*
X215399668Y-85515484D01*
X215442575Y-85533257D01*
X215442577Y-85533258D01*
X215491876Y-85566198D01*
X215533802Y-85608124D01*
X215566742Y-85657423D01*
X215566743Y-85657425D01*
X215584516Y-85700332D01*
X215596067Y-85721943D01*
X215611613Y-85740885D01*
X215630555Y-85756430D01*
X215652165Y-85767981D01*
X215675614Y-85775094D01*
X215700000Y-85777496D01*
X215724387Y-85775094D01*
X215747835Y-85767981D01*
X215769446Y-85756430D01*
X215788388Y-85740884D01*
X215803933Y-85721942D01*
X215815484Y-85700332D01*
X215833257Y-85657425D01*
X215833258Y-85657423D01*
X215866198Y-85608124D01*
X215908124Y-85566198D01*
X215957423Y-85533258D01*
X215957425Y-85533257D01*
X216000332Y-85515484D01*
X216021943Y-85503933D01*
X216040885Y-85488387D01*
X216056430Y-85469445D01*
X216067981Y-85447835D01*
X216075094Y-85424386D01*
X216077496Y-85400000D01*
X216122504Y-85400000D01*
X216124906Y-85424387D01*
X216132019Y-85447835D01*
X216143570Y-85469446D01*
X216159116Y-85488388D01*
X216178058Y-85503933D01*
X216199668Y-85515484D01*
X216242575Y-85533257D01*
X216242577Y-85533258D01*
X216291876Y-85566198D01*
X216333802Y-85608124D01*
X216366742Y-85657423D01*
X216366743Y-85657425D01*
X216384516Y-85700332D01*
X216396067Y-85721943D01*
X216411613Y-85740885D01*
X216430555Y-85756430D01*
X216452165Y-85767981D01*
X216475614Y-85775094D01*
X216500000Y-85777496D01*
X216524387Y-85775094D01*
X216547835Y-85767981D01*
X216569446Y-85756430D01*
X216588388Y-85740884D01*
X216603933Y-85721942D01*
X216615484Y-85700332D01*
X216633257Y-85657425D01*
X216633258Y-85657423D01*
X216666198Y-85608124D01*
X216708124Y-85566198D01*
X216757423Y-85533258D01*
X216757425Y-85533257D01*
X216800332Y-85515484D01*
X216821943Y-85503933D01*
X216840885Y-85488387D01*
X216856430Y-85469445D01*
X216867981Y-85447835D01*
X216875094Y-85424386D01*
X216877496Y-85400000D01*
X216922504Y-85400000D01*
X216924906Y-85424387D01*
X216932019Y-85447835D01*
X216943570Y-85469446D01*
X216959116Y-85488388D01*
X216978058Y-85503933D01*
X216999668Y-85515484D01*
X217042575Y-85533257D01*
X217042577Y-85533258D01*
X217091876Y-85566198D01*
X217133802Y-85608124D01*
X217166742Y-85657423D01*
X217166743Y-85657425D01*
X217184516Y-85700332D01*
X217196067Y-85721943D01*
X217211613Y-85740885D01*
X217230555Y-85756430D01*
X217252165Y-85767981D01*
X217275614Y-85775094D01*
X217300000Y-85777496D01*
X217324387Y-85775094D01*
X217347835Y-85767981D01*
X217369446Y-85756430D01*
X217388388Y-85740884D01*
X217403933Y-85721942D01*
X217415484Y-85700332D01*
X217433257Y-85657425D01*
X217433258Y-85657423D01*
X217466198Y-85608124D01*
X217508124Y-85566198D01*
X217557423Y-85533258D01*
X217557425Y-85533257D01*
X217600332Y-85515484D01*
X217621943Y-85503933D01*
X217640885Y-85488387D01*
X217656430Y-85469445D01*
X217667981Y-85447835D01*
X217675094Y-85424386D01*
X217677496Y-85400000D01*
X217722504Y-85400000D01*
X217724906Y-85424387D01*
X217732019Y-85447835D01*
X217743570Y-85469446D01*
X217759116Y-85488388D01*
X217778058Y-85503933D01*
X217799668Y-85515484D01*
X217842575Y-85533257D01*
X217842577Y-85533258D01*
X217891876Y-85566198D01*
X217933802Y-85608124D01*
X217966742Y-85657423D01*
X217966743Y-85657425D01*
X217984516Y-85700332D01*
X217996067Y-85721943D01*
X218011613Y-85740885D01*
X218030555Y-85756430D01*
X218052165Y-85767981D01*
X218075614Y-85775094D01*
X218100000Y-85777496D01*
X218124387Y-85775094D01*
X218147835Y-85767981D01*
X218169446Y-85756430D01*
X218188388Y-85740884D01*
X218203933Y-85721942D01*
X218215484Y-85700332D01*
X218233257Y-85657425D01*
X218233258Y-85657423D01*
X218266198Y-85608124D01*
X218308124Y-85566198D01*
X218357423Y-85533258D01*
X218357425Y-85533257D01*
X218400332Y-85515484D01*
X218421943Y-85503933D01*
X218440885Y-85488387D01*
X218456430Y-85469445D01*
X218467981Y-85447835D01*
X218475094Y-85424386D01*
X218477496Y-85400000D01*
X218475094Y-85375613D01*
X218467981Y-85352165D01*
X218456430Y-85330554D01*
X218440884Y-85311612D01*
X218421942Y-85296067D01*
X218400332Y-85284516D01*
X218357425Y-85266743D01*
X218357424Y-85266743D01*
X218357423Y-85266742D01*
X218308124Y-85233802D01*
X218266198Y-85191876D01*
X218233258Y-85142577D01*
X218231776Y-85139000D01*
X218215484Y-85099668D01*
X218203933Y-85078057D01*
X218188387Y-85059115D01*
X218169445Y-85043570D01*
X218147835Y-85032019D01*
X218124386Y-85024906D01*
X218100000Y-85022504D01*
X218075613Y-85024906D01*
X218052165Y-85032019D01*
X218030554Y-85043570D01*
X218011612Y-85059116D01*
X217996067Y-85078058D01*
X217984516Y-85099668D01*
X217968224Y-85139000D01*
X217966742Y-85142577D01*
X217933802Y-85191876D01*
X217891876Y-85233802D01*
X217842577Y-85266742D01*
X217842576Y-85266743D01*
X217842575Y-85266743D01*
X217799668Y-85284516D01*
X217778057Y-85296067D01*
X217759115Y-85311613D01*
X217743570Y-85330555D01*
X217732019Y-85352165D01*
X217724906Y-85375614D01*
X217722504Y-85400000D01*
X217677496Y-85400000D01*
X217675094Y-85375613D01*
X217667981Y-85352165D01*
X217656430Y-85330554D01*
X217640884Y-85311612D01*
X217621942Y-85296067D01*
X217600332Y-85284516D01*
X217557425Y-85266743D01*
X217557424Y-85266743D01*
X217557423Y-85266742D01*
X217508124Y-85233802D01*
X217466198Y-85191876D01*
X217433258Y-85142577D01*
X217431776Y-85139000D01*
X217415484Y-85099668D01*
X217403933Y-85078057D01*
X217388387Y-85059115D01*
X217369445Y-85043570D01*
X217347835Y-85032019D01*
X217324386Y-85024906D01*
X217300000Y-85022504D01*
X217275613Y-85024906D01*
X217252165Y-85032019D01*
X217230554Y-85043570D01*
X217211612Y-85059116D01*
X217196067Y-85078058D01*
X217184516Y-85099668D01*
X217168224Y-85139000D01*
X217166742Y-85142577D01*
X217133802Y-85191876D01*
X217091876Y-85233802D01*
X217042577Y-85266742D01*
X217042576Y-85266743D01*
X217042575Y-85266743D01*
X216999668Y-85284516D01*
X216978057Y-85296067D01*
X216959115Y-85311613D01*
X216943570Y-85330555D01*
X216932019Y-85352165D01*
X216924906Y-85375614D01*
X216922504Y-85400000D01*
X216877496Y-85400000D01*
X216875094Y-85375613D01*
X216867981Y-85352165D01*
X216856430Y-85330554D01*
X216840884Y-85311612D01*
X216821942Y-85296067D01*
X216800332Y-85284516D01*
X216757425Y-85266743D01*
X216757424Y-85266743D01*
X216757423Y-85266742D01*
X216708124Y-85233802D01*
X216666198Y-85191876D01*
X216633258Y-85142577D01*
X216631776Y-85139000D01*
X216615484Y-85099668D01*
X216603933Y-85078057D01*
X216588387Y-85059115D01*
X216569445Y-85043570D01*
X216547835Y-85032019D01*
X216524386Y-85024906D01*
X216500000Y-85022504D01*
X216475613Y-85024906D01*
X216452165Y-85032019D01*
X216430554Y-85043570D01*
X216411612Y-85059116D01*
X216396067Y-85078058D01*
X216384516Y-85099668D01*
X216368224Y-85139000D01*
X216366742Y-85142577D01*
X216333802Y-85191876D01*
X216291876Y-85233802D01*
X216242577Y-85266742D01*
X216242576Y-85266743D01*
X216242575Y-85266743D01*
X216199668Y-85284516D01*
X216178057Y-85296067D01*
X216159115Y-85311613D01*
X216143570Y-85330555D01*
X216132019Y-85352165D01*
X216124906Y-85375614D01*
X216122504Y-85400000D01*
X216077496Y-85400000D01*
X216075094Y-85375613D01*
X216067981Y-85352165D01*
X216056430Y-85330554D01*
X216040884Y-85311612D01*
X216021942Y-85296067D01*
X216000332Y-85284516D01*
X215957425Y-85266743D01*
X215957424Y-85266743D01*
X215957423Y-85266742D01*
X215908124Y-85233802D01*
X215866198Y-85191876D01*
X215833258Y-85142577D01*
X215831776Y-85139000D01*
X215815484Y-85099668D01*
X215803933Y-85078057D01*
X215788387Y-85059115D01*
X215769445Y-85043570D01*
X215747835Y-85032019D01*
X215724386Y-85024906D01*
X215700000Y-85022504D01*
X215675613Y-85024906D01*
X215652165Y-85032019D01*
X215630554Y-85043570D01*
X215611612Y-85059116D01*
X215596067Y-85078058D01*
X215584516Y-85099668D01*
X215568224Y-85139000D01*
X215566742Y-85142577D01*
X215533802Y-85191876D01*
X215491876Y-85233802D01*
X215442577Y-85266742D01*
X215442576Y-85266743D01*
X215442575Y-85266743D01*
X215399668Y-85284516D01*
X215378057Y-85296067D01*
X215359115Y-85311613D01*
X215343570Y-85330555D01*
X215332019Y-85352165D01*
X215324906Y-85375614D01*
X215322504Y-85400000D01*
X215277496Y-85400000D01*
X215275094Y-85375613D01*
X215267981Y-85352165D01*
X215256430Y-85330554D01*
X215240884Y-85311612D01*
X215221942Y-85296067D01*
X215200332Y-85284516D01*
X215157425Y-85266743D01*
X215157424Y-85266743D01*
X215157423Y-85266742D01*
X215108124Y-85233802D01*
X215066198Y-85191876D01*
X215033258Y-85142577D01*
X215031776Y-85139000D01*
X215015484Y-85099668D01*
X215003933Y-85078057D01*
X214988387Y-85059115D01*
X214969445Y-85043570D01*
X214947835Y-85032019D01*
X214924386Y-85024906D01*
X214900000Y-85022504D01*
X214875613Y-85024906D01*
X214852165Y-85032019D01*
X214830554Y-85043570D01*
X214811612Y-85059116D01*
X214796067Y-85078058D01*
X214784516Y-85099668D01*
X214768224Y-85139000D01*
X214766742Y-85142577D01*
X214733802Y-85191876D01*
X214691876Y-85233802D01*
X214642577Y-85266742D01*
X214642576Y-85266743D01*
X214642575Y-85266743D01*
X214599668Y-85284516D01*
X214578057Y-85296067D01*
X214559115Y-85311613D01*
X214543570Y-85330555D01*
X214532019Y-85352165D01*
X214524906Y-85375614D01*
X214522504Y-85400000D01*
X214477496Y-85400000D01*
X214475094Y-85375613D01*
X214467981Y-85352165D01*
X214456430Y-85330554D01*
X214440884Y-85311612D01*
X214421942Y-85296067D01*
X214400332Y-85284516D01*
X214357425Y-85266743D01*
X214357424Y-85266743D01*
X214357423Y-85266742D01*
X214308124Y-85233802D01*
X214266198Y-85191876D01*
X214233258Y-85142577D01*
X214231776Y-85139000D01*
X214215484Y-85099668D01*
X214203933Y-85078057D01*
X214188387Y-85059115D01*
X214169445Y-85043570D01*
X214147835Y-85032019D01*
X214124386Y-85024906D01*
X214100000Y-85022504D01*
X214075613Y-85024906D01*
X214052165Y-85032019D01*
X214030554Y-85043570D01*
X214011612Y-85059116D01*
X213996067Y-85078058D01*
X213984516Y-85099668D01*
X213968224Y-85139000D01*
X213966742Y-85142577D01*
X213933802Y-85191876D01*
X213891876Y-85233802D01*
X213842577Y-85266742D01*
X213842576Y-85266743D01*
X213842575Y-85266743D01*
X213799668Y-85284516D01*
X213778057Y-85296067D01*
X213759115Y-85311613D01*
X213743570Y-85330555D01*
X213732019Y-85352165D01*
X213724906Y-85375614D01*
X213722504Y-85400000D01*
X213677496Y-85400000D01*
X213675094Y-85375613D01*
X213667981Y-85352165D01*
X213656430Y-85330554D01*
X213640884Y-85311612D01*
X213621942Y-85296067D01*
X213600332Y-85284516D01*
X213557425Y-85266743D01*
X213557424Y-85266743D01*
X213557423Y-85266742D01*
X213508124Y-85233802D01*
X213466198Y-85191876D01*
X213433258Y-85142577D01*
X213431776Y-85139000D01*
X213415484Y-85099668D01*
X213403933Y-85078057D01*
X213388387Y-85059115D01*
X213369445Y-85043570D01*
X213347835Y-85032019D01*
X213324386Y-85024906D01*
X213300000Y-85022504D01*
X213275613Y-85024906D01*
X213252165Y-85032019D01*
X213230554Y-85043570D01*
X213211612Y-85059116D01*
X213196067Y-85078058D01*
X213184516Y-85099668D01*
X213168224Y-85139000D01*
X213166742Y-85142577D01*
X213133802Y-85191876D01*
X213091876Y-85233802D01*
X213042577Y-85266742D01*
X213042576Y-85266743D01*
X213042575Y-85266743D01*
X212999668Y-85284516D01*
X212978057Y-85296067D01*
X212959115Y-85311613D01*
X212943570Y-85330555D01*
X212932019Y-85352165D01*
X212924906Y-85375614D01*
X212922504Y-85400000D01*
X212877496Y-85400000D01*
X212875094Y-85375613D01*
X212867981Y-85352165D01*
X212856430Y-85330554D01*
X212840884Y-85311612D01*
X212821942Y-85296067D01*
X212800332Y-85284516D01*
X212757425Y-85266743D01*
X212757424Y-85266743D01*
X212757423Y-85266742D01*
X212708124Y-85233802D01*
X212666198Y-85191876D01*
X212633258Y-85142577D01*
X212631776Y-85139000D01*
X212610567Y-85087797D01*
X212599000Y-85029647D01*
X212599000Y-84970353D01*
X212610567Y-84912203D01*
X212633257Y-84857425D01*
X212635305Y-84854360D01*
X212666198Y-84808124D01*
X212708124Y-84766198D01*
X212757423Y-84733258D01*
X212757425Y-84733257D01*
X212800332Y-84715484D01*
X212821943Y-84703933D01*
X212840885Y-84688387D01*
X212856430Y-84669445D01*
X212867981Y-84647835D01*
X212875094Y-84624386D01*
X212877496Y-84600000D01*
X212922504Y-84600000D01*
X212924906Y-84624387D01*
X212932019Y-84647835D01*
X212943570Y-84669446D01*
X212959116Y-84688388D01*
X212978058Y-84703933D01*
X212999668Y-84715484D01*
X213042575Y-84733257D01*
X213042577Y-84733258D01*
X213091876Y-84766198D01*
X213133802Y-84808124D01*
X213164695Y-84854360D01*
X213166743Y-84857425D01*
X213184516Y-84900332D01*
X213196067Y-84921943D01*
X213211613Y-84940885D01*
X213230555Y-84956430D01*
X213252165Y-84967981D01*
X213275614Y-84975094D01*
X213300000Y-84977496D01*
X213324387Y-84975094D01*
X213347835Y-84967981D01*
X213369446Y-84956430D01*
X213388388Y-84940884D01*
X213403933Y-84921942D01*
X213415484Y-84900332D01*
X213433257Y-84857425D01*
X213435305Y-84854360D01*
X213466198Y-84808124D01*
X213508124Y-84766198D01*
X213557423Y-84733258D01*
X213557425Y-84733257D01*
X213600332Y-84715484D01*
X213621943Y-84703933D01*
X213640885Y-84688387D01*
X213656430Y-84669445D01*
X213667981Y-84647835D01*
X213675094Y-84624386D01*
X213677496Y-84600000D01*
X213722504Y-84600000D01*
X213724906Y-84624387D01*
X213732019Y-84647835D01*
X213743570Y-84669446D01*
X213759116Y-84688388D01*
X213778058Y-84703933D01*
X213799668Y-84715484D01*
X213842575Y-84733257D01*
X213842577Y-84733258D01*
X213891876Y-84766198D01*
X213933802Y-84808124D01*
X213964695Y-84854360D01*
X213966743Y-84857425D01*
X213984516Y-84900332D01*
X213996067Y-84921943D01*
X214011613Y-84940885D01*
X214030555Y-84956430D01*
X214052165Y-84967981D01*
X214075614Y-84975094D01*
X214100000Y-84977496D01*
X214124387Y-84975094D01*
X214147835Y-84967981D01*
X214169446Y-84956430D01*
X214188388Y-84940884D01*
X214203933Y-84921942D01*
X214215484Y-84900332D01*
X214233257Y-84857425D01*
X214235305Y-84854360D01*
X214266198Y-84808124D01*
X214308124Y-84766198D01*
X214357423Y-84733258D01*
X214357425Y-84733257D01*
X214400332Y-84715484D01*
X214421943Y-84703933D01*
X214440885Y-84688387D01*
X214456430Y-84669445D01*
X214467981Y-84647835D01*
X214475094Y-84624386D01*
X214477496Y-84600000D01*
X214522504Y-84600000D01*
X214524906Y-84624387D01*
X214532019Y-84647835D01*
X214543570Y-84669446D01*
X214559116Y-84688388D01*
X214578058Y-84703933D01*
X214599668Y-84715484D01*
X214642575Y-84733257D01*
X214642577Y-84733258D01*
X214691876Y-84766198D01*
X214733802Y-84808124D01*
X214764695Y-84854360D01*
X214766743Y-84857425D01*
X214784516Y-84900332D01*
X214796067Y-84921943D01*
X214811613Y-84940885D01*
X214830555Y-84956430D01*
X214852165Y-84967981D01*
X214875614Y-84975094D01*
X214900000Y-84977496D01*
X214924387Y-84975094D01*
X214947835Y-84967981D01*
X214969446Y-84956430D01*
X214988388Y-84940884D01*
X215003933Y-84921942D01*
X215015484Y-84900332D01*
X215033257Y-84857425D01*
X215035305Y-84854360D01*
X215066198Y-84808124D01*
X215108124Y-84766198D01*
X215157423Y-84733258D01*
X215157425Y-84733257D01*
X215200332Y-84715484D01*
X215221943Y-84703933D01*
X215240885Y-84688387D01*
X215256430Y-84669445D01*
X215267981Y-84647835D01*
X215275094Y-84624386D01*
X215277496Y-84600000D01*
X215322504Y-84600000D01*
X215324906Y-84624387D01*
X215332019Y-84647835D01*
X215343570Y-84669446D01*
X215359116Y-84688388D01*
X215378058Y-84703933D01*
X215399668Y-84715484D01*
X215442575Y-84733257D01*
X215442577Y-84733258D01*
X215491876Y-84766198D01*
X215533802Y-84808124D01*
X215564695Y-84854360D01*
X215566743Y-84857425D01*
X215584516Y-84900332D01*
X215596067Y-84921943D01*
X215611613Y-84940885D01*
X215630555Y-84956430D01*
X215652165Y-84967981D01*
X215675614Y-84975094D01*
X215700000Y-84977496D01*
X215724387Y-84975094D01*
X215747835Y-84967981D01*
X215769446Y-84956430D01*
X215788388Y-84940884D01*
X215803933Y-84921942D01*
X215815484Y-84900332D01*
X215833257Y-84857425D01*
X215835305Y-84854360D01*
X215866198Y-84808124D01*
X215908124Y-84766198D01*
X215957423Y-84733258D01*
X215957425Y-84733257D01*
X216000332Y-84715484D01*
X216021943Y-84703933D01*
X216040885Y-84688387D01*
X216056430Y-84669445D01*
X216067981Y-84647835D01*
X216075094Y-84624386D01*
X216077496Y-84600000D01*
X216122504Y-84600000D01*
X216124906Y-84624387D01*
X216132019Y-84647835D01*
X216143570Y-84669446D01*
X216159116Y-84688388D01*
X216178058Y-84703933D01*
X216199668Y-84715484D01*
X216242575Y-84733257D01*
X216242577Y-84733258D01*
X216291876Y-84766198D01*
X216333802Y-84808124D01*
X216364695Y-84854360D01*
X216366743Y-84857425D01*
X216384516Y-84900332D01*
X216396067Y-84921943D01*
X216411613Y-84940885D01*
X216430555Y-84956430D01*
X216452165Y-84967981D01*
X216475614Y-84975094D01*
X216500000Y-84977496D01*
X216524387Y-84975094D01*
X216547835Y-84967981D01*
X216569446Y-84956430D01*
X216588388Y-84940884D01*
X216603933Y-84921942D01*
X216615484Y-84900332D01*
X216633257Y-84857425D01*
X216635305Y-84854360D01*
X216666198Y-84808124D01*
X216708124Y-84766198D01*
X216757423Y-84733258D01*
X216757425Y-84733257D01*
X216800332Y-84715484D01*
X216821943Y-84703933D01*
X216840885Y-84688387D01*
X216856430Y-84669445D01*
X216867981Y-84647835D01*
X216875094Y-84624386D01*
X216877496Y-84600000D01*
X216922504Y-84600000D01*
X216924906Y-84624387D01*
X216932019Y-84647835D01*
X216943570Y-84669446D01*
X216959116Y-84688388D01*
X216978058Y-84703933D01*
X216999668Y-84715484D01*
X217042575Y-84733257D01*
X217042577Y-84733258D01*
X217091876Y-84766198D01*
X217133802Y-84808124D01*
X217164695Y-84854360D01*
X217166743Y-84857425D01*
X217184516Y-84900332D01*
X217196067Y-84921943D01*
X217211613Y-84940885D01*
X217230555Y-84956430D01*
X217252165Y-84967981D01*
X217275614Y-84975094D01*
X217300000Y-84977496D01*
X217324387Y-84975094D01*
X217347835Y-84967981D01*
X217369446Y-84956430D01*
X217388388Y-84940884D01*
X217403933Y-84921942D01*
X217415484Y-84900332D01*
X217433257Y-84857425D01*
X217435305Y-84854360D01*
X217466198Y-84808124D01*
X217508124Y-84766198D01*
X217557423Y-84733258D01*
X217557425Y-84733257D01*
X217600332Y-84715484D01*
X217621943Y-84703933D01*
X217640885Y-84688387D01*
X217656430Y-84669445D01*
X217667981Y-84647835D01*
X217675094Y-84624386D01*
X217677496Y-84600000D01*
X217722504Y-84600000D01*
X217724906Y-84624387D01*
X217732019Y-84647835D01*
X217743570Y-84669446D01*
X217759116Y-84688388D01*
X217778058Y-84703933D01*
X217799668Y-84715484D01*
X217842575Y-84733257D01*
X217842577Y-84733258D01*
X217891876Y-84766198D01*
X217933802Y-84808124D01*
X217964695Y-84854360D01*
X217966743Y-84857425D01*
X217984516Y-84900332D01*
X217996067Y-84921943D01*
X218011613Y-84940885D01*
X218030555Y-84956430D01*
X218052165Y-84967981D01*
X218075614Y-84975094D01*
X218100000Y-84977496D01*
X218124387Y-84975094D01*
X218147835Y-84967981D01*
X218169446Y-84956430D01*
X218188388Y-84940884D01*
X218203933Y-84921942D01*
X218215484Y-84900332D01*
X218233257Y-84857425D01*
X218235305Y-84854360D01*
X218266198Y-84808124D01*
X218308124Y-84766198D01*
X218357423Y-84733258D01*
X218357425Y-84733257D01*
X218400332Y-84715484D01*
X218421943Y-84703933D01*
X218440885Y-84688387D01*
X218456430Y-84669445D01*
X218467981Y-84647835D01*
X218475094Y-84624386D01*
X218477496Y-84600000D01*
X218475094Y-84575613D01*
X218467981Y-84552165D01*
X218456430Y-84530554D01*
X218440884Y-84511612D01*
X218421942Y-84496067D01*
X218400332Y-84484516D01*
X218357425Y-84466743D01*
X218357424Y-84466743D01*
X218357423Y-84466742D01*
X218308124Y-84433802D01*
X218266198Y-84391876D01*
X218233258Y-84342577D01*
X218230449Y-84335796D01*
X218215484Y-84299668D01*
X218203933Y-84278057D01*
X218188387Y-84259115D01*
X218169445Y-84243570D01*
X218147835Y-84232019D01*
X218124386Y-84224906D01*
X218100000Y-84222504D01*
X218075613Y-84224906D01*
X218052165Y-84232019D01*
X218030554Y-84243570D01*
X218011612Y-84259116D01*
X217996067Y-84278058D01*
X217984516Y-84299668D01*
X217969551Y-84335796D01*
X217966742Y-84342577D01*
X217933802Y-84391876D01*
X217891876Y-84433802D01*
X217842577Y-84466742D01*
X217842576Y-84466743D01*
X217842575Y-84466743D01*
X217799668Y-84484516D01*
X217778057Y-84496067D01*
X217759115Y-84511613D01*
X217743570Y-84530555D01*
X217732019Y-84552165D01*
X217724906Y-84575614D01*
X217722504Y-84600000D01*
X217677496Y-84600000D01*
X217675094Y-84575613D01*
X217667981Y-84552165D01*
X217656430Y-84530554D01*
X217640884Y-84511612D01*
X217621942Y-84496067D01*
X217600332Y-84484516D01*
X217557425Y-84466743D01*
X217557424Y-84466743D01*
X217557423Y-84466742D01*
X217508124Y-84433802D01*
X217466198Y-84391876D01*
X217433258Y-84342577D01*
X217430449Y-84335796D01*
X217415484Y-84299668D01*
X217403933Y-84278057D01*
X217388387Y-84259115D01*
X217369445Y-84243570D01*
X217347835Y-84232019D01*
X217324386Y-84224906D01*
X217300000Y-84222504D01*
X217275613Y-84224906D01*
X217252165Y-84232019D01*
X217230554Y-84243570D01*
X217211612Y-84259116D01*
X217196067Y-84278058D01*
X217184516Y-84299668D01*
X217169551Y-84335796D01*
X217166742Y-84342577D01*
X217133802Y-84391876D01*
X217091876Y-84433802D01*
X217042577Y-84466742D01*
X217042576Y-84466743D01*
X217042575Y-84466743D01*
X216999668Y-84484516D01*
X216978057Y-84496067D01*
X216959115Y-84511613D01*
X216943570Y-84530555D01*
X216932019Y-84552165D01*
X216924906Y-84575614D01*
X216922504Y-84600000D01*
X216877496Y-84600000D01*
X216875094Y-84575613D01*
X216867981Y-84552165D01*
X216856430Y-84530554D01*
X216840884Y-84511612D01*
X216821942Y-84496067D01*
X216800332Y-84484516D01*
X216757425Y-84466743D01*
X216757424Y-84466743D01*
X216757423Y-84466742D01*
X216708124Y-84433802D01*
X216666198Y-84391876D01*
X216633258Y-84342577D01*
X216630449Y-84335796D01*
X216615484Y-84299668D01*
X216603933Y-84278057D01*
X216588387Y-84259115D01*
X216569445Y-84243570D01*
X216547835Y-84232019D01*
X216524386Y-84224906D01*
X216500000Y-84222504D01*
X216475613Y-84224906D01*
X216452165Y-84232019D01*
X216430554Y-84243570D01*
X216411612Y-84259116D01*
X216396067Y-84278058D01*
X216384516Y-84299668D01*
X216369551Y-84335796D01*
X216366742Y-84342577D01*
X216333802Y-84391876D01*
X216291876Y-84433802D01*
X216242577Y-84466742D01*
X216242576Y-84466743D01*
X216242575Y-84466743D01*
X216199668Y-84484516D01*
X216178057Y-84496067D01*
X216159115Y-84511613D01*
X216143570Y-84530555D01*
X216132019Y-84552165D01*
X216124906Y-84575614D01*
X216122504Y-84600000D01*
X216077496Y-84600000D01*
X216075094Y-84575613D01*
X216067981Y-84552165D01*
X216056430Y-84530554D01*
X216040884Y-84511612D01*
X216021942Y-84496067D01*
X216000332Y-84484516D01*
X215957425Y-84466743D01*
X215957424Y-84466743D01*
X215957423Y-84466742D01*
X215908124Y-84433802D01*
X215866198Y-84391876D01*
X215833258Y-84342577D01*
X215830449Y-84335796D01*
X215815484Y-84299668D01*
X215803933Y-84278057D01*
X215788387Y-84259115D01*
X215769445Y-84243570D01*
X215747835Y-84232019D01*
X215724386Y-84224906D01*
X215700000Y-84222504D01*
X215675613Y-84224906D01*
X215652165Y-84232019D01*
X215630554Y-84243570D01*
X215611612Y-84259116D01*
X215596067Y-84278058D01*
X215584516Y-84299668D01*
X215569551Y-84335796D01*
X215566742Y-84342577D01*
X215533802Y-84391876D01*
X215491876Y-84433802D01*
X215442577Y-84466742D01*
X215442576Y-84466743D01*
X215442575Y-84466743D01*
X215399668Y-84484516D01*
X215378057Y-84496067D01*
X215359115Y-84511613D01*
X215343570Y-84530555D01*
X215332019Y-84552165D01*
X215324906Y-84575614D01*
X215322504Y-84600000D01*
X215277496Y-84600000D01*
X215275094Y-84575613D01*
X215267981Y-84552165D01*
X215256430Y-84530554D01*
X215240884Y-84511612D01*
X215221942Y-84496067D01*
X215200332Y-84484516D01*
X215157425Y-84466743D01*
X215157424Y-84466743D01*
X215157423Y-84466742D01*
X215108124Y-84433802D01*
X215066198Y-84391876D01*
X215033258Y-84342577D01*
X215030449Y-84335796D01*
X215015484Y-84299668D01*
X215003933Y-84278057D01*
X214988387Y-84259115D01*
X214969445Y-84243570D01*
X214947835Y-84232019D01*
X214924386Y-84224906D01*
X214900000Y-84222504D01*
X214875613Y-84224906D01*
X214852165Y-84232019D01*
X214830554Y-84243570D01*
X214811612Y-84259116D01*
X214796067Y-84278058D01*
X214784516Y-84299668D01*
X214769551Y-84335796D01*
X214766742Y-84342577D01*
X214733802Y-84391876D01*
X214691876Y-84433802D01*
X214642577Y-84466742D01*
X214642576Y-84466743D01*
X214642575Y-84466743D01*
X214599668Y-84484516D01*
X214578057Y-84496067D01*
X214559115Y-84511613D01*
X214543570Y-84530555D01*
X214532019Y-84552165D01*
X214524906Y-84575614D01*
X214522504Y-84600000D01*
X214477496Y-84600000D01*
X214475094Y-84575613D01*
X214467981Y-84552165D01*
X214456430Y-84530554D01*
X214440884Y-84511612D01*
X214421942Y-84496067D01*
X214400332Y-84484516D01*
X214357425Y-84466743D01*
X214357424Y-84466743D01*
X214357423Y-84466742D01*
X214308124Y-84433802D01*
X214266198Y-84391876D01*
X214233258Y-84342577D01*
X214230449Y-84335796D01*
X214215484Y-84299668D01*
X214203933Y-84278057D01*
X214188387Y-84259115D01*
X214169445Y-84243570D01*
X214147835Y-84232019D01*
X214124386Y-84224906D01*
X214100000Y-84222504D01*
X214075613Y-84224906D01*
X214052165Y-84232019D01*
X214030554Y-84243570D01*
X214011612Y-84259116D01*
X213996067Y-84278058D01*
X213984516Y-84299668D01*
X213969551Y-84335796D01*
X213966742Y-84342577D01*
X213933802Y-84391876D01*
X213891876Y-84433802D01*
X213842577Y-84466742D01*
X213842576Y-84466743D01*
X213842575Y-84466743D01*
X213799668Y-84484516D01*
X213778057Y-84496067D01*
X213759115Y-84511613D01*
X213743570Y-84530555D01*
X213732019Y-84552165D01*
X213724906Y-84575614D01*
X213722504Y-84600000D01*
X213677496Y-84600000D01*
X213675094Y-84575613D01*
X213667981Y-84552165D01*
X213656430Y-84530554D01*
X213640884Y-84511612D01*
X213621942Y-84496067D01*
X213600332Y-84484516D01*
X213557425Y-84466743D01*
X213557424Y-84466743D01*
X213557423Y-84466742D01*
X213508124Y-84433802D01*
X213466198Y-84391876D01*
X213433258Y-84342577D01*
X213430449Y-84335796D01*
X213415484Y-84299668D01*
X213403933Y-84278057D01*
X213388387Y-84259115D01*
X213369445Y-84243570D01*
X213347835Y-84232019D01*
X213324386Y-84224906D01*
X213300000Y-84222504D01*
X213275613Y-84224906D01*
X213252165Y-84232019D01*
X213230554Y-84243570D01*
X213211612Y-84259116D01*
X213196067Y-84278058D01*
X213184516Y-84299668D01*
X213169551Y-84335796D01*
X213166742Y-84342577D01*
X213133802Y-84391876D01*
X213091876Y-84433802D01*
X213042577Y-84466742D01*
X213042576Y-84466743D01*
X213042575Y-84466743D01*
X212999668Y-84484516D01*
X212978057Y-84496067D01*
X212959115Y-84511613D01*
X212943570Y-84530555D01*
X212932019Y-84552165D01*
X212924906Y-84575614D01*
X212922504Y-84600000D01*
X212877496Y-84600000D01*
X212875094Y-84575613D01*
X212867981Y-84552165D01*
X212856430Y-84530554D01*
X212840884Y-84511612D01*
X212821942Y-84496067D01*
X212800332Y-84484516D01*
X212757425Y-84466743D01*
X212757424Y-84466743D01*
X212757423Y-84466742D01*
X212708124Y-84433802D01*
X212666198Y-84391876D01*
X212633258Y-84342577D01*
X212630449Y-84335796D01*
X212610567Y-84287797D01*
X212599000Y-84229647D01*
X212599000Y-84170353D01*
X212610567Y-84112203D01*
X212633257Y-84057425D01*
X212633258Y-84057423D01*
X212666198Y-84008124D01*
X212708124Y-83966198D01*
X212757423Y-83933258D01*
X212761061Y-83931751D01*
X212800332Y-83915484D01*
X212821943Y-83903933D01*
X212840885Y-83888387D01*
X212856430Y-83869445D01*
X212867981Y-83847835D01*
X212875094Y-83824386D01*
X212877496Y-83800000D01*
X212922504Y-83800000D01*
X212924906Y-83824387D01*
X212932019Y-83847835D01*
X212943570Y-83869446D01*
X212959116Y-83888388D01*
X212978058Y-83903933D01*
X212999668Y-83915484D01*
X213038939Y-83931751D01*
X213042577Y-83933258D01*
X213091876Y-83966198D01*
X213133802Y-84008124D01*
X213166742Y-84057423D01*
X213166743Y-84057425D01*
X213184516Y-84100332D01*
X213196067Y-84121943D01*
X213211613Y-84140885D01*
X213230555Y-84156430D01*
X213252165Y-84167981D01*
X213275614Y-84175094D01*
X213300000Y-84177496D01*
X213324387Y-84175094D01*
X213347835Y-84167981D01*
X213369446Y-84156430D01*
X213388388Y-84140884D01*
X213403933Y-84121942D01*
X213415484Y-84100332D01*
X213433257Y-84057425D01*
X213433258Y-84057423D01*
X213466198Y-84008124D01*
X213508124Y-83966198D01*
X213557423Y-83933258D01*
X213561061Y-83931751D01*
X213600332Y-83915484D01*
X213621943Y-83903933D01*
X213640885Y-83888387D01*
X213656430Y-83869445D01*
X213667981Y-83847835D01*
X213675094Y-83824386D01*
X213677496Y-83800000D01*
X213722504Y-83800000D01*
X213724906Y-83824387D01*
X213732019Y-83847835D01*
X213743570Y-83869446D01*
X213759116Y-83888388D01*
X213778058Y-83903933D01*
X213799668Y-83915484D01*
X213838939Y-83931751D01*
X213842577Y-83933258D01*
X213891876Y-83966198D01*
X213933802Y-84008124D01*
X213966742Y-84057423D01*
X213966743Y-84057425D01*
X213984516Y-84100332D01*
X213996067Y-84121943D01*
X214011613Y-84140885D01*
X214030555Y-84156430D01*
X214052165Y-84167981D01*
X214075614Y-84175094D01*
X214100000Y-84177496D01*
X214124387Y-84175094D01*
X214147835Y-84167981D01*
X214169446Y-84156430D01*
X214188388Y-84140884D01*
X214203933Y-84121942D01*
X214215484Y-84100332D01*
X214233257Y-84057425D01*
X214233258Y-84057423D01*
X214266198Y-84008124D01*
X214308124Y-83966198D01*
X214357423Y-83933258D01*
X214361061Y-83931751D01*
X214400332Y-83915484D01*
X214421943Y-83903933D01*
X214440885Y-83888387D01*
X214456430Y-83869445D01*
X214467981Y-83847835D01*
X214475094Y-83824386D01*
X214477496Y-83800000D01*
X214522504Y-83800000D01*
X214524906Y-83824387D01*
X214532019Y-83847835D01*
X214543570Y-83869446D01*
X214559116Y-83888388D01*
X214578058Y-83903933D01*
X214599668Y-83915484D01*
X214638939Y-83931751D01*
X214642577Y-83933258D01*
X214691876Y-83966198D01*
X214733802Y-84008124D01*
X214766742Y-84057423D01*
X214766743Y-84057425D01*
X214784516Y-84100332D01*
X214796067Y-84121943D01*
X214811613Y-84140885D01*
X214830555Y-84156430D01*
X214852165Y-84167981D01*
X214875614Y-84175094D01*
X214900000Y-84177496D01*
X214924387Y-84175094D01*
X214947835Y-84167981D01*
X214969446Y-84156430D01*
X214988388Y-84140884D01*
X215003933Y-84121942D01*
X215015484Y-84100332D01*
X215033257Y-84057425D01*
X215033258Y-84057423D01*
X215066198Y-84008124D01*
X215108124Y-83966198D01*
X215157423Y-83933258D01*
X215161061Y-83931751D01*
X215200332Y-83915484D01*
X215221943Y-83903933D01*
X215240885Y-83888387D01*
X215256430Y-83869445D01*
X215267981Y-83847835D01*
X215275094Y-83824386D01*
X215277496Y-83800000D01*
X215322504Y-83800000D01*
X215324906Y-83824387D01*
X215332019Y-83847835D01*
X215343570Y-83869446D01*
X215359116Y-83888388D01*
X215378058Y-83903933D01*
X215399668Y-83915484D01*
X215438939Y-83931751D01*
X215442577Y-83933258D01*
X215491876Y-83966198D01*
X215533802Y-84008124D01*
X215566742Y-84057423D01*
X215566743Y-84057425D01*
X215584516Y-84100332D01*
X215596067Y-84121943D01*
X215611613Y-84140885D01*
X215630555Y-84156430D01*
X215652165Y-84167981D01*
X215675614Y-84175094D01*
X215700000Y-84177496D01*
X215724387Y-84175094D01*
X215747835Y-84167981D01*
X215769446Y-84156430D01*
X215788388Y-84140884D01*
X215803933Y-84121942D01*
X215815484Y-84100332D01*
X215833257Y-84057425D01*
X215833258Y-84057423D01*
X215866198Y-84008124D01*
X215908124Y-83966198D01*
X215957423Y-83933258D01*
X215961061Y-83931751D01*
X216000332Y-83915484D01*
X216021943Y-83903933D01*
X216040885Y-83888387D01*
X216056430Y-83869445D01*
X216067981Y-83847835D01*
X216075094Y-83824386D01*
X216077496Y-83800000D01*
X216122504Y-83800000D01*
X216124906Y-83824387D01*
X216132019Y-83847835D01*
X216143570Y-83869446D01*
X216159116Y-83888388D01*
X216178058Y-83903933D01*
X216199668Y-83915484D01*
X216238939Y-83931751D01*
X216242577Y-83933258D01*
X216291876Y-83966198D01*
X216333802Y-84008124D01*
X216366742Y-84057423D01*
X216366743Y-84057425D01*
X216384516Y-84100332D01*
X216396067Y-84121943D01*
X216411613Y-84140885D01*
X216430555Y-84156430D01*
X216452165Y-84167981D01*
X216475614Y-84175094D01*
X216500000Y-84177496D01*
X216524387Y-84175094D01*
X216547835Y-84167981D01*
X216569446Y-84156430D01*
X216588388Y-84140884D01*
X216603933Y-84121942D01*
X216615484Y-84100332D01*
X216633257Y-84057425D01*
X216633258Y-84057423D01*
X216666198Y-84008124D01*
X216708124Y-83966198D01*
X216757423Y-83933258D01*
X216761061Y-83931751D01*
X216800332Y-83915484D01*
X216821943Y-83903933D01*
X216840885Y-83888387D01*
X216856430Y-83869445D01*
X216867981Y-83847835D01*
X216875094Y-83824386D01*
X216877496Y-83800000D01*
X216922504Y-83800000D01*
X216924906Y-83824387D01*
X216932019Y-83847835D01*
X216943570Y-83869446D01*
X216959116Y-83888388D01*
X216978058Y-83903933D01*
X216999668Y-83915484D01*
X217038939Y-83931751D01*
X217042577Y-83933258D01*
X217091876Y-83966198D01*
X217133802Y-84008124D01*
X217166742Y-84057423D01*
X217166743Y-84057425D01*
X217184516Y-84100332D01*
X217196067Y-84121943D01*
X217211613Y-84140885D01*
X217230555Y-84156430D01*
X217252165Y-84167981D01*
X217275614Y-84175094D01*
X217300000Y-84177496D01*
X217324387Y-84175094D01*
X217347835Y-84167981D01*
X217369446Y-84156430D01*
X217388388Y-84140884D01*
X217403933Y-84121942D01*
X217415484Y-84100332D01*
X217433257Y-84057425D01*
X217433258Y-84057423D01*
X217466198Y-84008124D01*
X217508124Y-83966198D01*
X217557423Y-83933258D01*
X217561061Y-83931751D01*
X217600332Y-83915484D01*
X217621943Y-83903933D01*
X217640885Y-83888387D01*
X217656430Y-83869445D01*
X217667981Y-83847835D01*
X217675094Y-83824386D01*
X217677496Y-83800000D01*
X217722504Y-83800000D01*
X217724906Y-83824387D01*
X217732019Y-83847835D01*
X217743570Y-83869446D01*
X217759116Y-83888388D01*
X217778058Y-83903933D01*
X217799668Y-83915484D01*
X217838939Y-83931751D01*
X217842577Y-83933258D01*
X217891876Y-83966198D01*
X217933802Y-84008124D01*
X217966742Y-84057423D01*
X217966743Y-84057425D01*
X217984516Y-84100332D01*
X217996067Y-84121943D01*
X218011613Y-84140885D01*
X218030555Y-84156430D01*
X218052165Y-84167981D01*
X218075614Y-84175094D01*
X218100000Y-84177496D01*
X218124387Y-84175094D01*
X218147835Y-84167981D01*
X218169446Y-84156430D01*
X218188388Y-84140884D01*
X218203933Y-84121942D01*
X218215484Y-84100332D01*
X218233257Y-84057425D01*
X218233258Y-84057423D01*
X218266198Y-84008124D01*
X218308124Y-83966198D01*
X218357423Y-83933258D01*
X218361061Y-83931751D01*
X218400332Y-83915484D01*
X218421943Y-83903933D01*
X218440885Y-83888387D01*
X218456430Y-83869445D01*
X218467981Y-83847835D01*
X218475094Y-83824386D01*
X218477496Y-83800000D01*
X218475094Y-83775613D01*
X218467981Y-83752165D01*
X218456430Y-83730554D01*
X218440884Y-83711612D01*
X218421942Y-83696067D01*
X218400332Y-83684516D01*
X218357425Y-83666743D01*
X218357424Y-83666743D01*
X218357423Y-83666742D01*
X218308124Y-83633802D01*
X218266198Y-83591876D01*
X218233258Y-83542577D01*
X218233257Y-83542575D01*
X218215484Y-83499668D01*
X218203933Y-83478057D01*
X218188387Y-83459115D01*
X218169445Y-83443570D01*
X218147835Y-83432019D01*
X218124386Y-83424906D01*
X218100000Y-83422504D01*
X218075613Y-83424906D01*
X218052165Y-83432019D01*
X218030554Y-83443570D01*
X218011612Y-83459116D01*
X217996067Y-83478058D01*
X217984516Y-83499668D01*
X217966743Y-83542575D01*
X217966742Y-83542577D01*
X217933802Y-83591876D01*
X217891876Y-83633802D01*
X217842577Y-83666742D01*
X217842576Y-83666743D01*
X217842575Y-83666743D01*
X217799668Y-83684516D01*
X217778057Y-83696067D01*
X217759115Y-83711613D01*
X217743570Y-83730555D01*
X217732019Y-83752165D01*
X217724906Y-83775614D01*
X217722504Y-83800000D01*
X217677496Y-83800000D01*
X217675094Y-83775613D01*
X217667981Y-83752165D01*
X217656430Y-83730554D01*
X217640884Y-83711612D01*
X217621942Y-83696067D01*
X217600332Y-83684516D01*
X217557425Y-83666743D01*
X217557424Y-83666743D01*
X217557423Y-83666742D01*
X217508124Y-83633802D01*
X217466198Y-83591876D01*
X217433258Y-83542577D01*
X217433257Y-83542575D01*
X217415484Y-83499668D01*
X217403933Y-83478057D01*
X217388387Y-83459115D01*
X217369445Y-83443570D01*
X217347835Y-83432019D01*
X217324386Y-83424906D01*
X217300000Y-83422504D01*
X217275613Y-83424906D01*
X217252165Y-83432019D01*
X217230554Y-83443570D01*
X217211612Y-83459116D01*
X217196067Y-83478058D01*
X217184516Y-83499668D01*
X217166743Y-83542575D01*
X217166742Y-83542577D01*
X217133802Y-83591876D01*
X217091876Y-83633802D01*
X217042577Y-83666742D01*
X217042576Y-83666743D01*
X217042575Y-83666743D01*
X216999668Y-83684516D01*
X216978057Y-83696067D01*
X216959115Y-83711613D01*
X216943570Y-83730555D01*
X216932019Y-83752165D01*
X216924906Y-83775614D01*
X216922504Y-83800000D01*
X216877496Y-83800000D01*
X216875094Y-83775613D01*
X216867981Y-83752165D01*
X216856430Y-83730554D01*
X216840884Y-83711612D01*
X216821942Y-83696067D01*
X216800332Y-83684516D01*
X216757425Y-83666743D01*
X216757424Y-83666743D01*
X216757423Y-83666742D01*
X216708124Y-83633802D01*
X216666198Y-83591876D01*
X216633258Y-83542577D01*
X216633257Y-83542575D01*
X216615484Y-83499668D01*
X216603933Y-83478057D01*
X216588387Y-83459115D01*
X216569445Y-83443570D01*
X216547835Y-83432019D01*
X216524386Y-83424906D01*
X216500000Y-83422504D01*
X216475613Y-83424906D01*
X216452165Y-83432019D01*
X216430554Y-83443570D01*
X216411612Y-83459116D01*
X216396067Y-83478058D01*
X216384516Y-83499668D01*
X216366743Y-83542575D01*
X216366742Y-83542577D01*
X216333802Y-83591876D01*
X216291876Y-83633802D01*
X216242577Y-83666742D01*
X216242576Y-83666743D01*
X216242575Y-83666743D01*
X216199668Y-83684516D01*
X216178057Y-83696067D01*
X216159115Y-83711613D01*
X216143570Y-83730555D01*
X216132019Y-83752165D01*
X216124906Y-83775614D01*
X216122504Y-83800000D01*
X216077496Y-83800000D01*
X216075094Y-83775613D01*
X216067981Y-83752165D01*
X216056430Y-83730554D01*
X216040884Y-83711612D01*
X216021942Y-83696067D01*
X216000332Y-83684516D01*
X215957425Y-83666743D01*
X215957424Y-83666743D01*
X215957423Y-83666742D01*
X215908124Y-83633802D01*
X215866198Y-83591876D01*
X215833258Y-83542577D01*
X215833257Y-83542575D01*
X215815484Y-83499668D01*
X215803933Y-83478057D01*
X215788387Y-83459115D01*
X215769445Y-83443570D01*
X215747835Y-83432019D01*
X215724386Y-83424906D01*
X215700000Y-83422504D01*
X215675613Y-83424906D01*
X215652165Y-83432019D01*
X215630554Y-83443570D01*
X215611612Y-83459116D01*
X215596067Y-83478058D01*
X215584516Y-83499668D01*
X215566743Y-83542575D01*
X215566742Y-83542577D01*
X215533802Y-83591876D01*
X215491876Y-83633802D01*
X215442577Y-83666742D01*
X215442576Y-83666743D01*
X215442575Y-83666743D01*
X215399668Y-83684516D01*
X215378057Y-83696067D01*
X215359115Y-83711613D01*
X215343570Y-83730555D01*
X215332019Y-83752165D01*
X215324906Y-83775614D01*
X215322504Y-83800000D01*
X215277496Y-83800000D01*
X215275094Y-83775613D01*
X215267981Y-83752165D01*
X215256430Y-83730554D01*
X215240884Y-83711612D01*
X215221942Y-83696067D01*
X215200332Y-83684516D01*
X215157425Y-83666743D01*
X215157424Y-83666743D01*
X215157423Y-83666742D01*
X215108124Y-83633802D01*
X215066198Y-83591876D01*
X215033258Y-83542577D01*
X215033257Y-83542575D01*
X215015484Y-83499668D01*
X215003933Y-83478057D01*
X214988387Y-83459115D01*
X214969445Y-83443570D01*
X214947835Y-83432019D01*
X214924386Y-83424906D01*
X214900000Y-83422504D01*
X214875613Y-83424906D01*
X214852165Y-83432019D01*
X214830554Y-83443570D01*
X214811612Y-83459116D01*
X214796067Y-83478058D01*
X214784516Y-83499668D01*
X214766743Y-83542575D01*
X214766742Y-83542577D01*
X214733802Y-83591876D01*
X214691876Y-83633802D01*
X214642577Y-83666742D01*
X214642576Y-83666743D01*
X214642575Y-83666743D01*
X214599668Y-83684516D01*
X214578057Y-83696067D01*
X214559115Y-83711613D01*
X214543570Y-83730555D01*
X214532019Y-83752165D01*
X214524906Y-83775614D01*
X214522504Y-83800000D01*
X214477496Y-83800000D01*
X214475094Y-83775613D01*
X214467981Y-83752165D01*
X214456430Y-83730554D01*
X214440884Y-83711612D01*
X214421942Y-83696067D01*
X214400332Y-83684516D01*
X214357425Y-83666743D01*
X214357424Y-83666743D01*
X214357423Y-83666742D01*
X214308124Y-83633802D01*
X214266198Y-83591876D01*
X214233258Y-83542577D01*
X214233257Y-83542575D01*
X214215484Y-83499668D01*
X214203933Y-83478057D01*
X214188387Y-83459115D01*
X214169445Y-83443570D01*
X214147835Y-83432019D01*
X214124386Y-83424906D01*
X214100000Y-83422504D01*
X214075613Y-83424906D01*
X214052165Y-83432019D01*
X214030554Y-83443570D01*
X214011612Y-83459116D01*
X213996067Y-83478058D01*
X213984516Y-83499668D01*
X213966743Y-83542575D01*
X213966742Y-83542577D01*
X213933802Y-83591876D01*
X213891876Y-83633802D01*
X213842577Y-83666742D01*
X213842576Y-83666743D01*
X213842575Y-83666743D01*
X213799668Y-83684516D01*
X213778057Y-83696067D01*
X213759115Y-83711613D01*
X213743570Y-83730555D01*
X213732019Y-83752165D01*
X213724906Y-83775614D01*
X213722504Y-83800000D01*
X213677496Y-83800000D01*
X213675094Y-83775613D01*
X213667981Y-83752165D01*
X213656430Y-83730554D01*
X213640884Y-83711612D01*
X213621942Y-83696067D01*
X213600332Y-83684516D01*
X213557425Y-83666743D01*
X213557424Y-83666743D01*
X213557423Y-83666742D01*
X213508124Y-83633802D01*
X213466198Y-83591876D01*
X213433258Y-83542577D01*
X213433257Y-83542575D01*
X213415484Y-83499668D01*
X213403933Y-83478057D01*
X213388387Y-83459115D01*
X213369445Y-83443570D01*
X213347835Y-83432019D01*
X213324386Y-83424906D01*
X213300000Y-83422504D01*
X213275613Y-83424906D01*
X213252165Y-83432019D01*
X213230554Y-83443570D01*
X213211612Y-83459116D01*
X213196067Y-83478058D01*
X213184516Y-83499668D01*
X213166743Y-83542575D01*
X213166742Y-83542577D01*
X213133802Y-83591876D01*
X213091876Y-83633802D01*
X213042577Y-83666742D01*
X213042576Y-83666743D01*
X213042575Y-83666743D01*
X212999668Y-83684516D01*
X212978057Y-83696067D01*
X212959115Y-83711613D01*
X212943570Y-83730555D01*
X212932019Y-83752165D01*
X212924906Y-83775614D01*
X212922504Y-83800000D01*
X212877496Y-83800000D01*
X212875094Y-83775613D01*
X212867981Y-83752165D01*
X212856430Y-83730554D01*
X212840884Y-83711612D01*
X212821942Y-83696067D01*
X212800332Y-83684516D01*
X212757425Y-83666743D01*
X212757424Y-83666743D01*
X212757423Y-83666742D01*
X212708124Y-83633802D01*
X212666198Y-83591876D01*
X212633258Y-83542577D01*
X212633257Y-83542575D01*
X212610567Y-83487797D01*
X212599000Y-83429647D01*
X212599000Y-83370353D01*
X212610567Y-83312203D01*
X212633257Y-83257425D01*
X212635237Y-83254461D01*
X212666198Y-83208124D01*
X212708124Y-83166198D01*
X212757423Y-83133258D01*
X212757425Y-83133257D01*
X212800332Y-83115484D01*
X212821943Y-83103933D01*
X212840885Y-83088387D01*
X212856430Y-83069445D01*
X212867981Y-83047835D01*
X212875094Y-83024386D01*
X212877496Y-83000000D01*
X212922504Y-83000000D01*
X212924906Y-83024387D01*
X212932019Y-83047835D01*
X212943570Y-83069446D01*
X212959116Y-83088388D01*
X212978058Y-83103933D01*
X212999668Y-83115484D01*
X213042575Y-83133257D01*
X213042577Y-83133258D01*
X213091876Y-83166198D01*
X213133802Y-83208124D01*
X213164763Y-83254461D01*
X213166743Y-83257425D01*
X213184516Y-83300332D01*
X213196067Y-83321943D01*
X213211613Y-83340885D01*
X213230555Y-83356430D01*
X213252165Y-83367981D01*
X213275614Y-83375094D01*
X213300000Y-83377496D01*
X213324387Y-83375094D01*
X213347835Y-83367981D01*
X213369446Y-83356430D01*
X213388388Y-83340884D01*
X213403933Y-83321942D01*
X213415484Y-83300332D01*
X213433257Y-83257425D01*
X213435237Y-83254461D01*
X213466198Y-83208124D01*
X213508124Y-83166198D01*
X213557423Y-83133258D01*
X213557425Y-83133257D01*
X213600332Y-83115484D01*
X213621943Y-83103933D01*
X213640885Y-83088387D01*
X213656430Y-83069445D01*
X213667981Y-83047835D01*
X213675094Y-83024386D01*
X213677496Y-83000000D01*
X213722504Y-83000000D01*
X213724906Y-83024387D01*
X213732019Y-83047835D01*
X213743570Y-83069446D01*
X213759116Y-83088388D01*
X213778058Y-83103933D01*
X213799668Y-83115484D01*
X213842575Y-83133257D01*
X213842577Y-83133258D01*
X213891876Y-83166198D01*
X213933802Y-83208124D01*
X213964763Y-83254461D01*
X213966743Y-83257425D01*
X213984516Y-83300332D01*
X213996067Y-83321943D01*
X214011613Y-83340885D01*
X214030555Y-83356430D01*
X214052165Y-83367981D01*
X214075614Y-83375094D01*
X214100000Y-83377496D01*
X214124387Y-83375094D01*
X214147835Y-83367981D01*
X214169446Y-83356430D01*
X214188388Y-83340884D01*
X214203933Y-83321942D01*
X214215484Y-83300332D01*
X214233257Y-83257425D01*
X214235237Y-83254461D01*
X214266198Y-83208124D01*
X214308124Y-83166198D01*
X214357423Y-83133258D01*
X214357425Y-83133257D01*
X214400332Y-83115484D01*
X214421943Y-83103933D01*
X214440885Y-83088387D01*
X214456430Y-83069445D01*
X214467981Y-83047835D01*
X214475094Y-83024386D01*
X214477496Y-83000000D01*
X214522504Y-83000000D01*
X214524906Y-83024387D01*
X214532019Y-83047835D01*
X214543570Y-83069446D01*
X214559116Y-83088388D01*
X214578058Y-83103933D01*
X214599668Y-83115484D01*
X214642575Y-83133257D01*
X214642577Y-83133258D01*
X214691876Y-83166198D01*
X214733802Y-83208124D01*
X214764763Y-83254461D01*
X214766743Y-83257425D01*
X214784516Y-83300332D01*
X214796067Y-83321943D01*
X214811613Y-83340885D01*
X214830555Y-83356430D01*
X214852165Y-83367981D01*
X214875614Y-83375094D01*
X214900000Y-83377496D01*
X214924387Y-83375094D01*
X214947835Y-83367981D01*
X214969446Y-83356430D01*
X214988388Y-83340884D01*
X215003933Y-83321942D01*
X215015484Y-83300332D01*
X215033257Y-83257425D01*
X215035237Y-83254461D01*
X215066198Y-83208124D01*
X215108124Y-83166198D01*
X215157423Y-83133258D01*
X215157425Y-83133257D01*
X215200332Y-83115484D01*
X215221943Y-83103933D01*
X215240885Y-83088387D01*
X215256430Y-83069445D01*
X215267981Y-83047835D01*
X215275094Y-83024386D01*
X215277496Y-83000000D01*
X215322504Y-83000000D01*
X215324906Y-83024387D01*
X215332019Y-83047835D01*
X215343570Y-83069446D01*
X215359116Y-83088388D01*
X215378058Y-83103933D01*
X215399668Y-83115484D01*
X215442575Y-83133257D01*
X215442577Y-83133258D01*
X215491876Y-83166198D01*
X215533802Y-83208124D01*
X215564763Y-83254461D01*
X215566743Y-83257425D01*
X215584516Y-83300332D01*
X215596067Y-83321943D01*
X215611613Y-83340885D01*
X215630555Y-83356430D01*
X215652165Y-83367981D01*
X215675614Y-83375094D01*
X215700000Y-83377496D01*
X215724387Y-83375094D01*
X215747835Y-83367981D01*
X215769446Y-83356430D01*
X215788388Y-83340884D01*
X215803933Y-83321942D01*
X215815484Y-83300332D01*
X215833257Y-83257425D01*
X215835237Y-83254461D01*
X215866198Y-83208124D01*
X215908124Y-83166198D01*
X215957423Y-83133258D01*
X215957425Y-83133257D01*
X216000332Y-83115484D01*
X216021943Y-83103933D01*
X216040885Y-83088387D01*
X216056430Y-83069445D01*
X216067981Y-83047835D01*
X216075094Y-83024386D01*
X216077496Y-83000000D01*
X216122504Y-83000000D01*
X216124906Y-83024387D01*
X216132019Y-83047835D01*
X216143570Y-83069446D01*
X216159116Y-83088388D01*
X216178058Y-83103933D01*
X216199668Y-83115484D01*
X216242575Y-83133257D01*
X216242577Y-83133258D01*
X216291876Y-83166198D01*
X216333802Y-83208124D01*
X216364763Y-83254461D01*
X216366743Y-83257425D01*
X216384516Y-83300332D01*
X216396067Y-83321943D01*
X216411613Y-83340885D01*
X216430555Y-83356430D01*
X216452165Y-83367981D01*
X216475614Y-83375094D01*
X216500000Y-83377496D01*
X216524387Y-83375094D01*
X216547835Y-83367981D01*
X216569446Y-83356430D01*
X216588388Y-83340884D01*
X216603933Y-83321942D01*
X216615484Y-83300332D01*
X216633257Y-83257425D01*
X216635237Y-83254461D01*
X216666198Y-83208124D01*
X216708124Y-83166198D01*
X216757423Y-83133258D01*
X216757425Y-83133257D01*
X216800332Y-83115484D01*
X216821943Y-83103933D01*
X216840885Y-83088387D01*
X216856430Y-83069445D01*
X216867981Y-83047835D01*
X216875094Y-83024386D01*
X216877496Y-83000000D01*
X216922504Y-83000000D01*
X216924906Y-83024387D01*
X216932019Y-83047835D01*
X216943570Y-83069446D01*
X216959116Y-83088388D01*
X216978058Y-83103933D01*
X216999668Y-83115484D01*
X217042575Y-83133257D01*
X217042577Y-83133258D01*
X217091876Y-83166198D01*
X217133802Y-83208124D01*
X217164763Y-83254461D01*
X217166743Y-83257425D01*
X217184516Y-83300332D01*
X217196067Y-83321943D01*
X217211613Y-83340885D01*
X217230555Y-83356430D01*
X217252165Y-83367981D01*
X217275614Y-83375094D01*
X217300000Y-83377496D01*
X217324387Y-83375094D01*
X217347835Y-83367981D01*
X217369446Y-83356430D01*
X217388388Y-83340884D01*
X217403933Y-83321942D01*
X217415484Y-83300332D01*
X217433257Y-83257425D01*
X217435237Y-83254461D01*
X217466198Y-83208124D01*
X217508124Y-83166198D01*
X217557423Y-83133258D01*
X217557425Y-83133257D01*
X217600332Y-83115484D01*
X217621943Y-83103933D01*
X217640885Y-83088387D01*
X217656430Y-83069445D01*
X217667981Y-83047835D01*
X217675094Y-83024386D01*
X217677496Y-83000000D01*
X217722504Y-83000000D01*
X217724906Y-83024387D01*
X217732019Y-83047835D01*
X217743570Y-83069446D01*
X217759116Y-83088388D01*
X217778058Y-83103933D01*
X217799668Y-83115484D01*
X217842575Y-83133257D01*
X217842577Y-83133258D01*
X217891876Y-83166198D01*
X217933802Y-83208124D01*
X217964763Y-83254461D01*
X217966743Y-83257425D01*
X217984516Y-83300332D01*
X217996067Y-83321943D01*
X218011613Y-83340885D01*
X218030555Y-83356430D01*
X218052165Y-83367981D01*
X218075614Y-83375094D01*
X218100000Y-83377496D01*
X218124387Y-83375094D01*
X218147835Y-83367981D01*
X218169446Y-83356430D01*
X218188388Y-83340884D01*
X218203933Y-83321942D01*
X218215484Y-83300332D01*
X218233257Y-83257425D01*
X218235237Y-83254461D01*
X218266198Y-83208124D01*
X218308124Y-83166198D01*
X218357423Y-83133258D01*
X218357425Y-83133257D01*
X218400332Y-83115484D01*
X218421943Y-83103933D01*
X218440885Y-83088387D01*
X218456430Y-83069445D01*
X218467981Y-83047835D01*
X218475094Y-83024386D01*
X218477496Y-83000000D01*
X218475094Y-82975613D01*
X218467981Y-82952165D01*
X218456430Y-82930554D01*
X218440884Y-82911612D01*
X218421942Y-82896067D01*
X218400332Y-82884516D01*
X218357425Y-82866743D01*
X218357424Y-82866743D01*
X218357423Y-82866742D01*
X218308124Y-82833802D01*
X218266198Y-82791876D01*
X218233258Y-82742577D01*
X218233257Y-82742575D01*
X218215484Y-82699668D01*
X218203933Y-82678057D01*
X218188387Y-82659115D01*
X218169445Y-82643570D01*
X218147835Y-82632019D01*
X218124386Y-82624906D01*
X218100000Y-82622504D01*
X218075613Y-82624906D01*
X218052165Y-82632019D01*
X218030554Y-82643570D01*
X218011612Y-82659116D01*
X217996067Y-82678058D01*
X217984516Y-82699668D01*
X217966743Y-82742575D01*
X217966742Y-82742577D01*
X217933802Y-82791876D01*
X217891876Y-82833802D01*
X217842577Y-82866742D01*
X217842576Y-82866743D01*
X217842575Y-82866743D01*
X217799668Y-82884516D01*
X217778057Y-82896067D01*
X217759115Y-82911613D01*
X217743570Y-82930555D01*
X217732019Y-82952165D01*
X217724906Y-82975614D01*
X217722504Y-83000000D01*
X217677496Y-83000000D01*
X217675094Y-82975613D01*
X217667981Y-82952165D01*
X217656430Y-82930554D01*
X217640884Y-82911612D01*
X217621942Y-82896067D01*
X217600332Y-82884516D01*
X217557425Y-82866743D01*
X217557424Y-82866743D01*
X217557423Y-82866742D01*
X217508124Y-82833802D01*
X217466198Y-82791876D01*
X217433258Y-82742577D01*
X217433257Y-82742575D01*
X217415484Y-82699668D01*
X217403933Y-82678057D01*
X217388387Y-82659115D01*
X217369445Y-82643570D01*
X217347835Y-82632019D01*
X217324386Y-82624906D01*
X217300000Y-82622504D01*
X217275613Y-82624906D01*
X217252165Y-82632019D01*
X217230554Y-82643570D01*
X217211612Y-82659116D01*
X217196067Y-82678058D01*
X217184516Y-82699668D01*
X217166743Y-82742575D01*
X217166742Y-82742577D01*
X217133802Y-82791876D01*
X217091876Y-82833802D01*
X217042577Y-82866742D01*
X217042576Y-82866743D01*
X217042575Y-82866743D01*
X216999668Y-82884516D01*
X216978057Y-82896067D01*
X216959115Y-82911613D01*
X216943570Y-82930555D01*
X216932019Y-82952165D01*
X216924906Y-82975614D01*
X216922504Y-83000000D01*
X216877496Y-83000000D01*
X216875094Y-82975613D01*
X216867981Y-82952165D01*
X216856430Y-82930554D01*
X216840884Y-82911612D01*
X216821942Y-82896067D01*
X216800332Y-82884516D01*
X216757425Y-82866743D01*
X216757424Y-82866743D01*
X216757423Y-82866742D01*
X216708124Y-82833802D01*
X216666198Y-82791876D01*
X216633258Y-82742577D01*
X216633257Y-82742575D01*
X216615484Y-82699668D01*
X216603933Y-82678057D01*
X216588387Y-82659115D01*
X216569445Y-82643570D01*
X216547835Y-82632019D01*
X216524386Y-82624906D01*
X216500000Y-82622504D01*
X216475613Y-82624906D01*
X216452165Y-82632019D01*
X216430554Y-82643570D01*
X216411612Y-82659116D01*
X216396067Y-82678058D01*
X216384516Y-82699668D01*
X216366743Y-82742575D01*
X216366742Y-82742577D01*
X216333802Y-82791876D01*
X216291876Y-82833802D01*
X216242577Y-82866742D01*
X216242576Y-82866743D01*
X216242575Y-82866743D01*
X216199668Y-82884516D01*
X216178057Y-82896067D01*
X216159115Y-82911613D01*
X216143570Y-82930555D01*
X216132019Y-82952165D01*
X216124906Y-82975614D01*
X216122504Y-83000000D01*
X216077496Y-83000000D01*
X216075094Y-82975613D01*
X216067981Y-82952165D01*
X216056430Y-82930554D01*
X216040884Y-82911612D01*
X216021942Y-82896067D01*
X216000332Y-82884516D01*
X215957425Y-82866743D01*
X215957424Y-82866743D01*
X215957423Y-82866742D01*
X215908124Y-82833802D01*
X215866198Y-82791876D01*
X215833258Y-82742577D01*
X215833257Y-82742575D01*
X215815484Y-82699668D01*
X215803933Y-82678057D01*
X215788387Y-82659115D01*
X215769445Y-82643570D01*
X215747835Y-82632019D01*
X215724386Y-82624906D01*
X215700000Y-82622504D01*
X215675613Y-82624906D01*
X215652165Y-82632019D01*
X215630554Y-82643570D01*
X215611612Y-82659116D01*
X215596067Y-82678058D01*
X215584516Y-82699668D01*
X215566743Y-82742575D01*
X215566742Y-82742577D01*
X215533802Y-82791876D01*
X215491876Y-82833802D01*
X215442577Y-82866742D01*
X215442576Y-82866743D01*
X215442575Y-82866743D01*
X215399668Y-82884516D01*
X215378057Y-82896067D01*
X215359115Y-82911613D01*
X215343570Y-82930555D01*
X215332019Y-82952165D01*
X215324906Y-82975614D01*
X215322504Y-83000000D01*
X215277496Y-83000000D01*
X215275094Y-82975613D01*
X215267981Y-82952165D01*
X215256430Y-82930554D01*
X215240884Y-82911612D01*
X215221942Y-82896067D01*
X215200332Y-82884516D01*
X215157425Y-82866743D01*
X215157424Y-82866743D01*
X215157423Y-82866742D01*
X215108124Y-82833802D01*
X215066198Y-82791876D01*
X215033258Y-82742577D01*
X215033257Y-82742575D01*
X215015484Y-82699668D01*
X215003933Y-82678057D01*
X214988387Y-82659115D01*
X214969445Y-82643570D01*
X214947835Y-82632019D01*
X214924386Y-82624906D01*
X214900000Y-82622504D01*
X214875613Y-82624906D01*
X214852165Y-82632019D01*
X214830554Y-82643570D01*
X214811612Y-82659116D01*
X214796067Y-82678058D01*
X214784516Y-82699668D01*
X214766743Y-82742575D01*
X214766742Y-82742577D01*
X214733802Y-82791876D01*
X214691876Y-82833802D01*
X214642577Y-82866742D01*
X214642576Y-82866743D01*
X214642575Y-82866743D01*
X214599668Y-82884516D01*
X214578057Y-82896067D01*
X214559115Y-82911613D01*
X214543570Y-82930555D01*
X214532019Y-82952165D01*
X214524906Y-82975614D01*
X214522504Y-83000000D01*
X214477496Y-83000000D01*
X214475094Y-82975613D01*
X214467981Y-82952165D01*
X214456430Y-82930554D01*
X214440884Y-82911612D01*
X214421942Y-82896067D01*
X214400332Y-82884516D01*
X214357425Y-82866743D01*
X214357424Y-82866743D01*
X214357423Y-82866742D01*
X214308124Y-82833802D01*
X214266198Y-82791876D01*
X214233258Y-82742577D01*
X214233257Y-82742575D01*
X214215484Y-82699668D01*
X214203933Y-82678057D01*
X214188387Y-82659115D01*
X214169445Y-82643570D01*
X214147835Y-82632019D01*
X214124386Y-82624906D01*
X214100000Y-82622504D01*
X214075613Y-82624906D01*
X214052165Y-82632019D01*
X214030554Y-82643570D01*
X214011612Y-82659116D01*
X213996067Y-82678058D01*
X213984516Y-82699668D01*
X213966743Y-82742575D01*
X213966742Y-82742577D01*
X213933802Y-82791876D01*
X213891876Y-82833802D01*
X213842577Y-82866742D01*
X213842576Y-82866743D01*
X213842575Y-82866743D01*
X213799668Y-82884516D01*
X213778057Y-82896067D01*
X213759115Y-82911613D01*
X213743570Y-82930555D01*
X213732019Y-82952165D01*
X213724906Y-82975614D01*
X213722504Y-83000000D01*
X213677496Y-83000000D01*
X213675094Y-82975613D01*
X213667981Y-82952165D01*
X213656430Y-82930554D01*
X213640884Y-82911612D01*
X213621942Y-82896067D01*
X213600332Y-82884516D01*
X213557425Y-82866743D01*
X213557424Y-82866743D01*
X213557423Y-82866742D01*
X213508124Y-82833802D01*
X213466198Y-82791876D01*
X213433258Y-82742577D01*
X213433257Y-82742575D01*
X213415484Y-82699668D01*
X213403933Y-82678057D01*
X213388387Y-82659115D01*
X213369445Y-82643570D01*
X213347835Y-82632019D01*
X213324386Y-82624906D01*
X213300000Y-82622504D01*
X213275613Y-82624906D01*
X213252165Y-82632019D01*
X213230554Y-82643570D01*
X213211612Y-82659116D01*
X213196067Y-82678058D01*
X213184516Y-82699668D01*
X213166743Y-82742575D01*
X213166742Y-82742577D01*
X213133802Y-82791876D01*
X213091876Y-82833802D01*
X213042577Y-82866742D01*
X213042576Y-82866743D01*
X213042575Y-82866743D01*
X212999668Y-82884516D01*
X212978057Y-82896067D01*
X212959115Y-82911613D01*
X212943570Y-82930555D01*
X212932019Y-82952165D01*
X212924906Y-82975614D01*
X212922504Y-83000000D01*
X212877496Y-83000000D01*
X212875094Y-82975613D01*
X212867981Y-82952165D01*
X212856430Y-82930554D01*
X212840884Y-82911612D01*
X212821942Y-82896067D01*
X212800332Y-82884516D01*
X212757425Y-82866743D01*
X212757424Y-82866743D01*
X212757423Y-82866742D01*
X212708124Y-82833802D01*
X212666198Y-82791876D01*
X212633258Y-82742577D01*
X212633257Y-82742575D01*
X212610567Y-82687797D01*
X212599000Y-82629647D01*
X212599000Y-82570353D01*
X212610567Y-82512203D01*
X212633257Y-82457425D01*
X212633258Y-82457423D01*
X212666198Y-82408124D01*
X212708124Y-82366198D01*
X212757423Y-82333258D01*
X212770935Y-82327661D01*
X212800332Y-82315484D01*
X212821943Y-82303933D01*
X212840885Y-82288387D01*
X212856430Y-82269445D01*
X212867981Y-82247835D01*
X212875094Y-82224386D01*
X212877496Y-82200000D01*
X212922504Y-82200000D01*
X212924906Y-82224387D01*
X212932019Y-82247835D01*
X212943570Y-82269446D01*
X212959116Y-82288388D01*
X212978058Y-82303933D01*
X212999668Y-82315484D01*
X213029065Y-82327661D01*
X213042577Y-82333258D01*
X213091876Y-82366198D01*
X213133802Y-82408124D01*
X213166742Y-82457423D01*
X213166743Y-82457425D01*
X213184516Y-82500332D01*
X213196067Y-82521943D01*
X213211613Y-82540885D01*
X213230555Y-82556430D01*
X213252165Y-82567981D01*
X213275614Y-82575094D01*
X213300000Y-82577496D01*
X213324387Y-82575094D01*
X213347835Y-82567981D01*
X213369446Y-82556430D01*
X213388388Y-82540884D01*
X213403933Y-82521942D01*
X213415484Y-82500332D01*
X213433257Y-82457425D01*
X213433258Y-82457423D01*
X213466198Y-82408124D01*
X213508124Y-82366198D01*
X213557423Y-82333258D01*
X213570935Y-82327661D01*
X213600332Y-82315484D01*
X213621943Y-82303933D01*
X213640885Y-82288387D01*
X213656430Y-82269445D01*
X213667981Y-82247835D01*
X213675094Y-82224386D01*
X213677496Y-82200000D01*
X213722504Y-82200000D01*
X213724906Y-82224387D01*
X213732019Y-82247835D01*
X213743570Y-82269446D01*
X213759116Y-82288388D01*
X213778058Y-82303933D01*
X213799668Y-82315484D01*
X213829065Y-82327661D01*
X213842577Y-82333258D01*
X213891876Y-82366198D01*
X213933802Y-82408124D01*
X213966742Y-82457423D01*
X213966743Y-82457425D01*
X213984516Y-82500332D01*
X213996067Y-82521943D01*
X214011613Y-82540885D01*
X214030555Y-82556430D01*
X214052165Y-82567981D01*
X214075614Y-82575094D01*
X214100000Y-82577496D01*
X214124387Y-82575094D01*
X214147835Y-82567981D01*
X214169446Y-82556430D01*
X214188388Y-82540884D01*
X214203933Y-82521942D01*
X214215484Y-82500332D01*
X214233257Y-82457425D01*
X214233258Y-82457423D01*
X214266198Y-82408124D01*
X214308124Y-82366198D01*
X214357423Y-82333258D01*
X214370935Y-82327661D01*
X214400332Y-82315484D01*
X214421943Y-82303933D01*
X214440885Y-82288387D01*
X214456430Y-82269445D01*
X214467981Y-82247835D01*
X214475094Y-82224386D01*
X214477496Y-82200000D01*
X214522504Y-82200000D01*
X214524906Y-82224387D01*
X214532019Y-82247835D01*
X214543570Y-82269446D01*
X214559116Y-82288388D01*
X214578058Y-82303933D01*
X214599668Y-82315484D01*
X214629065Y-82327661D01*
X214642577Y-82333258D01*
X214691876Y-82366198D01*
X214733802Y-82408124D01*
X214766742Y-82457423D01*
X214766743Y-82457425D01*
X214784516Y-82500332D01*
X214796067Y-82521943D01*
X214811613Y-82540885D01*
X214830555Y-82556430D01*
X214852165Y-82567981D01*
X214875614Y-82575094D01*
X214900000Y-82577496D01*
X214924387Y-82575094D01*
X214947835Y-82567981D01*
X214969446Y-82556430D01*
X214988388Y-82540884D01*
X215003933Y-82521942D01*
X215015484Y-82500332D01*
X215033257Y-82457425D01*
X215033258Y-82457423D01*
X215066198Y-82408124D01*
X215108124Y-82366198D01*
X215157423Y-82333258D01*
X215170935Y-82327661D01*
X215200332Y-82315484D01*
X215221943Y-82303933D01*
X215240885Y-82288387D01*
X215256430Y-82269445D01*
X215267981Y-82247835D01*
X215275094Y-82224386D01*
X215277496Y-82200000D01*
X215322504Y-82200000D01*
X215324906Y-82224387D01*
X215332019Y-82247835D01*
X215343570Y-82269446D01*
X215359116Y-82288388D01*
X215378058Y-82303933D01*
X215399668Y-82315484D01*
X215429065Y-82327661D01*
X215442577Y-82333258D01*
X215491876Y-82366198D01*
X215533802Y-82408124D01*
X215566742Y-82457423D01*
X215566743Y-82457425D01*
X215584516Y-82500332D01*
X215596067Y-82521943D01*
X215611613Y-82540885D01*
X215630555Y-82556430D01*
X215652165Y-82567981D01*
X215675614Y-82575094D01*
X215700000Y-82577496D01*
X215724387Y-82575094D01*
X215747835Y-82567981D01*
X215769446Y-82556430D01*
X215788388Y-82540884D01*
X215803933Y-82521942D01*
X215815484Y-82500332D01*
X215833257Y-82457425D01*
X215833258Y-82457423D01*
X215866198Y-82408124D01*
X215908124Y-82366198D01*
X215957423Y-82333258D01*
X215970935Y-82327661D01*
X216000332Y-82315484D01*
X216021943Y-82303933D01*
X216040885Y-82288387D01*
X216056430Y-82269445D01*
X216067981Y-82247835D01*
X216075094Y-82224386D01*
X216077496Y-82200000D01*
X216122504Y-82200000D01*
X216124906Y-82224387D01*
X216132019Y-82247835D01*
X216143570Y-82269446D01*
X216159116Y-82288388D01*
X216178058Y-82303933D01*
X216199668Y-82315484D01*
X216229065Y-82327661D01*
X216242577Y-82333258D01*
X216291876Y-82366198D01*
X216333802Y-82408124D01*
X216366742Y-82457423D01*
X216366743Y-82457425D01*
X216384516Y-82500332D01*
X216396067Y-82521943D01*
X216411613Y-82540885D01*
X216430555Y-82556430D01*
X216452165Y-82567981D01*
X216475614Y-82575094D01*
X216500000Y-82577496D01*
X216524387Y-82575094D01*
X216547835Y-82567981D01*
X216569446Y-82556430D01*
X216588388Y-82540884D01*
X216603933Y-82521942D01*
X216615484Y-82500332D01*
X216633257Y-82457425D01*
X216633258Y-82457423D01*
X216666198Y-82408124D01*
X216708124Y-82366198D01*
X216757423Y-82333258D01*
X216770935Y-82327661D01*
X216800332Y-82315484D01*
X216821943Y-82303933D01*
X216840885Y-82288387D01*
X216856430Y-82269445D01*
X216867981Y-82247835D01*
X216875094Y-82224386D01*
X216877496Y-82200000D01*
X216922504Y-82200000D01*
X216924906Y-82224387D01*
X216932019Y-82247835D01*
X216943570Y-82269446D01*
X216959116Y-82288388D01*
X216978058Y-82303933D01*
X216999668Y-82315484D01*
X217029065Y-82327661D01*
X217042577Y-82333258D01*
X217091876Y-82366198D01*
X217133802Y-82408124D01*
X217166742Y-82457423D01*
X217166743Y-82457425D01*
X217184516Y-82500332D01*
X217196067Y-82521943D01*
X217211613Y-82540885D01*
X217230555Y-82556430D01*
X217252165Y-82567981D01*
X217275614Y-82575094D01*
X217300000Y-82577496D01*
X217324387Y-82575094D01*
X217347835Y-82567981D01*
X217369446Y-82556430D01*
X217388388Y-82540884D01*
X217403933Y-82521942D01*
X217415484Y-82500332D01*
X217433257Y-82457425D01*
X217433258Y-82457423D01*
X217466198Y-82408124D01*
X217508124Y-82366198D01*
X217557423Y-82333258D01*
X217570935Y-82327661D01*
X217600332Y-82315484D01*
X217621943Y-82303933D01*
X217640885Y-82288387D01*
X217656430Y-82269445D01*
X217667981Y-82247835D01*
X217675094Y-82224386D01*
X217677496Y-82200000D01*
X217722504Y-82200000D01*
X217724906Y-82224387D01*
X217732019Y-82247835D01*
X217743570Y-82269446D01*
X217759116Y-82288388D01*
X217778058Y-82303933D01*
X217799668Y-82315484D01*
X217829065Y-82327661D01*
X217842577Y-82333258D01*
X217891876Y-82366198D01*
X217933802Y-82408124D01*
X217966742Y-82457423D01*
X217966743Y-82457425D01*
X217984516Y-82500332D01*
X217996067Y-82521943D01*
X218011613Y-82540885D01*
X218030555Y-82556430D01*
X218052165Y-82567981D01*
X218075614Y-82575094D01*
X218100000Y-82577496D01*
X218124387Y-82575094D01*
X218147835Y-82567981D01*
X218169446Y-82556430D01*
X218188388Y-82540884D01*
X218203933Y-82521942D01*
X218215484Y-82500332D01*
X218233257Y-82457425D01*
X218233258Y-82457423D01*
X218266198Y-82408124D01*
X218308124Y-82366198D01*
X218357423Y-82333258D01*
X218370935Y-82327661D01*
X218400332Y-82315484D01*
X218421943Y-82303933D01*
X218440885Y-82288387D01*
X218456430Y-82269445D01*
X218467981Y-82247835D01*
X218475094Y-82224386D01*
X218477496Y-82200000D01*
X218475094Y-82175613D01*
X218467981Y-82152165D01*
X218456430Y-82130554D01*
X218440884Y-82111612D01*
X218421942Y-82096067D01*
X218400332Y-82084516D01*
X218357425Y-82066743D01*
X218357424Y-82066743D01*
X218357423Y-82066742D01*
X218308124Y-82033802D01*
X218266198Y-81991876D01*
X218233258Y-81942577D01*
X218233257Y-81942575D01*
X218215484Y-81899668D01*
X218203933Y-81878057D01*
X218188387Y-81859115D01*
X218169445Y-81843570D01*
X218147835Y-81832019D01*
X218124386Y-81824906D01*
X218100000Y-81822504D01*
X218075613Y-81824906D01*
X218052165Y-81832019D01*
X218030554Y-81843570D01*
X218011612Y-81859116D01*
X217996067Y-81878058D01*
X217984516Y-81899668D01*
X217966743Y-81942575D01*
X217966742Y-81942577D01*
X217933802Y-81991876D01*
X217891876Y-82033802D01*
X217842577Y-82066742D01*
X217842576Y-82066743D01*
X217842575Y-82066743D01*
X217799668Y-82084516D01*
X217778057Y-82096067D01*
X217759115Y-82111613D01*
X217743570Y-82130555D01*
X217732019Y-82152165D01*
X217724906Y-82175614D01*
X217722504Y-82200000D01*
X217677496Y-82200000D01*
X217675094Y-82175613D01*
X217667981Y-82152165D01*
X217656430Y-82130554D01*
X217640884Y-82111612D01*
X217621942Y-82096067D01*
X217600332Y-82084516D01*
X217557425Y-82066743D01*
X217557424Y-82066743D01*
X217557423Y-82066742D01*
X217508124Y-82033802D01*
X217466198Y-81991876D01*
X217433258Y-81942577D01*
X217433257Y-81942575D01*
X217415484Y-81899668D01*
X217403933Y-81878057D01*
X217388387Y-81859115D01*
X217369445Y-81843570D01*
X217347835Y-81832019D01*
X217324386Y-81824906D01*
X217300000Y-81822504D01*
X217275613Y-81824906D01*
X217252165Y-81832019D01*
X217230554Y-81843570D01*
X217211612Y-81859116D01*
X217196067Y-81878058D01*
X217184516Y-81899668D01*
X217166743Y-81942575D01*
X217166742Y-81942577D01*
X217133802Y-81991876D01*
X217091876Y-82033802D01*
X217042577Y-82066742D01*
X217042576Y-82066743D01*
X217042575Y-82066743D01*
X216999668Y-82084516D01*
X216978057Y-82096067D01*
X216959115Y-82111613D01*
X216943570Y-82130555D01*
X216932019Y-82152165D01*
X216924906Y-82175614D01*
X216922504Y-82200000D01*
X216877496Y-82200000D01*
X216875094Y-82175613D01*
X216867981Y-82152165D01*
X216856430Y-82130554D01*
X216840884Y-82111612D01*
X216821942Y-82096067D01*
X216800332Y-82084516D01*
X216757425Y-82066743D01*
X216757424Y-82066743D01*
X216757423Y-82066742D01*
X216708124Y-82033802D01*
X216666198Y-81991876D01*
X216633258Y-81942577D01*
X216633257Y-81942575D01*
X216615484Y-81899668D01*
X216603933Y-81878057D01*
X216588387Y-81859115D01*
X216569445Y-81843570D01*
X216547835Y-81832019D01*
X216524386Y-81824906D01*
X216500000Y-81822504D01*
X216475613Y-81824906D01*
X216452165Y-81832019D01*
X216430554Y-81843570D01*
X216411612Y-81859116D01*
X216396067Y-81878058D01*
X216384516Y-81899668D01*
X216366743Y-81942575D01*
X216366742Y-81942577D01*
X216333802Y-81991876D01*
X216291876Y-82033802D01*
X216242577Y-82066742D01*
X216242576Y-82066743D01*
X216242575Y-82066743D01*
X216199668Y-82084516D01*
X216178057Y-82096067D01*
X216159115Y-82111613D01*
X216143570Y-82130555D01*
X216132019Y-82152165D01*
X216124906Y-82175614D01*
X216122504Y-82200000D01*
X216077496Y-82200000D01*
X216075094Y-82175613D01*
X216067981Y-82152165D01*
X216056430Y-82130554D01*
X216040884Y-82111612D01*
X216021942Y-82096067D01*
X216000332Y-82084516D01*
X215957425Y-82066743D01*
X215957424Y-82066743D01*
X215957423Y-82066742D01*
X215908124Y-82033802D01*
X215866198Y-81991876D01*
X215833258Y-81942577D01*
X215833257Y-81942575D01*
X215815484Y-81899668D01*
X215803933Y-81878057D01*
X215788387Y-81859115D01*
X215769445Y-81843570D01*
X215747835Y-81832019D01*
X215724386Y-81824906D01*
X215700000Y-81822504D01*
X215675613Y-81824906D01*
X215652165Y-81832019D01*
X215630554Y-81843570D01*
X215611612Y-81859116D01*
X215596067Y-81878058D01*
X215584516Y-81899668D01*
X215566743Y-81942575D01*
X215566742Y-81942577D01*
X215533802Y-81991876D01*
X215491876Y-82033802D01*
X215442577Y-82066742D01*
X215442576Y-82066743D01*
X215442575Y-82066743D01*
X215399668Y-82084516D01*
X215378057Y-82096067D01*
X215359115Y-82111613D01*
X215343570Y-82130555D01*
X215332019Y-82152165D01*
X215324906Y-82175614D01*
X215322504Y-82200000D01*
X215277496Y-82200000D01*
X215275094Y-82175613D01*
X215267981Y-82152165D01*
X215256430Y-82130554D01*
X215240884Y-82111612D01*
X215221942Y-82096067D01*
X215200332Y-82084516D01*
X215157425Y-82066743D01*
X215157424Y-82066743D01*
X215157423Y-82066742D01*
X215108124Y-82033802D01*
X215066198Y-81991876D01*
X215033258Y-81942577D01*
X215033257Y-81942575D01*
X215015484Y-81899668D01*
X215003933Y-81878057D01*
X214988387Y-81859115D01*
X214969445Y-81843570D01*
X214947835Y-81832019D01*
X214924386Y-81824906D01*
X214900000Y-81822504D01*
X214875613Y-81824906D01*
X214852165Y-81832019D01*
X214830554Y-81843570D01*
X214811612Y-81859116D01*
X214796067Y-81878058D01*
X214784516Y-81899668D01*
X214766743Y-81942575D01*
X214766742Y-81942577D01*
X214733802Y-81991876D01*
X214691876Y-82033802D01*
X214642577Y-82066742D01*
X214642576Y-82066743D01*
X214642575Y-82066743D01*
X214599668Y-82084516D01*
X214578057Y-82096067D01*
X214559115Y-82111613D01*
X214543570Y-82130555D01*
X214532019Y-82152165D01*
X214524906Y-82175614D01*
X214522504Y-82200000D01*
X214477496Y-82200000D01*
X214475094Y-82175613D01*
X214467981Y-82152165D01*
X214456430Y-82130554D01*
X214440884Y-82111612D01*
X214421942Y-82096067D01*
X214400332Y-82084516D01*
X214357425Y-82066743D01*
X214357424Y-82066743D01*
X214357423Y-82066742D01*
X214308124Y-82033802D01*
X214266198Y-81991876D01*
X214233258Y-81942577D01*
X214233257Y-81942575D01*
X214215484Y-81899668D01*
X214203933Y-81878057D01*
X214188387Y-81859115D01*
X214169445Y-81843570D01*
X214147835Y-81832019D01*
X214124386Y-81824906D01*
X214100000Y-81822504D01*
X214075613Y-81824906D01*
X214052165Y-81832019D01*
X214030554Y-81843570D01*
X214011612Y-81859116D01*
X213996067Y-81878058D01*
X213984516Y-81899668D01*
X213966743Y-81942575D01*
X213966742Y-81942577D01*
X213933802Y-81991876D01*
X213891876Y-82033802D01*
X213842577Y-82066742D01*
X213842576Y-82066743D01*
X213842575Y-82066743D01*
X213799668Y-82084516D01*
X213778057Y-82096067D01*
X213759115Y-82111613D01*
X213743570Y-82130555D01*
X213732019Y-82152165D01*
X213724906Y-82175614D01*
X213722504Y-82200000D01*
X213677496Y-82200000D01*
X213675094Y-82175613D01*
X213667981Y-82152165D01*
X213656430Y-82130554D01*
X213640884Y-82111612D01*
X213621942Y-82096067D01*
X213600332Y-82084516D01*
X213557425Y-82066743D01*
X213557424Y-82066743D01*
X213557423Y-82066742D01*
X213508124Y-82033802D01*
X213466198Y-81991876D01*
X213433258Y-81942577D01*
X213433257Y-81942575D01*
X213415484Y-81899668D01*
X213403933Y-81878057D01*
X213388387Y-81859115D01*
X213369445Y-81843570D01*
X213347835Y-81832019D01*
X213324386Y-81824906D01*
X213300000Y-81822504D01*
X213275613Y-81824906D01*
X213252165Y-81832019D01*
X213230554Y-81843570D01*
X213211612Y-81859116D01*
X213196067Y-81878058D01*
X213184516Y-81899668D01*
X213166743Y-81942575D01*
X213166742Y-81942577D01*
X213133802Y-81991876D01*
X213091876Y-82033802D01*
X213042577Y-82066742D01*
X213042576Y-82066743D01*
X213042575Y-82066743D01*
X212999668Y-82084516D01*
X212978057Y-82096067D01*
X212959115Y-82111613D01*
X212943570Y-82130555D01*
X212932019Y-82152165D01*
X212924906Y-82175614D01*
X212922504Y-82200000D01*
X212877496Y-82200000D01*
X212875094Y-82175613D01*
X212867981Y-82152165D01*
X212856430Y-82130554D01*
X212840884Y-82111612D01*
X212821942Y-82096067D01*
X212800332Y-82084516D01*
X212757425Y-82066743D01*
X212757424Y-82066743D01*
X212757423Y-82066742D01*
X212708124Y-82033802D01*
X212666198Y-81991876D01*
X212633258Y-81942577D01*
X212633257Y-81942575D01*
X212610567Y-81887797D01*
X212599000Y-81829647D01*
X212599000Y-81770353D01*
X212610567Y-81712203D01*
X212633257Y-81657425D01*
X212633258Y-81657423D01*
X212666198Y-81608124D01*
X212708124Y-81566198D01*
X212757423Y-81533258D01*
X212757425Y-81533257D01*
X212812203Y-81510567D01*
X212870353Y-81499000D01*
X212929647Y-81499000D01*
X212987797Y-81510567D01*
G37*
G36*
X221581000Y-87426000D02*
G01*
X220419000Y-87426000D01*
X220419000Y-84774000D01*
X221581000Y-84774000D01*
X221581000Y-87426000D01*
G37*
G36*
X223781000Y-87426000D02*
G01*
X222619000Y-87426000D01*
X222619000Y-84774000D01*
X223781000Y-84774000D01*
X223781000Y-87426000D01*
G37*
G36*
X210956938Y-86431716D02*
G01*
X210977557Y-86437971D01*
X210996553Y-86448124D01*
X211013208Y-86461792D01*
X211026876Y-86478447D01*
X211037029Y-86497443D01*
X211043284Y-86518062D01*
X211046000Y-86545640D01*
X211046000Y-87054360D01*
X211043284Y-87081938D01*
X211037029Y-87102557D01*
X211026876Y-87121553D01*
X211013208Y-87138208D01*
X210996553Y-87151876D01*
X210977557Y-87162029D01*
X210956938Y-87168284D01*
X210929360Y-87171000D01*
X210470640Y-87171000D01*
X210443062Y-87168284D01*
X210422443Y-87162029D01*
X210403447Y-87151876D01*
X210386792Y-87138208D01*
X210373124Y-87121553D01*
X210362971Y-87102557D01*
X210356716Y-87081938D01*
X210354000Y-87054360D01*
X210354000Y-86545640D01*
X210356716Y-86518062D01*
X210362971Y-86497443D01*
X210373124Y-86478447D01*
X210386792Y-86461792D01*
X210403447Y-86448124D01*
X210422443Y-86437971D01*
X210443062Y-86431716D01*
X210470640Y-86429000D01*
X210929360Y-86429000D01*
X210956938Y-86431716D01*
G37*
G36*
X209986938Y-86431716D02*
G01*
X210007557Y-86437971D01*
X210026553Y-86448124D01*
X210043208Y-86461792D01*
X210056876Y-86478447D01*
X210067029Y-86497443D01*
X210073284Y-86518062D01*
X210076000Y-86545640D01*
X210076000Y-87054360D01*
X210073284Y-87081938D01*
X210067029Y-87102557D01*
X210056876Y-87121553D01*
X210043208Y-87138208D01*
X210026553Y-87151876D01*
X210007557Y-87162029D01*
X209986938Y-87168284D01*
X209959360Y-87171000D01*
X209500640Y-87171000D01*
X209473062Y-87168284D01*
X209452443Y-87162029D01*
X209433447Y-87151876D01*
X209416792Y-87138208D01*
X209403124Y-87121553D01*
X209392971Y-87102557D01*
X209386716Y-87081938D01*
X209384000Y-87054360D01*
X209384000Y-86545640D01*
X209386716Y-86518062D01*
X209392971Y-86497443D01*
X209403124Y-86478447D01*
X209416792Y-86461792D01*
X209433447Y-86448124D01*
X209452443Y-86437971D01*
X209473062Y-86431716D01*
X209500640Y-86429000D01*
X209959360Y-86429000D01*
X209986938Y-86431716D01*
G37*
G36*
X208481000Y-87111000D02*
G01*
X206079000Y-87111000D01*
X206079000Y-86409000D01*
X208481000Y-86409000D01*
X208481000Y-87111000D01*
G37*
G36*
X209961938Y-85331716D02*
G01*
X209982557Y-85337971D01*
X210001553Y-85348124D01*
X210018208Y-85361792D01*
X210031876Y-85378447D01*
X210042029Y-85397443D01*
X210048284Y-85418062D01*
X210051000Y-85445640D01*
X210051000Y-85954360D01*
X210048284Y-85981938D01*
X210042029Y-86002557D01*
X210031876Y-86021553D01*
X210018208Y-86038208D01*
X210001553Y-86051876D01*
X209982557Y-86062029D01*
X209961938Y-86068284D01*
X209934360Y-86071000D01*
X209475640Y-86071000D01*
X209448062Y-86068284D01*
X209427443Y-86062029D01*
X209408447Y-86051876D01*
X209391792Y-86038208D01*
X209378124Y-86021553D01*
X209367971Y-86002557D01*
X209361716Y-85981938D01*
X209359000Y-85954360D01*
X209359000Y-85445640D01*
X209361716Y-85418062D01*
X209367971Y-85397443D01*
X209378124Y-85378447D01*
X209391792Y-85361792D01*
X209408447Y-85348124D01*
X209427443Y-85337971D01*
X209448062Y-85331716D01*
X209475640Y-85329000D01*
X209934360Y-85329000D01*
X209961938Y-85331716D01*
G37*
G36*
X210931938Y-85331716D02*
G01*
X210952557Y-85337971D01*
X210971553Y-85348124D01*
X210988208Y-85361792D01*
X211001876Y-85378447D01*
X211012029Y-85397443D01*
X211018284Y-85418062D01*
X211021000Y-85445640D01*
X211021000Y-85954360D01*
X211018284Y-85981938D01*
X211012029Y-86002557D01*
X211001876Y-86021553D01*
X210988208Y-86038208D01*
X210971553Y-86051876D01*
X210952557Y-86062029D01*
X210931938Y-86068284D01*
X210904360Y-86071000D01*
X210445640Y-86071000D01*
X210418062Y-86068284D01*
X210397443Y-86062029D01*
X210378447Y-86051876D01*
X210361792Y-86038208D01*
X210348124Y-86021553D01*
X210337971Y-86002557D01*
X210331716Y-85981938D01*
X210329000Y-85954360D01*
X210329000Y-85445640D01*
X210331716Y-85418062D01*
X210337971Y-85397443D01*
X210348124Y-85378447D01*
X210361792Y-85361792D01*
X210378447Y-85348124D01*
X210397443Y-85337971D01*
X210418062Y-85331716D01*
X210445640Y-85329000D01*
X210904360Y-85329000D01*
X210931938Y-85331716D01*
G37*
G36*
X208481000Y-85841000D02*
G01*
X206479000Y-85841000D01*
X206479000Y-85139000D01*
X208481000Y-85139000D01*
X208481000Y-85841000D01*
G37*
G36*
X209961938Y-84231716D02*
G01*
X209982557Y-84237971D01*
X210001553Y-84248124D01*
X210018208Y-84261792D01*
X210031876Y-84278447D01*
X210042029Y-84297443D01*
X210048284Y-84318062D01*
X210051000Y-84345640D01*
X210051000Y-84854360D01*
X210048284Y-84881938D01*
X210042029Y-84902557D01*
X210031876Y-84921553D01*
X210018208Y-84938208D01*
X210001553Y-84951876D01*
X209982557Y-84962029D01*
X209961938Y-84968284D01*
X209934360Y-84971000D01*
X209475640Y-84971000D01*
X209448062Y-84968284D01*
X209427443Y-84962029D01*
X209408447Y-84951876D01*
X209391792Y-84938208D01*
X209378124Y-84921553D01*
X209367971Y-84902557D01*
X209361716Y-84881938D01*
X209359000Y-84854360D01*
X209359000Y-84345640D01*
X209361716Y-84318062D01*
X209367971Y-84297443D01*
X209378124Y-84278447D01*
X209391792Y-84261792D01*
X209408447Y-84248124D01*
X209427443Y-84237971D01*
X209448062Y-84231716D01*
X209475640Y-84229000D01*
X209934360Y-84229000D01*
X209961938Y-84231716D01*
G37*
G36*
X210931938Y-84231716D02*
G01*
X210952557Y-84237971D01*
X210971553Y-84248124D01*
X210988208Y-84261792D01*
X211001876Y-84278447D01*
X211012029Y-84297443D01*
X211018284Y-84318062D01*
X211021000Y-84345640D01*
X211021000Y-84854360D01*
X211018284Y-84881938D01*
X211012029Y-84902557D01*
X211001876Y-84921553D01*
X210988208Y-84938208D01*
X210971553Y-84951876D01*
X210952557Y-84962029D01*
X210931938Y-84968284D01*
X210904360Y-84971000D01*
X210445640Y-84971000D01*
X210418062Y-84968284D01*
X210397443Y-84962029D01*
X210378447Y-84951876D01*
X210361792Y-84938208D01*
X210348124Y-84921553D01*
X210337971Y-84902557D01*
X210331716Y-84881938D01*
X210329000Y-84854360D01*
X210329000Y-84345640D01*
X210331716Y-84318062D01*
X210337971Y-84297443D01*
X210348124Y-84278447D01*
X210361792Y-84261792D01*
X210378447Y-84248124D01*
X210397443Y-84237971D01*
X210418062Y-84231716D01*
X210445640Y-84229000D01*
X210904360Y-84229000D01*
X210931938Y-84231716D01*
G37*
G36*
X208481000Y-84571000D02*
G01*
X207079000Y-84571000D01*
X207079000Y-83869000D01*
X208481000Y-83869000D01*
X208481000Y-84571000D01*
G37*
G36*
X220886938Y-83331716D02*
G01*
X220907557Y-83337971D01*
X220926553Y-83348124D01*
X220943208Y-83361792D01*
X220956876Y-83378447D01*
X220967029Y-83397443D01*
X220973284Y-83418062D01*
X220976000Y-83445640D01*
X220976000Y-83954360D01*
X220973284Y-83981938D01*
X220967029Y-84002557D01*
X220956876Y-84021553D01*
X220943208Y-84038208D01*
X220926553Y-84051876D01*
X220907557Y-84062029D01*
X220886938Y-84068284D01*
X220859360Y-84071000D01*
X220400640Y-84071000D01*
X220373062Y-84068284D01*
X220352443Y-84062029D01*
X220333447Y-84051876D01*
X220316792Y-84038208D01*
X220303124Y-84021553D01*
X220292971Y-84002557D01*
X220286716Y-83981938D01*
X220284000Y-83954360D01*
X220284000Y-83445640D01*
X220286716Y-83418062D01*
X220292971Y-83397443D01*
X220303124Y-83378447D01*
X220316792Y-83361792D01*
X220333447Y-83348124D01*
X220352443Y-83337971D01*
X220373062Y-83331716D01*
X220400640Y-83329000D01*
X220859360Y-83329000D01*
X220886938Y-83331716D01*
G37*
G36*
X221856938Y-83331716D02*
G01*
X221877557Y-83337971D01*
X221896553Y-83348124D01*
X221913208Y-83361792D01*
X221926876Y-83378447D01*
X221937029Y-83397443D01*
X221943284Y-83418062D01*
X221946000Y-83445640D01*
X221946000Y-83954360D01*
X221943284Y-83981938D01*
X221937029Y-84002557D01*
X221926876Y-84021553D01*
X221913208Y-84038208D01*
X221896553Y-84051876D01*
X221877557Y-84062029D01*
X221856938Y-84068284D01*
X221829360Y-84071000D01*
X221370640Y-84071000D01*
X221343062Y-84068284D01*
X221322443Y-84062029D01*
X221303447Y-84051876D01*
X221286792Y-84038208D01*
X221273124Y-84021553D01*
X221262971Y-84002557D01*
X221256716Y-83981938D01*
X221254000Y-83954360D01*
X221254000Y-83445640D01*
X221256716Y-83418062D01*
X221262971Y-83397443D01*
X221273124Y-83378447D01*
X221286792Y-83361792D01*
X221303447Y-83348124D01*
X221322443Y-83337971D01*
X221343062Y-83331716D01*
X221370640Y-83329000D01*
X221829360Y-83329000D01*
X221856938Y-83331716D01*
G37*
G36*
X222886938Y-83331716D02*
G01*
X222907557Y-83337971D01*
X222926553Y-83348124D01*
X222943208Y-83361792D01*
X222956876Y-83378447D01*
X222967029Y-83397443D01*
X222973284Y-83418062D01*
X222976000Y-83445640D01*
X222976000Y-83954360D01*
X222973284Y-83981938D01*
X222967029Y-84002557D01*
X222956876Y-84021553D01*
X222943208Y-84038208D01*
X222926553Y-84051876D01*
X222907557Y-84062029D01*
X222886938Y-84068284D01*
X222859360Y-84071000D01*
X222400640Y-84071000D01*
X222373062Y-84068284D01*
X222352443Y-84062029D01*
X222333447Y-84051876D01*
X222316792Y-84038208D01*
X222303124Y-84021553D01*
X222292971Y-84002557D01*
X222286716Y-83981938D01*
X222284000Y-83954360D01*
X222284000Y-83445640D01*
X222286716Y-83418062D01*
X222292971Y-83397443D01*
X222303124Y-83378447D01*
X222316792Y-83361792D01*
X222333447Y-83348124D01*
X222352443Y-83337971D01*
X222373062Y-83331716D01*
X222400640Y-83329000D01*
X222859360Y-83329000D01*
X222886938Y-83331716D01*
G37*
G36*
X223856938Y-83331716D02*
G01*
X223877557Y-83337971D01*
X223896553Y-83348124D01*
X223913208Y-83361792D01*
X223926876Y-83378447D01*
X223937029Y-83397443D01*
X223943284Y-83418062D01*
X223946000Y-83445640D01*
X223946000Y-83954360D01*
X223943284Y-83981938D01*
X223937029Y-84002557D01*
X223926876Y-84021553D01*
X223913208Y-84038208D01*
X223896553Y-84051876D01*
X223877557Y-84062029D01*
X223856938Y-84068284D01*
X223829360Y-84071000D01*
X223370640Y-84071000D01*
X223343062Y-84068284D01*
X223322443Y-84062029D01*
X223303447Y-84051876D01*
X223286792Y-84038208D01*
X223273124Y-84021553D01*
X223262971Y-84002557D01*
X223256716Y-83981938D01*
X223254000Y-83954360D01*
X223254000Y-83445640D01*
X223256716Y-83418062D01*
X223262971Y-83397443D01*
X223273124Y-83378447D01*
X223286792Y-83361792D01*
X223303447Y-83348124D01*
X223322443Y-83337971D01*
X223343062Y-83331716D01*
X223370640Y-83329000D01*
X223829360Y-83329000D01*
X223856938Y-83331716D01*
G37*
G36*
X209354591Y-82278085D02*
G01*
X209388569Y-82288393D01*
X209419890Y-82305134D01*
X209447339Y-82327661D01*
X209469866Y-82355110D01*
X209486607Y-82386431D01*
X209496915Y-82420409D01*
X209501000Y-82461890D01*
X209501000Y-83138110D01*
X209496915Y-83179591D01*
X209486607Y-83213569D01*
X209469866Y-83244890D01*
X209447339Y-83272339D01*
X209419890Y-83294866D01*
X209388569Y-83311607D01*
X209354591Y-83321915D01*
X209313110Y-83326000D01*
X208711890Y-83326000D01*
X208670409Y-83321915D01*
X208636431Y-83311607D01*
X208605110Y-83294866D01*
X208577661Y-83272339D01*
X208555134Y-83244890D01*
X208538393Y-83213569D01*
X208528085Y-83179591D01*
X208524000Y-83138110D01*
X208524000Y-82461890D01*
X208528085Y-82420409D01*
X208538393Y-82386431D01*
X208555134Y-82355110D01*
X208577661Y-82327661D01*
X208605110Y-82305134D01*
X208636431Y-82288393D01*
X208670409Y-82278085D01*
X208711890Y-82274000D01*
X209313110Y-82274000D01*
X209354591Y-82278085D01*
G37*
G36*
X210929591Y-82278085D02*
G01*
X210963569Y-82288393D01*
X210994890Y-82305134D01*
X211022339Y-82327661D01*
X211044866Y-82355110D01*
X211061607Y-82386431D01*
X211071915Y-82420409D01*
X211076000Y-82461890D01*
X211076000Y-83138110D01*
X211071915Y-83179591D01*
X211061607Y-83213569D01*
X211044866Y-83244890D01*
X211022339Y-83272339D01*
X210994890Y-83294866D01*
X210963569Y-83311607D01*
X210929591Y-83321915D01*
X210888110Y-83326000D01*
X210286890Y-83326000D01*
X210245409Y-83321915D01*
X210211431Y-83311607D01*
X210180110Y-83294866D01*
X210152661Y-83272339D01*
X210130134Y-83244890D01*
X210113393Y-83213569D01*
X210103085Y-83179591D01*
X210099000Y-83138110D01*
X210099000Y-82461890D01*
X210103085Y-82420409D01*
X210113393Y-82386431D01*
X210130134Y-82355110D01*
X210152661Y-82327661D01*
X210180110Y-82305134D01*
X210211431Y-82288393D01*
X210245409Y-82278085D01*
X210286890Y-82274000D01*
X210888110Y-82274000D01*
X210929591Y-82278085D01*
G37*
G36*
X221876938Y-82231716D02*
G01*
X221897557Y-82237971D01*
X221916553Y-82248124D01*
X221933208Y-82261792D01*
X221946876Y-82278447D01*
X221957029Y-82297443D01*
X221963284Y-82318062D01*
X221966000Y-82345640D01*
X221966000Y-82854360D01*
X221963284Y-82881938D01*
X221957029Y-82902557D01*
X221946876Y-82921553D01*
X221933208Y-82938208D01*
X221916553Y-82951876D01*
X221897557Y-82962029D01*
X221876938Y-82968284D01*
X221849360Y-82971000D01*
X221390640Y-82971000D01*
X221363062Y-82968284D01*
X221342443Y-82962029D01*
X221323447Y-82951876D01*
X221306792Y-82938208D01*
X221293124Y-82921553D01*
X221282971Y-82902557D01*
X221276716Y-82881938D01*
X221274000Y-82854360D01*
X221274000Y-82345640D01*
X221276716Y-82318062D01*
X221282971Y-82297443D01*
X221293124Y-82278447D01*
X221306792Y-82261792D01*
X221323447Y-82248124D01*
X221342443Y-82237971D01*
X221363062Y-82231716D01*
X221390640Y-82229000D01*
X221849360Y-82229000D01*
X221876938Y-82231716D01*
G37*
G36*
X220906938Y-82231716D02*
G01*
X220927557Y-82237971D01*
X220946553Y-82248124D01*
X220963208Y-82261792D01*
X220976876Y-82278447D01*
X220987029Y-82297443D01*
X220993284Y-82318062D01*
X220996000Y-82345640D01*
X220996000Y-82854360D01*
X220993284Y-82881938D01*
X220987029Y-82902557D01*
X220976876Y-82921553D01*
X220963208Y-82938208D01*
X220946553Y-82951876D01*
X220927557Y-82962029D01*
X220906938Y-82968284D01*
X220879360Y-82971000D01*
X220420640Y-82971000D01*
X220393062Y-82968284D01*
X220372443Y-82962029D01*
X220353447Y-82951876D01*
X220336792Y-82938208D01*
X220323124Y-82921553D01*
X220312971Y-82902557D01*
X220306716Y-82881938D01*
X220304000Y-82854360D01*
X220304000Y-82345640D01*
X220306716Y-82318062D01*
X220312971Y-82297443D01*
X220323124Y-82278447D01*
X220336792Y-82261792D01*
X220353447Y-82248124D01*
X220372443Y-82237971D01*
X220393062Y-82231716D01*
X220420640Y-82229000D01*
X220879360Y-82229000D01*
X220906938Y-82231716D01*
G37*
G36*
X210086938Y-81131716D02*
G01*
X210107557Y-81137971D01*
X210126553Y-81148124D01*
X210143208Y-81161792D01*
X210156876Y-81178447D01*
X210167029Y-81197443D01*
X210173284Y-81218062D01*
X210176000Y-81245640D01*
X210176000Y-81754360D01*
X210173284Y-81781938D01*
X210167029Y-81802557D01*
X210156876Y-81821553D01*
X210143208Y-81838208D01*
X210126553Y-81851876D01*
X210107557Y-81862029D01*
X210086938Y-81868284D01*
X210059360Y-81871000D01*
X209600640Y-81871000D01*
X209573062Y-81868284D01*
X209552443Y-81862029D01*
X209533447Y-81851876D01*
X209516792Y-81838208D01*
X209503124Y-81821553D01*
X209492971Y-81802557D01*
X209486716Y-81781938D01*
X209484000Y-81754360D01*
X209484000Y-81245640D01*
X209486716Y-81218062D01*
X209492971Y-81197443D01*
X209503124Y-81178447D01*
X209516792Y-81161792D01*
X209533447Y-81148124D01*
X209552443Y-81137971D01*
X209573062Y-81131716D01*
X209600640Y-81129000D01*
X210059360Y-81129000D01*
X210086938Y-81131716D01*
G37*
G36*
X211056938Y-81131716D02*
G01*
X211077557Y-81137971D01*
X211096553Y-81148124D01*
X211113208Y-81161792D01*
X211126876Y-81178447D01*
X211137029Y-81197443D01*
X211143284Y-81218062D01*
X211146000Y-81245640D01*
X211146000Y-81754360D01*
X211143284Y-81781938D01*
X211137029Y-81802557D01*
X211126876Y-81821553D01*
X211113208Y-81838208D01*
X211096553Y-81851876D01*
X211077557Y-81862029D01*
X211056938Y-81868284D01*
X211029360Y-81871000D01*
X210570640Y-81871000D01*
X210543062Y-81868284D01*
X210522443Y-81862029D01*
X210503447Y-81851876D01*
X210486792Y-81838208D01*
X210473124Y-81821553D01*
X210462971Y-81802557D01*
X210456716Y-81781938D01*
X210454000Y-81754360D01*
X210454000Y-81245640D01*
X210456716Y-81218062D01*
X210462971Y-81197443D01*
X210473124Y-81178447D01*
X210486792Y-81161792D01*
X210503447Y-81148124D01*
X210522443Y-81137971D01*
X210543062Y-81131716D01*
X210570640Y-81129000D01*
X211029360Y-81129000D01*
X211056938Y-81131716D01*
G37*
G36*
X220886938Y-81131716D02*
G01*
X220907557Y-81137971D01*
X220926553Y-81148124D01*
X220943208Y-81161792D01*
X220956876Y-81178447D01*
X220967029Y-81197443D01*
X220973284Y-81218062D01*
X220976000Y-81245640D01*
X220976000Y-81754360D01*
X220973284Y-81781938D01*
X220967029Y-81802557D01*
X220956876Y-81821553D01*
X220943208Y-81838208D01*
X220926553Y-81851876D01*
X220907557Y-81862029D01*
X220886938Y-81868284D01*
X220859360Y-81871000D01*
X220400640Y-81871000D01*
X220373062Y-81868284D01*
X220352443Y-81862029D01*
X220333447Y-81851876D01*
X220316792Y-81838208D01*
X220303124Y-81821553D01*
X220292971Y-81802557D01*
X220286716Y-81781938D01*
X220284000Y-81754360D01*
X220284000Y-81245640D01*
X220286716Y-81218062D01*
X220292971Y-81197443D01*
X220303124Y-81178447D01*
X220316792Y-81161792D01*
X220333447Y-81148124D01*
X220352443Y-81137971D01*
X220373062Y-81131716D01*
X220400640Y-81129000D01*
X220859360Y-81129000D01*
X220886938Y-81131716D01*
G37*
G36*
X221856938Y-81131716D02*
G01*
X221877557Y-81137971D01*
X221896553Y-81148124D01*
X221913208Y-81161792D01*
X221926876Y-81178447D01*
X221937029Y-81197443D01*
X221943284Y-81218062D01*
X221946000Y-81245640D01*
X221946000Y-81754360D01*
X221943284Y-81781938D01*
X221937029Y-81802557D01*
X221926876Y-81821553D01*
X221913208Y-81838208D01*
X221896553Y-81851876D01*
X221877557Y-81862029D01*
X221856938Y-81868284D01*
X221829360Y-81871000D01*
X221370640Y-81871000D01*
X221343062Y-81868284D01*
X221322443Y-81862029D01*
X221303447Y-81851876D01*
X221286792Y-81838208D01*
X221273124Y-81821553D01*
X221262971Y-81802557D01*
X221256716Y-81781938D01*
X221254000Y-81754360D01*
X221254000Y-81245640D01*
X221256716Y-81218062D01*
X221262971Y-81197443D01*
X221273124Y-81178447D01*
X221286792Y-81161792D01*
X221303447Y-81148124D01*
X221322443Y-81137971D01*
X221343062Y-81131716D01*
X221370640Y-81129000D01*
X221829360Y-81129000D01*
X221856938Y-81131716D01*
G37*
G36*
X218251000Y-80201000D02*
G01*
X213149000Y-80201000D01*
X213149000Y-78599000D01*
X218251000Y-78599000D01*
X218251000Y-80201000D01*
G37*
M02*
